<?xml version="1.0" encoding="UTF-8" standalone="no"?>
<!-- Created with Inkscape (http://www.inkscape.org/) -->

<svg
   width="29.259001mm"
   height="14.817mm"
   viewBox="0 0 29.259001 14.817"
   version="1.1"
   id="svg105120"
   inkscape:version="1.2.2 (732a01da63, 2022-12-09)"
   sodipodi:docname="0000 Logo-dark_56.svg"
   inkscape:export-filename="0000 Logo-pink_gradient_56.png"
   inkscape:export-xdpi="96"
   inkscape:export-ydpi="96"
   xmlns:inkscape="http://www.inkscape.org/namespaces/inkscape"
   xmlns:sodipodi="http://sodipodi.sourceforge.net/DTD/sodipodi-0.dtd"
   xmlns:xlink="http://www.w3.org/1999/xlink"
   xmlns="http://www.w3.org/2000/svg"
   xmlns:svg="http://www.w3.org/2000/svg">
  <sodipodi:namedview
     id="namedview105122"
     pagecolor="#ffffff"
     bordercolor="#000000"
     borderopacity="0.25"
     inkscape:showpageshadow="2"
     inkscape:pageopacity="0.0"
     inkscape:pagecheckerboard="0"
     inkscape:deskcolor="#d1d1d1"
     inkscape:document-units="mm"
     showgrid="false"
     inkscape:zoom="3.2882221"
     inkscape:cx="44.248836"
     inkscape:cy="9.1234713"
     inkscape:window-width="1920"
     inkscape:window-height="1009"
     inkscape:window-x="-8"
     inkscape:window-y="-8"
     inkscape:window-maximized="1"
     inkscape:current-layer="layer1" />
  <defs
     id="defs105117">
    <linearGradient
       inkscape:collect="always"
       id="linearGradient22619">
      <stop
         style="stop-color:#f8b940;stop-opacity:1;"
         offset="0"
         id="stop22615" />
      <stop
         style="stop-color:#fcdfd8;stop-opacity:1;"
         offset="1"
         id="stop22617" />
    </linearGradient>
    <linearGradient
       inkscape:collect="always"
       id="linearGradient20903">
      <stop
         style="stop-color:#fcdfd8;stop-opacity:1;"
         offset="0"
         id="stop20899" />
      <stop
         style="stop-color:#f8f6f1;stop-opacity:1;"
         offset="1"
         id="stop20901" />
    </linearGradient>
    <linearGradient
       inkscape:collect="always"
       id="linearGradient12911">
      <stop
         style="stop-color:#f8b940;stop-opacity:1;"
         offset="0"
         id="stop12907" />
      <stop
         style="stop-color:#fcdfd8;stop-opacity:1;"
         offset="0.5"
         id="stop19510" />
      <stop
         style="stop-color:#f8f6f1;stop-opacity:1;"
         offset="1"
         id="stop12909" />
    </linearGradient>
    <linearGradient
       inkscape:collect="always"
       xlink:href="#linearGradient12911"
       id="linearGradient12913"
       x1="-9.8166018"
       y1="-0.16092792"
       x2="-1.1264952"
       y2="-0.20115986"
       gradientUnits="userSpaceOnUse" />
    <linearGradient
       inkscape:collect="always"
       xlink:href="#linearGradient20903"
       id="linearGradient20905"
       x1="-10.621242"
       y1="6.51758"
       x2="-1.528815"
       y2="6.6785078"
       gradientUnits="userSpaceOnUse" />
    <linearGradient
       inkscape:collect="always"
       xlink:href="#linearGradient22619"
       id="linearGradient22621"
       x1="-10.379849"
       y1="12.310984"
       x2="-2.4139185"
       y2="12.23052"
       gradientUnits="userSpaceOnUse" />
  </defs>
  <g
     inkscape:label="Layer 1"
     inkscape:groupmode="layer"
     id="layer1">
    <g
       id="g81507"
       transform="matrix(0.00685045,0,0,0.00685045,-5.4144646,-6.4776758)"
       inkscape:label="보라그라"
       style="display:none">
      <path
         id="path81487"
         style="opacity:1;fill:#463072;fill-opacity:1;fill-rule:evenodd;stroke:none;stroke-width:20;stroke-dasharray:none;stroke-opacity:1;paint-order:fill markers stroke"
         d="m 2039.4648,945.58398 a 513.84497,513.84497 0 0 0 -513.8437,513.84572 513.84497,513.84497 0 0 0 117.0898,325.2539 l -104.3711,173.7266 a 586.49255,586.49255 0 0 0 -161.4668,-22.9356 586.49255,586.49255 0 0 0 -586.49214,586.4922 586.49255,586.49255 0 0 0 586.49214,586.4922 586.49255,586.49255 0 0 0 586.4942,-586.4922 586.49255,586.49255 0 0 0 -191.6543,-432.4746 l 89.7695,-149.4199 a 513.84497,513.84497 0 0 0 177.9824,33.2031 513.84497,513.84497 0 0 0 513.8457,-513.8457 513.84497,513.84497 0 0 0 -14.3964,-120.3926 l 105.8086,-57.8281 c 65.0332,-35.5433 88.7737,-116.5137 53.2304,-181.5469 -35.5433,-65.0332 -116.5136,-88.7737 -181.5469,-53.2305 l -105.8124,57.8321 a 513.84497,513.84497 0 0 0 -371.129,-158.67972 z m 0,267.55472 a 246.29143,246.29143 0 0 1 246.293,246.291 246.29143,246.29143 0 0 1 -246.293,246.291 246.29143,246.29143 0 0 1 -246.291,-246.291 246.29143,246.29143 0 0 1 246.291,-246.291 z m -662.5918,989.8886 a 318.939,318.939 0 0 1 318.9395,318.9395 318.939,318.939 0 0 1 -318.9395,318.9394 318.939,318.939 0 0 1 -318.9375,-318.9394 318.939,318.939 0 0 1 318.9375,-318.9395 z"
         inkscape:label="g" />
      <path
         id="path81489"
         style="color:#000000;fill:#705064;fill-opacity:1;stroke:none;stroke-width:20;stroke-dasharray:none;stroke-opacity:1;paint-order:fill markers stroke"
         inkscape:label="a"
         d="m 2957.3121,1690.0919 c -2.0652,-0.017 -4.1507,0.044 -6.2424,0.234 -15.4126,1.3977 -29.6157,8.5151 -40.7574,19.3254 -6.2423,6.0566 -10.7478,13.4047 -13.9933,21.5361 -28.3387,-18.1416 -61.4073,-31.2801 -93.7397,-36.8039 -78.8662,-13.4736 -155.944,6.0811 -215.1797,55.427 -65.2218,54.3329 -100.4874,128.6109 -100.6062,212.4226 -0.1067,75.0893 27.9291,141.867 81.7751,195.152 44.2508,43.7896 98.724,69.8547 158.4001,75.1686 l 1.1185,0.104 h 0.8843 c 22.1784,1.7585 52.0856,0.5836 73.4519,-3.0692 32.4916,-5.5548 64.5666,-18.2747 93.1154,-36.4658 1.7796,4.3354 3.9653,8.2511 6.3464,11.6004 13.9341,19.5985 36.859,31.0431 60.8111,28.871 29.2491,-2.6523 52.8911,-24.9193 58.132,-53.7884 0.9259,-5.1022 0.6549,-7.1313 0.7543,-10.2479 0.1222,-3.8316 0.2129,-8.85 0.3121,-15.0077 0.1985,-12.3179 0.3638,-29.1277 0.4942,-49.0026 0.261,-39.7508 0.3932,-91.7007 0.3902,-143.6525 0,-51.9523 -0.1247,-103.9012 -0.3902,-143.6265 -0.1327,-19.8618 -0.2942,-36.6512 -0.4942,-48.9506 -0.099,-6.1507 -0.2155,-11.1647 -0.3381,-14.9817 -0.098,-3.0578 0.184,-5.0558 -0.7803,-10.2739 -5.089,-27.5248 -26.9336,-48.6152 -53.5543,-53.0601 v -0.8323 z M 2751.6,1822.8202 c 23.3934,-0.2969 47.2677,4.9322 64.2964,14.2534 32.0971,17.5695 57.5066,48.1512 67.3916,79.6682 10.8327,34.5379 7.5847,78.7827 -6.9706,107.915 -20.0708,40.1709 -57.3526,68.3937 -95.2742,74.6223 -22.8098,3.7464 -30.3446,3.7564 -52.3839,0.1561 -37.8932,-6.1901 -76.8104,-35.7458 -96.8088,-76.1049 -9.4823,-19.1359 -12.9187,-34.6916 -12.8749,-61.3313 0.036,-21.7857 1.3261,-30.1133 7.1527,-47.1819 12.8582,-37.6672 48.5914,-73.3179 85.4685,-85.6505 12.1091,-4.0496 25.9674,-6.1685 40.0032,-6.3464 z"
         transform="translate(-6.2272886e-5,-1.573624e-4)" />
      <path
         id="path81491"
         style="color:#000000;display:inline;fill:#9e7356;fill-opacity:1;stroke:none;stroke-width:20;stroke-dasharray:none;stroke-opacity:1;paint-order:fill markers stroke"
         inkscape:label="t"
         d="m 3267.0378,1523.2646 -3.7455,0.078 -0.208,0.1821 c -13.7581,1.0878 -27.4299,6.561 -38.5207,16.8804 -6.2067,5.7752 -11.7019,12.4417 -15.6839,20.9379 l -5.5922,11.9385 -0.026,73.4779 v 43.2024 l -12.9009,0.1561 -43.6706,0.4942 -12.3286,6.5024 c -12.729,6.7183 -23.1887,17.0654 -29.8854,29.9114 -5.0311,9.6505 -5.3838,17.8998 -5.8262,25.3596 -0.6909,11.6516 1.3785,22.1627 6.2944,32.1482 7.4281,15.0895 19.9936,27.1958 35.7636,33.2666 10.8735,4.1855 20.9807,4.095 50.9273,4.5517 l 11.6264,0.1821 v 165.4228 l 0.026,195.8023 5.8783,12.0945 c 7.9787,16.3887 21.8419,29.3536 39.2489,35.0353 8.4431,2.7556 16.3625,3.0566 23.9551,2.653 24.3467,-1.2946 45.9894,-16.0374 56.1813,-38.1824 l 5.4621,-11.8605 0.3641,-195.4902 0.3382,-165.4228 11.5744,-0.156 c 17.1641,-0.2252 26.3594,-0.3142 33.7348,-0.9364 8.0274,-0.6773 14.6633,-2.7605 19.4814,-4.9679 13.4603,-6.1671 24.9564,-16.2522 31.9661,-29.8333 18.0108,-34.8959 1.4147,-78.6429 -35.3474,-92.4911 -5.0828,-1.9146 -11.3873,-3.3564 -18.9872,-3.8494 -7.23,-0.469 -16.3276,-0.5203 -32.2263,-0.5202 h -10.2219 l -0.26,-43.1244 c -0.1974,-33.0532 -0.2993,-49.9703 -0.7803,-60.629 -0.5069,-11.2344 -2.474,-18.8602 -4.8899,-24.0851 -11.6109,-25.1114 -36.615,-39.1454 -61.7214,-38.7027 z"
         transform="translate(-5.9423752e-5,-1.2926749e-4)" />
      <path
         id="path81493"
         style="color:#000000;display:inline;fill:#9e7356;fill-opacity:1;stroke:none;stroke-width:20;stroke-dasharray:none;stroke-opacity:1;paint-order:fill markers stroke"
         inkscape:label="h"
         d="m 3587.1153,1521.808 c -24.3684,-0.5701 -48.7373,12.4627 -60.8631,36.2057 l -6.1643,12.0686 v 306.9685 306.5263 l 5.28,11.2883 c 6.4311,13.6868 17.5318,24.2787 30.7436,31.0297 9.6463,4.9285 19.6842,6.3464 29.0011,6.3464 9.3167,0 19.3551,-1.418 29.001,-6.3464 13.2122,-6.7511 24.3126,-17.3432 30.7437,-31.0297 1.3066,-2.7809 2.9806,-7.1249 3.7974,-12.6929 0.7008,-4.7772 0.9756,-9.9556 1.2225,-18.3109 0.4957,-16.7768 0.7069,-46.8741 1.1184,-106.4844 0.2289,-33.1648 0.531,-63.7746 0.8583,-86.3267 0.1636,-11.2757 0.3383,-20.5406 0.4942,-27.0243 0.078,-3.2404 0.143,-5.8235 0.2081,-7.4648 0.013,-0.3344 0.041,-0.4738 0.052,-0.7023 0.6374,-2.8047 1.4035,-6.3068 2.0808,-9.6237 8.3114,-40.6903 38.6473,-79.9583 71.9433,-95.6122 16.2558,-7.6425 21.2423,-8.6154 44.815,-8.5833 25.2043,0.035 28.4956,0.7254 47.39,10.43 34.2437,17.5888 59.8627,51.6972 69.6025,95.5602 2.1248,9.5687 3.6766,38.3399 3.7454,140.9475 0.029,43.5323 0.1203,70.7301 0.4162,87.9134 0.1479,8.5881 0.3577,14.6572 0.6502,19.3513 0.2468,3.9595 0.2642,8.2233 2.3409,14.0453 6.8864,19.3065 22.3261,34.4759 41.9539,40.6014 30.9452,9.657 64.627,-4.8485 78.914,-33.9428 l 6.3984,-13.083 0.4682,-114.8076 c 0.453,-117.199 -0.3971,-141.4615 -6.4244,-170.2606 -8.8569,-42.3177 -27.8152,-82.1658 -55.115,-115.7959 -14.6703,-18.0721 -40.1721,-42.0947 -58.5482,-54.3866 -33.6504,-22.5085 -69.763,-35.0485 -111.1922,-38.8328 -22.9175,-2.0936 -51.3459,-0.5937 -72.4896,4.2657 -23.7031,5.4479 -46.8968,15.0283 -68.3539,27.7525 l -0.3642,-48.6905 -0.7282,-103.1031 -6.1124,-11.9906 c -4.0611,-7.9516 -9.44,-14.3511 -15.5799,-19.8715 -11.9021,-10.7009 -26.683,-15.9921 -41.3037,-16.3342 z"
         transform="translate(-6.2272886e-5,-1.573624e-4)" />
      <path
         id="path81495"
         style="color:#000000;display:inline;fill:#d19a45;fill-opacity:1;stroke:none;stroke-width:20;stroke-dasharray:none;stroke-opacity:1;paint-order:fill markers stroke"
         inkscape:label="e"
         d="m 4380.2346,1690.0919 c -104.1142,-1.3816 -202.1011,58.3956 -249.7469,153.7703 -27.3029,54.653 -33.9821,122.6332 -18.6751,183.7857 12.4083,49.5726 38.2225,94.0902 75.0905,129.4771 47.8358,45.9141 104.5736,71.5976 168.8822,76.0529 19.0497,1.3197 55.5812,-0.092 74.4402,-2.8871 61.5162,-9.1156 108.7058,-25.6103 150.077,-66.5332 9.7579,-9.6524 16.9896,-17.0657 22.3425,-26.6602 5.6735,-10.1694 7.1198,-21.0187 7.0487,-30.6396 -0.1833,-24.6301 -15.0665,-39.8174 -35.4254,-49.9909 -9.3008,-4.6475 -19.2551,-4.8696 -30.1715,-4.8379 -8.9269,0.025 -18.9629,3.1786 -28.5849,8.1411 -7.908,4.0783 -13.5562,6.8476 -24.7354,13.4211 -29.5271,17.3624 -41.8785,20.3587 -79.9023,26.348 -13.9608,2.199 -48.0642,2.2459 -56.9356,0.8063 -9.5112,-1.5434 -32.0625,-8.8247 -38.3906,-11.9905 -25.8001,-12.9071 -50.7367,-36.8071 -63.3601,-59.6147 6.3606,-0.044 11.5251,-0.067 19.9236,-0.104 34.0738,-0.1504 80.9967,-0.2601 132.5203,-0.2601 91.9559,0 138.7938,-0.01 164.0443,-0.3641 12.6142,-0.1783 19.8334,-0.4014 25.4377,-0.9104 6.1154,-0.5554 10.9077,-1.866 14.1234,-3.0691 16.3252,-6.108 29.1969,-18.5148 36.4658,-34.125 4.1202,-8.8495 5.6068,-18.6373 5.5921,-32.0962 -0.053,-63.8534 -26.7823,-129.9378 -71.5792,-179.0259 -46.4837,-50.9366 -107.9316,-81.1473 -177.5954,-87.5752 -3.6833,-0.3399 -7.3542,-0.4132 -11.0282,-0.5982 v -0.3902 z m 3.1211,131.974 c 13.7822,0.4417 27.1883,2.7405 38.8588,6.7886 34.9249,12.114 63.3944,36.6417 79.9284,67.6257 -2.8219,0.033 -4.6366,0.077 -8.1671,0.104 -28.0742,0.2208 -68.3915,0.3381 -117.0445,0.3381 h -124.8734 c 14.1261,-26.5129 36.9722,-48.6793 65.4929,-62.1896 18.8438,-8.9265 42.8346,-13.3768 65.8049,-12.6408 z"
         transform="translate(-6.2272886e-5,-1.573624e-4)" />
      <path
         id="path81497"
         style="color:#000000;display:inline;fill:#d19a45;fill-opacity:1;stroke:none;stroke-width:20;stroke-dasharray:none;stroke-opacity:1;paint-order:fill markers stroke"
         inkscape:label="r"
         d="m 4997.501,1690.0398 c -7.4538,-0.2852 -15.1609,0.3364 -26.1139,1.4046 -36.419,3.5519 -72.156,16.182 -102.9471,35.9456 -2.3677,-5.1976 -5.3686,-10.1194 -9.2595,-14.5395 -29.9056,-33.9748 -85.4072,-27.43 -107.3428,12.1726 l -7.2307,13.031 -0.3642,221.0318 c -0.1578,93.4933 -0.1911,147.3563 0.052,178.8699 0.2397,31.2851 -0.4248,39.2728 2.653,49.8609 6.2603,21.5348 23.8335,36.9864 44.529,43.8006 9.5367,3.1396 17.5138,2.3322 24.0071,1.6906 6.8932,-0.681 14.5751,-1.7849 22.6546,-5.6961 13.6399,-6.6033 24.7241,-17.5055 31.2378,-31.3679 1.2982,-2.7628 2.9784,-7.0646 3.7975,-12.6148 0.7034,-4.7648 0.9796,-9.9377 1.2224,-18.2069 0.4875,-16.606 0.6609,-46.3458 1.0404,-105.288 0.4238,-65.8076 0.6866,-98.8588 1.8207,-116.9403 1.1461,-18.2713 2.0942,-19.2746 6.6586,-32.3303 7.9891,-22.8508 17.1437,-37.4956 33.8648,-54.3086 23.5564,-23.686 39.8004,-31.228 73.1138,-33.9689 11.0331,-0.9079 20.4547,-2.15 29.7553,-5.8522 9.6487,-3.841 17.2712,-10.1386 23.4089,-16.8544 12.2296,-13.3812 18.7139,-30.9672 17.2705,-48.9506 -2.0513,-25.5528 -18.8459,-47.673 -42.8382,-56.6495 -6.1417,-2.2978 -13.2043,-3.9413 -20.99,-4.2396 z"
         transform="translate(-6.2272886e-5,-1.573624e-4)" />
      <path
         id="path81499"
         style="color:#000000;display:inline;fill:#705064;fill-opacity:1;stroke:none;stroke-width:20;stroke-dasharray:none;stroke-opacity:1;paint-order:fill markers stroke"
         inkscape:label="L"
         d="m 2227.683,2166.6186 v 0.026 c -11.0975,-0.017 -22.2117,2.5498 -32.3563,7.7249 -17.3317,8.8418 -30.2838,24.326 -36.3618,42.8122 -1.8135,5.5156 -2.6044,11.1404 -2.8611,20.3397 -0.2566,9.1994 -0.1565,22.7343 -0.2861,46.4277 -0.2601,47.5563 -0.1925,133.7558 -0.026,292.4029 0.1464,139.1942 0.328,225.5654 0.6502,277.7594 0.161,26.0968 0.3446,43.6353 0.5983,55.1409 0.1267,5.7504 0.2648,9.9702 0.4421,13.239 0.088,1.617 0.1861,3.0488 0.3382,4.4997 -0.022,-0.2062 0.1671,3.2782 1.4825,7.1007 2.932,8.5205 7.6008,14.6754 12.0686,20.1317 4.6249,5.648 9.9491,11.2868 16.8024,15.892 6.5296,4.3876 13.3316,7.2344 20.4698,9.1555 9.9813,2.6852 17.9055,2.1962 44.1647,2.4969 26.481,0.3033 70.3276,0.4032 143.9387,0.4422 90.576,0.047 136.1152,0.074 161.5214,-0.6763 12.675,-0.3742 20.5371,-0.859 27.4144,-2.0808 7.3908,-1.3129 13.1474,-3.9257 16.5943,-5.6701 15.7898,-7.9907 27.5604,-21.3915 33.7088,-37.8184 l 0.6502,-1.6906 v -0.2861 c 5.6199,-16.3735 5.4503,-34.3241 -0.6242,-50.5632 -6.2696,-16.7557 -19.1246,-29.6206 -34.4631,-37.7143 l -12.4327,-6.5545 -160.0648,-0.7283 -129.0871,-0.5722 -0.6502,-293.3653 -0.7023,-323.5888 -5.384,-11.9125 c -6.855,-15.1426 -18.6862,-27.0534 -33.2146,-34.5151 -10.1287,-5.2019 -21.2338,-7.8376 -32.3303,-7.855 z"
         transform="translate(-6.2272886e-5,-1.573624e-4)" />
      <path
         id="path81501"
         style="color:#000000;display:inline;fill:#705064;fill-opacity:1;stroke:none;stroke-width:20;stroke-dasharray:none;stroke-opacity:1;paint-order:fill markers stroke"
         inkscape:label="i"
         d="m 2846.536,2273.103 c -13.2573,0 -23.1336,1.788 -32.3042,6.0864 -47.0628,22.0582 -59.1241,84.6323 -23.8771,122.8706 9.2436,10.0282 21.1644,17.2976 33.9949,21.4581 6.3357,2.0539 10.3096,1.7598 12.5108,1.8727 3.6101,0.1851 7.6128,0.2558 11.6784,0.1561 11.6135,-0.2846 21.2645,-2.1121 30.2235,-6.2944 39.4459,-18.4144 55.886,-66.2811 36.1797,-105.1059 -7.6463,-15.0647 -20.0208,-26.9245 -35.3214,-34.437 -9.3989,-4.6146 -19.4587,-6.6066 -33.0846,-6.6066 z m 0,188.9877 c -18.0812,0 -34.7337,8.1644 -47.0778,20.8079 -0.238,0.2435 -1.4142,1.2054 -3.5894,3.3033 -2.7543,2.6562 -5.9565,6.4633 -8.3752,11.7565 -4.2209,9.2375 -4.9211,18.3888 -5.5921,32.5643 -1.3616,28.7685 -0.9595,60.1351 -0.7543,182.5373 l 0.3641,222.3063 6.0083,11.0802 c 8.551,15.7963 22.6881,27.9333 40.1593,33.2666 8.962,2.7357 15.9507,2.3425 22.3165,2.0288 17.5175,-0.8637 33.854,-8.8155 45.5953,-21.8743 0.1227,-0.1364 1.4211,-1.3516 3.5113,-3.6414 2.6515,-2.9047 5.4208,-6.7921 7.4388,-11.8865 3.5165,-8.8772 4.1349,-17.611 4.7338,-31.758 1.2128,-28.646 0.877,-83.8403 0.6763,-204.5416 -0.1755,-105.5483 -0.2785,-135.3347 -0.6763,-163.8622 -0.1987,-14.2519 -0.4292,-22.1263 -0.9363,-27.9866 -0.5834,-6.7442 -1.987,-11.7944 -4.0576,-15.9961 -11.191,-22.7103 -34.0337,-38.1045 -59.7447,-38.1045 z"
         transform="translate(-6.2272886e-5,-1.573624e-4)" />
      <path
         id="path81503"
         style="color:#000000;display:inline;fill:#9e7356;fill-opacity:1;stroke:none;stroke-width:20;stroke-dasharray:none;stroke-opacity:1;paint-order:fill markers stroke"
         inkscape:label="v"
         d="m 3441.356,2438.1097 c -18.1022,-0.066 -33.5775,8.5708 -45.2572,20.3657 -2.4046,2.4283 -5.9354,6.4554 -9.1555,12.0686 -2.9824,5.199 -6.0857,11.7323 -11.0542,22.8366 -9.9503,22.2389 -27.305,63.1507 -61.5654,143.9386 -18.2845,43.1153 -34.6261,81.2862 -47.2079,110.3859 -12.1701,-28.411 -27.8816,-65.2278 -45.4913,-106.6404 -18.4978,-43.5014 -35.8342,-83.9668 -48.8465,-114.1574 -6.5063,-15.0947 -11.9117,-27.6125 -15.8921,-36.6999 -1.9904,-4.5442 -3.6219,-8.2354 -4.8638,-11.0022 -1.1589,-2.5819 -1.7392,-4.0558 -3.0952,-6.5544 -12.6297,-23.271 -38.1829,-37.4939 -64.7646,-33.6568 -32.9509,4.757 -58.3432,32.4686 -58.0801,65.7789 0.032,4.0819 0.7587,9.721 2.9131,16.4903 2.0016,6.2891 5.1342,14.4415 10.8982,28.5588 11.5361,28.2542 33.6799,80.3151 76.9632,181.9911 24.4019,57.322 46.9796,110.1756 63.7242,149.1926 8.3724,19.5085 15.2787,35.5656 20.2357,46.9998 2.4786,5.7173 4.4727,10.2699 5.9303,13.5772 1.3319,3.0219 1.6568,4.1239 3.3812,7.3348 7.49,13.9488 19.6984,25.1472 35.2694,30.1714 8.6075,2.777 17.1514,3.0744 25.8278,2.627 23.6677,-1.2211 44.4568,-14.8383 55.0109,-36.0497 1.3134,-2.6399 1.6125,-3.526 2.9131,-6.5285 1.3755,-3.1754 3.2919,-7.6104 5.6962,-13.213 4.8078,-11.2037 11.5686,-27.023 19.7935,-46.2975 16.4499,-38.5493 38.7485,-90.9396 62.9439,-147.8921 32.4399,-76.3592 54.4982,-128.6149 68.5621,-162.5617 7.0316,-16.9728 12.0553,-29.3553 15.4498,-38.0525 1.6962,-4.3464 2.9953,-7.7701 3.9796,-10.586 0.5373,-1.5365 1.9931,-4.4544 2.5749,-10.0918 2.4664,-23.8959 -8.3647,-47.3429 -28.4808,-60.655 -11.4775,-7.5956 -24.4372,-11.6266 -38.3125,-11.6784 z"
         transform="translate(-6.2272886e-5,-1.573624e-4)" />
      <path
         id="path81505"
         style="color:#000000;display:inline;fill:#d19a45;fill-opacity:1;stroke:none;stroke-width:20;stroke-dasharray:none;stroke-opacity:1;paint-order:fill markers stroke"
         inkscape:label="e"
         d="m 3837.5905,2438.4218 c -74.3979,-1.3956 -146.3246,27.1593 -199.86,80.9167 -42.5577,42.7336 -68.3605,93.6499 -76.8071,152.0797 -3.2967,22.8044 -3.0526,59.8312 0.6762,82.3732 11.5257,69.6758 49.4044,131.4334 106.8746,174.8904 41.1457,31.1129 89.8086,49.1313 142.014,52.748 19.0492,1.3195 55.555,-0.092 74.4142,-2.8871 33.6,-4.9788 65.0871,-15.4023 91.7889,-29.7813 17.1518,-9.2365 34.2297,-19.3051 48.7685,-31.706 14.3674,-12.2545 24.6959,-20.1969 32.0702,-34.7492 7.8795,-15.5493 9.0491,-32.1668 3.8755,-46.6617 -5.1735,-14.4949 -16.4226,-24.6017 -31.6541,-32.4864 -9.5509,-4.9444 -19.6895,-3.3344 -30.8737,-3.3032 -8.9176,0.025 -18.8615,1.1471 -28.4548,6.0343 -7.8905,4.0196 -12.2989,5.9054 -24.5533,13.161 -34.7568,20.5788 -48.8097,26.3525 -98.3954,30.5616 -47.1765,4.0046 -85.5311,-9.9632 -118.6831,-43.0984 -7.009,-7.0055 -16.5483,-20.0321 -22.0824,-29.6772 6.9082,-0.049 12.6242,-0.082 21.7703,-0.1301 34.4223,-0.1782 81.6849,-0.3471 133.4827,-0.4422 l 194.2418,-0.3641 11.5744,-5.6701 c 13.0951,-6.4528 23.8859,-16.7903 30.6916,-29.8334 8.6639,-16.6043 7.4804,-34.0432 5.7742,-52.8 -1.7607,-19.3562 -6.0892,-40.9127 -12.8228,-61.2012 -30.6837,-92.4492 -108.4132,-162.8193 -202.1228,-182.1731 -17.234,-3.5593 -34.5394,-5.4777 -51.7076,-5.8002 z m -3.1993,131.6619 c 37.6758,0.5016 71.8767,15.2151 99.3058,43.2284 7.8095,7.9759 16.0579,19.787 22.6025,31.68 -3.6363,0.014 -6.2059,0.04 -10.742,0.052 -29.2409,0.08 -69.6019,0.13 -114.0013,0.13 -44.3937,0 -84.7711,-0.077 -114.0013,-0.1821 -4.5008,-0.016 -7.0434,-0.033 -10.6381,-0.052 22.1838,-41.7692 63.0824,-69.6448 111.1142,-74.2061 5.5173,-0.5239 10.978,-0.722 16.3602,-0.6503 z" />
    </g>
    <g
       id="g12634"
       transform="matrix(0.16827911,0,0,0.18764776,-2.1280924,-10.667449)">
      <rect
         style="fill:#222b40;fill-opacity:1;fill-rule:evenodd;stroke-width:3;paint-order:stroke fill markers"
         id="rect354"
         width="19.680723"
         height="31.489157"
         x="5.3674703"
         y="7.1566262" />
      <rect
         style="fill:#583bac;fill-opacity:1;fill-rule:evenodd;stroke-width:3;paint-order:stroke fill markers"
         id="rect1238"
         width="22.185541"
         height="30.057831"
         x="28.984335"
         y="7.1566267" />
      <rect
         style="fill:#3e4b99;fill-opacity:1;fill-rule:evenodd;stroke-width:3;paint-order:stroke fill markers"
         id="rect1499"
         width="18.607229"
         height="36.140961"
         x="57.610844"
         y="7.5144577" />
      <rect
         style="fill:#f8b940;fill-opacity:1;fill-rule:evenodd;stroke-width:3;paint-order:stroke fill markers"
         id="rect1691"
         width="17.533735"
         height="36.856625"
         x="83.732529"
         y="6.4409637" />
      <rect
         style="fill:#fcdfd8;fill-opacity:1;fill-rule:evenodd;stroke-width:3;paint-order:stroke fill markers"
         id="rect1745"
         width="17.891565"
         height="34.709637"
         x="106.99156"
         y="7.1566267" />
      <rect
         style="fill:#f8f6f1;fill-opacity:1;fill-rule:evenodd;stroke-width:3;paint-order:stroke fill markers"
         id="rect1868"
         width="21.469879"
         height="36.856625"
         x="130.96626"
         y="7.5144577" />
      <rect
         style="fill:#f2efeb;fill-opacity:1;fill-rule:evenodd;stroke-width:3;paint-order:stroke fill markers"
         id="rect2060"
         width="15.744578"
         height="39.719276"
         x="157.80362"
         y="6.0831323" />
      <rect
         style="fill:#ff4a60;fill-opacity:1;fill-rule:evenodd;stroke-width:3;paint-order:stroke fill markers"
         id="rect3128"
         width="21.827711"
         height="32.204819"
         x="178.2"
         y="7.8722858" />
    </g>
    <rect
       style="fill:url(#linearGradient12913);fill-rule:evenodd;stroke-width:3;paint-order:stroke fill markers;fill-opacity:1"
       id="rect12905"
       width="10.17869"
       height="4.3852854"
       x="-10.621241"
       y="-2.2127585" />
    <g
       id="g13298"
       transform="matrix(0.00685045,0,0,0.00685045,-5.4144646,-6.4776758)"
       inkscape:label="삼색그라"
       style="display:none">
      <path
         id="path13278"
         style="opacity:1;fill:#f8ba44;fill-opacity:1;fill-rule:evenodd;stroke:none;stroke-width:20;stroke-dasharray:none;stroke-opacity:1;paint-order:fill markers stroke"
         d="m 2039.4648,945.58398 a 513.84497,513.84497 0 0 0 -513.8437,513.84572 513.84497,513.84497 0 0 0 117.0898,325.2539 l -104.3711,173.7266 a 586.49255,586.49255 0 0 0 -161.4668,-22.9356 586.49255,586.49255 0 0 0 -586.49214,586.4922 586.49255,586.49255 0 0 0 586.49214,586.4922 586.49255,586.49255 0 0 0 586.4942,-586.4922 586.49255,586.49255 0 0 0 -191.6543,-432.4746 l 89.7695,-149.4199 a 513.84497,513.84497 0 0 0 177.9824,33.2031 513.84497,513.84497 0 0 0 513.8457,-513.8457 513.84497,513.84497 0 0 0 -14.3964,-120.3926 l 105.8086,-57.8281 c 65.0332,-35.5433 88.7737,-116.5137 53.2304,-181.5469 -35.5433,-65.0332 -116.5136,-88.7737 -181.5469,-53.2305 l -105.8124,57.8321 a 513.84497,513.84497 0 0 0 -371.129,-158.67972 z m 0,267.55472 a 246.29143,246.29143 0 0 1 246.293,246.291 246.29143,246.29143 0 0 1 -246.293,246.291 246.29143,246.29143 0 0 1 -246.291,-246.291 246.29143,246.29143 0 0 1 246.291,-246.291 z m -662.5918,989.8886 a 318.939,318.939 0 0 1 318.9395,318.9395 318.939,318.939 0 0 1 -318.9395,318.9394 318.939,318.939 0 0 1 -318.9375,-318.9394 318.939,318.939 0 0 1 318.9375,-318.9395 z"
         inkscape:label="g" />
      <path
         id="path13280"
         style="color:#000000;fill:#face93;fill-opacity:1;stroke:none;stroke-width:20;stroke-dasharray:none;stroke-opacity:1;paint-order:fill markers stroke"
         inkscape:label="a"
         d="m 2957.3121,1690.0919 c -2.0652,-0.017 -4.1507,0.044 -6.2424,0.234 -15.4126,1.3977 -29.6157,8.5151 -40.7574,19.3254 -6.2423,6.0566 -10.7478,13.4047 -13.9933,21.5361 -28.3387,-18.1416 -61.4073,-31.2801 -93.7397,-36.8039 -78.8662,-13.4736 -155.944,6.0811 -215.1797,55.427 -65.2218,54.3329 -100.4874,128.6109 -100.6062,212.4226 -0.1067,75.0893 27.9291,141.867 81.7751,195.152 44.2508,43.7896 98.724,69.8547 158.4001,75.1686 l 1.1185,0.104 h 0.8843 c 22.1784,1.7585 52.0856,0.5836 73.4519,-3.0692 32.4916,-5.5548 64.5666,-18.2747 93.1154,-36.4658 1.7796,4.3354 3.9653,8.2511 6.3464,11.6004 13.9341,19.5985 36.859,31.0431 60.8111,28.871 29.2491,-2.6523 52.8911,-24.9193 58.132,-53.7884 0.9259,-5.1022 0.6549,-7.1313 0.7543,-10.2479 0.1222,-3.8316 0.2129,-8.85 0.3121,-15.0077 0.1985,-12.3179 0.3638,-29.1277 0.4942,-49.0026 0.261,-39.7508 0.3932,-91.7007 0.3902,-143.6525 0,-51.9523 -0.1247,-103.9012 -0.3902,-143.6265 -0.1327,-19.8618 -0.2942,-36.6512 -0.4942,-48.9506 -0.099,-6.1507 -0.2155,-11.1647 -0.3381,-14.9817 -0.098,-3.0578 0.184,-5.0558 -0.7803,-10.2739 -5.089,-27.5248 -26.9336,-48.6152 -53.5543,-53.0601 v -0.8323 z M 2751.6,1822.8202 c 23.3934,-0.2969 47.2677,4.9322 64.2964,14.2534 32.0971,17.5695 57.5066,48.1512 67.3916,79.6682 10.8327,34.5379 7.5847,78.7827 -6.9706,107.915 -20.0708,40.1709 -57.3526,68.3937 -95.2742,74.6223 -22.8098,3.7464 -30.3446,3.7564 -52.3839,0.1561 -37.8932,-6.1901 -76.8104,-35.7458 -96.8088,-76.1049 -9.4823,-19.1359 -12.9187,-34.6916 -12.8749,-61.3313 0.036,-21.7857 1.3261,-30.1133 7.1527,-47.1819 12.8582,-37.6672 48.5914,-73.3179 85.4685,-85.6505 12.1091,-4.0496 25.9674,-6.1685 40.0032,-6.3464 z"
         transform="translate(-6.2272886e-5,-1.573624e-4)" />
      <path
         id="path13282"
         style="color:#000000;display:inline;fill:#fbe7e1;fill-opacity:1;stroke:none;stroke-width:20;stroke-dasharray:none;stroke-opacity:1;paint-order:fill markers stroke"
         inkscape:label="t"
         d="m 3267.0378,1523.2646 -3.7455,0.078 -0.208,0.1821 c -13.7581,1.0878 -27.4299,6.561 -38.5207,16.8804 -6.2067,5.7752 -11.7019,12.4417 -15.6839,20.9379 l -5.5922,11.9385 -0.026,73.4779 v 43.2024 l -12.9009,0.1561 -43.6706,0.4942 -12.3286,6.5024 c -12.729,6.7183 -23.1887,17.0654 -29.8854,29.9114 -5.0311,9.6505 -5.3838,17.8998 -5.8262,25.3596 -0.6909,11.6516 1.3785,22.1627 6.2944,32.1482 7.4281,15.0895 19.9936,27.1958 35.7636,33.2666 10.8735,4.1855 20.9807,4.095 50.9273,4.5517 l 11.6264,0.1821 v 165.4228 l 0.026,195.8023 5.8783,12.0945 c 7.9787,16.3887 21.8419,29.3536 39.2489,35.0353 8.4431,2.7556 16.3625,3.0566 23.9551,2.653 24.3467,-1.2946 45.9894,-16.0374 56.1813,-38.1824 l 5.4621,-11.8605 0.3641,-195.4902 0.3382,-165.4228 11.5744,-0.156 c 17.1641,-0.2252 26.3594,-0.3142 33.7348,-0.9364 8.0274,-0.6773 14.6633,-2.7605 19.4814,-4.9679 13.4603,-6.1671 24.9564,-16.2522 31.9661,-29.8333 18.0108,-34.8959 1.4147,-78.6429 -35.3474,-92.4911 -5.0828,-1.9146 -11.3873,-3.3564 -18.9872,-3.8494 -7.23,-0.469 -16.3276,-0.5203 -32.2263,-0.5202 h -10.2219 l -0.26,-43.1244 c -0.1974,-33.0532 -0.2993,-49.9703 -0.7803,-60.629 -0.5069,-11.2344 -2.474,-18.8602 -4.8899,-24.0851 -11.6109,-25.1114 -36.615,-39.1454 -61.7214,-38.7027 z"
         transform="translate(-5.9423752e-5,-1.2926749e-4)" />
      <path
         id="path13284"
         style="color:#000000;display:inline;fill:#fbe7e1;fill-opacity:1;stroke:none;stroke-width:20;stroke-dasharray:none;stroke-opacity:1;paint-order:fill markers stroke"
         inkscape:label="h"
         d="m 3587.1153,1521.808 c -24.3684,-0.5701 -48.7373,12.4627 -60.8631,36.2057 l -6.1643,12.0686 v 306.9685 306.5263 l 5.28,11.2883 c 6.4311,13.6868 17.5318,24.2787 30.7436,31.0297 9.6463,4.9285 19.6842,6.3464 29.0011,6.3464 9.3167,0 19.3551,-1.418 29.001,-6.3464 13.2122,-6.7511 24.3126,-17.3432 30.7437,-31.0297 1.3066,-2.7809 2.9806,-7.1249 3.7974,-12.6929 0.7008,-4.7772 0.9756,-9.9556 1.2225,-18.3109 0.4957,-16.7768 0.7069,-46.8741 1.1184,-106.4844 0.2289,-33.1648 0.531,-63.7746 0.8583,-86.3267 0.1636,-11.2757 0.3383,-20.5406 0.4942,-27.0243 0.078,-3.2404 0.143,-5.8235 0.2081,-7.4648 0.013,-0.3344 0.041,-0.4738 0.052,-0.7023 0.6374,-2.8047 1.4035,-6.3068 2.0808,-9.6237 8.3114,-40.6903 38.6473,-79.9583 71.9433,-95.6122 16.2558,-7.6425 21.2423,-8.6154 44.815,-8.5833 25.2043,0.035 28.4956,0.7254 47.39,10.43 34.2437,17.5888 59.8627,51.6972 69.6025,95.5602 2.1248,9.5687 3.6766,38.3399 3.7454,140.9475 0.029,43.5323 0.1203,70.7301 0.4162,87.9134 0.1479,8.5881 0.3577,14.6572 0.6502,19.3513 0.2468,3.9595 0.2642,8.2233 2.3409,14.0453 6.8864,19.3065 22.3261,34.4759 41.9539,40.6014 30.9452,9.657 64.627,-4.8485 78.914,-33.9428 l 6.3984,-13.083 0.4682,-114.8076 c 0.453,-117.199 -0.3971,-141.4615 -6.4244,-170.2606 -8.8569,-42.3177 -27.8152,-82.1658 -55.115,-115.7959 -14.6703,-18.0721 -40.1721,-42.0947 -58.5482,-54.3866 -33.6504,-22.5085 -69.763,-35.0485 -111.1922,-38.8328 -22.9175,-2.0936 -51.3459,-0.5937 -72.4896,4.2657 -23.7031,5.4479 -46.8968,15.0283 -68.3539,27.7525 l -0.3642,-48.6905 -0.7282,-103.1031 -6.1124,-11.9906 c -4.0611,-7.9516 -9.44,-14.3511 -15.5799,-19.8715 -11.9021,-10.7009 -26.683,-15.9921 -41.3037,-16.3342 z"
         transform="translate(-6.2272886e-5,-1.573624e-4)" />
      <path
         id="path13286"
         style="color:#000000;display:inline;fill:#f8f6f1;fill-opacity:1;stroke:none;stroke-width:20;stroke-dasharray:none;stroke-opacity:1;paint-order:fill markers stroke"
         inkscape:label="e"
         d="m 4380.2346,1690.0919 c -104.1142,-1.3816 -202.1011,58.3956 -249.7469,153.7703 -27.3029,54.653 -33.9821,122.6332 -18.6751,183.7857 12.4083,49.5726 38.2225,94.0902 75.0905,129.4771 47.8358,45.9141 104.5736,71.5976 168.8822,76.0529 19.0497,1.3197 55.5812,-0.092 74.4402,-2.8871 61.5162,-9.1156 108.7058,-25.6103 150.077,-66.5332 9.7579,-9.6524 16.9896,-17.0657 22.3425,-26.6602 5.6735,-10.1694 7.1198,-21.0187 7.0487,-30.6396 -0.1833,-24.6301 -15.0665,-39.8174 -35.4254,-49.9909 -9.3008,-4.6475 -19.2551,-4.8696 -30.1715,-4.8379 -8.9269,0.025 -18.9629,3.1786 -28.5849,8.1411 -7.908,4.0783 -13.5562,6.8476 -24.7354,13.4211 -29.5271,17.3624 -41.8785,20.3587 -79.9023,26.348 -13.9608,2.199 -48.0642,2.2459 -56.9356,0.8063 -9.5112,-1.5434 -32.0625,-8.8247 -38.3906,-11.9905 -25.8001,-12.9071 -50.7367,-36.8071 -63.3601,-59.6147 6.3606,-0.044 11.5251,-0.067 19.9236,-0.104 34.0738,-0.1504 80.9967,-0.2601 132.5203,-0.2601 91.9559,0 138.7938,-0.01 164.0443,-0.3641 12.6142,-0.1783 19.8334,-0.4014 25.4377,-0.9104 6.1154,-0.5554 10.9077,-1.866 14.1234,-3.0691 16.3252,-6.108 29.1969,-18.5148 36.4658,-34.125 4.1202,-8.8495 5.6068,-18.6373 5.5921,-32.0962 -0.053,-63.8534 -26.7823,-129.9378 -71.5792,-179.0259 -46.4837,-50.9366 -107.9316,-81.1473 -177.5954,-87.5752 -3.6833,-0.3399 -7.3542,-0.4132 -11.0282,-0.5982 v -0.3902 z m 3.1211,131.974 c 13.7822,0.4417 27.1883,2.7405 38.8588,6.7886 34.9249,12.114 63.3944,36.6417 79.9284,67.6257 -2.8219,0.033 -4.6366,0.077 -8.1671,0.104 -28.0742,0.2208 -68.3915,0.3381 -117.0445,0.3381 h -124.8734 c 14.1261,-26.5129 36.9722,-48.6793 65.4929,-62.1896 18.8438,-8.9265 42.8346,-13.3768 65.8049,-12.6408 z"
         transform="translate(-6.2272886e-5,-1.573624e-4)" />
      <path
         id="path13288"
         style="color:#000000;display:inline;fill:#f8f6f1;fill-opacity:1;stroke:none;stroke-width:20;stroke-dasharray:none;stroke-opacity:1;paint-order:fill markers stroke"
         inkscape:label="r"
         d="m 4997.501,1690.0398 c -7.4538,-0.2852 -15.1609,0.3364 -26.1139,1.4046 -36.419,3.5519 -72.156,16.182 -102.9471,35.9456 -2.3677,-5.1976 -5.3686,-10.1194 -9.2595,-14.5395 -29.9056,-33.9748 -85.4072,-27.43 -107.3428,12.1726 l -7.2307,13.031 -0.3642,221.0318 c -0.1578,93.4933 -0.1911,147.3563 0.052,178.8699 0.2397,31.2851 -0.4248,39.2728 2.653,49.8609 6.2603,21.5348 23.8335,36.9864 44.529,43.8006 9.5367,3.1396 17.5138,2.3322 24.0071,1.6906 6.8932,-0.681 14.5751,-1.7849 22.6546,-5.6961 13.6399,-6.6033 24.7241,-17.5055 31.2378,-31.3679 1.2982,-2.7628 2.9784,-7.0646 3.7975,-12.6148 0.7034,-4.7648 0.9796,-9.9377 1.2224,-18.2069 0.4875,-16.606 0.6609,-46.3458 1.0404,-105.288 0.4238,-65.8076 0.6866,-98.8588 1.8207,-116.9403 1.1461,-18.2713 2.0942,-19.2746 6.6586,-32.3303 7.9891,-22.8508 17.1437,-37.4956 33.8648,-54.3086 23.5564,-23.686 39.8004,-31.228 73.1138,-33.9689 11.0331,-0.9079 20.4547,-2.15 29.7553,-5.8522 9.6487,-3.841 17.2712,-10.1386 23.4089,-16.8544 12.2296,-13.3812 18.7139,-30.9672 17.2705,-48.9506 -2.0513,-25.5528 -18.8459,-47.673 -42.8382,-56.6495 -6.1417,-2.2978 -13.2043,-3.9413 -20.99,-4.2396 z"
         transform="translate(-6.2272886e-5,-1.573624e-4)" />
      <path
         id="path13290"
         style="color:#000000;display:inline;fill:#face93;fill-opacity:1;stroke:none;stroke-width:20;stroke-dasharray:none;stroke-opacity:1;paint-order:fill markers stroke"
         inkscape:label="L"
         d="m 2227.683,2166.6186 v 0.026 c -11.0975,-0.017 -22.2117,2.5498 -32.3563,7.7249 -17.3317,8.8418 -30.2838,24.326 -36.3618,42.8122 -1.8135,5.5156 -2.6044,11.1404 -2.8611,20.3397 -0.2566,9.1994 -0.1565,22.7343 -0.2861,46.4277 -0.2601,47.5563 -0.1925,133.7558 -0.026,292.4029 0.1464,139.1942 0.328,225.5654 0.6502,277.7594 0.161,26.0968 0.3446,43.6353 0.5983,55.1409 0.1267,5.7504 0.2648,9.9702 0.4421,13.239 0.088,1.617 0.1861,3.0488 0.3382,4.4997 -0.022,-0.2062 0.1671,3.2782 1.4825,7.1007 2.932,8.5205 7.6008,14.6754 12.0686,20.1317 4.6249,5.648 9.9491,11.2868 16.8024,15.892 6.5296,4.3876 13.3316,7.2344 20.4698,9.1555 9.9813,2.6852 17.9055,2.1962 44.1647,2.4969 26.481,0.3033 70.3276,0.4032 143.9387,0.4422 90.576,0.047 136.1152,0.074 161.5214,-0.6763 12.675,-0.3742 20.5371,-0.859 27.4144,-2.0808 7.3908,-1.3129 13.1474,-3.9257 16.5943,-5.6701 15.7898,-7.9907 27.5604,-21.3915 33.7088,-37.8184 l 0.6502,-1.6906 v -0.2861 c 5.6199,-16.3735 5.4503,-34.3241 -0.6242,-50.5632 -6.2696,-16.7557 -19.1246,-29.6206 -34.4631,-37.7143 l -12.4327,-6.5545 -160.0648,-0.7283 -129.0871,-0.5722 -0.6502,-293.3653 -0.7023,-323.5888 -5.384,-11.9125 c -6.855,-15.1426 -18.6862,-27.0534 -33.2146,-34.5151 -10.1287,-5.2019 -21.2338,-7.8376 -32.3303,-7.855 z"
         transform="translate(-6.2272886e-5,-1.573624e-4)" />
      <path
         id="path13292"
         style="color:#000000;display:inline;fill:#face93;fill-opacity:1;stroke:none;stroke-width:20;stroke-dasharray:none;stroke-opacity:1;paint-order:fill markers stroke"
         inkscape:label="i"
         d="m 2846.536,2273.103 c -13.2573,0 -23.1336,1.788 -32.3042,6.0864 -47.0628,22.0582 -59.1241,84.6323 -23.8771,122.8706 9.2436,10.0282 21.1644,17.2976 33.9949,21.4581 6.3357,2.0539 10.3096,1.7598 12.5108,1.8727 3.6101,0.1851 7.6128,0.2558 11.6784,0.1561 11.6135,-0.2846 21.2645,-2.1121 30.2235,-6.2944 39.4459,-18.4144 55.886,-66.2811 36.1797,-105.1059 -7.6463,-15.0647 -20.0208,-26.9245 -35.3214,-34.437 -9.3989,-4.6146 -19.4587,-6.6066 -33.0846,-6.6066 z m 0,188.9877 c -18.0812,0 -34.7337,8.1644 -47.0778,20.8079 -0.238,0.2435 -1.4142,1.2054 -3.5894,3.3033 -2.7543,2.6562 -5.9565,6.4633 -8.3752,11.7565 -4.2209,9.2375 -4.9211,18.3888 -5.5921,32.5643 -1.3616,28.7685 -0.9595,60.1351 -0.7543,182.5373 l 0.3641,222.3063 6.0083,11.0802 c 8.551,15.7963 22.6881,27.9333 40.1593,33.2666 8.962,2.7357 15.9507,2.3425 22.3165,2.0288 17.5175,-0.8637 33.854,-8.8155 45.5953,-21.8743 0.1227,-0.1364 1.4211,-1.3516 3.5113,-3.6414 2.6515,-2.9047 5.4208,-6.7921 7.4388,-11.8865 3.5165,-8.8772 4.1349,-17.611 4.7338,-31.758 1.2128,-28.646 0.877,-83.8403 0.6763,-204.5416 -0.1755,-105.5483 -0.2785,-135.3347 -0.6763,-163.8622 -0.1987,-14.2519 -0.4292,-22.1263 -0.9363,-27.9866 -0.5834,-6.7442 -1.987,-11.7944 -4.0576,-15.9961 -11.191,-22.7103 -34.0337,-38.1045 -59.7447,-38.1045 z"
         transform="translate(-6.2272886e-5,-1.573624e-4)" />
      <path
         id="path13294"
         style="color:#000000;display:inline;fill:#fbe7e1;fill-opacity:1;stroke:none;stroke-width:20;stroke-dasharray:none;stroke-opacity:1;paint-order:fill markers stroke"
         inkscape:label="v"
         d="m 3441.356,2438.1097 c -18.1022,-0.066 -33.5775,8.5708 -45.2572,20.3657 -2.4046,2.4283 -5.9354,6.4554 -9.1555,12.0686 -2.9824,5.199 -6.0857,11.7323 -11.0542,22.8366 -9.9503,22.2389 -27.305,63.1507 -61.5654,143.9386 -18.2845,43.1153 -34.6261,81.2862 -47.2079,110.3859 -12.1701,-28.411 -27.8816,-65.2278 -45.4913,-106.6404 -18.4978,-43.5014 -35.8342,-83.9668 -48.8465,-114.1574 -6.5063,-15.0947 -11.9117,-27.6125 -15.8921,-36.6999 -1.9904,-4.5442 -3.6219,-8.2354 -4.8638,-11.0022 -1.1589,-2.5819 -1.7392,-4.0558 -3.0952,-6.5544 -12.6297,-23.271 -38.1829,-37.4939 -64.7646,-33.6568 -32.9509,4.757 -58.3432,32.4686 -58.0801,65.7789 0.032,4.0819 0.7587,9.721 2.9131,16.4903 2.0016,6.2891 5.1342,14.4415 10.8982,28.5588 11.5361,28.2542 33.6799,80.3151 76.9632,181.9911 24.4019,57.322 46.9796,110.1756 63.7242,149.1926 8.3724,19.5085 15.2787,35.5656 20.2357,46.9998 2.4786,5.7173 4.4727,10.2699 5.9303,13.5772 1.3319,3.0219 1.6568,4.1239 3.3812,7.3348 7.49,13.9488 19.6984,25.1472 35.2694,30.1714 8.6075,2.777 17.1514,3.0744 25.8278,2.627 23.6677,-1.2211 44.4568,-14.8383 55.0109,-36.0497 1.3134,-2.6399 1.6125,-3.526 2.9131,-6.5285 1.3755,-3.1754 3.2919,-7.6104 5.6962,-13.213 4.8078,-11.2037 11.5686,-27.023 19.7935,-46.2975 16.4499,-38.5493 38.7485,-90.9396 62.9439,-147.8921 32.4399,-76.3592 54.4982,-128.6149 68.5621,-162.5617 7.0316,-16.9728 12.0553,-29.3553 15.4498,-38.0525 1.6962,-4.3464 2.9953,-7.7701 3.9796,-10.586 0.5373,-1.5365 1.9931,-4.4544 2.5749,-10.0918 2.4664,-23.8959 -8.3647,-47.3429 -28.4808,-60.655 -11.4775,-7.5956 -24.4372,-11.6266 -38.3125,-11.6784 z"
         transform="translate(-6.2272886e-5,-1.573624e-4)" />
      <path
         id="path13296"
         style="color:#000000;display:inline;fill:#f8f6f1;fill-opacity:1;stroke:none;stroke-width:20;stroke-dasharray:none;stroke-opacity:1;paint-order:fill markers stroke"
         inkscape:label="e"
         d="m 3837.5905,2438.4218 c -74.3979,-1.3956 -146.3246,27.1593 -199.86,80.9167 -42.5577,42.7336 -68.3605,93.6499 -76.8071,152.0797 -3.2967,22.8044 -3.0526,59.8312 0.6762,82.3732 11.5257,69.6758 49.4044,131.4334 106.8746,174.8904 41.1457,31.1129 89.8086,49.1313 142.014,52.748 19.0492,1.3195 55.555,-0.092 74.4142,-2.8871 33.6,-4.9788 65.0871,-15.4023 91.7889,-29.7813 17.1518,-9.2365 34.2297,-19.3051 48.7685,-31.706 14.3674,-12.2545 24.6959,-20.1969 32.0702,-34.7492 7.8795,-15.5493 9.0491,-32.1668 3.8755,-46.6617 -5.1735,-14.4949 -16.4226,-24.6017 -31.6541,-32.4864 -9.5509,-4.9444 -19.6895,-3.3344 -30.8737,-3.3032 -8.9176,0.025 -18.8615,1.1471 -28.4548,6.0343 -7.8905,4.0196 -12.2989,5.9054 -24.5533,13.161 -34.7568,20.5788 -48.8097,26.3525 -98.3954,30.5616 -47.1765,4.0046 -85.5311,-9.9632 -118.6831,-43.0984 -7.009,-7.0055 -16.5483,-20.0321 -22.0824,-29.6772 6.9082,-0.049 12.6242,-0.082 21.7703,-0.1301 34.4223,-0.1782 81.6849,-0.3471 133.4827,-0.4422 l 194.2418,-0.3641 11.5744,-5.6701 c 13.0951,-6.4528 23.8859,-16.7903 30.6916,-29.8334 8.6639,-16.6043 7.4804,-34.0432 5.7742,-52.8 -1.7607,-19.3562 -6.0892,-40.9127 -12.8228,-61.2012 -30.6837,-92.4492 -108.4132,-162.8193 -202.1228,-182.1731 -17.234,-3.5593 -34.5394,-5.4777 -51.7076,-5.8002 z m -3.1993,131.6619 c 37.6758,0.5016 71.8767,15.2151 99.3058,43.2284 7.8095,7.9759 16.0579,19.787 22.6025,31.68 -3.6363,0.014 -6.2059,0.04 -10.742,0.052 -29.2409,0.08 -69.6019,0.13 -114.0013,0.13 -44.3937,0 -84.7711,-0.077 -114.0013,-0.1821 -4.5008,-0.016 -7.0434,-0.033 -10.6381,-0.052 22.1838,-41.7692 63.0824,-69.6448 111.1142,-74.2061 5.5173,-0.5239 10.978,-0.722 16.3602,-0.6503 z" />
    </g>
    <g
       id="g20843"
       transform="matrix(0.00685045,0,0,0.00685045,-5.4144646,-6.4776758)"
       inkscape:label="분홍그라"
       style="display:none">
      <path
         id="path20823"
         style="opacity:1;fill:#fcdfd8;fill-opacity:1;fill-rule:evenodd;stroke:none;stroke-width:20;stroke-dasharray:none;stroke-opacity:1;paint-order:fill markers stroke"
         d="m 2039.4648,945.58398 a 513.84497,513.84497 0 0 0 -513.8437,513.84572 513.84497,513.84497 0 0 0 117.0898,325.2539 l -104.3711,173.7266 a 586.49255,586.49255 0 0 0 -161.4668,-22.9356 586.49255,586.49255 0 0 0 -586.49214,586.4922 586.49255,586.49255 0 0 0 586.49214,586.4922 586.49255,586.49255 0 0 0 586.4942,-586.4922 586.49255,586.49255 0 0 0 -191.6543,-432.4746 l 89.7695,-149.4199 a 513.84497,513.84497 0 0 0 177.9824,33.2031 513.84497,513.84497 0 0 0 513.8457,-513.8457 513.84497,513.84497 0 0 0 -14.3964,-120.3926 l 105.8086,-57.8281 c 65.0332,-35.5433 88.7737,-116.5137 53.2304,-181.5469 -35.5433,-65.0332 -116.5136,-88.7737 -181.5469,-53.2305 l -105.8124,57.8321 a 513.84497,513.84497 0 0 0 -371.129,-158.67972 z m 0,267.55472 a 246.29143,246.29143 0 0 1 246.293,246.291 246.29143,246.29143 0 0 1 -246.293,246.291 246.29143,246.29143 0 0 1 -246.291,-246.291 246.29143,246.29143 0 0 1 246.291,-246.291 z m -662.5918,989.8886 a 318.939,318.939 0 0 1 318.9395,318.9395 318.939,318.939 0 0 1 -318.9395,318.9394 318.939,318.939 0 0 1 -318.9375,-318.9394 318.939,318.939 0 0 1 318.9375,-318.9395 z"
         inkscape:label="g" />
      <path
         id="path20825"
         style="color:#000000;fill:#fbe6df;fill-opacity:1;stroke:none;stroke-width:20;stroke-dasharray:none;stroke-opacity:1;paint-order:fill markers stroke"
         inkscape:label="a"
         d="m 2957.3121,1690.0919 c -2.0652,-0.017 -4.1507,0.044 -6.2424,0.234 -15.4126,1.3977 -29.6157,8.5151 -40.7574,19.3254 -6.2423,6.0566 -10.7478,13.4047 -13.9933,21.5361 -28.3387,-18.1416 -61.4073,-31.2801 -93.7397,-36.8039 -78.8662,-13.4736 -155.944,6.0811 -215.1797,55.427 -65.2218,54.3329 -100.4874,128.6109 -100.6062,212.4226 -0.1067,75.0893 27.9291,141.867 81.7751,195.152 44.2508,43.7896 98.724,69.8547 158.4001,75.1686 l 1.1185,0.104 h 0.8843 c 22.1784,1.7585 52.0856,0.5836 73.4519,-3.0692 32.4916,-5.5548 64.5666,-18.2747 93.1154,-36.4658 1.7796,4.3354 3.9653,8.2511 6.3464,11.6004 13.9341,19.5985 36.859,31.0431 60.8111,28.871 29.2491,-2.6523 52.8911,-24.9193 58.132,-53.7884 0.9259,-5.1022 0.6549,-7.1313 0.7543,-10.2479 0.1222,-3.8316 0.2129,-8.85 0.3121,-15.0077 0.1985,-12.3179 0.3638,-29.1277 0.4942,-49.0026 0.261,-39.7508 0.3932,-91.7007 0.3902,-143.6525 0,-51.9523 -0.1247,-103.9012 -0.3902,-143.6265 -0.1327,-19.8618 -0.2942,-36.6512 -0.4942,-48.9506 -0.099,-6.1507 -0.2155,-11.1647 -0.3381,-14.9817 -0.098,-3.0578 0.184,-5.0558 -0.7803,-10.2739 -5.089,-27.5248 -26.9336,-48.6152 -53.5543,-53.0601 v -0.8323 z M 2751.6,1822.8202 c 23.3934,-0.2969 47.2677,4.9322 64.2964,14.2534 32.0971,17.5695 57.5066,48.1512 67.3916,79.6682 10.8327,34.5379 7.5847,78.7827 -6.9706,107.915 -20.0708,40.1709 -57.3526,68.3937 -95.2742,74.6223 -22.8098,3.7464 -30.3446,3.7564 -52.3839,0.1561 -37.8932,-6.1901 -76.8104,-35.7458 -96.8088,-76.1049 -9.4823,-19.1359 -12.9187,-34.6916 -12.8749,-61.3313 0.036,-21.7857 1.3261,-30.1133 7.1527,-47.1819 12.8582,-37.6672 48.5914,-73.3179 85.4685,-85.6505 12.1091,-4.0496 25.9674,-6.1685 40.0032,-6.3464 z"
         transform="translate(-6.2272886e-5,-1.573624e-4)" />
      <path
         id="path20827"
         style="color:#000000;display:inline;fill:#f9efe9;fill-opacity:1;stroke:none;stroke-width:20;stroke-dasharray:none;stroke-opacity:1;paint-order:fill markers stroke"
         inkscape:label="t"
         d="m 3267.0378,1523.2646 -3.7455,0.078 -0.208,0.1821 c -13.7581,1.0878 -27.4299,6.561 -38.5207,16.8804 -6.2067,5.7752 -11.7019,12.4417 -15.6839,20.9379 l -5.5922,11.9385 -0.026,73.4779 v 43.2024 l -12.9009,0.1561 -43.6706,0.4942 -12.3286,6.5024 c -12.729,6.7183 -23.1887,17.0654 -29.8854,29.9114 -5.0311,9.6505 -5.3838,17.8998 -5.8262,25.3596 -0.6909,11.6516 1.3785,22.1627 6.2944,32.1482 7.4281,15.0895 19.9936,27.1958 35.7636,33.2666 10.8735,4.1855 20.9807,4.095 50.9273,4.5517 l 11.6264,0.1821 v 165.4228 l 0.026,195.8023 5.8783,12.0945 c 7.9787,16.3887 21.8419,29.3536 39.2489,35.0353 8.4431,2.7556 16.3625,3.0566 23.9551,2.653 24.3467,-1.2946 45.9894,-16.0374 56.1813,-38.1824 l 5.4621,-11.8605 0.3641,-195.4902 0.3382,-165.4228 11.5744,-0.156 c 17.1641,-0.2252 26.3594,-0.3142 33.7348,-0.9364 8.0274,-0.6773 14.6633,-2.7605 19.4814,-4.9679 13.4603,-6.1671 24.9564,-16.2522 31.9661,-29.8333 18.0108,-34.8959 1.4147,-78.6429 -35.3474,-92.4911 -5.0828,-1.9146 -11.3873,-3.3564 -18.9872,-3.8494 -7.23,-0.469 -16.3276,-0.5203 -32.2263,-0.5202 h -10.2219 l -0.26,-43.1244 c -0.1974,-33.0532 -0.2993,-49.9703 -0.7803,-60.629 -0.5069,-11.2344 -2.474,-18.8602 -4.8899,-24.0851 -11.6109,-25.1114 -36.615,-39.1454 -61.7214,-38.7027 z"
         transform="translate(-5.9423752e-5,-1.2926749e-4)" />
      <path
         id="path20829"
         style="color:#000000;display:inline;fill:#f9efe9;fill-opacity:1;stroke:none;stroke-width:20;stroke-dasharray:none;stroke-opacity:1;paint-order:fill markers stroke"
         inkscape:label="h"
         d="m 3587.1153,1521.808 c -24.3684,-0.5701 -48.7373,12.4627 -60.8631,36.2057 l -6.1643,12.0686 v 306.9685 306.5263 l 5.28,11.2883 c 6.4311,13.6868 17.5318,24.2787 30.7436,31.0297 9.6463,4.9285 19.6842,6.3464 29.0011,6.3464 9.3167,0 19.3551,-1.418 29.001,-6.3464 13.2122,-6.7511 24.3126,-17.3432 30.7437,-31.0297 1.3066,-2.7809 2.9806,-7.1249 3.7974,-12.6929 0.7008,-4.7772 0.9756,-9.9556 1.2225,-18.3109 0.4957,-16.7768 0.7069,-46.8741 1.1184,-106.4844 0.2289,-33.1648 0.531,-63.7746 0.8583,-86.3267 0.1636,-11.2757 0.3383,-20.5406 0.4942,-27.0243 0.078,-3.2404 0.143,-5.8235 0.2081,-7.4648 0.013,-0.3344 0.041,-0.4738 0.052,-0.7023 0.6374,-2.8047 1.4035,-6.3068 2.0808,-9.6237 8.3114,-40.6903 38.6473,-79.9583 71.9433,-95.6122 16.2558,-7.6425 21.2423,-8.6154 44.815,-8.5833 25.2043,0.035 28.4956,0.7254 47.39,10.43 34.2437,17.5888 59.8627,51.6972 69.6025,95.5602 2.1248,9.5687 3.6766,38.3399 3.7454,140.9475 0.029,43.5323 0.1203,70.7301 0.4162,87.9134 0.1479,8.5881 0.3577,14.6572 0.6502,19.3513 0.2468,3.9595 0.2642,8.2233 2.3409,14.0453 6.8864,19.3065 22.3261,34.4759 41.9539,40.6014 30.9452,9.657 64.627,-4.8485 78.914,-33.9428 l 6.3984,-13.083 0.4682,-114.8076 c 0.453,-117.199 -0.3971,-141.4615 -6.4244,-170.2606 -8.8569,-42.3177 -27.8152,-82.1658 -55.115,-115.7959 -14.6703,-18.0721 -40.1721,-42.0947 -58.5482,-54.3866 -33.6504,-22.5085 -69.763,-35.0485 -111.1922,-38.8328 -22.9175,-2.0936 -51.3459,-0.5937 -72.4896,4.2657 -23.7031,5.4479 -46.8968,15.0283 -68.3539,27.7525 l -0.3642,-48.6905 -0.7282,-103.1031 -6.1124,-11.9906 c -4.0611,-7.9516 -9.44,-14.3511 -15.5799,-19.8715 -11.9021,-10.7009 -26.683,-15.9921 -41.3037,-16.3342 z"
         transform="translate(-6.2272886e-5,-1.573624e-4)" />
      <path
         id="path20831"
         style="color:#000000;display:inline;fill:#f8f6f1;fill-opacity:1;stroke:none;stroke-width:20;stroke-dasharray:none;stroke-opacity:1;paint-order:fill markers stroke"
         inkscape:label="e"
         d="m 4380.2346,1690.0919 c -104.1142,-1.3816 -202.1011,58.3956 -249.7469,153.7703 -27.3029,54.653 -33.9821,122.6332 -18.6751,183.7857 12.4083,49.5726 38.2225,94.0902 75.0905,129.4771 47.8358,45.9141 104.5736,71.5976 168.8822,76.0529 19.0497,1.3197 55.5812,-0.092 74.4402,-2.8871 61.5162,-9.1156 108.7058,-25.6103 150.077,-66.5332 9.7579,-9.6524 16.9896,-17.0657 22.3425,-26.6602 5.6735,-10.1694 7.1198,-21.0187 7.0487,-30.6396 -0.1833,-24.6301 -15.0665,-39.8174 -35.4254,-49.9909 -9.3008,-4.6475 -19.2551,-4.8696 -30.1715,-4.8379 -8.9269,0.025 -18.9629,3.1786 -28.5849,8.1411 -7.908,4.0783 -13.5562,6.8476 -24.7354,13.4211 -29.5271,17.3624 -41.8785,20.3587 -79.9023,26.348 -13.9608,2.199 -48.0642,2.2459 -56.9356,0.8063 -9.5112,-1.5434 -32.0625,-8.8247 -38.3906,-11.9905 -25.8001,-12.9071 -50.7367,-36.8071 -63.3601,-59.6147 6.3606,-0.044 11.5251,-0.067 19.9236,-0.104 34.0738,-0.1504 80.9967,-0.2601 132.5203,-0.2601 91.9559,0 138.7938,-0.01 164.0443,-0.3641 12.6142,-0.1783 19.8334,-0.4014 25.4377,-0.9104 6.1154,-0.5554 10.9077,-1.866 14.1234,-3.0691 16.3252,-6.108 29.1969,-18.5148 36.4658,-34.125 4.1202,-8.8495 5.6068,-18.6373 5.5921,-32.0962 -0.053,-63.8534 -26.7823,-129.9378 -71.5792,-179.0259 -46.4837,-50.9366 -107.9316,-81.1473 -177.5954,-87.5752 -3.6833,-0.3399 -7.3542,-0.4132 -11.0282,-0.5982 v -0.3902 z m 3.1211,131.974 c 13.7822,0.4417 27.1883,2.7405 38.8588,6.7886 34.9249,12.114 63.3944,36.6417 79.9284,67.6257 -2.8219,0.033 -4.6366,0.077 -8.1671,0.104 -28.0742,0.2208 -68.3915,0.3381 -117.0445,0.3381 h -124.8734 c 14.1261,-26.5129 36.9722,-48.6793 65.4929,-62.1896 18.8438,-8.9265 42.8346,-13.3768 65.8049,-12.6408 z"
         transform="translate(-6.2272886e-5,-1.573624e-4)" />
      <path
         id="path20833"
         style="color:#000000;display:inline;fill:#f8f6f1;fill-opacity:1;stroke:none;stroke-width:20;stroke-dasharray:none;stroke-opacity:1;paint-order:fill markers stroke"
         inkscape:label="r"
         d="m 4997.501,1690.0398 c -7.4538,-0.2852 -15.1609,0.3364 -26.1139,1.4046 -36.419,3.5519 -72.156,16.182 -102.9471,35.9456 -2.3677,-5.1976 -5.3686,-10.1194 -9.2595,-14.5395 -29.9056,-33.9748 -85.4072,-27.43 -107.3428,12.1726 l -7.2307,13.031 -0.3642,221.0318 c -0.1578,93.4933 -0.1911,147.3563 0.052,178.8699 0.2397,31.2851 -0.4248,39.2728 2.653,49.8609 6.2603,21.5348 23.8335,36.9864 44.529,43.8006 9.5367,3.1396 17.5138,2.3322 24.0071,1.6906 6.8932,-0.681 14.5751,-1.7849 22.6546,-5.6961 13.6399,-6.6033 24.7241,-17.5055 31.2378,-31.3679 1.2982,-2.7628 2.9784,-7.0646 3.7975,-12.6148 0.7034,-4.7648 0.9796,-9.9377 1.2224,-18.2069 0.4875,-16.606 0.6609,-46.3458 1.0404,-105.288 0.4238,-65.8076 0.6866,-98.8588 1.8207,-116.9403 1.1461,-18.2713 2.0942,-19.2746 6.6586,-32.3303 7.9891,-22.8508 17.1437,-37.4956 33.8648,-54.3086 23.5564,-23.686 39.8004,-31.228 73.1138,-33.9689 11.0331,-0.9079 20.4547,-2.15 29.7553,-5.8522 9.6487,-3.841 17.2712,-10.1386 23.4089,-16.8544 12.2296,-13.3812 18.7139,-30.9672 17.2705,-48.9506 -2.0513,-25.5528 -18.8459,-47.673 -42.8382,-56.6495 -6.1417,-2.2978 -13.2043,-3.9413 -20.99,-4.2396 z"
         transform="translate(-6.2272886e-5,-1.573624e-4)" />
      <path
         id="path20835"
         style="color:#000000;display:inline;fill:#fbe6df;fill-opacity:1;stroke:none;stroke-width:20;stroke-dasharray:none;stroke-opacity:1;paint-order:fill markers stroke"
         inkscape:label="L"
         d="m 2227.683,2166.6186 v 0.026 c -11.0975,-0.017 -22.2117,2.5498 -32.3563,7.7249 -17.3317,8.8418 -30.2838,24.326 -36.3618,42.8122 -1.8135,5.5156 -2.6044,11.1404 -2.8611,20.3397 -0.2566,9.1994 -0.1565,22.7343 -0.2861,46.4277 -0.2601,47.5563 -0.1925,133.7558 -0.026,292.4029 0.1464,139.1942 0.328,225.5654 0.6502,277.7594 0.161,26.0968 0.3446,43.6353 0.5983,55.1409 0.1267,5.7504 0.2648,9.9702 0.4421,13.239 0.088,1.617 0.1861,3.0488 0.3382,4.4997 -0.022,-0.2062 0.1671,3.2782 1.4825,7.1007 2.932,8.5205 7.6008,14.6754 12.0686,20.1317 4.6249,5.648 9.9491,11.2868 16.8024,15.892 6.5296,4.3876 13.3316,7.2344 20.4698,9.1555 9.9813,2.6852 17.9055,2.1962 44.1647,2.4969 26.481,0.3033 70.3276,0.4032 143.9387,0.4422 90.576,0.047 136.1152,0.074 161.5214,-0.6763 12.675,-0.3742 20.5371,-0.859 27.4144,-2.0808 7.3908,-1.3129 13.1474,-3.9257 16.5943,-5.6701 15.7898,-7.9907 27.5604,-21.3915 33.7088,-37.8184 l 0.6502,-1.6906 v -0.2861 c 5.6199,-16.3735 5.4503,-34.3241 -0.6242,-50.5632 -6.2696,-16.7557 -19.1246,-29.6206 -34.4631,-37.7143 l -12.4327,-6.5545 -160.0648,-0.7283 -129.0871,-0.5722 -0.6502,-293.3653 -0.7023,-323.5888 -5.384,-11.9125 c -6.855,-15.1426 -18.6862,-27.0534 -33.2146,-34.5151 -10.1287,-5.2019 -21.2338,-7.8376 -32.3303,-7.855 z"
         transform="translate(-6.2272886e-5,-1.573624e-4)" />
      <path
         id="path20837"
         style="color:#000000;display:inline;fill:#fbe6df;fill-opacity:1;stroke:none;stroke-width:20;stroke-dasharray:none;stroke-opacity:1;paint-order:fill markers stroke"
         inkscape:label="i"
         d="m 2846.536,2273.103 c -13.2573,0 -23.1336,1.788 -32.3042,6.0864 -47.0628,22.0582 -59.1241,84.6323 -23.8771,122.8706 9.2436,10.0282 21.1644,17.2976 33.9949,21.4581 6.3357,2.0539 10.3096,1.7598 12.5108,1.8727 3.6101,0.1851 7.6128,0.2558 11.6784,0.1561 11.6135,-0.2846 21.2645,-2.1121 30.2235,-6.2944 39.4459,-18.4144 55.886,-66.2811 36.1797,-105.1059 -7.6463,-15.0647 -20.0208,-26.9245 -35.3214,-34.437 -9.3989,-4.6146 -19.4587,-6.6066 -33.0846,-6.6066 z m 0,188.9877 c -18.0812,0 -34.7337,8.1644 -47.0778,20.8079 -0.238,0.2435 -1.4142,1.2054 -3.5894,3.3033 -2.7543,2.6562 -5.9565,6.4633 -8.3752,11.7565 -4.2209,9.2375 -4.9211,18.3888 -5.5921,32.5643 -1.3616,28.7685 -0.9595,60.1351 -0.7543,182.5373 l 0.3641,222.3063 6.0083,11.0802 c 8.551,15.7963 22.6881,27.9333 40.1593,33.2666 8.962,2.7357 15.9507,2.3425 22.3165,2.0288 17.5175,-0.8637 33.854,-8.8155 45.5953,-21.8743 0.1227,-0.1364 1.4211,-1.3516 3.5113,-3.6414 2.6515,-2.9047 5.4208,-6.7921 7.4388,-11.8865 3.5165,-8.8772 4.1349,-17.611 4.7338,-31.758 1.2128,-28.646 0.877,-83.8403 0.6763,-204.5416 -0.1755,-105.5483 -0.2785,-135.3347 -0.6763,-163.8622 -0.1987,-14.2519 -0.4292,-22.1263 -0.9363,-27.9866 -0.5834,-6.7442 -1.987,-11.7944 -4.0576,-15.9961 -11.191,-22.7103 -34.0337,-38.1045 -59.7447,-38.1045 z"
         transform="translate(-6.2272886e-5,-1.573624e-4)" />
      <path
         id="path20839"
         style="color:#000000;display:inline;fill:#f9efe9;fill-opacity:1;stroke:none;stroke-width:20;stroke-dasharray:none;stroke-opacity:1;paint-order:fill markers stroke"
         inkscape:label="v"
         d="m 3441.356,2438.1097 c -18.1022,-0.066 -33.5775,8.5708 -45.2572,20.3657 -2.4046,2.4283 -5.9354,6.4554 -9.1555,12.0686 -2.9824,5.199 -6.0857,11.7323 -11.0542,22.8366 -9.9503,22.2389 -27.305,63.1507 -61.5654,143.9386 -18.2845,43.1153 -34.6261,81.2862 -47.2079,110.3859 -12.1701,-28.411 -27.8816,-65.2278 -45.4913,-106.6404 -18.4978,-43.5014 -35.8342,-83.9668 -48.8465,-114.1574 -6.5063,-15.0947 -11.9117,-27.6125 -15.8921,-36.6999 -1.9904,-4.5442 -3.6219,-8.2354 -4.8638,-11.0022 -1.1589,-2.5819 -1.7392,-4.0558 -3.0952,-6.5544 -12.6297,-23.271 -38.1829,-37.4939 -64.7646,-33.6568 -32.9509,4.757 -58.3432,32.4686 -58.0801,65.7789 0.032,4.0819 0.7587,9.721 2.9131,16.4903 2.0016,6.2891 5.1342,14.4415 10.8982,28.5588 11.5361,28.2542 33.6799,80.3151 76.9632,181.9911 24.4019,57.322 46.9796,110.1756 63.7242,149.1926 8.3724,19.5085 15.2787,35.5656 20.2357,46.9998 2.4786,5.7173 4.4727,10.2699 5.9303,13.5772 1.3319,3.0219 1.6568,4.1239 3.3812,7.3348 7.49,13.9488 19.6984,25.1472 35.2694,30.1714 8.6075,2.777 17.1514,3.0744 25.8278,2.627 23.6677,-1.2211 44.4568,-14.8383 55.0109,-36.0497 1.3134,-2.6399 1.6125,-3.526 2.9131,-6.5285 1.3755,-3.1754 3.2919,-7.6104 5.6962,-13.213 4.8078,-11.2037 11.5686,-27.023 19.7935,-46.2975 16.4499,-38.5493 38.7485,-90.9396 62.9439,-147.8921 32.4399,-76.3592 54.4982,-128.6149 68.5621,-162.5617 7.0316,-16.9728 12.0553,-29.3553 15.4498,-38.0525 1.6962,-4.3464 2.9953,-7.7701 3.9796,-10.586 0.5373,-1.5365 1.9931,-4.4544 2.5749,-10.0918 2.4664,-23.8959 -8.3647,-47.3429 -28.4808,-60.655 -11.4775,-7.5956 -24.4372,-11.6266 -38.3125,-11.6784 z"
         transform="translate(-6.2272886e-5,-1.573624e-4)" />
      <path
         id="path20841"
         style="color:#000000;display:inline;fill:#f8f6f1;fill-opacity:1;stroke:none;stroke-width:20;stroke-dasharray:none;stroke-opacity:1;paint-order:fill markers stroke"
         inkscape:label="e"
         d="m 3837.5905,2438.4218 c -74.3979,-1.3956 -146.3246,27.1593 -199.86,80.9167 -42.5577,42.7336 -68.3605,93.6499 -76.8071,152.0797 -3.2967,22.8044 -3.0526,59.8312 0.6762,82.3732 11.5257,69.6758 49.4044,131.4334 106.8746,174.8904 41.1457,31.1129 89.8086,49.1313 142.014,52.748 19.0492,1.3195 55.555,-0.092 74.4142,-2.8871 33.6,-4.9788 65.0871,-15.4023 91.7889,-29.7813 17.1518,-9.2365 34.2297,-19.3051 48.7685,-31.706 14.3674,-12.2545 24.6959,-20.1969 32.0702,-34.7492 7.8795,-15.5493 9.0491,-32.1668 3.8755,-46.6617 -5.1735,-14.4949 -16.4226,-24.6017 -31.6541,-32.4864 -9.5509,-4.9444 -19.6895,-3.3344 -30.8737,-3.3032 -8.9176,0.025 -18.8615,1.1471 -28.4548,6.0343 -7.8905,4.0196 -12.2989,5.9054 -24.5533,13.161 -34.7568,20.5788 -48.8097,26.3525 -98.3954,30.5616 -47.1765,4.0046 -85.5311,-9.9632 -118.6831,-43.0984 -7.009,-7.0055 -16.5483,-20.0321 -22.0824,-29.6772 6.9082,-0.049 12.6242,-0.082 21.7703,-0.1301 34.4223,-0.1782 81.6849,-0.3471 133.4827,-0.4422 l 194.2418,-0.3641 11.5744,-5.6701 c 13.0951,-6.4528 23.8859,-16.7903 30.6916,-29.8334 8.6639,-16.6043 7.4804,-34.0432 5.7742,-52.8 -1.7607,-19.3562 -6.0892,-40.9127 -12.8228,-61.2012 -30.6837,-92.4492 -108.4132,-162.8193 -202.1228,-182.1731 -17.234,-3.5593 -34.5394,-5.4777 -51.7076,-5.8002 z m -3.1993,131.6619 c 37.6758,0.5016 71.8767,15.2151 99.3058,43.2284 7.8095,7.9759 16.0579,19.787 22.6025,31.68 -3.6363,0.014 -6.2059,0.04 -10.742,0.052 -29.2409,0.08 -69.6019,0.13 -114.0013,0.13 -44.3937,0 -84.7711,-0.077 -114.0013,-0.1821 -4.5008,-0.016 -7.0434,-0.033 -10.6381,-0.052 22.1838,-41.7692 63.0824,-69.6448 111.1142,-74.2061 5.5173,-0.5239 10.978,-0.722 16.3602,-0.6503 z" />
    </g>
    <rect
       style="fill:url(#linearGradient20905);fill-opacity:1;fill-rule:evenodd;stroke-width:3;paint-order:stroke fill markers"
       id="rect20897"
       width="11.184488"
       height="4.9887643"
       x="-11.747736"
       y="3.8622694" />
    <g
       id="g22559"
       transform="matrix(0.00685045,0,0,0.00685045,-5.4144646,-6.4776758)"
       inkscape:label="노랑그라"
       style="display:none">
      <path
         id="path22539"
         style="opacity:1;fill:#f8b940;fill-opacity:1;fill-rule:evenodd;stroke:none;stroke-width:20;stroke-dasharray:none;stroke-opacity:1;paint-order:fill markers stroke"
         d="m 2039.4648,945.58398 a 513.84497,513.84497 0 0 0 -513.8437,513.84572 513.84497,513.84497 0 0 0 117.0898,325.2539 l -104.3711,173.7266 a 586.49255,586.49255 0 0 0 -161.4668,-22.9356 586.49255,586.49255 0 0 0 -586.49214,586.4922 586.49255,586.49255 0 0 0 586.49214,586.4922 586.49255,586.49255 0 0 0 586.4942,-586.4922 586.49255,586.49255 0 0 0 -191.6543,-432.4746 l 89.7695,-149.4199 a 513.84497,513.84497 0 0 0 177.9824,33.2031 513.84497,513.84497 0 0 0 513.8457,-513.8457 513.84497,513.84497 0 0 0 -14.3964,-120.3926 l 105.8086,-57.8281 c 65.0332,-35.5433 88.7737,-116.5137 53.2304,-181.5469 -35.5433,-65.0332 -116.5136,-88.7737 -181.5469,-53.2305 l -105.8124,57.8321 a 513.84497,513.84497 0 0 0 -371.129,-158.67972 z m 0,267.55472 a 246.29143,246.29143 0 0 1 246.293,246.291 246.29143,246.29143 0 0 1 -246.293,246.291 246.29143,246.29143 0 0 1 -246.291,-246.291 246.29143,246.29143 0 0 1 246.291,-246.291 z m -662.5918,989.8886 a 318.939,318.939 0 0 1 318.9395,318.9395 318.939,318.939 0 0 1 -318.9395,318.9394 318.939,318.939 0 0 1 -318.9375,-318.9394 318.939,318.939 0 0 1 318.9375,-318.9395 z"
         inkscape:label="g" />
      <path
         id="path22541"
         style="color:#000000;fill:#fac673;fill-opacity:1;stroke:none;stroke-width:20;stroke-dasharray:none;stroke-opacity:1;paint-order:fill markers stroke"
         inkscape:label="a"
         d="m 2957.3121,1690.0919 c -2.0652,-0.017 -4.1507,0.044 -6.2424,0.234 -15.4126,1.3977 -29.6157,8.5151 -40.7574,19.3254 -6.2423,6.0566 -10.7478,13.4047 -13.9933,21.5361 -28.3387,-18.1416 -61.4073,-31.2801 -93.7397,-36.8039 -78.8662,-13.4736 -155.944,6.0811 -215.1797,55.427 -65.2218,54.3329 -100.4874,128.6109 -100.6062,212.4226 -0.1067,75.0893 27.9291,141.867 81.7751,195.152 44.2508,43.7896 98.724,69.8547 158.4001,75.1686 l 1.1185,0.104 h 0.8843 c 22.1784,1.7585 52.0856,0.5836 73.4519,-3.0692 32.4916,-5.5548 64.5666,-18.2747 93.1154,-36.4658 1.7796,4.3354 3.9653,8.2511 6.3464,11.6004 13.9341,19.5985 36.859,31.0431 60.8111,28.871 29.2491,-2.6523 52.8911,-24.9193 58.132,-53.7884 0.9259,-5.1022 0.6549,-7.1313 0.7543,-10.2479 0.1222,-3.8316 0.2129,-8.85 0.3121,-15.0077 0.1985,-12.3179 0.3638,-29.1277 0.4942,-49.0026 0.261,-39.7508 0.3932,-91.7007 0.3902,-143.6525 0,-51.9523 -0.1247,-103.9012 -0.3902,-143.6265 -0.1327,-19.8618 -0.2942,-36.6512 -0.4942,-48.9506 -0.099,-6.1507 -0.2155,-11.1647 -0.3381,-14.9817 -0.098,-3.0578 0.184,-5.0558 -0.7803,-10.2739 -5.089,-27.5248 -26.9336,-48.6152 -53.5543,-53.0601 v -0.8323 z M 2751.6,1822.8202 c 23.3934,-0.2969 47.2677,4.9322 64.2964,14.2534 32.0971,17.5695 57.5066,48.1512 67.3916,79.6682 10.8327,34.5379 7.5847,78.7827 -6.9706,107.915 -20.0708,40.1709 -57.3526,68.3937 -95.2742,74.6223 -22.8098,3.7464 -30.3446,3.7564 -52.3839,0.1561 -37.8932,-6.1901 -76.8104,-35.7458 -96.8088,-76.1049 -9.4823,-19.1359 -12.9187,-34.6916 -12.8749,-61.3313 0.036,-21.7857 1.3261,-30.1133 7.1527,-47.1819 12.8582,-37.6672 48.5914,-73.3179 85.4685,-85.6505 12.1091,-4.0496 25.9674,-6.1685 40.0032,-6.3464 z"
         transform="translate(-6.2272886e-5,-1.573624e-4)" />
      <path
         id="path22543"
         style="color:#000000;display:inline;fill:#fcd8b9;fill-opacity:1;stroke:none;stroke-width:20;stroke-dasharray:none;stroke-opacity:1;paint-order:fill markers stroke"
         inkscape:label="t"
         d="m 3267.0378,1523.2646 -3.7455,0.078 -0.208,0.1821 c -13.7581,1.0878 -27.4299,6.561 -38.5207,16.8804 -6.2067,5.7752 -11.7019,12.4417 -15.6839,20.9379 l -5.5922,11.9385 -0.026,73.4779 v 43.2024 l -12.9009,0.1561 -43.6706,0.4942 -12.3286,6.5024 c -12.729,6.7183 -23.1887,17.0654 -29.8854,29.9114 -5.0311,9.6505 -5.3838,17.8998 -5.8262,25.3596 -0.6909,11.6516 1.3785,22.1627 6.2944,32.1482 7.4281,15.0895 19.9936,27.1958 35.7636,33.2666 10.8735,4.1855 20.9807,4.095 50.9273,4.5517 l 11.6264,0.1821 v 165.4228 l 0.026,195.8023 5.8783,12.0945 c 7.9787,16.3887 21.8419,29.3536 39.2489,35.0353 8.4431,2.7556 16.3625,3.0566 23.9551,2.653 24.3467,-1.2946 45.9894,-16.0374 56.1813,-38.1824 l 5.4621,-11.8605 0.3641,-195.4902 0.3382,-165.4228 11.5744,-0.156 c 17.1641,-0.2252 26.3594,-0.3142 33.7348,-0.9364 8.0274,-0.6773 14.6633,-2.7605 19.4814,-4.9679 13.4603,-6.1671 24.9564,-16.2522 31.9661,-29.8333 18.0108,-34.8959 1.4147,-78.6429 -35.3474,-92.4911 -5.0828,-1.9146 -11.3873,-3.3564 -18.9872,-3.8494 -7.23,-0.469 -16.3276,-0.5203 -32.2263,-0.5202 h -10.2219 l -0.26,-43.1244 c -0.1974,-33.0532 -0.2993,-49.9703 -0.7803,-60.629 -0.5069,-11.2344 -2.474,-18.8602 -4.8899,-24.0851 -11.6109,-25.1114 -36.615,-39.1454 -61.7214,-38.7027 z"
         transform="translate(-5.9423752e-5,-1.2926749e-4)" />
      <path
         id="path22545"
         style="color:#000000;display:inline;fill:#fcd8b9;fill-opacity:1;stroke:none;stroke-width:20;stroke-dasharray:none;stroke-opacity:1;paint-order:fill markers stroke"
         inkscape:label="h"
         d="m 3587.1153,1521.808 c -24.3684,-0.5701 -48.7373,12.4627 -60.8631,36.2057 l -6.1643,12.0686 v 306.9685 306.5263 l 5.28,11.2883 c 6.4311,13.6868 17.5318,24.2787 30.7436,31.0297 9.6463,4.9285 19.6842,6.3464 29.0011,6.3464 9.3167,0 19.3551,-1.418 29.001,-6.3464 13.2122,-6.7511 24.3126,-17.3432 30.7437,-31.0297 1.3066,-2.7809 2.9806,-7.1249 3.7974,-12.6929 0.7008,-4.7772 0.9756,-9.9556 1.2225,-18.3109 0.4957,-16.7768 0.7069,-46.8741 1.1184,-106.4844 0.2289,-33.1648 0.531,-63.7746 0.8583,-86.3267 0.1636,-11.2757 0.3383,-20.5406 0.4942,-27.0243 0.078,-3.2404 0.143,-5.8235 0.2081,-7.4648 0.013,-0.3344 0.041,-0.4738 0.052,-0.7023 0.6374,-2.8047 1.4035,-6.3068 2.0808,-9.6237 8.3114,-40.6903 38.6473,-79.9583 71.9433,-95.6122 16.2558,-7.6425 21.2423,-8.6154 44.815,-8.5833 25.2043,0.035 28.4956,0.7254 47.39,10.43 34.2437,17.5888 59.8627,51.6972 69.6025,95.5602 2.1248,9.5687 3.6766,38.3399 3.7454,140.9475 0.029,43.5323 0.1203,70.7301 0.4162,87.9134 0.1479,8.5881 0.3577,14.6572 0.6502,19.3513 0.2468,3.9595 0.2642,8.2233 2.3409,14.0453 6.8864,19.3065 22.3261,34.4759 41.9539,40.6014 30.9452,9.657 64.627,-4.8485 78.914,-33.9428 l 6.3984,-13.083 0.4682,-114.8076 c 0.453,-117.199 -0.3971,-141.4615 -6.4244,-170.2606 -8.8569,-42.3177 -27.8152,-82.1658 -55.115,-115.7959 -14.6703,-18.0721 -40.1721,-42.0947 -58.5482,-54.3866 -33.6504,-22.5085 -69.763,-35.0485 -111.1922,-38.8328 -22.9175,-2.0936 -51.3459,-0.5937 -72.4896,4.2657 -23.7031,5.4479 -46.8968,15.0283 -68.3539,27.7525 l -0.3642,-48.6905 -0.7282,-103.1031 -6.1124,-11.9906 c -4.0611,-7.9516 -9.44,-14.3511 -15.5799,-19.8715 -11.9021,-10.7009 -26.683,-15.9921 -41.3037,-16.3342 z"
         transform="translate(-6.2272886e-5,-1.573624e-4)" />
      <path
         id="path22547"
         style="color:#000000;display:inline;fill:#fcdfd8;fill-opacity:1;stroke:none;stroke-width:20;stroke-dasharray:none;stroke-opacity:1;paint-order:fill markers stroke"
         inkscape:label="e"
         d="m 4380.2346,1690.0919 c -104.1142,-1.3816 -202.1011,58.3956 -249.7469,153.7703 -27.3029,54.653 -33.9821,122.6332 -18.6751,183.7857 12.4083,49.5726 38.2225,94.0902 75.0905,129.4771 47.8358,45.9141 104.5736,71.5976 168.8822,76.0529 19.0497,1.3197 55.5812,-0.092 74.4402,-2.8871 61.5162,-9.1156 108.7058,-25.6103 150.077,-66.5332 9.7579,-9.6524 16.9896,-17.0657 22.3425,-26.6602 5.6735,-10.1694 7.1198,-21.0187 7.0487,-30.6396 -0.1833,-24.6301 -15.0665,-39.8174 -35.4254,-49.9909 -9.3008,-4.6475 -19.2551,-4.8696 -30.1715,-4.8379 -8.9269,0.025 -18.9629,3.1786 -28.5849,8.1411 -7.908,4.0783 -13.5562,6.8476 -24.7354,13.4211 -29.5271,17.3624 -41.8785,20.3587 -79.9023,26.348 -13.9608,2.199 -48.0642,2.2459 -56.9356,0.8063 -9.5112,-1.5434 -32.0625,-8.8247 -38.3906,-11.9905 -25.8001,-12.9071 -50.7367,-36.8071 -63.3601,-59.6147 6.3606,-0.044 11.5251,-0.067 19.9236,-0.104 34.0738,-0.1504 80.9967,-0.2601 132.5203,-0.2601 91.9559,0 138.7938,-0.01 164.0443,-0.3641 12.6142,-0.1783 19.8334,-0.4014 25.4377,-0.9104 6.1154,-0.5554 10.9077,-1.866 14.1234,-3.0691 16.3252,-6.108 29.1969,-18.5148 36.4658,-34.125 4.1202,-8.8495 5.6068,-18.6373 5.5921,-32.0962 -0.053,-63.8534 -26.7823,-129.9378 -71.5792,-179.0259 -46.4837,-50.9366 -107.9316,-81.1473 -177.5954,-87.5752 -3.6833,-0.3399 -7.3542,-0.4132 -11.0282,-0.5982 v -0.3902 z m 3.1211,131.974 c 13.7822,0.4417 27.1883,2.7405 38.8588,6.7886 34.9249,12.114 63.3944,36.6417 79.9284,67.6257 -2.8219,0.033 -4.6366,0.077 -8.1671,0.104 -28.0742,0.2208 -68.3915,0.3381 -117.0445,0.3381 h -124.8734 c 14.1261,-26.5129 36.9722,-48.6793 65.4929,-62.1896 18.8438,-8.9265 42.8346,-13.3768 65.8049,-12.6408 z"
         transform="translate(-6.2272886e-5,-1.573624e-4)" />
      <path
         id="path22549"
         style="color:#000000;display:inline;fill:#fcdfd8;fill-opacity:1;stroke:none;stroke-width:20;stroke-dasharray:none;stroke-opacity:1;paint-order:fill markers stroke"
         inkscape:label="r"
         d="m 4997.501,1690.0398 c -7.4538,-0.2852 -15.1609,0.3364 -26.1139,1.4046 -36.419,3.5519 -72.156,16.182 -102.9471,35.9456 -2.3677,-5.1976 -5.3686,-10.1194 -9.2595,-14.5395 -29.9056,-33.9748 -85.4072,-27.43 -107.3428,12.1726 l -7.2307,13.031 -0.3642,221.0318 c -0.1578,93.4933 -0.1911,147.3563 0.052,178.8699 0.2397,31.2851 -0.4248,39.2728 2.653,49.8609 6.2603,21.5348 23.8335,36.9864 44.529,43.8006 9.5367,3.1396 17.5138,2.3322 24.0071,1.6906 6.8932,-0.681 14.5751,-1.7849 22.6546,-5.6961 13.6399,-6.6033 24.7241,-17.5055 31.2378,-31.3679 1.2982,-2.7628 2.9784,-7.0646 3.7975,-12.6148 0.7034,-4.7648 0.9796,-9.9377 1.2224,-18.2069 0.4875,-16.606 0.6609,-46.3458 1.0404,-105.288 0.4238,-65.8076 0.6866,-98.8588 1.8207,-116.9403 1.1461,-18.2713 2.0942,-19.2746 6.6586,-32.3303 7.9891,-22.8508 17.1437,-37.4956 33.8648,-54.3086 23.5564,-23.686 39.8004,-31.228 73.1138,-33.9689 11.0331,-0.9079 20.4547,-2.15 29.7553,-5.8522 9.6487,-3.841 17.2712,-10.1386 23.4089,-16.8544 12.2296,-13.3812 18.7139,-30.9672 17.2705,-48.9506 -2.0513,-25.5528 -18.8459,-47.673 -42.8382,-56.6495 -6.1417,-2.2978 -13.2043,-3.9413 -20.99,-4.2396 z"
         transform="translate(-6.2272886e-5,-1.573624e-4)" />
      <path
         id="path22551"
         style="color:#000000;display:inline;fill:#fac673;fill-opacity:1;stroke:none;stroke-width:20;stroke-dasharray:none;stroke-opacity:1;paint-order:fill markers stroke"
         inkscape:label="L"
         d="m 2227.683,2166.6186 v 0.026 c -11.0975,-0.017 -22.2117,2.5498 -32.3563,7.7249 -17.3317,8.8418 -30.2838,24.326 -36.3618,42.8122 -1.8135,5.5156 -2.6044,11.1404 -2.8611,20.3397 -0.2566,9.1994 -0.1565,22.7343 -0.2861,46.4277 -0.2601,47.5563 -0.1925,133.7558 -0.026,292.4029 0.1464,139.1942 0.328,225.5654 0.6502,277.7594 0.161,26.0968 0.3446,43.6353 0.5983,55.1409 0.1267,5.7504 0.2648,9.9702 0.4421,13.239 0.088,1.617 0.1861,3.0488 0.3382,4.4997 -0.022,-0.2062 0.1671,3.2782 1.4825,7.1007 2.932,8.5205 7.6008,14.6754 12.0686,20.1317 4.6249,5.648 9.9491,11.2868 16.8024,15.892 6.5296,4.3876 13.3316,7.2344 20.4698,9.1555 9.9813,2.6852 17.9055,2.1962 44.1647,2.4969 26.481,0.3033 70.3276,0.4032 143.9387,0.4422 90.576,0.047 136.1152,0.074 161.5214,-0.6763 12.675,-0.3742 20.5371,-0.859 27.4144,-2.0808 7.3908,-1.3129 13.1474,-3.9257 16.5943,-5.6701 15.7898,-7.9907 27.5604,-21.3915 33.7088,-37.8184 l 0.6502,-1.6906 v -0.2861 c 5.6199,-16.3735 5.4503,-34.3241 -0.6242,-50.5632 -6.2696,-16.7557 -19.1246,-29.6206 -34.4631,-37.7143 l -12.4327,-6.5545 -160.0648,-0.7283 -129.0871,-0.5722 -0.6502,-293.3653 -0.7023,-323.5888 -5.384,-11.9125 c -6.855,-15.1426 -18.6862,-27.0534 -33.2146,-34.5151 -10.1287,-5.2019 -21.2338,-7.8376 -32.3303,-7.855 z"
         transform="translate(-6.2272886e-5,-1.573624e-4)" />
      <path
         id="path22553"
         style="color:#000000;display:inline;fill:#fac673;fill-opacity:1;stroke:none;stroke-width:20;stroke-dasharray:none;stroke-opacity:1;paint-order:fill markers stroke"
         inkscape:label="i"
         d="m 2846.536,2273.103 c -13.2573,0 -23.1336,1.788 -32.3042,6.0864 -47.0628,22.0582 -59.1241,84.6323 -23.8771,122.8706 9.2436,10.0282 21.1644,17.2976 33.9949,21.4581 6.3357,2.0539 10.3096,1.7598 12.5108,1.8727 3.6101,0.1851 7.6128,0.2558 11.6784,0.1561 11.6135,-0.2846 21.2645,-2.1121 30.2235,-6.2944 39.4459,-18.4144 55.886,-66.2811 36.1797,-105.1059 -7.6463,-15.0647 -20.0208,-26.9245 -35.3214,-34.437 -9.3989,-4.6146 -19.4587,-6.6066 -33.0846,-6.6066 z m 0,188.9877 c -18.0812,0 -34.7337,8.1644 -47.0778,20.8079 -0.238,0.2435 -1.4142,1.2054 -3.5894,3.3033 -2.7543,2.6562 -5.9565,6.4633 -8.3752,11.7565 -4.2209,9.2375 -4.9211,18.3888 -5.5921,32.5643 -1.3616,28.7685 -0.9595,60.1351 -0.7543,182.5373 l 0.3641,222.3063 6.0083,11.0802 c 8.551,15.7963 22.6881,27.9333 40.1593,33.2666 8.962,2.7357 15.9507,2.3425 22.3165,2.0288 17.5175,-0.8637 33.854,-8.8155 45.5953,-21.8743 0.1227,-0.1364 1.4211,-1.3516 3.5113,-3.6414 2.6515,-2.9047 5.4208,-6.7921 7.4388,-11.8865 3.5165,-8.8772 4.1349,-17.611 4.7338,-31.758 1.2128,-28.646 0.877,-83.8403 0.6763,-204.5416 -0.1755,-105.5483 -0.2785,-135.3347 -0.6763,-163.8622 -0.1987,-14.2519 -0.4292,-22.1263 -0.9363,-27.9866 -0.5834,-6.7442 -1.987,-11.7944 -4.0576,-15.9961 -11.191,-22.7103 -34.0337,-38.1045 -59.7447,-38.1045 z"
         transform="translate(-6.2272886e-5,-1.573624e-4)" />
      <path
         id="path22555"
         style="color:#000000;display:inline;fill:#fcd8b9;fill-opacity:1;stroke:none;stroke-width:20;stroke-dasharray:none;stroke-opacity:1;paint-order:fill markers stroke"
         inkscape:label="v"
         d="m 3441.356,2438.1097 c -18.1022,-0.066 -33.5775,8.5708 -45.2572,20.3657 -2.4046,2.4283 -5.9354,6.4554 -9.1555,12.0686 -2.9824,5.199 -6.0857,11.7323 -11.0542,22.8366 -9.9503,22.2389 -27.305,63.1507 -61.5654,143.9386 -18.2845,43.1153 -34.6261,81.2862 -47.2079,110.3859 -12.1701,-28.411 -27.8816,-65.2278 -45.4913,-106.6404 -18.4978,-43.5014 -35.8342,-83.9668 -48.8465,-114.1574 -6.5063,-15.0947 -11.9117,-27.6125 -15.8921,-36.6999 -1.9904,-4.5442 -3.6219,-8.2354 -4.8638,-11.0022 -1.1589,-2.5819 -1.7392,-4.0558 -3.0952,-6.5544 -12.6297,-23.271 -38.1829,-37.4939 -64.7646,-33.6568 -32.9509,4.757 -58.3432,32.4686 -58.0801,65.7789 0.032,4.0819 0.7587,9.721 2.9131,16.4903 2.0016,6.2891 5.1342,14.4415 10.8982,28.5588 11.5361,28.2542 33.6799,80.3151 76.9632,181.9911 24.4019,57.322 46.9796,110.1756 63.7242,149.1926 8.3724,19.5085 15.2787,35.5656 20.2357,46.9998 2.4786,5.7173 4.4727,10.2699 5.9303,13.5772 1.3319,3.0219 1.6568,4.1239 3.3812,7.3348 7.49,13.9488 19.6984,25.1472 35.2694,30.1714 8.6075,2.777 17.1514,3.0744 25.8278,2.627 23.6677,-1.2211 44.4568,-14.8383 55.0109,-36.0497 1.3134,-2.6399 1.6125,-3.526 2.9131,-6.5285 1.3755,-3.1754 3.2919,-7.6104 5.6962,-13.213 4.8078,-11.2037 11.5686,-27.023 19.7935,-46.2975 16.4499,-38.5493 38.7485,-90.9396 62.9439,-147.8921 32.4399,-76.3592 54.4982,-128.6149 68.5621,-162.5617 7.0316,-16.9728 12.0553,-29.3553 15.4498,-38.0525 1.6962,-4.3464 2.9953,-7.7701 3.9796,-10.586 0.5373,-1.5365 1.9931,-4.4544 2.5749,-10.0918 2.4664,-23.8959 -8.3647,-47.3429 -28.4808,-60.655 -11.4775,-7.5956 -24.4372,-11.6266 -38.3125,-11.6784 z"
         transform="translate(-6.2272886e-5,-1.573624e-4)" />
      <path
         id="path22557"
         style="color:#000000;display:inline;fill:#fcdfd8;fill-opacity:1;stroke:none;stroke-width:20;stroke-dasharray:none;stroke-opacity:1;paint-order:fill markers stroke"
         inkscape:label="e"
         d="m 3837.5905,2438.4218 c -74.3979,-1.3956 -146.3246,27.1593 -199.86,80.9167 -42.5577,42.7336 -68.3605,93.6499 -76.8071,152.0797 -3.2967,22.8044 -3.0526,59.8312 0.6762,82.3732 11.5257,69.6758 49.4044,131.4334 106.8746,174.8904 41.1457,31.1129 89.8086,49.1313 142.014,52.748 19.0492,1.3195 55.555,-0.092 74.4142,-2.8871 33.6,-4.9788 65.0871,-15.4023 91.7889,-29.7813 17.1518,-9.2365 34.2297,-19.3051 48.7685,-31.706 14.3674,-12.2545 24.6959,-20.1969 32.0702,-34.7492 7.8795,-15.5493 9.0491,-32.1668 3.8755,-46.6617 -5.1735,-14.4949 -16.4226,-24.6017 -31.6541,-32.4864 -9.5509,-4.9444 -19.6895,-3.3344 -30.8737,-3.3032 -8.9176,0.025 -18.8615,1.1471 -28.4548,6.0343 -7.8905,4.0196 -12.2989,5.9054 -24.5533,13.161 -34.7568,20.5788 -48.8097,26.3525 -98.3954,30.5616 -47.1765,4.0046 -85.5311,-9.9632 -118.6831,-43.0984 -7.009,-7.0055 -16.5483,-20.0321 -22.0824,-29.6772 6.9082,-0.049 12.6242,-0.082 21.7703,-0.1301 34.4223,-0.1782 81.6849,-0.3471 133.4827,-0.4422 l 194.2418,-0.3641 11.5744,-5.6701 c 13.0951,-6.4528 23.8859,-16.7903 30.6916,-29.8334 8.6639,-16.6043 7.4804,-34.0432 5.7742,-52.8 -1.7607,-19.3562 -6.0892,-40.9127 -12.8228,-61.2012 -30.6837,-92.4492 -108.4132,-162.8193 -202.1228,-182.1731 -17.234,-3.5593 -34.5394,-5.4777 -51.7076,-5.8002 z m -3.1993,131.6619 c 37.6758,0.5016 71.8767,15.2151 99.3058,43.2284 7.8095,7.9759 16.0579,19.787 22.6025,31.68 -3.6363,0.014 -6.2059,0.04 -10.742,0.052 -29.2409,0.08 -69.6019,0.13 -114.0013,0.13 -44.3937,0 -84.7711,-0.077 -114.0013,-0.1821 -4.5008,-0.016 -7.0434,-0.033 -10.6381,-0.052 22.1838,-41.7692 63.0824,-69.6448 111.1142,-74.2061 5.5173,-0.5239 10.978,-0.722 16.3602,-0.6503 z" />
    </g>
    <rect
       style="fill:url(#linearGradient22621);fill-opacity:1;fill-rule:evenodd;stroke-width:3;paint-order:stroke fill markers"
       id="rect22613"
       width="10.943097"
       height="4.2645893"
       x="-11.747736"
       y="10.138457" />
    <g
       id="g24372"
       transform="matrix(0.00685045,0,0,0.00685045,-5.4144646,-6.4776758)"
       inkscape:label="노랑"
       style="display:inline">
      <path
         id="path24352"
         style="opacity:1;fill:#222b40;fill-opacity:1;fill-rule:evenodd;stroke:none;stroke-width:20;stroke-dasharray:none;stroke-opacity:1;paint-order:fill markers stroke"
         d="m 2039.4648,945.58398 a 513.84497,513.84497 0 0 0 -513.8437,513.84572 513.84497,513.84497 0 0 0 117.0898,325.2539 l -104.3711,173.7266 a 586.49255,586.49255 0 0 0 -161.4668,-22.9356 586.49255,586.49255 0 0 0 -586.49214,586.4922 586.49255,586.49255 0 0 0 586.49214,586.4922 586.49255,586.49255 0 0 0 586.4942,-586.4922 586.49255,586.49255 0 0 0 -191.6543,-432.4746 l 89.7695,-149.4199 a 513.84497,513.84497 0 0 0 177.9824,33.2031 513.84497,513.84497 0 0 0 513.8457,-513.8457 513.84497,513.84497 0 0 0 -14.3964,-120.3926 l 105.8086,-57.8281 c 65.0332,-35.5433 88.7737,-116.5137 53.2304,-181.5469 -35.5433,-65.0332 -116.5136,-88.7737 -181.5469,-53.2305 l -105.8124,57.8321 a 513.84497,513.84497 0 0 0 -371.129,-158.67972 z m 0,267.55472 a 246.29143,246.29143 0 0 1 246.293,246.291 246.29143,246.29143 0 0 1 -246.293,246.291 246.29143,246.29143 0 0 1 -246.291,-246.291 246.29143,246.29143 0 0 1 246.291,-246.291 z m -662.5918,989.8886 a 318.939,318.939 0 0 1 318.9395,318.9395 318.939,318.939 0 0 1 -318.9395,318.9394 318.939,318.939 0 0 1 -318.9375,-318.9394 318.939,318.939 0 0 1 318.9375,-318.9395 z"
         inkscape:label="g" />
      <path
         id="path24354"
         style="color:#000000;fill:#222b40;fill-opacity:1;stroke:none;stroke-width:20;stroke-dasharray:none;stroke-opacity:1;paint-order:fill markers stroke"
         inkscape:label="a"
         d="m 2957.3121,1690.0919 c -2.0652,-0.017 -4.1507,0.044 -6.2424,0.234 -15.4126,1.3977 -29.6157,8.5151 -40.7574,19.3254 -6.2423,6.0566 -10.7478,13.4047 -13.9933,21.5361 -28.3387,-18.1416 -61.4073,-31.2801 -93.7397,-36.8039 -78.8662,-13.4736 -155.944,6.0811 -215.1797,55.427 -65.2218,54.3329 -100.4874,128.6109 -100.6062,212.4226 -0.1067,75.0893 27.9291,141.867 81.7751,195.152 44.2508,43.7896 98.724,69.8547 158.4001,75.1686 l 1.1185,0.104 h 0.8843 c 22.1784,1.7585 52.0856,0.5836 73.4519,-3.0692 32.4916,-5.5548 64.5666,-18.2747 93.1154,-36.4658 1.7796,4.3354 3.9653,8.2511 6.3464,11.6004 13.9341,19.5985 36.859,31.0431 60.8111,28.871 29.2491,-2.6523 52.8911,-24.9193 58.132,-53.7884 0.9259,-5.1022 0.6549,-7.1313 0.7543,-10.2479 0.1222,-3.8316 0.2129,-8.85 0.3121,-15.0077 0.1985,-12.3179 0.3638,-29.1277 0.4942,-49.0026 0.261,-39.7508 0.3932,-91.7007 0.3902,-143.6525 0,-51.9523 -0.1247,-103.9012 -0.3902,-143.6265 -0.1327,-19.8618 -0.2942,-36.6512 -0.4942,-48.9506 -0.099,-6.1507 -0.2155,-11.1647 -0.3381,-14.9817 -0.098,-3.0578 0.184,-5.0558 -0.7803,-10.2739 -5.089,-27.5248 -26.9336,-48.6152 -53.5543,-53.0601 v -0.8323 z M 2751.6,1822.8202 c 23.3934,-0.2969 47.2677,4.9322 64.2964,14.2534 32.0971,17.5695 57.5066,48.1512 67.3916,79.6682 10.8327,34.5379 7.5847,78.7827 -6.9706,107.915 -20.0708,40.1709 -57.3526,68.3937 -95.2742,74.6223 -22.8098,3.7464 -30.3446,3.7564 -52.3839,0.1561 -37.8932,-6.1901 -76.8104,-35.7458 -96.8088,-76.1049 -9.4823,-19.1359 -12.9187,-34.6916 -12.8749,-61.3313 0.036,-21.7857 1.3261,-30.1133 7.1527,-47.1819 12.8582,-37.6672 48.5914,-73.3179 85.4685,-85.6505 12.1091,-4.0496 25.9674,-6.1685 40.0032,-6.3464 z"
         transform="translate(-6.2272886e-5,-1.573624e-4)" />
      <path
         id="path24356"
         style="color:#000000;display:inline;fill:#222b40;fill-opacity:1;stroke:none;stroke-width:20;stroke-dasharray:none;stroke-opacity:1;paint-order:fill markers stroke"
         inkscape:label="t"
         d="m 3267.0378,1523.2646 -3.7455,0.078 -0.208,0.1821 c -13.7581,1.0878 -27.4299,6.561 -38.5207,16.8804 -6.2067,5.7752 -11.7019,12.4417 -15.6839,20.9379 l -5.5922,11.9385 -0.026,73.4779 v 43.2024 l -12.9009,0.1561 -43.6706,0.4942 -12.3286,6.5024 c -12.729,6.7183 -23.1887,17.0654 -29.8854,29.9114 -5.0311,9.6505 -5.3838,17.8998 -5.8262,25.3596 -0.6909,11.6516 1.3785,22.1627 6.2944,32.1482 7.4281,15.0895 19.9936,27.1958 35.7636,33.2666 10.8735,4.1855 20.9807,4.095 50.9273,4.5517 l 11.6264,0.1821 v 165.4228 l 0.026,195.8023 5.8783,12.0945 c 7.9787,16.3887 21.8419,29.3536 39.2489,35.0353 8.4431,2.7556 16.3625,3.0566 23.9551,2.653 24.3467,-1.2946 45.9894,-16.0374 56.1813,-38.1824 l 5.4621,-11.8605 0.3641,-195.4902 0.3382,-165.4228 11.5744,-0.156 c 17.1641,-0.2252 26.3594,-0.3142 33.7348,-0.9364 8.0274,-0.6773 14.6633,-2.7605 19.4814,-4.9679 13.4603,-6.1671 24.9564,-16.2522 31.9661,-29.8333 18.0108,-34.8959 1.4147,-78.6429 -35.3474,-92.4911 -5.0828,-1.9146 -11.3873,-3.3564 -18.9872,-3.8494 -7.23,-0.469 -16.3276,-0.5203 -32.2263,-0.5202 h -10.2219 l -0.26,-43.1244 c -0.1974,-33.0532 -0.2993,-49.9703 -0.7803,-60.629 -0.5069,-11.2344 -2.474,-18.8602 -4.8899,-24.0851 -11.6109,-25.1114 -36.615,-39.1454 -61.7214,-38.7027 z"
         transform="translate(-5.9423752e-5,-1.2926749e-4)" />
      <path
         id="path24358"
         style="color:#000000;display:inline;fill:#222b40;fill-opacity:1;stroke:none;stroke-width:20;stroke-dasharray:none;stroke-opacity:1;paint-order:fill markers stroke"
         inkscape:label="h"
         d="m 3587.1153,1521.808 c -24.3684,-0.5701 -48.7373,12.4627 -60.8631,36.2057 l -6.1643,12.0686 v 306.9685 306.5263 l 5.28,11.2883 c 6.4311,13.6868 17.5318,24.2787 30.7436,31.0297 9.6463,4.9285 19.6842,6.3464 29.0011,6.3464 9.3167,0 19.3551,-1.418 29.001,-6.3464 13.2122,-6.7511 24.3126,-17.3432 30.7437,-31.0297 1.3066,-2.7809 2.9806,-7.1249 3.7974,-12.6929 0.7008,-4.7772 0.9756,-9.9556 1.2225,-18.3109 0.4957,-16.7768 0.7069,-46.8741 1.1184,-106.4844 0.2289,-33.1648 0.531,-63.7746 0.8583,-86.3267 0.1636,-11.2757 0.3383,-20.5406 0.4942,-27.0243 0.078,-3.2404 0.143,-5.8235 0.2081,-7.4648 0.013,-0.3344 0.041,-0.4738 0.052,-0.7023 0.6374,-2.8047 1.4035,-6.3068 2.0808,-9.6237 8.3114,-40.6903 38.6473,-79.9583 71.9433,-95.6122 16.2558,-7.6425 21.2423,-8.6154 44.815,-8.5833 25.2043,0.035 28.4956,0.7254 47.39,10.43 34.2437,17.5888 59.8627,51.6972 69.6025,95.5602 2.1248,9.5687 3.6766,38.3399 3.7454,140.9475 0.029,43.5323 0.1203,70.7301 0.4162,87.9134 0.1479,8.5881 0.3577,14.6572 0.6502,19.3513 0.2468,3.9595 0.2642,8.2233 2.3409,14.0453 6.8864,19.3065 22.3261,34.4759 41.9539,40.6014 30.9452,9.657 64.627,-4.8485 78.914,-33.9428 l 6.3984,-13.083 0.4682,-114.8076 c 0.453,-117.199 -0.3971,-141.4615 -6.4244,-170.2606 -8.8569,-42.3177 -27.8152,-82.1658 -55.115,-115.7959 -14.6703,-18.0721 -40.1721,-42.0947 -58.5482,-54.3866 -33.6504,-22.5085 -69.763,-35.0485 -111.1922,-38.8328 -22.9175,-2.0936 -51.3459,-0.5937 -72.4896,4.2657 -23.7031,5.4479 -46.8968,15.0283 -68.3539,27.7525 l -0.3642,-48.6905 -0.7282,-103.1031 -6.1124,-11.9906 c -4.0611,-7.9516 -9.44,-14.3511 -15.5799,-19.8715 -11.9021,-10.7009 -26.683,-15.9921 -41.3037,-16.3342 z"
         transform="translate(-6.2272886e-5,-1.573624e-4)" />
      <path
         id="path24360"
         style="color:#000000;display:inline;fill:#222b40;fill-opacity:1;stroke:none;stroke-width:20;stroke-dasharray:none;stroke-opacity:1;paint-order:fill markers stroke"
         inkscape:label="e"
         d="m 4380.2346,1690.0919 c -104.1142,-1.3816 -202.1011,58.3956 -249.7469,153.7703 -27.3029,54.653 -33.9821,122.6332 -18.6751,183.7857 12.4083,49.5726 38.2225,94.0902 75.0905,129.4771 47.8358,45.9141 104.5736,71.5976 168.8822,76.0529 19.0497,1.3197 55.5812,-0.092 74.4402,-2.8871 61.5162,-9.1156 108.7058,-25.6103 150.077,-66.5332 9.7579,-9.6524 16.9896,-17.0657 22.3425,-26.6602 5.6735,-10.1694 7.1198,-21.0187 7.0487,-30.6396 -0.1833,-24.6301 -15.0665,-39.8174 -35.4254,-49.9909 -9.3008,-4.6475 -19.2551,-4.8696 -30.1715,-4.8379 -8.9269,0.025 -18.9629,3.1786 -28.5849,8.1411 -7.908,4.0783 -13.5562,6.8476 -24.7354,13.4211 -29.5271,17.3624 -41.8785,20.3587 -79.9023,26.348 -13.9608,2.199 -48.0642,2.2459 -56.9356,0.8063 -9.5112,-1.5434 -32.0625,-8.8247 -38.3906,-11.9905 -25.8001,-12.9071 -50.7367,-36.8071 -63.3601,-59.6147 6.3606,-0.044 11.5251,-0.067 19.9236,-0.104 34.0738,-0.1504 80.9967,-0.2601 132.5203,-0.2601 91.9559,0 138.7938,-0.01 164.0443,-0.3641 12.6142,-0.1783 19.8334,-0.4014 25.4377,-0.9104 6.1154,-0.5554 10.9077,-1.866 14.1234,-3.0691 16.3252,-6.108 29.1969,-18.5148 36.4658,-34.125 4.1202,-8.8495 5.6068,-18.6373 5.5921,-32.0962 -0.053,-63.8534 -26.7823,-129.9378 -71.5792,-179.0259 -46.4837,-50.9366 -107.9316,-81.1473 -177.5954,-87.5752 -3.6833,-0.3399 -7.3542,-0.4132 -11.0282,-0.5982 v -0.3902 z m 3.1211,131.974 c 13.7822,0.4417 27.1883,2.7405 38.8588,6.7886 34.9249,12.114 63.3944,36.6417 79.9284,67.6257 -2.8219,0.033 -4.6366,0.077 -8.1671,0.104 -28.0742,0.2208 -68.3915,0.3381 -117.0445,0.3381 h -124.8734 c 14.1261,-26.5129 36.9722,-48.6793 65.4929,-62.1896 18.8438,-8.9265 42.8346,-13.3768 65.8049,-12.6408 z"
         transform="translate(-6.2272886e-5,-1.573624e-4)" />
      <path
         id="path24362"
         style="color:#000000;display:inline;fill:#222b40;fill-opacity:1;stroke:none;stroke-width:20;stroke-dasharray:none;stroke-opacity:1;paint-order:fill markers stroke"
         inkscape:label="r"
         d="m 4997.501,1690.0398 c -7.4538,-0.2852 -15.1609,0.3364 -26.1139,1.4046 -36.419,3.5519 -72.156,16.182 -102.9471,35.9456 -2.3677,-5.1976 -5.3686,-10.1194 -9.2595,-14.5395 -29.9056,-33.9748 -85.4072,-27.43 -107.3428,12.1726 l -7.2307,13.031 -0.3642,221.0318 c -0.1578,93.4933 -0.1911,147.3563 0.052,178.8699 0.2397,31.2851 -0.4248,39.2728 2.653,49.8609 6.2603,21.5348 23.8335,36.9864 44.529,43.8006 9.5367,3.1396 17.5138,2.3322 24.0071,1.6906 6.8932,-0.681 14.5751,-1.7849 22.6546,-5.6961 13.6399,-6.6033 24.7241,-17.5055 31.2378,-31.3679 1.2982,-2.7628 2.9784,-7.0646 3.7975,-12.6148 0.7034,-4.7648 0.9796,-9.9377 1.2224,-18.2069 0.4875,-16.606 0.6609,-46.3458 1.0404,-105.288 0.4238,-65.8076 0.6866,-98.8588 1.8207,-116.9403 1.1461,-18.2713 2.0942,-19.2746 6.6586,-32.3303 7.9891,-22.8508 17.1437,-37.4956 33.8648,-54.3086 23.5564,-23.686 39.8004,-31.228 73.1138,-33.9689 11.0331,-0.9079 20.4547,-2.15 29.7553,-5.8522 9.6487,-3.841 17.2712,-10.1386 23.4089,-16.8544 12.2296,-13.3812 18.7139,-30.9672 17.2705,-48.9506 -2.0513,-25.5528 -18.8459,-47.673 -42.8382,-56.6495 -6.1417,-2.2978 -13.2043,-3.9413 -20.99,-4.2396 z"
         transform="translate(-6.2272886e-5,-1.573624e-4)" />
      <path
         id="path24364"
         style="color:#000000;display:inline;fill:#222b40;fill-opacity:1;stroke:none;stroke-width:20;stroke-dasharray:none;stroke-opacity:1;paint-order:fill markers stroke"
         inkscape:label="L"
         d="m 2227.683,2166.6186 v 0.026 c -11.0975,-0.017 -22.2117,2.5498 -32.3563,7.7249 -17.3317,8.8418 -30.2838,24.326 -36.3618,42.8122 -1.8135,5.5156 -2.6044,11.1404 -2.8611,20.3397 -0.2566,9.1994 -0.1565,22.7343 -0.2861,46.4277 -0.2601,47.5563 -0.1925,133.7558 -0.026,292.4029 0.1464,139.1942 0.328,225.5654 0.6502,277.7594 0.161,26.0968 0.3446,43.6353 0.5983,55.1409 0.1267,5.7504 0.2648,9.9702 0.4421,13.239 0.088,1.617 0.1861,3.0488 0.3382,4.4997 -0.022,-0.2062 0.1671,3.2782 1.4825,7.1007 2.932,8.5205 7.6008,14.6754 12.0686,20.1317 4.6249,5.648 9.9491,11.2868 16.8024,15.892 6.5296,4.3876 13.3316,7.2344 20.4698,9.1555 9.9813,2.6852 17.9055,2.1962 44.1647,2.4969 26.481,0.3033 70.3276,0.4032 143.9387,0.4422 90.576,0.047 136.1152,0.074 161.5214,-0.6763 12.675,-0.3742 20.5371,-0.859 27.4144,-2.0808 7.3908,-1.3129 13.1474,-3.9257 16.5943,-5.6701 15.7898,-7.9907 27.5604,-21.3915 33.7088,-37.8184 l 0.6502,-1.6906 v -0.2861 c 5.6199,-16.3735 5.4503,-34.3241 -0.6242,-50.5632 -6.2696,-16.7557 -19.1246,-29.6206 -34.4631,-37.7143 l -12.4327,-6.5545 -160.0648,-0.7283 -129.0871,-0.5722 -0.6502,-293.3653 -0.7023,-323.5888 -5.384,-11.9125 c -6.855,-15.1426 -18.6862,-27.0534 -33.2146,-34.5151 -10.1287,-5.2019 -21.2338,-7.8376 -32.3303,-7.855 z"
         transform="translate(-6.2272886e-5,-1.573624e-4)" />
      <path
         id="path24366"
         style="color:#000000;display:inline;fill:#222b40;fill-opacity:1;stroke:none;stroke-width:20;stroke-dasharray:none;stroke-opacity:1;paint-order:fill markers stroke"
         inkscape:label="i"
         d="m 2846.536,2273.103 c -13.2573,0 -23.1336,1.788 -32.3042,6.0864 -47.0628,22.0582 -59.1241,84.6323 -23.8771,122.8706 9.2436,10.0282 21.1644,17.2976 33.9949,21.4581 6.3357,2.0539 10.3096,1.7598 12.5108,1.8727 3.6101,0.1851 7.6128,0.2558 11.6784,0.1561 11.6135,-0.2846 21.2645,-2.1121 30.2235,-6.2944 39.4459,-18.4144 55.886,-66.2811 36.1797,-105.1059 -7.6463,-15.0647 -20.0208,-26.9245 -35.3214,-34.437 -9.3989,-4.6146 -19.4587,-6.6066 -33.0846,-6.6066 z m 0,188.9877 c -18.0812,0 -34.7337,8.1644 -47.0778,20.8079 -0.238,0.2435 -1.4142,1.2054 -3.5894,3.3033 -2.7543,2.6562 -5.9565,6.4633 -8.3752,11.7565 -4.2209,9.2375 -4.9211,18.3888 -5.5921,32.5643 -1.3616,28.7685 -0.9595,60.1351 -0.7543,182.5373 l 0.3641,222.3063 6.0083,11.0802 c 8.551,15.7963 22.6881,27.9333 40.1593,33.2666 8.962,2.7357 15.9507,2.3425 22.3165,2.0288 17.5175,-0.8637 33.854,-8.8155 45.5953,-21.8743 0.1227,-0.1364 1.4211,-1.3516 3.5113,-3.6414 2.6515,-2.9047 5.4208,-6.7921 7.4388,-11.8865 3.5165,-8.8772 4.1349,-17.611 4.7338,-31.758 1.2128,-28.646 0.877,-83.8403 0.6763,-204.5416 -0.1755,-105.5483 -0.2785,-135.3347 -0.6763,-163.8622 -0.1987,-14.2519 -0.4292,-22.1263 -0.9363,-27.9866 -0.5834,-6.7442 -1.987,-11.7944 -4.0576,-15.9961 -11.191,-22.7103 -34.0337,-38.1045 -59.7447,-38.1045 z"
         transform="translate(-6.2272886e-5,-1.573624e-4)" />
      <path
         id="path24368"
         style="color:#000000;display:inline;fill:#222b40;fill-opacity:1;stroke:none;stroke-width:20;stroke-dasharray:none;stroke-opacity:1;paint-order:fill markers stroke"
         inkscape:label="v"
         d="m 3441.356,2438.1097 c -18.1022,-0.066 -33.5775,8.5708 -45.2572,20.3657 -2.4046,2.4283 -5.9354,6.4554 -9.1555,12.0686 -2.9824,5.199 -6.0857,11.7323 -11.0542,22.8366 -9.9503,22.2389 -27.305,63.1507 -61.5654,143.9386 -18.2845,43.1153 -34.6261,81.2862 -47.2079,110.3859 -12.1701,-28.411 -27.8816,-65.2278 -45.4913,-106.6404 -18.4978,-43.5014 -35.8342,-83.9668 -48.8465,-114.1574 -6.5063,-15.0947 -11.9117,-27.6125 -15.8921,-36.6999 -1.9904,-4.5442 -3.6219,-8.2354 -4.8638,-11.0022 -1.1589,-2.5819 -1.7392,-4.0558 -3.0952,-6.5544 -12.6297,-23.271 -38.1829,-37.4939 -64.7646,-33.6568 -32.9509,4.757 -58.3432,32.4686 -58.0801,65.7789 0.032,4.0819 0.7587,9.721 2.9131,16.4903 2.0016,6.2891 5.1342,14.4415 10.8982,28.5588 11.5361,28.2542 33.6799,80.3151 76.9632,181.9911 24.4019,57.322 46.9796,110.1756 63.7242,149.1926 8.3724,19.5085 15.2787,35.5656 20.2357,46.9998 2.4786,5.7173 4.4727,10.2699 5.9303,13.5772 1.3319,3.0219 1.6568,4.1239 3.3812,7.3348 7.49,13.9488 19.6984,25.1472 35.2694,30.1714 8.6075,2.777 17.1514,3.0744 25.8278,2.627 23.6677,-1.2211 44.4568,-14.8383 55.0109,-36.0497 1.3134,-2.6399 1.6125,-3.526 2.9131,-6.5285 1.3755,-3.1754 3.2919,-7.6104 5.6962,-13.213 4.8078,-11.2037 11.5686,-27.023 19.7935,-46.2975 16.4499,-38.5493 38.7485,-90.9396 62.9439,-147.8921 32.4399,-76.3592 54.4982,-128.6149 68.5621,-162.5617 7.0316,-16.9728 12.0553,-29.3553 15.4498,-38.0525 1.6962,-4.3464 2.9953,-7.7701 3.9796,-10.586 0.5373,-1.5365 1.9931,-4.4544 2.5749,-10.0918 2.4664,-23.8959 -8.3647,-47.3429 -28.4808,-60.655 -11.4775,-7.5956 -24.4372,-11.6266 -38.3125,-11.6784 z"
         transform="translate(-6.2272886e-5,-1.573624e-4)" />
      <path
         id="path24370"
         style="color:#000000;display:inline;fill:#222b40;fill-opacity:1;stroke:none;stroke-width:20;stroke-dasharray:none;stroke-opacity:1;paint-order:fill markers stroke"
         inkscape:label="e"
         d="m 3837.5905,2438.4218 c -74.3979,-1.3956 -146.3246,27.1593 -199.86,80.9167 -42.5577,42.7336 -68.3605,93.6499 -76.8071,152.0797 -3.2967,22.8044 -3.0526,59.8312 0.6762,82.3732 11.5257,69.6758 49.4044,131.4334 106.8746,174.8904 41.1457,31.1129 89.8086,49.1313 142.014,52.748 19.0492,1.3195 55.555,-0.092 74.4142,-2.8871 33.6,-4.9788 65.0871,-15.4023 91.7889,-29.7813 17.1518,-9.2365 34.2297,-19.3051 48.7685,-31.706 14.3674,-12.2545 24.6959,-20.1969 32.0702,-34.7492 7.8795,-15.5493 9.0491,-32.1668 3.8755,-46.6617 -5.1735,-14.4949 -16.4226,-24.6017 -31.6541,-32.4864 -9.5509,-4.9444 -19.6895,-3.3344 -30.8737,-3.3032 -8.9176,0.025 -18.8615,1.1471 -28.4548,6.0343 -7.8905,4.0196 -12.2989,5.9054 -24.5533,13.161 -34.7568,20.5788 -48.8097,26.3525 -98.3954,30.5616 -47.1765,4.0046 -85.5311,-9.9632 -118.6831,-43.0984 -7.009,-7.0055 -16.5483,-20.0321 -22.0824,-29.6772 6.9082,-0.049 12.6242,-0.082 21.7703,-0.1301 34.4223,-0.1782 81.6849,-0.3471 133.4827,-0.4422 l 194.2418,-0.3641 11.5744,-5.6701 c 13.0951,-6.4528 23.8859,-16.7903 30.6916,-29.8334 8.6639,-16.6043 7.4804,-34.0432 5.7742,-52.8 -1.7607,-19.3562 -6.0892,-40.9127 -12.8228,-61.2012 -30.6837,-92.4492 -108.4132,-162.8193 -202.1228,-182.1731 -17.234,-3.5593 -34.5394,-5.4777 -51.7076,-5.8002 z m -3.1993,131.6619 c 37.6758,0.5016 71.8767,15.2151 99.3058,43.2284 7.8095,7.9759 16.0579,19.787 22.6025,31.68 -3.6363,0.014 -6.2059,0.04 -10.742,0.052 -29.2409,0.08 -69.6019,0.13 -114.0013,0.13 -44.3937,0 -84.7711,-0.077 -114.0013,-0.1821 -4.5008,-0.016 -7.0434,-0.033 -10.6381,-0.052 22.1838,-41.7692 63.0824,-69.6448 111.1142,-74.2061 5.5173,-0.5239 10.978,-0.722 16.3602,-0.6503 z" />
    </g>
  </g>
</svg>
