<?xml version="1.0" encoding="UTF-8" standalone="no"?>
<!-- Created with Inkscape (http://www.inkscape.org/) -->

<svg
   width="42.700001"
   height="48"
   viewBox="0 0 11.297708 12.7"
   version="1.1"
   id="svg4688"
   inkscape:version="1.2.1 (9c6d41e410, 2022-07-14)"
   sodipodi:docname="0000 Logo-small-48.svg"
   xmlns:inkscape="http://www.inkscape.org/namespaces/inkscape"
   xmlns:sodipodi="http://sodipodi.sourceforge.net/DTD/sodipodi-0.dtd"
   xmlns="http://www.w3.org/2000/svg"
   xmlns:svg="http://www.w3.org/2000/svg">
  <sodipodi:namedview
     id="namedview4690"
     pagecolor="#ffffff"
     bordercolor="#000000"
     borderopacity="0.25"
     inkscape:showpageshadow="2"
     inkscape:pageopacity="0.0"
     inkscape:pagecheckerboard="0"
     inkscape:deskcolor="#d1d1d1"
     inkscape:document-units="mm"
     showgrid="false"
     inkscape:zoom="0.73940797"
     inkscape:cx="197.45527"
     inkscape:cy="345.54672"
     inkscape:window-width="1920"
     inkscape:window-height="991"
     inkscape:window-x="-9"
     inkscape:window-y="-9"
     inkscape:window-maximized="1"
     inkscape:current-layer="layer1" />
  <defs
     id="defs4685" />
  <g
     inkscape:label="Layer 1"
     inkscape:groupmode="layer"
     id="layer1">
    <path
       id="path24352"
       style="display:inline;fill:#f8b940;fill-opacity:1;fill-rule:evenodd;stroke:none;stroke-width:0.117436;stroke-dasharray:none;stroke-opacity:1;paint-order:fill markers stroke"
       d="M 7.3343887,0 A 3.0172022,3.0172022 0 0 0 4.3171936,3.0172062 3.0172022,3.0172022 0 0 0 5.0047233,4.927037 L 4.3918756,5.947127 A 3.4437753,3.4437753 0 0 0 3.4437728,5.8124536 3.4437753,3.4437753 0 0 0 0,9.2562264 3.4437753,3.4437753 0 0 0 3.4437728,12.7 3.4437753,3.4437753 0 0 0 6.8875576,9.2562264 3.4437753,3.4437753 0 0 0 5.7621993,6.7168164 L 6.2893087,5.8394502 a 3.0172022,3.0172022 0 0 0 1.04508,0.1949622 3.0172022,3.0172022 0 0 0 3.0172063,-3.0172062 3.0172022,3.0172022 0 0 0 -0.08453,-0.7069225 L 10.888352,1.9707274 C 11.270215,1.7620242 11.409614,1.2865808 11.200911,0.90471769 10.992207,0.52285542 10.516765,0.38345485 10.134901,0.59215799 L 9.5135904,0.93173741 A 3.0172022,3.0172022 0 0 0 7.3343904,0 Z m 0,1.5710314 A 1.4461775,1.4461775 0 0 1 8.7805755,3.0172062 1.4461775,1.4461775 0 0 1 7.3343887,4.463381 1.4461775,1.4461775 0 0 1 5.888213,3.0172062 1.4461775,1.4461775 0 0 1 7.3343887,1.5710314 Z M 3.4437728,7.383473 A 1.8727506,1.8727506 0 0 1 5.3165262,9.2562264 1.8727506,1.8727506 0 0 1 3.4437728,11.12898 1.8727506,1.8727506 0 0 1 1.5710305,9.2562264 1.8727506,1.8727506 0 0 1 3.4437728,7.383473 Z"
       inkscape:label="g" />
  </g>
</svg>
