<?xml version="1.0" encoding="UTF-8" standalone="no"?>
<svg
   version="1.2"
   viewBox="0 0 3000 2000"
   width="3000"
   height="2000"
   id="svg548"
   sodipodi:docname="error.svg"
   inkscape:version="1.2.2 (732a01da63, 2022-12-09)"
   xmlns:inkscape="http://www.inkscape.org/namespaces/inkscape"
   xmlns:sodipodi="http://sodipodi.sourceforge.net/DTD/sodipodi-0.dtd"
   xmlns="http://www.w3.org/2000/svg"
   xmlns:svg="http://www.w3.org/2000/svg"
   xmlns:rdf="http://www.w3.org/1999/02/22-rdf-syntax-ns#"
   xmlns:cc="http://creativecommons.org/ns#"
   xmlns:dc="http://purl.org/dc/elements/1.1/">
  <defs
     id="defs552" />
  <sodipodi:namedview
     id="namedview550"
     pagecolor="#ffffff"
     bordercolor="#000000"
     borderopacity="0.25"
     inkscape:showpageshadow="2"
     inkscape:pageopacity="0.0"
     inkscape:pagecheckerboard="0"
     inkscape:deskcolor="#d1d1d1"
     showgrid="false"
     inkscape:zoom="0.259"
     inkscape:cx="1500"
     inkscape:cy="998.0695"
     inkscape:window-width="1392"
     inkscape:window-height="1032"
     inkscape:window-x="493"
     inkscape:window-y="1"
     inkscape:window-maximized="0"
     inkscape:current-layer="g545" />
  <title
     id="title278">11235921_11104-ai</title>
  <style
     id="style280">
		.s0 { fill: #ffffff } 
		.s1 { fill: #ebf3fa } 
		.s2 { fill: #d7e5ff } 
		.s3 { fill: #aec3ff } 
		.s4 { fill: #a8d29f } 
		.s5 { fill: #ffb27d } 
		.s6 { fill: #739af0 } 
		.s7 { fill: #1c3154 } 
		.s8 { fill: #2a4e96 } 
		.s9 { fill: #233862 } 
		.s10 { fill: #6385db } 
		.s11 { fill: #ed985f } 
		.s12 { fill: #2c3a64 } 
		.s13 { fill: #f99746 } 
		.s14 { fill: #ed7d2b } 
		.s15 { fill: #7599ea } 
		.s16 { fill: #90aff4 } 
		.s17 { fill: #5888dd } 
		.s18 { opacity: .4;fill: #5888dd } 
		.s19 { fill: #607cf4 } 
		.s20 { fill: #e9f3fe } 
		.s21 { fill: #f77d48 } 
		.s22 { fill: #e6efff } 
		.s23 { fill: #113c68 } 
		.s24 { fill: #15447c } 
		.s25 { fill: #fca56b } 
		.s26 { fill: #163560 } 
		.s27 { fill: #1f4d84 } 
		.s28 { fill: #b3cff9 } 
		.s29 { fill: #ed975d } 
		.s30 { fill: #1f447f } 
		.s31 { fill: #b5453c } 
		.s32 { fill: #e8945b } 
	</style>
  <g
     id="‘лой_1">
    <rect
       style="fill:#f8f6f1;stroke-width:3;paint-order:stroke fill markers;fill-opacity:1"
       id="rect891"
       width="2943.3052"
       height="1937.2738"
       x="21.712908"
       y="28.950542"
       inkscape:label="맨배경" />
    <path
       id="&lt;Path&gt;"
       class="s0"
       d="M 3000,2000 H 0 V 0 h 3000 z"
       style="display:none" />
    <g
       id="g545">
      <path
         id="path283"
         class="s1"
         d="m 2573.3,1840.9 c -148.2,0 -2151.7,-4.4 -2151.7,-4.6 -0.8,-1.9 -254.3,-312.6 64.9,-637.5 158.2,-161 -145.3,-369.5 0,-548.5 248.8,-306.7 495,-134 700.1,-220.3 36.2,-15.2 72.6,-39.7 109,-77.3 20.4,-21.1 42.9,-39.6 66.9,-55.6 q 5.6,-3.7 11.2,-7.2 c 14.4,-8.9 29.3,-17 44.7,-24.3 q 15.5,-7.3 31.6,-13.5 c 17,-6.5 34.4,-12.2 52.3,-17 25.3,-6.8 51.4,-11.9 78,-15.3 q 17.4,-2.3 35.1,-3.6 c 229.1,-17.2 487,79.7 620.1,221.3 26.8,28.5 148.7,176.1 52.6,378.9 -60.6,128.1 193.4,250.4 283.7,396.6 229.5,371.8 3.6,623 1.5,627.9 z"
         style="display:inline;fill:#f2efeb;fill-opacity:1"
         inkscape:label="배경" />
      <g
         id="g296"
         style="display:inline;opacity:0.8"
         inkscape:label="지구">
        <path
           id="path285"
           class="s2"
           d="m 2054.8,976.5 c -6.2,16.8 -13.7,32.7 -22.4,47.7 -20.9,35.8 -48.9,66 -81.4,89.3 -75.5,54.2 -175.6,71.4 -269.5,37.2 -111.8,-40.6 -183.5,-142.5 -191.2,-253.9 -1,-14.7 -0.9,-29.6 0.4,-44.5 2.1,-25 7.5,-50.2 16.5,-74.9 7.3,-20 16.5,-38.7 27.4,-56 q 0.2,-0.3 0.4,-0.6 c 30.2,-47.7 73.2,-84.6 122.6,-107.7 14,-6.6 28.5,-12 43.4,-16.3 q 10.7,-3 21.6,-5.3 c 51,-10.5 105.4,-7.4 157.9,11.7 q 10.5,3.8 20.4,8.3 14.1,6.3 27.2,13.9 c 36.7,21.4 67.4,50.1 90.9,83.5 14.7,20.9 26.6,43.5 35.3,67.3 4.7,12.5 8.4,25.4 11.3,38.5 q 2.7,12.2 4.3,24.6 c 2.6,20 3.2,40.4 1.5,60.9 -2,25.4 -7.5,51.1 -16.6,76.3 z"
           inkscape:label="바다"
           style="fill:#fac7bb;fill-opacity:1" />
        <g
           id="&lt;Group&gt;"
           style="display:inline;fill:#3e4b99;fill-opacity:1"
           inkscape:label="대륙">
          <path
             id="path287"
             class="s3"
             d="m 1732.5,720.6 c -17.2,13.3 -12.6,49 -42.4,28.9 -29.8,-20.1 -48.5,-31.1 -56.9,-13.5 -8.5,17.5 17.9,27.1 11,46.3 -7,19.1 -21.1,21.1 -36,5.4 -14.9,-15.7 -15.4,-30.8 -39.5,-30.3 -24.2,0.5 -34.5,-9.4 -33.3,-27.6 0.2,-3.2 -0.1,-5.9 -0.8,-8.4 q 0.2,-0.3 0.4,-0.6 c 30.2,-47.7 73.2,-84.6 122.6,-107.7 14,-6.6 28.5,-12 43.4,-16.3 q 10.7,-3 21.6,-5.3 c 8.5,3.4 17.5,10.4 22.3,24.3 10.5,30.6 27.5,23.4 13,49.1 -14.4,25.6 -8.5,31.9 7.3,36.6 15.8,4.8 34,11.4 31.6,23.9 -2.5,12.5 -47.1,-18.2 -64.3,-4.8 z"
             style="fill:#3e4b99;fill-opacity:1" />
          <path
             id="path289"
             class="s3"
             d="m 2054.8,976.5 c -6.2,16.8 -13.7,32.7 -22.4,47.7 -20.9,35.8 -48.9,66 -81.4,89.3 -8.1,-0.3 -15.4,-3 -21.7,-8.6 -29.1,-26 9.5,-53.7 29.9,-67.2 20.4,-13.5 -17.4,-17.9 -36.5,-44.2 -19.1,-26.2 25.6,-61.8 -3.1,-63.7 -28.7,-1.9 -63.6,-3.8 -69.4,-34.5 -5.9,-30.8 24.3,-24.4 19,-50.3 -5.2,-25.9 19.7,-30.7 46.4,-23.3 26.7,7.3 30,-12.3 63.1,-3.4 33,8.9 17.5,49.6 54,59.8 36.5,10.2 31.9,17.8 31.9,17.8 q 3.9,1.3 6.8,4.3 c -2,25.4 -7.5,51.1 -16.6,76.3 z"
             style="fill:#3e4b99;fill-opacity:1" />
          <path
             id="path291"
             class="s3"
             d="m 2069.9,839.3 c -34.7,3.7 -32.4,-39.7 -61.9,-37.1 -29.7,2.6 -17,-18.6 -31.7,-40.4 -14.8,-21.9 -64.4,-10 -54.3,-32.1 10.1,-22.1 37.8,-4.8 50.8,-20.7 13,-15.9 40.5,-0.8 40.5,-0.8 q 2.8,0 5.7,0.7 0,0 0,0 c 14.7,20.9 26.6,43.5 35.3,67.3 4.7,12.5 8.4,25.4 11.3,38.5 q 2.7,12.2 4.3,24.6 z"
             style="fill:#3e4b99;fill-opacity:1" />
          <path
             id="path293"
             class="s3"
             d="m 1849.7,670.4 c 0,0 23.6,-16.7 1.4,-32.2 -22.2,-15.5 -24.8,-6.7 -43.2,-15.7 -18.4,-9 -31.3,3 -22.8,24.4 8.4,21.4 8.8,56.6 27.8,44.8 18.9,-11.8 21,-25.2 36.8,-21.3 z"
             style="fill:#3e4b99;fill-opacity:1" />
        </g>
      </g>
      <g
         id="g837"
         inkscape:label="풀떼기">
        <path
           id="path298"
           class="s4"
           d="m487.8 1837.1h101.6c5.4-4.6-3.8-15.1-13.4-15.8-4.2-0.3-9.5 0.6-15.5 1.9-1.4-18.6-9.4-102.1-39.5-98.7-33.8 3.7 0 36.7 9.6 56.3 7 14.4 14.5 35.2 17.9 45q-4.1 0.9-8.5 1.7c-4.4-13.8-21.1-60.1-42.3-57.4-25 3.2-14.9 21.8 2.7 32.8 13 8.1 28.9 19.6 36.4 25.2-6.4 1-13.1 1.7-19.8 1.6-17.4-0.4-25.9 4.7-29.2 7.4z"
           inkscape:label="path298"
           style="fill:#583bac;fill-opacity:1" />
        <path
           id="path300"
           class="s4"
           d="m2104.7 1837.1h-94.4c-5-4.3 3.5-14 12.4-14.6 3.9-0.3 8.8 0.5 14.5 1.7 1.2-17.3 8.7-94.8 36.6-91.7 31.4 3.5 0 34.1-8.9 52.3-6.6 13.4-13.5 32.7-16.7 41.8q3.9 0.8 7.9 1.6c4.2-12.8 19.7-55.8 39.4-53.3 23.1 2.9 13.8 20.2-2.6 30.4-12 7.5-26.8 18.2-33.8 23.4 6 1 12.2 1.6 18.5 1.5 16.1-0.4 24 4.4 27.1 6.9z"
           style="fill:#583bac;fill-opacity:1" />
      </g>
      <g
         id="g350"
         style="display:inline"
         inkscape:label="오른쪽확성기">
        <path
           id="path302"
           class="s5"
           d="m 2172.1,1218.6 c 0,0 2.2,-22.4 -9.5,-21.6 -11.6,0.7 -14.7,6.1 -13.4,10.4 1.3,4.3 12.6,18.5 12.6,18.5 z"
           style="display:inline;fill:#fcdfd8;fill-opacity:1"
           inkscape:label="피부" />
        <path
           id="path304"
           class="s6"
           d="m 2354.1,1263.3 c 0,0 -12.9,15.2 -40.7,32.8 q -4,2.4 -8.3,5 c -10.8,6.3 -23.5,12.7 -38.1,18.7 q -2.5,1 -5.7,2.2 c -16.6,6 -47.3,14.5 -66.3,15.3 q -2.5,0.1 -4.7,0 c -28.9,-1.2 -32.4,-113.4 -32.4,-113.4 0,0 3.2,-11.3 18,-8.4 0,0 22.6,63.4 30.7,68.5 7.2,4.6 48.5,-57.9 84,-62.3 23.9,-3 63.5,41.6 63.5,41.6 z"
           style="display:inline;fill:#7a98f0;fill-opacity:1"
           inkscape:label="티셔츠" />
        <path
           id="path306"
           class="s7"
           d="m 2276.4,1810.7 c 0,0 2.1,24.8 -3.1,27.3 l -66.8,-0.1 c 0,0 0,-7.7 10.7,-9.4 10.7,-1.8 29.6,-8 32.8,-22 3.2,-14 26.4,4.2 26.4,4.2 z"
           style="display:inline;fill:#222b40;fill-opacity:1"
           inkscape:label="신발" />
        <path
           id="path308"
           class="s8"
           d="m 2227.3,1511.7 c 0.3,16.1 1.1,32.8 2.6,47.8 7.3,71 9.8,156.9 10.8,173.5 1.8,28.7 7.5,74.6 7.5,74.6 0,0 11.3,10.7 33.2,5.6 0,0 18.2,-66.1 22.3,-135.7 q 0.1,-1.8 0.2,-3.5 c 0.4,-9.2 0.9,-19.7 1.4,-31.1 3.4,-76 7,-189 7,-189 l -83.9,-19.7 c 0,0 -1.9,37.2 -1.1,77.5 z"
           style="display:inline;fill:#3e4b99;fill-opacity:1"
           inkscape:label="바지" />
        <path
           id="path310"
           class="s9"
           d="m 2227.3,1511.7 c 21.3,36.6 61.8,104.2 78,131.2 3.4,-76 7,-189 7,-189 l -83.9,-19.7 c 0,0 -1.9,37.2 -1.1,77.5 z"
           inkscape:label="바지그림자" />
        <path
           id="path312"
           class="s10"
           d="m 2261.3,1322 c -16.6,6 -47.3,14.5 -66.3,15.3 2.9,-0.5 24.1,-4.7 31.9,-14.2 8.4,-10.1 22.5,-37.7 33.8,-26.5 5.3,5.3 3.7,15.8 0.6,25.4 z"
           style="display:inline"
           inkscape:label="티셔츠그림자" />
        <path
           id="path314"
           class="s5"
           d="m 2402.3,1499.7 c 0,0 5.2,20.4 4.3,25 -0.8,4.5 -5.9,19.9 -9.1,23.7 -3.1,3.8 -3.3,-16.6 -5.4,-19.8 -2.1,-3.2 -0.9,7.6 -2.6,8.5 -1.7,0.9 -4.5,-8.2 -5.8,-11.4 -1.2,-3.2 4.5,-14.4 5,-22.5 0.6,-8 13.6,-3.5 13.6,-3.5 z"
           inkscape:label="피부"
           style="fill:#fcdfd8;fill-opacity:1" />
        <path
           id="path316"
           class="s7"
           d="m 2442.9,1782.7 c 0,0 11.9,10.8 9.6,18.5 -2.3,7.7 -13.1,12.9 -14.5,22.3 -1.5,9.4 -7.3,14.6 -12.5,14.6 -5.2,0 -24.9,0 -24.9,0 0,0 -3.8,-6.6 5.4,-8.6 9.3,-2 12.8,-13.1 12.3,-23.4 -0.6,-10.3 0.8,-24 0.8,-24 l 19.8,-4.6 z"
           inkscape:label="신발"
           style="fill:#222b40;fill-opacity:1" />
        <path
           id="path318"
           class="s8"
           d="m 2241.6,1455.7 c 0,0 78.6,168 120.4,241.7 41.7,73.7 54.8,94.3 54.8,94.3 0,0 23.9,-9.4 26.1,-15.9 0,0 -16,-142.3 -43.9,-177 -15.9,-19.6 -34.4,-78.4 -35.3,-99 -0.9,-20.6 -19.2,-69.7 -19.2,-69.7 z"
           inkscape:label="바지"
           style="fill:#3e4b99;fill-opacity:1" />
        <path
           id="path320"
           class="s6"
           d="m 2227,1446.9 c 0,0 25.6,27.5 69,35.9 19.1,3.6 57.8,7.1 67.4,-6.4 2.3,-3.2 2.3,-8 1.8,-15.3 -1.3,-19.2 -6.1,-56.2 15.6,-130.6 2,-6.9 3.4,-13.6 4.2,-19.9 4.8,-38.1 4.2,-66.8 -28.8,-82.1 -49.5,-23.1 -69.8,-4.1 -69.8,-4.1 0,0 -26.3,12.3 -38.3,48.1 -24.1,71.7 -21.1,174.4 -21.1,174.4 z"
           inkscape:label="티셔츠"
           style="fill:#7a98f0;fill-opacity:1" />
        <path
           id="path322"
           class="s5"
           d="m 2326.5,1222.1 c -8.3,5.9 -23,9.4 -37,2.5 -1,-0.6 -0.9,-8 -0.6,-15.2 0.2,-7.2 0.9,-14.2 0.9,-14.2 l 17.6,-11.5 16.8,-11 c -2,37.9 6.1,46.7 2.3,49.4 z"
           inkscape:label="피부"
           style="fill:#fcdfd8;fill-opacity:1" />
        <path
           id="path324"
           class="s11"
           d="m 2321.3,1188.3 c 0,0 -11.5,17.2 -32.4,21.1 0.2,-7.2 1,-15 1,-15 l 17.5,-10.7 z"
           inkscape:label="피부그림자"
           style="display:inline;fill:#fbcdc2;fill-opacity:1" />
        <path
           id="path326"
           class="s5"
           d="m 2274,1190.8 c 0,0 42.6,15.9 52.1,-10.4 9.5,-26.2 21.4,-41.8 -5.4,-53.1 -26.8,-11.3 -35.8,-3.1 -41.1,4.9 -5.3,8 -16.4,53.8 -5.6,58.6 z"
           inkscape:label="피부"
           style="fill:#fcdfd8;fill-opacity:1" />
        <path
           id="path328"
           class="s12"
           d="m 2352.7,1130.3 c 0.4,-0.4 1.4,-0.6 3.5,-0.3 0,0 -1.4,-1.4 -3.6,-1.9 0.1,-2.9 -0.4,-8.2 -5.1,-10.4 0,0 2.4,1.9 2.1,5 -4.5,-7 -15.8,-13.6 -50.1,-17.6 -45.2,-5.3 -36.1,26.1 -31,30.6 5,4.5 21.4,-1.9 31.9,1.1 10.6,2.9 9.6,18.8 12.8,21.7 3.2,2.8 2.5,-1.2 7.9,-2.5 5.3,-1.2 4.2,7 1.7,12 -2.4,5.1 2.9,13.4 2.9,13.4 0,0 0,0 8.3,-6 8.3,-6 20.9,-35.9 19.1,-43.2 q -0.2,-1 -0.4,-1.9 z"
           inkscape:label="머리"
           style="fill:#222b40;fill-opacity:1" />
        <path
           id="path330"
           class="s10"
           d="m 2365.2,1461.1 c -1.3,-19.2 -6.1,-56.2 15.6,-130.6 2,-6.9 3.4,-13.6 4.2,-19.9 -16.2,-5.3 -45.6,6.5 -45.6,6.5 0,0 -6.9,98.4 25.8,144 z"
           inkscape:label="티셔츠그림자" />
        <path
           id="path332"
           class="s6"
           d="m 2365.1,1233.4 c 0,0 19.9,7.3 32.6,59.9 8.4,34.8 23.8,85.9 25.5,102 1.8,16 -17.6,110.1 -17.6,110.1 0,0 -2.7,2 -9.4,0.7 -6.4,-1.3 -9.4,-5.7 -9.4,-5.7 0,0 -4.7,-62.6 -3.5,-92.2 0.5,-12.3 -56.9,-90.1 -87.9,-100.1 -12.2,-4 69.7,-74.7 69.7,-74.7 z"
           inkscape:label="티셔츠"
           style="fill:#7a98f0;fill-opacity:1" />
        <path
           id="path334"
           class="s3"
           d="m 2087,1165.3 c 0,0 57.5,-1.7 123.8,10.6 l 6.9,-17.5 7.6,-19.1 c 0,0 -66.6,-28.7 -106.6,-68.6 z"
           inkscape:label="확성기몸통"
           style="fill:#f8b940;fill-opacity:1" />
        <path
           id="path336"
           class="s13"
           d="m 2119.6,1069.8 -33,97.4 c -4.8,-1.5 -7.4,-6.7 -5.8,-11.4 l 29.1,-81.8 c 1.4,-4 5.9,-5.9 9.7,-4.2 z"
           inkscape:label="확성기포인트"
           style="fill:#ff4a60;fill-opacity:1" />
        <path
           id="path338"
           class="s13"
           d="m 2151.1,1237.8 c 6.4,1.3 12.7,-2.9 14,-9.4 l 11.4,-56.8 c 1.3,-6.4 -2.9,-12.7 -9.4,-14 -6.4,-1.3 -12.7,2.9 -14,9.3 l -11.3,56.9 c -1.3,6.4 2.9,12.7 9.3,14 z"
           inkscape:label="확성기손잡이"
           style="fill:#ff4a60;fill-opacity:1" />
        <path
           id="path340"
           class="s6"
           d="m 2087,1165.3 c 0,0 57.5,-1.7 123.8,10.6 l 6.9,-17.5 c -62.3,-12.7 -130.7,6.9 -130.7,6.9 z"
           inkscape:label="확성기그림자"
           style="fill:#f7a812;fill-opacity:1" />
        <path
           id="path342"
           class="s13"
           d="m 2192.4,1172.3 18,3.2 c -0.3,0 16.7,3.3 22.2,-11.7 0.6,-1.1 0.9,-2.1 1.1,-3.3 4.3,-18.7 -6,-22.2 -6,-22.2 l -23.1,-9 -7.3,26 c 0,0 0,0 0,0.1 z"
           inkscape:label="확성기포인트"
           style="fill:#ff4a60;fill-opacity:1" />
        <path
           id="path344"
           class="s14"
           d="m 2192.4,1172.3 18,3.2 c -0.3,0 16.7,3.3 22.2,-11.7 -10.1,-7.4 -35.3,-8.5 -35.3,-8.5 0,0 0,0 0,0.1 z"
           inkscape:label="확성기포인트그림자"
           style="fill:#ff1834;fill-opacity:1" />
        <path
           id="path346"
           class="s5"
           d="m 2152.6,1182.7 c 0,0 8.8,3.5 7.2,7.4 -1.6,3.9 -12.8,9.2 -14.5,6.1 -1.8,-3 1.8,-16.7 7.3,-13.5 z"
           inkscape:label="피부"
           style="fill:#fcdfd8;fill-opacity:1" />
        <path
           id="path348"
           class="s5"
           d="m 2172.2,1215 c 0,0 1.7,-8.9 1.8,-13.1 0.1,-4.1 0.6,-7.5 -0.4,-7.6 -1,-0.1 -1.7,0.6 -2.1,2 -0.4,1.3 -1.9,9.5 -1.9,9.5 l 0.8,8 z"
           inkscape:label="피부"
           style="fill:#fcdfd8;fill-opacity:1" />
      </g>
      <g
         id="g382"
         style="display:inline"
         inkscape:label="모니터">
        <path
           id="path352"
           class="s15"
           d="m 1303.3,1209.2 -49.8,591.8 c 0,0 -5.2,35.8 21.5,35.9 43.9,0.1 218.4,0 218.4,0 0,0 -33,-7.5 -32.6,-24.3 0.4,-19.8 58.1,-609 58.1,-609 z"
           style="display:inline;fill:#3e4b99;fill-opacity:1"
           inkscape:label="받침옆면" />
        <path
           id="path354"
           class="s16"
           d="m 1509.8,1826.4 c -8.6,0 -177.6,0.3 -220.3,-0.2 -18.6,-0.3 -21.9,-16.6 -22,-27.1 -0.1,-5.1 0.5,-8.9 0.5,-8.9 l 1.3,-15.3 3.3,-39.2 2.9,-34.7 3.8,-44.5 3.1,-37.6 35.4,-420.5 215.6,-5.6 c 0,0 -24.3,246.6 -41.5,426.1 -1.9,20 -3.7,39.2 -5.4,57.1 q -0.8,8.6 -1.6,16.8 c -1.6,17 -3,32.5 -4.3,46.3 q -1,10.9 -1.8,20.2 c -2.2,24.2 -3.5,39.7 -3.5,42.6 q 0,2.6 0.4,4.8 c 3.5,18.9 30.9,19.7 34.1,19.7 z"
           inkscape:label="받침앞면"
           style="fill:#7a98f0;fill-opacity:1" />
        <path
           id="path356"
           class="s3"
           d="m 779.7,887.1 121.2,487 16.6,66.7 56.5,226.8 H 2023 L 1814.9,887.1 Z"
           style="display:inline;fill:#7a98f0;fill-opacity:1"
           inkscape:label="아래" />
        <path
           id="path358"
           class="s16"
           d="m 779.7,887.1 -16.9,5.6 188.8,791.9 22.4,-17 z"
           style="display:inline;fill:#3e4b99;fill-opacity:1"
           inkscape:label="옆면" />
        <path
           id="path360"
           class="s15"
           d="m 951.6,1684.6 h 1042.6 l 28.8,-17 H 974 Z"
           inkscape:label="아랫면"
           style="fill:#3e4b99;fill-opacity:1" />
        <path
           id="path362"
           class="s3"
           d="m 1317.7,1837.1 h 225.8 v -10.7 h -225.8 z"
           inkscape:label="받침아랫면"
           style="fill:#3e4b99;fill-opacity:1" />
        <path
           id="path364"
           class="s17"
           d="m 1486.1,1684.6 -1.2,8.2 -212.3,42.9 2.9,-34.7 1.4,-16.4 z"
           style="display:inline"
           inkscape:label="받침진한그림자" />
        <path
           id="path366"
           class="s18"
           d="m 1509.8,1826.4 c -8.6,0 -177.6,0.3 -220.3,-0.2 -18.6,-0.3 -21.9,-16.6 -22,-27.1 l 211.3,-39.8 c -2.2,24.2 -3.5,39.7 -3.5,42.6 q 0,2.6 0.4,4.8 c 3.5,18.9 30.9,19.7 34.1,19.7 z"
           inkscape:label="받침연한그림자" />
        <path
           id="path370"
           class="s6"
           d="M 1934,1487.2 H 964.7 l -34.6,-138 -13.4,-53.3 -5.5,-21.8 -35.6,-141.8 -1.8,-7.4 -18.8,-75 -8.5,-33.5 -7.1,-28.6 -16.9,-67.1 h 955.3 l 18.5,67.1 7.9,28.6 9.3,33.5 60.9,221 5.1,18.7 2.4,8.7 42.1,152.5 z"
           style="display:inline;fill:#fcdfd8;fill-opacity:1"
           inkscape:label="화면" />
        <path
           id="path372"
           class="s19"
           d="M 1796.3,987.8 H 839.4 l -16.9,-67.1 h 955.3 z"
           style="display:inline;fill:#222b40;fill-opacity:1"
           inkscape:label="화면상단바" />
        <g
           id="g380"
           style="display:inline"
           inkscape:label="상단 점세개">
          <path
             id="path374"
             class="s20"
             d="m 862.1,951 c -1.2,-4.6 1.6,-8.3 6.2,-8.3 4.7,0 9.4,3.7 10.5,8.3 1.2,4.7 -1.6,8.4 -6.3,8.4 -4.6,0 -9.3,-3.7 -10.4,-8.4 z"
             style="fill:#f8b940;fill-opacity:1" />
          <path
             id="path376"
             class="s20"
             d="m 889.9,951 c -1.1,-4.6 1.7,-8.3 6.3,-8.3 4.6,0 9.3,3.7 10.5,8.3 1.1,4.7 -1.7,8.4 -6.3,8.4 -4.6,0 -9.3,-3.7 -10.5,-8.4 z"
             style="fill:#f8b940;fill-opacity:1" />
          <path
             id="path378"
             class="s20"
             d="m 919.9,951 c -1.1,-4.6 1.7,-8.3 6.3,-8.3 4.6,0 9.3,3.7 10.5,8.3 1.1,4.7 -1.7,8.4 -6.3,8.4 -4.6,0 -9.3,-3.7 -10.5,-8.4 z"
             style="fill:#f8b940;fill-opacity:1" />
        </g>
      </g>
      <g
         id="g10230"
         inkscape:label="번개">
        <path
           id="path384"
           class="s21"
           d="m1587.8 530.8c39.2-46 99.6-138.4 140.3-185.7 8.3-9.7 1.4-24.8-11.5-24.8h-74l69.8-157.8c3-6.8-6.2-12.1-10.6-6.2l-168.8 225.9c-4.9 6.6 0.5 15.9 8.7 14.9l83.7-10.4-49.8 137c-2.7 7.5 7 13.2 12.2 7.1z"
           inkscape:label="오른쪽번개"
           style="fill:#ff4a60;fill-opacity:1" />
        <path
           id="path386"
           class="s3"
           d="m1239.4 811c8.8-45.2 14.3-129.2 23.6-175.8 2-9.6-8.3-17-16.8-12.2l-49.2 27.7-12.6-131c-0.6-5.6-8.7-5.7-9.4-0.1l-27.6 213.2c-0.8 6.2 6.2 10.3 11.3 6.6l51.8-38.2 18.1 109.6c1 6.1 9.6 6.2 10.8 0.2z"
           inkscape:label="왼쪽번개"
           style="fill:#f8b940;fill-opacity:1" />
      </g>
      <g
         id="g399"
         inkscape:label="오류마크">
        <path
           id="path388"
           class="s22"
           d="m1976.4 1500.6l-842.3 70.9c-63.9 5.4-110.2-59.8-84-118.4l356.8-798.5c27.1-60.6 110.3-67.6 147.1-12.4l485.4 727.6c35.6 53.4 0.9 125.4-63 130.8z"
           inkscape:label="삼각형"
           style="fill:#f8f6f1;fill-opacity:1" />
        <g
           id="g391">
          <path
             id="&lt;Compound Path&gt;"
             fill-rule="evenodd"
             class="s21"
             d="m 1979,1532.4 -842.2,71 c -41.4,3.5 -80.5,-14.7 -104.6,-48.6 -24,-33.9 -28.3,-76.8 -11.3,-114.7 l 356.8,-798.6 c 17.5,-39.2 53.6,-64.8 96.4,-68.4 42.8,-3.6 82.6,15.6 106.5,51.3 L 2066,1352 c 23.1,34.6 26.1,77.6 8,115.1 -18,37.4 -53.5,61.8 -95,65.3 z M 1479.5,636.8 c -19.3,1.6 -35.5,13.1 -43.4,30.8 l -356.8,798.6 c -7.7,17.1 -5.8,36.4 5.1,51.6 10.8,15.3 28.4,23.4 47,21.9 l 842.3,-71 c 18.6,-1.6 34.6,-12.6 42.7,-29.4 8.1,-16.9 6.8,-36.2 -3.6,-51.8 L 1527.4,659.9 c -10.7,-16.1 -28.6,-24.7 -47.9,-23.1 z"
             style="display:inline;fill:#ff4a60;fill-opacity:1"
             inkscape:label="테두리" />
        </g>
        <g
           id="g397">
          <g
             id="g395">
            <path
               id="path393"
               class="s21"
               d="m 1459.7,1378.4 q -1.3,-16.3 3.3,-30.6 4.7,-14.3 14.4,-25.3 9.8,-11 24.2,-17.9 14.5,-7 33.2,-8.5 18.7,-1.6 34.3,2.8 15.7,4.4 27.1,13.6 11.5,9.2 18.5,22.5 6.9,13.4 8.3,29.6 1.4,16.3 -3.3,30.4 -4.7,14.1 -14.4,25.1 -9.8,11 -24.5,17.9 -14.7,7 -33.4,8.5 -18.7,1.6 -34,-2.8 -15.4,-4.4 -26.9,-13.6 -11.5,-9.3 -18.4,-22.3 -7,-13.1 -8.4,-29.4 z M 1590,1226 l -121.4,10.3 -52.1,-413.1 155.7,-13.1 z"
               style="display:inline;fill:#ff4a60;fill-opacity:1"
               inkscape:label="느낌표" />
          </g>
        </g>
      </g>
      <g
         id="g449"
         inkscape:label="왼쪽돋보기">
        <path
           id="path401"
           class="s5"
           d="m 936.7,1251.4 c 0,0 2.7,-6 4.4,-8.8 1.7,-2.8 9,-11 10.3,-9.2 1.2,1.9 6.2,14.4 3.5,18 -2.6,3.5 0.2,9.6 -12.9,13.3 z"
           style="display:inline;fill:#facbbf;fill-opacity:1"
           inkscape:label="피부" />
        <path
           id="path403"
           class="s14"
           d="m790.7 1213.9c0 0 67.3 56.1 93.5 50.9 20.5-4 53-14.3 53-14.3 0 0 8.5 8.1 6.1 17.9 0 0-41.3 38.9-70.8 39.1-46 0.4-67.7-22.8-67.7-22.8z"
           inkscape:label="티셔츠그림자"
           style="fill:#f4a309;fill-opacity:1" />
        <path
           id="path405"
           class="s23"
           d="m672.7 1806.3c0 0 1.9 31.5 8 32 0.8 0 30.9 0 30.9 0l38.5-0.2c0 0-0.3-9.3-11.5-11.2-11.2-2-30.1-9.9-36.9-24.7-7.1-15.6-29 4.1-29 4.1z"
           inkscape:label="신발"
           style="fill:#222b40;fill-opacity:1" />
        <path
           id="path407"
           class="s8"
           d="m670.5 1808.5c0 0 11.6 3.9 20.8 3.9 10.1 0 19.4-2.8 19.4-2.8 0 0 2.2-21.2 14.3-68.1 6.3-24.6 15.4-56.2 28.3-95.4 35.6-108.5 46.5-172 47.5-178q0-0.4 0-0.4l-0.1-0.1-109.6-48.1c0 0 13.6 149.5-3.7 206.9-2.4 8-4.5 17.3-6.3 27.5-10.9 62.3-10.6 154.6-10.6 154.6z"
           inkscape:label="바지"
           style="fill:#3e4b99;fill-opacity:1" />
        <path
           id="path409"
           class="s9"
           d="m725 1741.5c6.3-24.6 15.4-56.2 28.3-95.4 35.6-108.5 46.5-172 47.5-178q0-0.2-0.1-0.5l-109.6-48.1c0 0 13.6 149.5-3.7 206.9-2.4 8 37.6 115.1 37.6 115.1z"
           inkscape:label="바지그림자" />
        <path
           id="path411"
           class="s24"
           d="m758.3 1806.3c0 0 1.9 31.5 8 32 0.8 0 30.9 0 30.9 0l38.5-0.2c0 0-0.3-9.3-11.5-11.2-11.2-2-30-9.9-36.9-24.7-7.1-15.6-29 4.1-29 4.1z"
           inkscape:label="신발"
           style="fill:#222b40;fill-opacity:1" />
        <path
           id="path413"
           class="s8"
           d="m820.4 1423c0 0 1.4 96.9-15.3 215.8-16.8 119-11.1 169.5-11.1 169.5 0 0-11.5 3.7-16.2 4.1-11.8 1-23.9-2.8-23.9-2.8 0 0-24-119-17.2-178.5 6.9-59.6-32.8-204.3-32.8-204.3z"
           inkscape:label="바지"
           style="fill:#3e4b99;fill-opacity:1" />
        <path
           id="path415"
           class="s5"
           d="m 742.7,1196.3 21.4,14 19.5,-5.5 c 3.5,-5.1 4.5,-14.9 4.5,-23.4 0.1,-8.4 -0.7,-15.5 -0.7,-15.5 l -28.9,-12.8 -10.8,-4.7 c 0.1,0.2 0.9,8.8 1,10.1 2,22.5 -6,37.8 -6,37.8 z"
           inkscape:label="피부"
           style="display:inline;fill:#fcdfd8;fill-opacity:1" />
        <path
           id="path417"
           class="s13"
           d="m820.9 1449.9c-26.6 25.8-127.4 21.4-133.6-6.9-6.2-28.3 6.8-241.2 52.2-254.5 9.5-2.8 60 13.5 60 13.5 0 0 7.9 20.7 13.1 47.1 1 5.1 3.9 59.5 6.1 110.4 1 23.8 1.9 46.8 2.4 63.7 0.4 15.8 0.4 26.2-0.2 26.7z"
           inkscape:label="티셔츠"
           style="fill:#f8b940;fill-opacity:1" />
        <path
           id="path419"
           class="s25"
           d="m750.9 1158.9c5.8 9.9 26.4 18.6 37.2 22.5 0.1-8.4-0.7-15.5-0.7-15.5l-28.9-12.8c-6.4 0-10.3 1.4-7.6 5.8z"
           inkscape:label="피부그림자"
           style="fill:#facbbf;fill-opacity:1" />
        <path
           id="path421"
           class="s5"
           d="m798.3 1164.1c0 0-46.5 14.5-55.1-14.6-8.6-29.1-20.4-46.8 8.9-57.3 29.4-10.5 38.4-1.1 43.7 7.9 5.2 9 14.3 59.5 2.5 64z"
           inkscape:label="피부"
           style="fill:#fcdfd8;fill-opacity:1" />
        <path
           id="path423"
           class="s26"
           d="m793.9 1097.3c0 0-2.9 33.9-9.9 32.4-7-1.5-14.8-4.6-13.7 5.6 1 10.2-6.8 27.7-16.9 27.7-21.7-0.1-45.2-55.7-39.3-66.2 17.1-30.4 104.6-36.6 79.8 0.5z"
           inkscape:label="머리" />
        <path
           id="path425"
           class="s14"
           d="m787.1 1189.2c-0.6-0.2-34.6-15.5-38.6-14.2-4 1.3-9 13.5-9 13.5l60 13.5c0 0-4.8-9.6-12.4-12.8z"
           inkscape:label="티셔츠그림자"
           style="fill:#f4a309;fill-opacity:1" />
        <g
           id="g437">
          <path
             id="path427"
             class="s27"
             d="m 998.9,1354 -190.7,179.6 c -3.8,3.5 -8.5,4.6 -10.5,2.5 l -6.4,-6.8 c -2.1,-2.2 -0.7,-6.8 3.1,-10.4 l 190.7,-179.5 c 3.7,-3.5 8.5,-4.7 10.5,-2.5 l 6.4,6.8 c 2,2.2 0.6,6.8 -3.1,10.3 z"
             style="display:inline;fill:#222b40;fill-opacity:1"
             inkscape:label="돋보기그림자" />
          <path
             id="path429"
             class="s6"
             d="m891.9 1454.8l-83.7 78.8c-3.8 3.5-8.5 4.6-10.5 2.5l-6.4-6.8c-2.1-2.2-0.7-6.8 3.1-10.4l83.7-78.8z"
             inkscape:label="돋보기연한색"
             style="fill:#7a98f0;fill-opacity:1" />
          <path
             id="path431"
             fill-rule="evenodd"
             class="s27"
             d="m989.2 1140.2c56.6-60.2 151.2-63 211.3-6.5q1.2 1.2 2.3 2.3c57.9 56.8 60 149.7 4.1 209-56.5 60.2-151.1 63.1-211.3 6.5-19.7-18.5-33.2-41.1-40.5-65.3-15.1-49.5-4-105.6 34.1-146zm14.5 202.7c35 32.9 82.7 44 126.2 33.7 25.3-6 49.3-19.3 68.4-39.6 52.1-55.4 49.5-142.6-5.9-194.7-20.4-19.1-45.1-30.9-70.7-35.3-44.1-7.7-91 6.3-123.9 41.3-52.1 55.4-49.5 142.5 5.9 194.6z"
             inkscape:label="돋보기그림자"
             style="fill:#222b40;fill-opacity:1" />
          <g
             id="g435"
             style="opacity: .5">
            <path
               id="path433"
               class="s28"
               d="m1198.3 1337c-19.1 20.3-43.1 33.6-68.4 39.6-43.5 10.3-91.2-0.8-126.2-33.7-55.4-52.1-58-139.2-5.9-194.6 32.9-35 79.8-49 123.9-41.3 25.6 4.4 50.3 16.2 70.7 35.3 55.4 52.1 58.1 139.3 5.9 194.7z"
               inkscape:label="돋보기렌즈" />
          </g>
        </g>
        <path
           id="path439"
           class="s14"
           d="m821.1 1423.2c-105.1-74.9-96.4-174.8-96.4-174.8 38.4 21.7 76.5 69.6 94 111.1 1 23.8 1.9 46.8 2.4 63.7z"
           inkscape:label="티셔츠그림자"
           style="fill:#f4a309;fill-opacity:1" />
        <g
           id="g445">
          <path
             id="path441"
             class="s5"
             d="m924.8 1389.1c7.4-1.7 12.4-7.3 13.4-8.3 0 0 3.2 0.2-0.5 7-0.3 0.5-1 2-1.5 3-0.2 0.4 0.1 0.9 0.5 0.9 4.3 0.4 8.6-1.3 16.8 0.4 1.2 0.2 1.5 3 1.5 4.1-0.1 2 0 4.2-2.3 7.2-1.3 1.7-5 3.6-13.2 6.9-3.2 1.3-12.2 0.4-20.6-2.5l-6.7-3.2 2.1-12.5 1.7 0.4c2.7 0.6 6-2.7 8.8-3.4z"
             inkscape:label="피부"
             style="fill:#facbbf;fill-opacity:1" />
          <path
             id="path443"
             class="s13"
             d="m757.3 1202c0 0-94.4 18 27.8 154.7 19.5 21.9 125.1 50.4 125.1 50.4 0 0 10.8-9.1 5.4-16.5 0 0-72.8-52.8-88.8-61.2-7.1-3.8-27.9-84.3-39.6-103.7-11.7-19.3-29.9-23.7-29.9-23.7z"
             inkscape:label="티셔츠"
             style="fill:#f8b940;fill-opacity:1" />
        </g>
        <path
           id="path447"
           class="s5"
           d="m939.3 1253c0 0 3.1-5.9 3.7-9 0.6-3.1 4.5-12.2 6.1-13.8 0.6-0.6 2.8 0.2 3 3 0.1 1.2-0.5 3.3-1.5 5.9-1.7 4.3-1.4 10-2 11.9-1.5 4.8-9.3 2-9.3 2z"
           inkscape:label="피부"
           style="fill:#facbbf;fill-opacity:1" />
      </g>
      <g
         id="g499"
         inkscape:label="위쪽노트북">
        <g
           id="g491">
          <path
             id="path451"
             class="s5"
             d="m 976.9,1018.7 c -1.6,1.9 -1.8,3.9 -1,6.1 q 0,0.1 0,0.1 c 1.5,4 6.3,8.6 11.9,13.1 q 1.1,0.9 2,1.6 0.2,0.2 0.4,0.4 0.2,0.1 0.3,0.3 c 5.3,4.8 3.3,5.9 12.7,15.8 10.8,11.2 18.2,11.4 20.3,10.4 1.8,-0.9 -1.8,-6.8 -5.8,-13.5 q -0.3,-0.5 -0.6,-1 -0.8,-1.3 -1.6,-2.7 c -4.7,-8 -3.5,-11.8 -2.4,-23.8 0.9,-9.7 15.2,-54.3 15.2,-54.3 l -20.7,-3.5 c 0,0 -6.2,35.5 -13,40.9 -3.7,2.9 -7.8,3 -11.3,5.1 q -0.4,0.3 -0.8,0.5 c -2,1.3 -4,2.7 -5.6,4.5 z"
             style="display:inline;fill:#f9c4b7;fill-opacity:1"
             inkscape:label="피부" />
          <path
             id="path453"
             class="s9"
             d="m976.9 1018.7c-1.6 1.9-1.8 3.9-1 6.1q0 0.1 0 0.1c1.8 4 6.5 8.5 12 13.1q1 0.8 1.9 1.6 0.2 0.2 0.4 0.4 0.2 0.1 0.3 0.3c5.3 4.8 3.3 5.9 12.7 15.8 10.8 11.2 18.2 11.4 20.3 10.4 1.8-0.9-1.8-6.8-5.8-13.5-2.1-0.8-11.8-4.8-19.2-14.2-6.3-8-10.5-18.1-14.7-24.4-0.5-0.1-0.8-0.1-1.3-0.2-2 1.3-4 2.7-5.6 4.5z"
             inkscape:label="신발"
             style="fill:#222b40;fill-opacity:1" />
          <path
             id="path455"
             class="s5"
             d="m1143.3 1005.9c1.3 6.4 10.4 5.3 20.5 2.8 10.2-2.4 7.8 0.5 22.2-1.1 14.5-1.6 18.8-7 19.3-9.1 0.4-1.9-6.8-2.6-14.4-3.5q-1.5-0.1-2.9-0.3c-8.6-1.1-15-6.7-22.8-11.3-7.5-4.3-18.5-22-18.5-22l-19.9 1.6c0 0 10.4 15.8 14.5 22.6 2.3 4.1 2.2 9.4 1.9 13.5-0.2 2.3-0.3 4.6 0.1 6.8z"
             inkscape:label="피부"
             style="fill:#f9c4b7;fill-opacity:1" />
          <path
             id="path457"
             class="s9"
             d="m1163.8 1008.7c10.2-2.4 7.8 0.5 22.2-1.1 14.5-1.6 18.8-7 19.3-9.1 0.4-1.9-6.8-2.6-14.4-3.5l-0.1 0.2c0 0-8.6 6.1-20.7 6.4-9.8 0.2-20.1-2.6-26.9-2.5-0.2 2.3-0.3 4.6 0.1 6.8 1.3 6.4 10.4 5.3 20.5 2.8z"
             inkscape:label="신발"
             style="fill:#222b40;fill-opacity:1" />
          <path
             id="path459"
             class="s9"
             d="m 1067.5,879.2 -18.5,49.9 -24.2,65 c 0,0 -6.6,0.6 -12.9,-1.2 -5.8,-1.7 -12.4,-6 -12.4,-6 0,0 6.7,-69.9 19.3,-110 3.2,-10.3 6.8,-18.6 10.8,-23.3 19.4,-22.9 37.9,25.6 37.9,25.6 z"
             inkscape:label="바지그림자"
             style="display:inline" />
          <path
             id="path461"
             class="s8"
             d="m1048.7 800.1c-10.6-3.4-38.1-0.1-67.9 5.3-8.2 1.5-16.5-2.2-20.9-9.4l-75-5.9c0 0-24.8 54.9-11.3 89.9 2 5.2 6.4 8.4 13.1 8.5q0 0 0 0c0 0 45.4 0.1 59.9 0.1 37.3 0 79-25.7 84.4-26.7 8.8-1.8 12.4 15.9 21.2 34.4 8.8 18.5 82.9 82.1 82.9 82.1 0 0 11.4 0.1 16.1-1.7 5.1-1.9 6.9-4.3 6.9-4.3 0 0-82.1-163.5-109.4-172.3z"
             inkscape:label="바지"
             style="fill:#3e4b99;fill-opacity:1" />
          <path
             id="path463"
             class="s9"
             d="m952 575.6c-5.5-3.4-11-3.9-14.3-3.8q-3.5 0.1-6.9-0.4c-28.7-4.2-45.9 37.4-47 50-1.8 23.1-14 26.6-31.2 41-34.5 29-24.4 62.7-5.6 75.2 11.3 7.5 31.3 0 31.3 0 0.3 0.2 54.5-30.3 81.2-45 40.1-5.7 8.6-107.4-7.5-117z"
             inkscape:label="머리"
             style="fill:#222b40;fill-opacity:1" />
          <path
             id="path465"
             class="s5"
             d="m937.1 680.1c0.1 0.1-13.1 4.6-22 0.7-8.3-3.7-14.7-17.5-14.5-17.5 3.8-0.2 7.9-3.5 11.1-25.3l1.7 0.6 27.1 9.8c0 0-1.9 8.7-3.2 17-1.1 7-1.7 13.7-0.2 14.7z"
             inkscape:label="피부"
             style="fill:#fcdfd8;fill-opacity:1" />
          <path
             id="path467"
             class="s29"
             d="m940.5 648.4c0 0-1 4.7-2.6 13.5-15.6-2.8-22.3-14.8-24.5-23.3z"
             inkscape:label="피부그림자"
             style="fill:#f9c4b7;fill-opacity:1" />
          <path
             id="path469"
             class="s5"
             d="m944.6 657.1c0 0-37.2-5-33.7-28.1 3.4-23.2 1-39.4 24.9-37.2 23.9 2.3 27.2 11.8 27.9 19.8 0.7 8-9.3 46.2-19.1 45.5z"
             inkscape:label="피부"
             style="fill:#fcdfd8;fill-opacity:1" />
          <path
             id="path471"
             class="s9"
             d="m962.3 598.9c0 0-23.8 20.5-40 22.2-16.2 1.6-22.3-3.6-22.3-3.6 0 0 9.5-7.9 15.3-20.7 1.7-3.8 5.2-6.4 9.4-6.7 11.5-1 33.5-1.5 37.6 8.8z"
             inkscape:label="머리"
             style="fill:#222b40;fill-opacity:1" />
          <path
             id="path473"
             class="s9"
             d="m947.4 597.1c0 0 8 7.7 10.5 13.4 2.4 5.5 3.1 18.7 1.2 23.9 0 0 12.4-24.1 5.4-35.8-7.4-12.5-17.1-1.5-17.1-1.5z"
             inkscape:label="머리"
             style="fill:#222b40;fill-opacity:1" />
          <path
             id="path475"
             class="s13"
             d="m968.4 734.9c-1.1 75.3-0.3 59.5-8.5 66.7-2 1.7-7.6 2.7-14.9 3.2-23.1 1.5-63.7-2.3-65.3-6.5-5.3-14.8-1.5-19.4-6-42q-0.6-3.6-1.7-7.8c-3.7-15.6-7.3-20.8 5.9-45.8 11.9-22.6 24.3-40.9 25.4-40.2 31.5 18.6 34 2.9 34 2.9 0 0 31.7 32.8 31.1 69.5z"
             inkscape:label="티셔츠"
             style="fill:#f8b940;fill-opacity:1" />
          <path
             id="path477"
             class="s8"
             d="m 1049,929.1 -24.2,65 c 0,0 -6.6,0.6 -12.9,-1.2 -5.8,-1.7 -12.4,-6 -12.4,-6 0,0 6.7,-69.9 19.3,-110 z"
             inkscape:label="바지"
             style="display:inline;fill:#3e4b99;fill-opacity:1" />
          <path
             id="path479"
             class="s13"
             d="m 937.3,665.4 c 0,0 32.4,5.5 36.1,19.5 3.8,13.9 16.3,98.5 16.3,98.5 0,0 -9.1,8.9 -16.7,1.3 -7.6,-7.6 -23.9,-79.2 -23.9,-79.2 z"
             style="display:inline;fill:#f8b940;fill-opacity:1"
             inkscape:label="티셔츠" />
          <path
             id="path481"
             class="s14"
             d="m945 804.8c-23.1 1.5-63.7-2.3-65.3-6.5-5.3-14.8-1.5-19.4-6-42l11.2-31.4c0 0-1.9 35 8.4 44.1 10.3 9.2 42.2 17.8 47.2 25.5 2.4 3.7 4 7.3 4.5 10.3z"
             inkscape:label="티셔츠그림자"
             style="fill:#f7a70f;fill-opacity:1" />
          <path
             id="path483"
             class="s5"
             d="m918.5 790.1c0 0 22.8-5 26.5-3 3.6 2 12.6 9.4 13.7 11.9 1.2 2.6-8.1-1.9-11.2-2.7-1.9-0.6-7.1 1.2-9.6 2.1-10.8 3.6-17.4 1.7-17.4 1.7z"
             inkscape:label="피부"
             style="fill:#fcdfd8;fill-opacity:1" />
          <path
             id="path485"
             class="s13"
             d="m903.3 662.4c0 0-30.6 1.9-41.2 16.7-14.9 20.8-44.5 109.3-27.5 121.2 19 13.3 86.8 3.5 86.8 3.5 0 0 2.3-10.6-0.9-15.7-3.1-5.1-54.1-13.3-56.4-15.7-2.4-2.3 29.4-45.9 29.4-52.9 0-7.1 9.8-57.1 9.8-57.1z"
             inkscape:label="티셔츠"
             style="fill:#f8b940;fill-opacity:1" />
          <path
             id="path487"
             class="s5"
             d="m 946.1,793.4 c 0,0 4.7,6.2 6.3,6.9 1.6,0.7 2.6,0.6 2.6,0.6 l -3.2,-5.8 z"
             inkscape:label="피부"
             style="display:inline;fill:#fcdfd8;fill-opacity:1" />
          <path
             id="path489"
             class="s5"
             d="m 945,787.1 13.8,6.7 c 0,0 -0.6,1 -2.3,0.9 -1.7,-0.1 -6,-1.7 -6,-1.7 z"
             style="display:inline;fill:#fcdfd8;fill-opacity:1"
             inkscape:label="피부" />
        </g>
        <path
           id="path493"
           class="s9"
           d="m1063.4 803l-144.9-0.1v3.2l143.7 0.1z"
           inkscape:label="노트북"
           style="fill:#222b40;fill-opacity:1" />
        <path
           id="path495"
           class="s9"
           d="m952.4 806.1l109.8 0.1 33-82.1-109.6-0.1z"
           inkscape:label="노트북"
           style="fill:#222b40;fill-opacity:1" />
        <path
           id="path497"
           class="s0"
           d="m1034.5 765.1c0.8-2.9-0.9-5.2-3.8-5.2-2.9 0-5.9 2.3-6.7 5.2-0.8 2.9 0.8 5.2 3.7 5.2 2.9 0 5.9-2.3 6.8-5.2z"
           inkscape:label="노트북로고"
           style="fill:#f8f6f1;fill-opacity:1" />
      </g>
      <g
         id="g541"
         inkscape:label="가운데클립보드">
        <path
           id="path501"
           class="s26"
           d="m 1777.3,1115.7 c -14.8,-4.9 -25,1.3 -25,1.3 -42.6,1.8 -44.2,45.4 -39.2,61.7 7,22.8 -17.8,40.7 9.7,50 32,10.7 58.8,-2 57,3.5 101,8 31.1,-105.3 -2.5,-116.5 z"
           style="display:inline;fill:#222b40;fill-opacity:1"
           inkscape:label="머리" />
        <path
           id="path503"
           class="s13"
           d="m 1733.1,1328 c 0,0 -4,8 -11.4,17.2 -8.8,11.1 -55.2,-15.2 -51.2,-17.2 4,-2 27.3,-69.2 32.8,-77.7 5.6,-8.4 24.5,-12.8 24.5,-12.8 z"
           style="display:inline;fill:#f8b940;fill-opacity:1"
           inkscape:label="티셔츠" />
        <path
           id="path505"
           class="s30"
           d="m1889.8 1781.2c0 0 12.8 11.7 10.3 20-2.5 8.3-14.1 13.8-15.7 24-1.5 10.1-7.8 15.7-13.4 15.7-5.6 0-26.8 0-26.8 0 0 0-4.1-7.2 5.9-9.3 10-2.2 13.7-14.1 13.1-25.2-0.6-11.1 0.9-25.8 0.9-25.8l21.3-5z"
           inkscape:label="신발"
           style="fill:#222b40;fill-opacity:1" />
        <path
           id="path507"
           class="s7"
           d="m1781.3 1786.1c0 0 4.6 49.6-1 52.3l-72-0.1c0 0 0-8.3 11.6-10.2 11.6-1.8 31.9-8.6 35.3-23.6 3.4-15.1 26.1-18.4 26.1-18.4z"
           inkscape:label="신발"
           style="fill:#222b40;fill-opacity:1" />
        <path
           id="path509"
           class="s13"
           d="m1836.7 1294.6c0 0 1.1 15.1 0 33.2-0.7 12.1-12.9 28.2-14.6 32.2-4.3 10-9.2 11.6-9.2 11.6l-37.8 9.3-13.3 3.2-41.9-12.5c0 0-19.1-53.3-11.4-83.3 7.6-30 19.3-50.8 19.3-50.8 0 0 28.5-6.4 78.8-2.8z"
           inkscape:label="티셔츠"
           style="fill:#f8b940;fill-opacity:1" />
        <path
           id="path511"
           class="s14"
           d="m1840.3 1328.3c-0.7 12-16.5 27.7-18.2 31.7-4.3 10-9.2 11.6-9.2 11.6l-37.8 9.3-6.8-19.6c0 0 55.2-14.5 46.3-65.6z"
           inkscape:label="티셔츠그림자"
           style="fill:#f6a70f;fill-opacity:1" />
        <path
           id="path513"
           class="s9"
           d="m1722.5 1379.7c0 0-20.7 64.6-22 86.6-1.4 22 39.6 312.4 41.3 322.5 1.5 9.6 13.4 15.7 13.4 15.7 0 0 5.5 3.2 13.2 1 10.8-3.1 14.3-6.7 14.3-6.7 0 0 16.1-207.2 6.1-281.1-10-74-10.1-138-10.1-138z"
           inkscape:label="바지그림자" />
        <path
           id="path515"
           class="s8"
           d="m1810.5 1377.7c0 0 31.6 42.5 34.6 71.2 2.9 28.7 4.6 129.6 10.9 157.6 6.3 28 29.4 81.8 29.4 169.1 0 0-2.4 5-9.8 7.7-2.4 0.9-5.6 1.7-8.7 2.4-6.1 1.4-12.4-1.6-15.1-7.2-15.7-31.4-65.4-132.9-68-153.9-1.8-14.9-17.5-113.5-51.7-171.4-8.3-13.9 5-69.1 5-69.1z"
           inkscape:label="바지"
           style="fill:#3e4b99;fill-opacity:1" />
        <path
           id="path517"
           class="s9"
           d="m1719.2 1369.7c0 0 8.4 6.6 24.9 6.9 19.8 0.4 68.8-5 68.8-5 0 0 2.1 6.1 2.1 12.5 0 0-59.9 15.1-94.5 2.2 0 0-4.5-8.4-1.3-16.6z"
           inkscape:label="바지그림자" />
        <path
           id="path523"
           class="s31"
           d="m1782.6 1412.2l-89.9 0.9-44.3-104 89.9-0.9z"
           inkscape:label="클립보드"
           style="fill:#7a98f0;fill-opacity:1" />
        <path
           id="path525"
           class="s5"
           d="m1770.8 1365.2l-6.6-8.1c0 0-4.4-3.9-7.7-4.6-3.2-0.7-10-4.6-10.7-3.5-0.7 1.1 5.3 9 5.3 9l0.3 0.1c-6.8 5.1-24 0.6-26.1 2.6-2.5 2.6 3.5 8 6.8 11.1 3.3 3.1 12.6 8.2 19.9 5.9 5.4-1.7 13.7-3.4 13.7-3.4z"
           inkscape:label="피부"
           style="fill:#fcdfd8;fill-opacity:1" />
        <path
           id="path527"
           class="s5"
           d="m1655.2 1327.4c0 0 5.6-6.4 9.2-3.4 3.6 3.1-0.9 18.3-4.3 16.7-3.5-1.5-6.9-11.4-4.9-13.3z"
           inkscape:label="피부"
           style="fill:#fcdfd8;fill-opacity:1" />
        <path
           id="path529"
           class="s13"
           d="m1806.6 1234.7c0 0 25.7 2.8 44.2 36.4 14.5 26.4 39.4 75.2 30 89-4.1 6.1-43.6 27.6-119.9 15.3 0 0 1.2-9.6 7.4-14.1 0 0 64.1-20.6 64-24.7-0.2-7.8-8.6-14.5-44.5-50.3-9.7-9.8 18.8-51.6 18.8-51.6z"
           inkscape:label="티셔츠"
           style="fill:#f8b940;fill-opacity:1" />
        <path
           id="path531"
           class="s5"
           d="m1786.7 1236c0.9-1.2-0.2-4.9-1.6-12-1.3-6.4-3.5-16.2-3.4-27.3l-1.9 0.3-31.9 5.4c0 0 0.7 8.5 0.7 16.5q0 0.1 0 0.2c0.1 7-1.9 17.5 0.5 18.9 12.1 7.1 34.2 2.6 37.6-2z"
           inkscape:label="피부"
           style="fill:#fcdfd8;fill-opacity:1" />
        <path
           id="path533"
           class="s32"
           d="m1747.9 1202.4c0 0 0.6 12 0.6 20 17.9-0.4 27.4-17.7 31.3-25.4z"
           inkscape:label="피부그림자"
           style="fill:#f9bcae;fill-opacity:1" />
        <path
           id="path535"
           class="s5"
           d="m1745.9 1216.7c0 0 41.9-6 37.8-31.9-4.2-26-1.5-44.3-28.4-41.6-26.9 2.7-30.5 13.4-31.2 22.5-0.8 9 10.9 51.9 21.8 51z"
           inkscape:label="피부"
           style="fill:#fcdfd8;fill-opacity:1" />
        <path
           id="path537"
           class="s26"
           d="m1736.2 1145.6c0 0 16.3 28.7 34.5 30.4 18.3 1.7 25.1-4.2 25.1-4.2 0 0-15.1-8.6-20.9-26.8 0 0-32.4-15.3-38.7 0.6z"
           inkscape:label="머리"
           style="fill:#222b40;fill-opacity:1" />
        <path
           id="path539"
           class="s26"
           d="m1739.4 1147.6c0 0-7.9 4.5-10.4 11.3-2.5 6.5-4.1 15-1.9 24.7 0 0-11.9-19.3-4.1-32.6 8.3-14.1 16.4-3.4 16.4-3.4z"
           inkscape:label="머리"
           style="fill:#222b40;fill-opacity:1" />
      </g>
      <path
         id="path543"
         class="s9"
         d="m2660.9 1844.6h-2318.4c-1.6 0-2.9-1.3-2.9-2.9v-1.7c0-1.6 1.3-2.9 2.9-2.9h2318.4c1.6 0 2.9 1.3 2.9 2.9v1.7c0 1.6-1.3 2.9-2.9 2.9z"
         inkscape:label="바닥"
         style="fill:#222b40;fill-opacity:1" />
    </g>
  </g>
  <metadata
     id="metadata19229">
    <rdf:RDF>
      <cc:Work
         rdf:about="">
        <dc:title>11235921_11104-ai</dc:title>
      </cc:Work>
    </rdf:RDF>
  </metadata>
</svg>
