<?xml version="1.0" encoding="UTF-8" standalone="no"?>
<svg
   width="16"
   height="16"
   fill="currentColor"
   class="bi bi-trash3-fill"
   viewBox="0 0 16 16"
   version="1.1"
   id="svg37217"
   sodipodi:docname="trash3-fill.svg"
   inkscape:version="1.2.1 (9c6d41e410, 2022-07-14)"
   xmlns:inkscape="http://www.inkscape.org/namespaces/inkscape"
   xmlns:sodipodi="http://sodipodi.sourceforge.net/DTD/sodipodi-0.dtd"
   xmlns="http://www.w3.org/2000/svg"
   xmlns:svg="http://www.w3.org/2000/svg">
  <defs
     id="defs37221" />
  <sodipodi:namedview
     id="namedview37219"
     pagecolor="#ffffff"
     bordercolor="#000000"
     borderopacity="0.25"
     inkscape:showpageshadow="2"
     inkscape:pageopacity="0.0"
     inkscape:pagecheckerboard="0"
     inkscape:deskcolor="#d1d1d1"
     showgrid="false"
     inkscape:zoom="50.125"
     inkscape:cx="7.9102244"
     inkscape:cy="7.9900249"
     inkscape:window-width="1920"
     inkscape:window-height="991"
     inkscape:window-x="-9"
     inkscape:window-y="-9"
     inkscape:window-maximized="1"
     inkscape:current-layer="svg37217" />
  <path
     d="m 11,1.5 v 1 h 3.5 a 0.5,0.5 0 0 1 0,1 H 13.962 L 13.109,14.16 A 2,2 0 0 1 11.115,16 H 4.885 A 2,2 0 0 1 2.891,14.16 L 2.038,3.5 H 1.5 a 0.5,0.5 0 0 1 0,-1 H 5 v -1 A 1.5,1.5 0 0 1 6.5,-2.1040135e-8 h 3 A 1.5,1.5 0 0 1 11,1.5 Z m -5,0 v 1 h 4 v -1 A 0.5,0.5 0 0 0 9.5,0.99999998 h -3 A 0.5,0.5 0 0 0 6,1.5 Z m -1.5,3.529 0.5,8.5 a 0.5,0.5 0 1 0 0.998,-0.06 l -0.5,-8.5 A 0.5,0.5 0 1 0 4.5,5.029 Z m 6.53,-0.528 a 0.5,0.5 0 0 0 -0.528,0.47 l -0.5,8.5 A 0.5,0.5 0 0 0 11,13.529 l 0.5,-8.5 A 0.5,0.5 0 0 0 11.03,4.501 Z M 8,4.5 A 0.5,0.5 0 0 0 7.5,5 v 8.5 a 0.5,0.5 0 0 0 1,0 V 5 A 0.5,0.5 0 0 0 8,4.5 Z"
     id="path37215"
     style="fill:#3e4b99;fill-opacity:1" />
</svg>
