<?xml version="1.0" encoding="UTF-8" standalone="no"?>
<svg
   version="1.1"
   id="Layer_1"
   x="0px"
   y="0px"
   width="122.879px"
   height="119.799px"
   viewBox="0 0 122.879 119.799"
   enable-background="new 0 0 122.879 119.799"
   xml:space="preserve"
   sodipodi:docname="ico_toNextPage.svg"
   inkscape:version="1.2.2 (732a01da63, 2022-12-09)"
   xmlns:inkscape="http://www.inkscape.org/namespaces/inkscape"
   xmlns:sodipodi="http://sodipodi.sourceforge.net/DTD/sodipodi-0.dtd"
   xmlns="http://www.w3.org/2000/svg"
   xmlns:svg="http://www.w3.org/2000/svg"><defs
     id="defs18" /><sodipodi:namedview
     id="namedview16"
     pagecolor="#ffffff"
     bordercolor="#000000"
     borderopacity="0.25"
     inkscape:showpageshadow="2"
     inkscape:pageopacity="0.0"
     inkscape:pagecheckerboard="0"
     inkscape:deskcolor="#d1d1d1"
     showgrid="false"
     inkscape:zoom="6.7279358"
     inkscape:cx="61.385842"
     inkscape:cy="59.899502"
     inkscape:window-width="1920"
     inkscape:window-height="1009"
     inkscape:window-x="-8"
     inkscape:window-y="-8"
     inkscape:window-maximized="1"
     inkscape:current-layer="Layer_1" /><g
     id="g13"
     style="fill:#f8b940;fill-opacity:1"><path
       d="m 49.988,0 h 0.016 v 0.007 c 13.799,0.004 26.294,5.601 35.336,14.645 9.027,9.031 14.619,21.515 14.628,35.303 h 0.007 v 0.033 0.04 h -0.007 c -0.005,5.557 -0.917,10.905 -2.594,15.892 -0.281,0.837 -0.575,1.641 -0.877,2.409 v 0.007 c -1.446,3.66 -3.315,7.12 -5.547,10.307 l 29.082,26.139 0.018,0.016 0.157,0.146 0.011,0.011 c 1.642,1.563 2.536,3.656 2.649,5.78 0.11,2.1 -0.543,4.248 -1.979,5.971 l -0.011,0.016 -0.175,0.203 -0.035,0.035 -0.146,0.16 -0.016,0.021 c -1.565,1.642 -3.654,2.534 -5.78,2.646 -2.097,0.111 -4.247,-0.54 -5.971,-1.978 l -0.015,-0.011 -0.204,-0.175 -0.029,-0.024 -29.745,-26.734 c -0.88,0.62 -1.778,1.209 -2.687,1.765 -1.233,0.755 -2.51,1.466 -3.813,2.115 -6.699,3.342 -14.269,5.222 -22.272,5.222 v 0.007 H 49.973 V 99.967 C 36.174,99.963 23.677,94.366 14.635,85.322 5.605,76.291 0.016,63.805 0.007,50.021 H 0 V 49.988 49.972 H 0.007 C 0.011,36.173 5.608,23.676 14.652,14.634 23.683,5.608 36.167,0.016 49.955,0.007 V 0 h 0.033 z m 0.016,11.21 v 0.007 H 49.988 49.955 V 11.21 C 39.269,11.217 29.583,15.56 22.571,22.569 15.56,29.578 11.213,39.274 11.21,49.973 h 0.007 v 0.016 0.033 H 11.21 c 0.007,10.686 4.347,20.367 11.359,27.381 7.009,7.012 16.705,11.359 27.403,11.361 v -0.007 h 0.016 0.033 v 0.007 c 10.686,-0.007 20.368,-4.348 27.382,-11.359 7.011,-7.009 11.358,-16.702 11.36,-27.4 h -0.006 v -0.016 -0.033 h 0.006 C 88.757,39.27 84.413,29.584 77.405,22.572 70.396,15.56 60.703,11.213 50.004,11.21 Z"
       id="path11"
       style="display:none;fill:#f8b940;fill-opacity:1" /></g><path
     id="path8634"
     style="fill:#222b40;fill-opacity:1;stroke-width:0.240255"
     d="m 36.74904,23.880859 c 0.632959,0.0069 1.266172,0.10302 1.878906,0.294922 0.594632,0.186231 9.568403,5.239223 19.941407,11.230469 10.372991,5.991243 21.83292,12.609539 25.466796,14.707031 3.633857,2.097497 6.963338,4.158712 7.398438,4.580078 2.774177,2.686643 2.818857,7.680214 0.09375,10.335938 C 90.443858,66.086173 40.754533,94.871118 38.868181,95.535156 35.480329,96.727767 31.596159,95.047208 29.932634,91.669922 29.447833,90.68571 29.387499,90.073734 29.334978,82.375 V 33.349609 l 0.04297,-4.072265 0.582032,-1.183594 c 1.286658,-2.614251 4.046252,-4.242711 6.789062,-4.212891 z" /></svg>
