<?xml version="1.0" encoding="UTF-8" standalone="no"?>
<!-- Created with Inkscape (http://www.inkscape.org/) -->

<svg
   width="539.29797mm"
   height="313.24399mm"
   viewBox="0 0 539.29797 313.24398"
   version="1.1"
   id="svg23379"
   inkscape:version="1.2.2 (732a01da63, 2022-12-09)"
   sodipodi:docname="img_main_prfl.svg"
   xmlns:inkscape="http://www.inkscape.org/namespaces/inkscape"
   xmlns:sodipodi="http://sodipodi.sourceforge.net/DTD/sodipodi-0.dtd"
   xmlns="http://www.w3.org/2000/svg"
   xmlns:svg="http://www.w3.org/2000/svg">
  <sodipodi:namedview
     id="namedview23381"
     pagecolor="#ffffff"
     bordercolor="#000000"
     borderopacity="0.25"
     inkscape:showpageshadow="2"
     inkscape:pageopacity="0.0"
     inkscape:pagecheckerboard="0"
     inkscape:deskcolor="#d1d1d1"
     inkscape:document-units="mm"
     showgrid="false"
     inkscape:zoom="0.41720773"
     inkscape:cx="1367.4243"
     inkscape:cy="472.18684"
     inkscape:window-width="1920"
     inkscape:window-height="1009"
     inkscape:window-x="-8"
     inkscape:window-y="-8"
     inkscape:window-maximized="1"
     inkscape:current-layer="layer1" />
  <defs
     id="defs23376" />
  <g
     inkscape:label="레이어 1"
     id="layer1"
     transform="translate(-17.40016,20.877202)">
    <g
       id="g17542"
       inkscape:label="바이올린"
       style="display:inline"
       transform="matrix(0.1623386,0,0,0.1623386,-23.568092,-211.73927)">
      <path
         id="path17453"
         style="display:inline;fill:#fcdfd8;fill-opacity:1;stroke-width:1.33207"
         inkscape:label="피부"
         d="m 458.91406,1439.9102 -3.66797,5.2929 c -4.60446,6.6444 -11.22699,11.7408 -19.17578,14.7578 l -6.16797,2.3418 -1.99804,10.0293 c -1.09895,5.5167 -2.45295,10.4777 -3.00782,11.0235 -0.55489,0.5454 -2.64342,-2.709 -4.64257,-7.2325 -4.03317,-9.1247 -6.05237,-10.0314 -12.36133,-5.539 -12.35186,8.7954 -5.32674,29.2832 10.04101,29.2832 5.60192,0 6.0729,0.299 8.74024,5.5273 1.55057,3.0394 5.75876,8.3445 9.35156,11.7891 6.53177,6.2627 6.53183,6.2631 6.69727,15.4531 0.091,5.055 0.53957,13.3464 0.99804,18.4258 l 0.83399,9.2363 11.98828,7.0586 c 6.59369,3.8827 12.31975,7.07 12.72265,7.084 0.40295,0.013 0.75551,-4.9225 0.78321,-10.9668 0.10282,-22.45 4.83851,-32.536 18.1582,-38.6699 8.95889,-4.1257 17.78464,-12.9973 22.16016,-22.2735 2.93575,-6.2233 3.52034,-9.5307 3.88672,-21.9785 l 0.43164,-14.6523 -11.46289,-2.2031 c -14.3324,-2.7549 -29.33195,-9.7801 -37.80664,-17.7071 z m 283.44141,185.4648 c -1.48731,-0.02 -2.94744,0.1129 -4.35156,0.416 -11.16411,2.4102 -21.49592,11.6623 -23.23047,20.8028 -0.46569,2.4537 -1.40796,5.1772 -2.09375,6.0527 -1.11394,1.4221 0.0464,13.7599 2.44922,26.0488 0.57778,2.9482 1.27469,3.5256 3.60742,2.9629 4.1823,-1.0078 12.43418,-0.9749 21.08203,0.086 10.24587,1.2563 20.56347,-3.2691 25.92773,-11.375 4.77151,-7.2104 5.85071,-18.7278 2.5625,-27.3379 -3.76379,-9.8551 -15.54196,-17.5187 -25.95312,-17.6562 z m -130.93359,59.4668 c -4.88435,-0.092 -9.82044,1.0561 -14.01954,3.457 -3.38199,1.9336 -9.87209,3.8565 -16.07617,4.7637 l -10.40429,1.5215 2.14257,14.2012 2.14063,14.2031 h 4.28515 c 3.31983,0 4.8443,0.8997 6.77149,3.9961 3.99748,6.4227 10.06929,11.3825 16.12305,13.1699 7.85445,2.3191 18.87477,0.6279 25.40625,-3.8984 10.06788,-6.9771 14.57297,-22.309 9.86523,-33.5762 -2.63634,-6.3095 -5.2386,-9.1885 -12.53125,-13.8613 -3.9864,-2.5543 -8.8188,-3.8851 -13.70312,-3.9766 z M 289.7832,2251.1523 c -0.62293,0 -4.21234,5.4064 -7.97656,12.0137 l -6.84375,12.0137 4.21094,6.3027 c 2.97363,4.4495 6.36074,7.3896 11.51953,10.002 7.40333,3.7489 12.12012,3.9111 17.42578,0.5976 1.73535,-1.0838 13.23242,-22.0992 13.23242,-24.1875 0,-0.7424 -30.16906,-16.7422 -31.56836,-16.7422 z m 234.59375,46.5528 1.65625,15.0195 c 0.9114,8.2615 1.68686,15.5006 1.72266,16.0859 0.0358,0.5854 2.61287,2.2215 5.72656,3.6348 7.14235,3.2426 16.08174,3.2842 23.08008,0.1055 7.86315,-3.5712 9.01172,-7.2584 6.88867,-22.1192 l -1.71289,-11.9882 -18.68164,-0.3692 z"
         sodipodi:nodetypes="cscccccssscsccccssccccccscsscccsssscsccccsssssscscccssssccscccccc" />
      <path
         id="path17457"
         style="display:inline;fill:#f8b940;fill-opacity:1;stroke-width:1.33207"
         inkscape:label="노랑"
         d="m 531.76562,1554.7461 c -0.30158,0.3015 -2.03881,4.5097 -3.86132,9.3516 l -3.31446,8.8027 9.60352,3.4629 c 5.28149,1.9046 30.58231,10.8894 56.22461,19.9668 25.64228,9.0772 46.75881,16.3778 46.92383,16.2226 0.92099,-0.8647 3.90537,-18.2276 3.20312,-18.6347 -2.77606,-1.6094 -108.33102,-39.6201 -108.7793,-39.1719 z m 119.44922,43.8359 c -2.62721,0.2095 -2.7317,2.7084 -3.77343,7.7735 -0.97057,4.7191 -1.30972,8.9668 -0.75391,9.4394 22.06481,8.7517 40.60763,14.745 64.2832,23.4336 6.72533,2.4825 7.12099,2.3686 11.75391,-3.3965 2.31362,-2.879 5.41062,-5.6168 6.88281,-6.084 1.47218,-0.4674 2.67594,-1.2577 2.67578,-1.7578 -1.6e-4,-0.5001 -9.89017,-4.4805 -21.97851,-8.8437 -16.26578,-6.1911 -27.89556,-10.1024 -40.17969,-14.5996 -11.13263,-4.0943 -16.28294,-6.1744 -18.91016,-5.9649 z m 118.73243,42.5059 c -0.16502,-0.011 0.2855,1.5172 1,3.3965 0.71449,1.8793 1.29882,5.7754 1.29882,8.6582 0,2.8829 0.25117,5.2422 0.5586,5.2422 0.30744,0 1.55477,-2.9971 2.77148,-6.6602 1.44613,-4.354 2.98165,-6.692 4.43555,-6.75 1.61482,-0.065 -7.90528,-3.7413 -10.06445,-3.8867 z"
         sodipodi:nodetypes="sccsscssssccsssccsssssscs" />
      <path
         id="path17461"
         style="display:inline;fill:#ff4a60;fill-opacity:1;stroke-width:1.33333"
         inkscape:label="빨강"
         d="m 441.64648,1556.0391 -5.15625,3.4882 c -4.88778,3.3058 -7.81436,5.5635 -18.36328,14.1602 -3.07857,2.5088 -7.08402,8.8994 -12.53125,20 -18.9566,38.6304 -27.27528,71.3514 -27.36718,107.6465 -0.0902,35.6356 5.43183,53.9379 18.4375,61.1133 4.71784,2.603 17.95702,1.6699 53.66992,-3.7813 30.38925,-4.6387 37.88524,-5.332 57.54687,-5.332 h 22.60742 l 0.42188,-3.6309 0.42187,-3.6308 L 554,1742.6309 c 22.38144,-3.3969 22.66263,-3.4799 22.41211,-6.7012 -0.44812,-5.7624 -5.94222,-43.1699 -6.46484,-44.0156 -0.41561,-0.6724 -20.35079,1.9562 -35.61329,4.6953 -3.30036,0.5923 -3.66796,0.2746 -3.66796,-3.166 0,-2.1024 3.00131,-11.7515 6.66796,-21.4434 6.7467,-17.8332 8.19737,-26.6464 5.28516,-32.0879 -0.75911,-1.4185 -1.13494,-2.5781 -0.83594,-2.5781 0.299,0 4.37008,3.0674 9.04688,6.8183 11.03518,8.8503 19.96944,14.5438 33.49804,21.3457 11.68469,5.875 33.08616,14.502 35.97657,14.502 1.13736,0 2.77034,-4.9604 4.71875,-14.334 1.63864,-7.8833 2.97936,-15.0833 2.97851,-16 -9.5e-4,-1.0032 -1.79009,-1.666 -4.49414,-1.666 -4.13322,0 -4.55509,-0.3868 -5.27929,-4.8496 -0.97195,-5.9893 -6.30719,-13.8774 -12.66993,-18.7305 -3.75721,-2.8657 -6.61529,-3.7794 -13.11523,-4.1933 -10.44726,-0.6653 -18.75949,2.9648 -24.10938,10.5293 -4.18891,5.923 -4.3025,5.9418 -21.66796,3.3086 -25.5706,-3.8772 -44.83469,-12.2048 -57.67774,-24.9317 -7.61791,-7.5491 -14.82137,-20.048 -16.4082,-28.4668 -0.63903,-3.3903 -2.69574,-5.1164 -13.49414,-11.332 -7.00716,-4.0334 -13.79807,-8.6753 -15.08985,-10.3145 z m 267.6211,84.6269 -23.26563,0.2149 c -16.77181,0.1547 -25.04207,0.7869 -29.63281,2.2636 -3.50256,1.1267 -9.16936,2.4405 -12.5918,2.92 -4.88639,0.6845 -6.36667,1.4863 -6.89453,3.7363 -3.36954,14.3621 -6.23195,32.044 -5.33008,32.9238 1.60433,1.565 20.68824,5.227 33.84766,6.4942 6.19679,0.5967 14.86563,1.1286 19.26563,1.1816 9.4338,0.1153 29.73627,-1.6914 30.78515,-2.7402 0.62281,-0.6228 -3.54982,-33.5706 -5.52929,-43.6602 z" />
      <path
         id="path17469"
         style="display:inline;fill:#222b40;fill-opacity:1;stroke-width:1.33333"
         inkscape:label="바지"
         d="m 509.57031,1753.2793 c -17.92431,-0.046 -26.35769,0.759 -59.16211,5.6406 l -38.25781,5.6934 -2.63281,7.1484 c -2.29023,6.2172 -2.62501,10.457 -2.57031,32.5117 0.0346,13.9492 0.55459,27.2451 1.15625,29.545 1.12288,4.2925 6.864,35.91 7.17968,39.539 0.0968,1.113 0.53099,2.6117 0.96485,3.3321 0.67918,1.1278 1.57445,4.9887 4.32617,18.6445 0.24977,1.2395 0.79761,3.2848 1.26953,5.125 -0.1765,-0.2447 -0.36335,-0.2994 -0.58789,0 -1.49694,1.9968 -4.52022,18.2091 -15.27148,76.9551 l -14.8711,81.2558 -27.77539,50.6192 c -15.27606,27.8395 -31.17797,56.9127 -35.33789,64.6054 -4.1599,7.6927 -14.90396,27.3743 -23.875,43.7364 -8.97102,16.3613 -15.9357,30.148 -15.47852,30.6367 0.45719,0.4886 9.34743,5.391 19.75782,10.8945 l 18.92968,10.0078 10.07618,-12.6719 c 14.67729,-18.4543 47.67156,-60.4529 53.86132,-68.5585 5.72671,-7.4995 30.25991,-38.7205 48.55469,-61.7911 20.83744,-26.276 24.84308,-32.5726 29.3711,-46.164 l 4.23242,-12.7032 -3.60742,-17.1738 c 2.16649,9.1852 4.17039,18.4625 5.58789,26.9336 0.33373,1.9944 2.97815,14.425 5.87695,27.625 2.8988,13.2 5.59872,26.1013 5.99805,28.668 0.39933,2.5666 2.18246,11.2379 3.96289,19.2715 1.78043,8.0335 3.18163,14.9341 3.11523,15.334 -0.0664,0.3997 0.2399,1.6265 0.67969,2.7265 0.77571,1.9403 2.99158,12.5264 4.32617,20.668 0.36062,2.2 2.10821,10.5719 3.88477,18.6055 1.77653,8.0332 3.17577,14.934 3.10937,15.3339 -0.0664,0.3997 0.2349,1.6266 0.66797,2.7266 0.89761,2.28 10.03231,46.9286 10.63867,52 0.21918,1.8334 0.77436,3.9327 1.23438,4.666 0.46003,0.7333 1.26186,4.1846 1.7832,7.668 l 0.94922,6.332 h 21.34375 21.34375 l -0.85938,-23 c -0.47291,-12.65 -1.15209,-33.1994 -1.50781,-45.666 -0.6302,-22.0867 -1.20912,-40.9848 -2.63672,-86 -1.53666,-48.4544 -4.95984,-139.6512 -5.42969,-144.666 -0.27482,-2.9333 -1.64152,-17.3333 -3.03906,-32 -1.39753,-14.6667 -2.57814,-27.568 -2.62304,-28.668 -0.0449,-1.1 -0.94722,-10.6987 -2.00586,-21.332 -1.05865,-10.6333 -1.9536,-20.234 -1.98828,-21.334 -0.0889,-2.8223 -11.95273,-127.1729 -12.94336,-135.666 l -0.81641,-7 z m -72.14453,197.7402 c 1.88171,5.6795 3.81328,11.3018 5.75781,16.9864 -1.96052,-5.7174 -3.87288,-11.2626 -5.75781,-16.9864 z m 10.76758,31.5664 c 0.38905,1.103 0.70476,1.8993 1.08984,2.9825 -0.37315,-1.0414 -0.71529,-1.9283 -1.08984,-2.9825 z" />
      <path
         id="path17477"
         style="display:inline;fill:#3e4b99;fill-opacity:1;stroke-width:1.33333"
         inkscape:label="파랑"
         d="m 527.67188,1508.6777 c -10.57412,0.3652 -21.1671,3.0275 -27.3379,8.961 -2.74996,2.666 -8.10783,6.3994 -11.90625,8.2949 -3.94847,1.9704 -8.79208,5.8631 -11.30859,9.0898 -2.42083,3.104 -3.4581,4.8986 -2.30469,3.9883 10.01972,1.1514 55.37744,14.5323 73.49805,21.2324 7.87202,2.925 15.07206,5.4753 16,5.6661 0.92796,0.1906 3.18819,0.9632 5.02148,1.7168 3.15339,1.2961 15.97537,6.0795 52.66602,19.6445 8.79996,3.2533 18.19032,5.4109 18.5727,5.4519 1.98489,-9.4558 3.45507,-18.9089 5.37847,-29.3718 0.91184,-5.0797 0.8463,-5.2194 -1.49805,-3.168 -7.18175,6.284 -25.36106,6.8869 -35.11328,1.1641 -8.44529,-4.9559 -12.02891,-10.7368 -11.91211,-19.211 0.0515,-3.7415 0.55604,-7.9899 1.12305,-9.4414 0.76274,-1.9524 0.22218,-3.277 -2.08008,-5.0879 -12.47027,-7.6082 -29.35891,-14.7097 -48.47656,-18.25 -4.43251,-0.7852 -12.93211,-0.9488 -20.32226,-0.6797 z m -56.13868,44.4395 c -0.8975,1.6531 -1.01851,16.4898 -0.16601,20.3711 2.63951,13.4958 5.54829,24.8291 19.61936,38.0469 4.30554,3.8487 10.88397,8.2354 13.07617,8.7187 17.11841,10.4486 33.9385,13.2009 51.9375,15.0606 l 8.66602,0.8476 3.20312,-4.791 c 7.64732,-10.9651 25.31759,-14.3538 35.94531,-8.2051 6.81993,4.4527 12.83228,12.138 14.43946,20.1348 0.55796,4.6197 4.71394,6.105 10.81245,4.2187 0,-3.9097 2.70061,-15.1117 6.44521,-30.1385 1.34771,-5.4082 1.45578,-3.2829 -27.22256,-13.3341 -12.25936,-4.2968 -33.68979,-11.8062 -47.62304,-16.6875 -13.9333,-4.8812 -30.13338,-10.6916 -36,-12.9121 -16.89928,-5.1295 -29.90339,-11.3027 -44.99414,-18.5235 -4.21331,-2.029 -7.87514,-3.2921 -8.13868,-2.8066 z m 184.12696,11.7754 c -3.31233,3.2711 -4.85089,20.9693 -5.6844,28.5052 -0.62002,2.4813 0.5464,3.5314 2.29963,4.7819 2.07945,1.4832 10.19397,3.6268 17.28711,6.2129 6.52914,2.9296 10.64639,2.7416 15.27539,5.2006 1.557,-11.8683 -8.18904,-26.1889 -17.9668,-35.1049 -5.91109,-6.1666 -9.26998,-9.3097 -11.21093,-9.5957 z m -9.63868,53.2422 c -1.17002,-0.091 -1.8055,0.182 -2.18554,0.7968 -2.13849,8.6002 -3.55883,14.1423 -4.70899,20.3457 l -1.32031,7.2793 6.09766,-0.6679 c 11.80345,-1.294 24.43987,-6.7862 32.63867,-14.1836 2.50207,-2.2575 2.50207,-2.3095 0,-3.211 -9.42767,-3.7257 -21.80502,-9.596 -30.52149,-10.3593 z"
         sodipodi:nodetypes="ccssccsssccsssscccscccccccccsssccssccscccccccccscc" />
      <path
         id="path17481"
         style="display:inline;fill:#222b40;fill-opacity:1;stroke-width:1.33207"
         inkscape:label="검정2"
         d="m 675.24023,1437.2598 c -1.69767,0 -3.57002,8.4168 -34.37109,154.5214 -3.62961,17.217 -9.26347,44.1917 -12.51953,59.9434 -3.25608,15.7517 -6.21847,29.8993 -6.58399,31.4414 -0.47251,1.994 0.19374,3.1992 2.3086,4.1699 2.35256,1.0799 3.17882,0.9106 3.95312,-0.8066 0.53837,-1.1939 6.41174,-29.744 13.05078,-63.4453 6.63907,-33.7012 17.43746,-88.2503 23.99805,-121.2188 6.56067,-32.968 11.92893,-60.9913 11.92774,-62.2734 -10e-4,-1.2821 -0.79495,-2.332 -1.76368,-2.332 z m -200.92578,103.0703 c -0.48256,0.8235 -1.27173,3.6041 -1.7539,6.1777 l -0.875,4.6797 22.92783,10.7024 c 13.05316,5.5915 27.35129,10.4972 28.16893,10.5749 1.32855,0.1249 7.17187,-13.5156 7.17187,-16.7422 0,-2.0635 -54.59731,-17.1716 -55.63973,-15.3925 z m 314.4375,91.4121 c -1.75899,0 -2.52148,0.9485 -2.52148,3.1328 0,1.7223 -0.65597,5.0148 -1.45899,7.3184 -1.20886,3.4674 -1.98722,4.0569 -4.52539,3.4199 -2.72658,-0.6843 -3.38092,0.071 -5.91406,6.8418 l -2.84765,7.6113 2.81835,1.9727 c 3.15216,2.2078 2.71551,7.1663 -0.99218,11.2812 -2.50226,2.7768 -1.27798,6.7414 1.89257,6.1309 1.56021,-0.3005 2.61945,-2.3206 3.29493,-6.2774 0.54774,-3.2086 1.32035,-6.1583 1.71679,-6.5547 0.39646,-0.3964 2.79852,0.2717 5.33789,1.4825 4.86928,2.3221 5.09326,4.4205 0.98047,9.2148 -1.07646,1.2548 -1.5877,3.2473 -1.13476,4.4277 1.56739,4.0846 5.35951,1.5365 6.53125,-4.3886 0.67429,-3.4097 1.85406,-5.6504 2.97461,-5.6504 9.35567,0 14.49996,-11.5663 8.52343,-19.1641 l -2.7832,-3.539 2.65625,-5.0958 c 1.5661,-3.0038 2.21675,-5.8035 1.58594,-6.8242 -1.89575,-3.0674 -4.93431,-0.3892 -5.81641,5.127 -1.01662,6.3578 -1.49352,6.7395 -7.31054,5.8555 -4.12438,-0.6268 -4.40314,-0.9742 -3.68165,-4.5821 0.42933,-2.1466 1.66259,-4.7837 2.74024,-5.8613 2.46432,-2.4643 1.26414,-5.8789 -2.06641,-5.8789 z m -175.41797,110.5625 c -2.97841,0 -4.15727,0.7406 -4.76171,2.9961 -1.075,4.0111 -1.04899,9.6696 0.0488,10.7676 3.11399,3.114 6.4672,-0.3968 7.73829,-8.1036 0.92349,-5.6002 0.88941,-5.6601 -3.0254,-5.6601 z m -341.42187,531.4941 c -1.96252,0 -9.40494,8.1852 -15.53125,17.0801 -4.58343,6.6545 -4.76406,7.2896 -2.93164,10.4004 1.07348,1.8224 22.30397,17.3932 47.17773,34.6016 50.04562,34.6224 51.66384,35.3859 52.42969,24.75 0.39012,-5.4179 -0.74732,-7.5399 -19.85937,-37.0801 -19.42247,-30.0196 -20.41672,-31.2914 -23.72461,-30.3555 -1.89896,0.5372 -6.50206,1.037 -10.22852,1.1133 -8.55389,0.1732 -16.08307,-4.6617 -21.8457,-14.0274 -2.1938,-3.5646 -4.66257,-6.4824 -5.48633,-6.4824 z m 296.52539,49.3594 c -1.58421,-0.033 -3.55686,1.5151 -4.86719,3.8184 -3.53469,6.2136 -8.34073,8.5674 -17.57422,8.6132 -5.99377,0.029 -9.7448,-0.7715 -13.95898,-2.9804 -8.00247,-4.1943 -9.01998,-2.9077 -10.13477,12.8164 -0.99023,13.9671 -0.38822,17.3488 3.3418,18.7324 2.73196,1.013 109.55543,0.5672 114.12695,-0.4766 4.16696,-0.9514 4.12683,-7.8202 -0.0664,-11.5546 -3.39684,-3.0256 -66.64709,-28.8814 -70.86719,-28.9688 z"
         sodipodi:nodetypes="sssssssccssccccssssssscccssscsssscccssssssssccssssscscsccsssccscscs" />
      <path
         id="path21755"
         style="display:inline;fill:#222b40;fill-opacity:1;stroke-width:1.33207"
         inkscape:label="머리"
         d="m 442.2207,1401.6738 c -16.77124,1.1856 -25.97105,10.1087 -30.45898,28.3164 -0.89534,3.6324 -6.89731,17.3946 -13.33789,30.5821 -19.1738,39.2587 -27.31444,67.5219 -26.08789,90.58 1.09727,20.6279 8.52159,34.1945 22.53125,41.1758 h 0.002 c 3.8053,1.8964 7.36822,3.4492 7.91992,3.4492 0.55172,0 3.52744,-4.8497 6.61133,-10.7773 4.25345,-8.1757 6.92249,-11.6218 11.05664,-14.2734 2.99745,-1.9224 7.73085,-5.4932 10.51758,-7.9336 2.78672,-2.4403 6.53195,-5.1054 8.32422,-5.9219 3.18101,-1.4494 3.25976,-1.8474 3.25976,-16.7598 v -15.2754 l -8.63281,-9.1523 c -4.74775,-5.033 -9.00815,-10.6454 -9.4668,-12.4727 -0.67522,-2.6907 -1.42661,-3.1747 -3.95117,-2.541 -4.64449,1.1657 -12.05371,-1.7854 -15.87109,-6.3222 -4.07782,-4.8461 -4.58285,-13.9981 -1.09961,-19.8946 2.08241,-3.5254 8.81458,-7.8867 12.17383,-7.8867 0.764,0 3.04209,3.6836 5.0625,8.1856 4.10656,9.1501 4.20027,9.0778 7.08008,-5.5528 1.43025,-7.2665 1.53203,-7.3888 8.17382,-9.748 6.51558,-2.314 17.80022,-11.7431 20.82813,-17.4024 1.26059,-2.356 1.91388,-2.0858 9.09961,3.7676 4.25738,3.468 10.49068,7.6993 13.85156,9.4024 6.45374,3.2696 21.34132,7.9459 29.63672,9.3066 4.38672,0.7196 5.04472,1.3431 5.83008,5.5293 1.82394,9.7225 -0.12911,23.9411 -4.5,32.7598 -2.26551,4.5702 -4.00534,8.4189 -3.86524,8.5507 0.14012,0.1318 4.0482,-0.7509 8.6836,-1.9629 8.29544,-2.1689 8.41625,-2.2678 7.68554,-6.2031 -0.40831,-2.1989 -1.1346,-9.4093 -1.61328,-16.0234 -0.79458,-10.9792 -0.59809,-12.5435 2.25391,-17.9824 4.45085,-8.4897 4.44746,-25.57 -0.01,-35.6231 -6.20878,-14.0086 -21.07372,-23.7749 -41.11914,-27.0156 -4.91114,-0.794 -14.43681,-2.3893 -21.16601,-3.5449 -7.37893,-1.2671 -13.80994,-1.7307 -19.40039,-1.336 z" />
    </g>
    <g
       id="g17998"
       style="display:inline"
       inkscape:label="대머리"
       transform="matrix(0.18175438,0,0,0.18175438,-344.69386,-115.21631)">
      <path
         id="path8721"
         style="display:inline;fill:#222b40;fill-opacity:1;stroke-width:1.33333"
         inkscape:label="기타넥"
         d="m 2608.3848,1736 c -0.9444,0 -1.7168,0.6006 -1.7168,1.334 0,0.7333 -0.045,1.7466 -0.1,2.2519 -0.054,0.5053 2.4951,1.9418 5.666,3.1914 3.1708,1.2498 6.0669,1.9771 6.4336,1.6172 0.9428,-0.9255 -8.2068,-8.3945 -10.2832,-8.3945 z m -10.7637,6.8203 c -0.4276,0.087 -0.6823,0.2861 -0.7988,0.5899 -0.4048,1.0546 3.2842,3.1004 10.2734,5.6992 12.2993,4.5732 12.9043,4.7127 12.9043,2.9687 0,-1.8325 -2.231,-3.0161 -12.9395,-6.8633 -5.3185,-1.9108 -8.1565,-2.6547 -9.4394,-2.3945 z m -2.1035,7.5586 c -0.5465,0.133 -0.8059,0.4458 -0.877,0.9219 -0.1068,0.7159 6.6054,3.8317 14.916,6.9238 8.3108,3.0922 15.2655,5.6562 15.4551,5.6992 0.1895,0.042 -0.4011,-1.1185 -1.3125,-2.5781 -0.958,-1.5339 -6.4019,-4.3692 -12.9004,-6.7207 -9.4249,-3.4103 -13.6418,-4.645 -15.2812,-4.2461 z m -3.502,5.7227 -2.0547,3.9726 c -1.6232,3.1389 -1.6954,4.1013 -0.3418,4.5781 33.7023,11.869 119.9537,41.7535 150.3809,52.1055 22.3667,7.6096 67.9674,23.4212 101.334,35.1367 33.3667,11.7153 61.6526,21.3322 62.8574,21.3692 1.8042,0.057 4.7408,-3.7518 3.5059,-4.5469 -0.2005,-0.129 -36.3636,-13.0266 -80.3633,-28.6621 -44,-15.6355 -89.6007,-31.8953 -101.334,-36.1328 -19.0256,-6.8712 -72.0709,-25.8152 -117.6582,-42.0176 z m 83.5235,2.789 c -0.9033,0.099 -0.8999,0.6756 -1.168,1.3574 -0.5292,1.3458 -0.923,2.8913 -0.875,3.4336 0.048,0.5423 69.1814,25.6675 153.6289,55.834 159.9838,57.1503 155.0357,55.5904 155.4473,48.9785 0.1179,-1.8928 -42.2718,-16.8127 -44.3653,-15.6152 -0.8475,0.4848 -1.0842,0.3791 -0.5273,-0.2344 0.5571,-0.6135 -7.8423,-4.2499 -18.666,-8.082 -75.8758,-26.8646 -152.4162,-54.0821 -179.0137,-63.6563 -50.8768,-18.314 -61.7511,-22.3119 -64.4609,-22.0156 z m -8.6036,9.5235 c -1.2519,0.9783 33.2922,13.8662 124.6661,46.5078 69.5189,24.8344 130.2906,46.0608 135.0468,47.1699 4.7562,1.1089 10.755,3.2757 13.3321,4.8164 2.5772,1.5405 11.8855,5.3873 20.6855,8.5469 18.4492,6.6243 17.5105,6.4136 18.3985,4.0996 0.4704,-1.226 -2.0749,-2.6782 -8.1915,-4.6738 -4.8799,-1.5922 -74.8726,-26.5029 -155.539,-55.3575 -105.6633,-37.7955 -147.1508,-52.0844 -148.3985,-51.1093 z m -10.1738,4.5742 c -2.6262,0.502 30.7229,12.9713 124.1563,46.4179 70.2612,25.1518 128.7638,45.7732 130.0039,45.8282 1.24,0.054 2.5623,-0.3998 2.9394,-1.0098 1.1521,-1.8644 -252.9364,-92.0322 -257.0996,-91.2363 z m 293.5391,103.3379 c -2.131,-0.4336 -2.3882,0.076 -1.9863,1.2812 0.2947,0.884 6.4943,3.7648 13.7773,6.4024 8.4555,3.0622 13.5776,4.3029 14.1699,3.4316 1.2316,-1.8118 1.9989,-1.4045 -12.7363,-6.7383 -7.0897,-2.5664 -11.0937,-3.9434 -13.2246,-4.3769 z m 0.9746,8.2812 c -1.669,-0.2469 -1.3331,0.6445 -1.002,2.377 0.4664,2.4394 2.7667,3.8552 11.4883,7.0703 10.6683,3.9328 10.9201,3.9613 11.6387,1.3164 0.6354,-2.338 -0.5938,-3.1929 -9.0957,-6.3125 -7.6864,-2.8205 -11.3603,-4.2043 -13.0293,-4.4512 z" />
      <path
         id="path8717"
         style="display:inline;fill:#ff4a60;fill-opacity:1;stroke-width:1.33333"
         inkscape:label="기타몸체"
         d="m 2588.0156,1644.4023 c -7.5139,0.3042 -14.8796,1.3712 -20.4277,3.1348 l -7.7461,2.4629 35.3945,27.0469 c 33.0226,25.2346 35.2841,27.231 33.7461,29.7734 -1.4564,2.4074 -1.1246,3.166 2.8516,6.5215 3.6981,3.1207 5.0811,3.5786 7.7539,2.5625 5.2052,-1.9791 15.3021,-1.3807 21.0781,1.25 7.1246,3.2448 14.8341,12.0405 16.7324,19.0898 1.4172,5.2632 1.1242,12.3339 -0.7929,19.1289 -0.699,2.4783 2.8606,3.9782 42.3164,17.8497 23.6932,8.3292 43.9781,15.6442 45.0781,16.2539 2.9893,1.6569 3.5837,1.5042 9.5957,-2.4766 6.162,-4.08 11.5012,-4.4603 33.3652,-2.3809 16.1739,1.5381 18.2611,-0.6461 13.6231,-14.2578 -3.9002,-11.4461 -27.0479,-29.5966 -55.8535,-43.7949 -20.0473,-9.8812 -34.152,-11.5756 -53.5176,-6.4316 -17.2997,4.5952 -18.3348,4.7455 -23.6426,3.4257 -11.497,-2.8586 -26.2363,-21.7126 -26.2363,-33.5605 0,-7.804 -5.6652,-18.2424 -13.7871,-25.4023 -8.9881,-7.9243 -25.6858,-16.1178 -38.2129,-18.75 -6.1413,-1.2904 -13.8044,-1.7495 -21.3184,-1.4454 z m -68.6816,40.9454 -2.3281,2.9921 c -1.2807,1.6459 -5.3366,8.9929 -9.0118,16.3262 -9.2723,18.5015 -14.6214,39.7027 -14.1836,56.2051 0.2923,11.014 0.7985,13.164 5.1895,22.0488 5.4328,10.9925 18.2809,24.5388 29.4395,31.0391 9.3159,5.4273 24.1537,11.2267 34.8945,13.6387 11.7499,2.6384 46.5773,2.9759 61.0078,0.5918 9.0624,-1.4972 11.2821,-1.4332 17.959,0.5078 11.9403,3.4711 17.4374,6.8662 28.9687,17.8925 11.4988,10.996 20.0407,16.6559 30.7129,20.3457 8.9211,3.084 16.9168,3.0513 20.7949,-0.09 4.2154,-3.4133 5.073,-16.5207 1.9219,-29.3789 -1.25,-5.1016 -1.8623,-10.5677 -1.3613,-12.1465 0.5011,-1.5786 3.5657,-4.5536 6.8105,-6.6113 l 5.8985,-3.7422 -3.6172,-0.9082 c -2.6231,-0.6583 -99.0147,-34.0048 -142.7617,-49.3887 -1.3045,-0.4588 -1.253,-1.5332 0.2363,-4.9609 2.8668,-6.5976 3.9324,-9.5539 4.0391,-11.1953 0.053,-0.8172 0.7541,-2.316 1.5586,-3.3321 0.8046,-1.016 1.8066,-3.3482 2.2265,-5.1816 0.7141,-3.1184 -1.7884,-4.9871 -38.8164,-28.9922 z m 0.8066,53.3183 c 6.7341,0 10.3895,9.2993 5.4219,13.7949 -5.0065,4.5308 -12.2285,0.9723 -12.2285,-6.0254 0,-3.5998 3.6511,-7.7695 6.8066,-7.7695 z m 37.0215,12 c 4.7516,0 6.8379,2.2383 6.8379,7.334 0,2.2734 -0.7196,4.8544 -1.5996,5.7344 -2.2653,2.2653 -8.4931,1.9833 -10.9727,-0.4961 -1.1524,-1.1524 -2.0937,-3.5097 -2.0937,-5.2383 0,-4.1885 3.3567,-7.334 7.8281,-7.334 z m -27.8281,14.668 c 1.4667,0 3.8653,1.1994 5.332,2.666 1.4666,1.4667 2.668,3.8673 2.668,5.334 0,1.4666 -1.2014,3.8653 -2.668,5.332 -1.4667,1.4667 -3.8653,2.668 -5.332,2.668 -1.4666,0 -3.8673,-1.2013 -5.334,-2.668 -1.4667,-1.4667 -2.666,-3.8654 -2.666,-5.332 0,-1.4667 1.1993,-3.8673 2.666,-5.334 1.4667,-1.4666 3.8674,-2.666 5.334,-2.666 z m 470.7695,98.8867 -8.709,1.4922 c -8.5517,1.465 -8.7235,1.5774 -9.5586,6.2226 -0.4678,2.602 -1.2638,5.3312 -1.7695,6.0645 -0.5056,0.7334 -1.7315,4.034 -2.7246,7.334 -0.9929,3.3 -2.3004,6.569 -2.9063,7.2656 -2.2504,2.5879 -0.8831,6.8923 3.9375,12.3965 4.424,5.0506 8.0593,6.9527 33.627,17.5957 15.7667,6.5632 29.2285,11.7782 29.916,11.5879 1.5328,-0.4241 17.3255,-47.3834 16.2852,-48.4238 -0.4092,-0.409 -13.6498,-5.4212 -29.4219,-11.1387 z" />
      <path
         id="path17982"
         style="display:inline;fill:#fcdfd8;fill-opacity:1;stroke-width:1.33207"
         inkscape:label="피부"
         d="m 2798.3223,1428.6016 c -10.9048,0 -13.6947,0.4877 -20.1778,3.5273 -9.1601,4.2945 -17.2121,12.0961 -21.7734,21.0977 -2.9711,5.863 -3.7394,6.5586 -5.9512,5.375 -7.3196,-3.9174 -18.7877,0.6632 -22.2187,8.875 -2.9568,7.0763 -1.3508,13.3245 4.9707,19.3379 5.0297,4.7839 5.2108,5.2643 5.3008,14 l 0.094,9.0449 1.9356,-5.2891 c 2.49,-6.8016 8.3179,-12.9163 11.83,-12.4141 2.3998,0.3438 2.7134,1.4199 2.8438,9.7813 0.1622,10.4106 3.0376,18.2133 7.8808,21.3867 2.6496,1.7361 3.6999,1.6545 9.8399,-0.7656 8.8478,-3.4875 19.2949,-3.4703 28.6933,0.047 8.3529,3.1251 11.3848,6.5499 11.3848,12.8593 0,2.5216 0.6787,4.3653 1.6074,4.3653 0.8843,0 5.309,-3.7922 9.8321,-8.4278 6.4756,-6.636 10.0288,-12.05 16.7089,-25.4668 8.4574,-16.9823 8.4786,-17.0766 8.4786,-28.5371 -0.01,-9.8426 -0.5579,-12.6938 -3.836,-19.8027 -4.7917,-10.3909 -13.8594,-19.0783 -25.832,-24.75 -8.1114,-3.8426 -10.15,-4.2441 -21.6113,-4.2441 z m -58.2266,93.9472 -6.3262,13.4492 -6.3261,13.4493 -0.8106,-0.1309 c -0.079,2.0848 -1.7115,58.0567 52.416,29.1172 0.035,-0.019 0.069,-0.028 0.1035,-0.047 l -0.2148,-0.2265 3.668,-7.5098 c 2.017,-4.1312 3.6822,-8.1837 3.6972,-9.0059 0.016,-0.8221 -2.2493,-1.8595 -5.0332,-2.3047 -13.945,-2.2299 -31.712,-16.3889 -38.25,-30.4824 z m -113.0098,186.2149 -0.3671,0.1601 c 0,0 -6.0058,10.9186 -19.1094,25.6602 l 0.043,0.057 c 0.2243,-0.099 0.4476,-0.2883 0.6602,-0.2812 2.4982,0.082 12.2061,9.0264 11.0508,10.1816 -0.5865,0.5865 -5.5183,-0.5237 -10.959,-2.4668 -5.4405,-1.943 -9.8926,-3.0303 -9.8926,-2.418 0,0.6133 4.7643,2.8033 10.586,4.8653 7.5214,2.6645 10.7827,4.5059 11.2695,6.3672 0.3771,1.4407 0.4955,2.8093 0.2637,3.041 -0.2318,0.2318 -5.6515,-1.4238 -12.043,-3.6797 -6.3917,-2.256 -12.2922,-3.8786 -13.1113,-3.6055 -0.8192,0.273 4.7756,2.7766 12.4296,5.5645 9.3758,3.4148 14.8562,6.2116 16.795,8.5703 1.5828,1.9259 2.7382,3.6438 2.5683,3.8184 -0.17,0.1744 -7.9889,-2.3902 -17.3769,-5.7012 -9.3882,-3.3109 -17.3719,-5.7183 -17.7403,-5.3496 -0.8997,0.8995 -12.0712,-3.1708 161.4395,58.8164 84.9269,30.3403 154.6925,55.4425 155.0332,55.7832 0.3406,0.3408 -0.3605,2.1146 -1.5586,3.9433 -2.7984,4.2723 -2.7926,10.5739 0.016,12.9141 1.2057,1.0053 9.1478,4.6116 17.6485,8.0137 8.5005,3.4021 16.4703,6.2501 17.7109,6.3281 3.4288,0.2146 6.4023,-5.1175 6.4024,-11.4785 -1e-4,-3.1338 0.1507,-5.6937 0.3339,-5.6797 0.1832,0.01 5.8774,2.0364 12.6543,4.502 6.7769,2.4654 12.3223,4.0125 12.3223,3.4375 0,-0.9927 -21.4356,-9.2891 -24,-9.2891 -1.31,0 -3.9746,-4.3258 -3.9746,-6.4531 0,-0.7149 5.5454,0.668 12.3223,3.0742 17.0076,6.0392 18.7811,6.5403 17.8593,5.0488 -0.4344,-0.703 -8.1522,-3.8672 -17.1504,-7.0312 -8.9984,-3.1641 -17.8598,-6.849 -19.6914,-8.1895 -1.8316,-1.3407 -7.2262,-3.2636 -11.9883,-4.2715 -4.7613,-1.0078 -64.4057,-21.7608 -132.541,-46.1191 -68.1344,-24.3585 -125.5497,-44.8784 -127.5879,-45.5996 -3.0742,-1.0877 -3.4269,-1.6469 -2.0722,-3.2793 1.0207,-1.2293 2.9093,-1.6969 5.0371,-1.2461 1.8725,0.3968 72.0397,25.2685 155.9258,55.2715 83.8861,30.0023 152.7727,54.3083 153.0781,54.0097 0.3051,-0.2986 0.3051,-0.7799 0,-1.0683 -0.3054,-0.2884 -69.7905,-25.241 -154.4102,-55.4512 -84.6187,-30.2102 -153.9826,-55.0313 -154.1406,-55.1562 -0.158,-0.1247 1.2339,-3.195 3.0938,-6.8223 2.8444,-5.5476 3.3088,-8.0089 2.914,-15.5078 -0.3916,-7.434 -1.1582,-9.869 -4.6152,-14.6543 -7.0597,-9.7719 -18.4337,-13.8205 -31.7422,-11.3008 -4.6868,0.8871 -5.8721,0.5532 -9.8398,-2.7695 -2.7587,-2.3102 -3.6683,-3.3445 -3.545,-4.5586 z m 31.5586,62.8652 c 2.5124,-0.015 185.1102,64.3025 255.5684,90.0195 1.6598,0.6058 1.5599,1.053 -0.5879,2.6328 -1.4221,1.0466 -3.2203,1.835 -3.9961,1.752 -0.7758,-0.083 -31.9812,-11.1548 -69.3457,-24.6035 -37.3644,-13.4488 -95.0663,-34.1723 -128.2266,-46.0508 -56.6182,-20.2818 -64.2794,-23.688 -53.4121,-23.75 z m -203.8789,253.2598 c -1.2906,-0.058 -2.2308,0 -3.0156,0.2187 -1.5697,0.4444 -2.5167,1.5585 -4.3945,3.7832 -8.9849,10.6447 -11.5049,25.9102 -5.6836,34.4278 2.6583,3.8895 3.8234,4.4486 10.3047,4.9511 4.0193,0.3114 7.5654,0.8253 7.8808,1.1407 0.3155,0.3156 0.944,0.5722 1.3946,0.5722 1.2213,0 9.2965,-41.815 8.2734,-42.8418 -0.4838,-0.4854 -4.8229,-1.2926 -9.6426,-1.7949 -2.1855,-0.2277 -3.8266,-0.3988 -5.1172,-0.457 z m 590.7227,147.6679 c -0.4952,0 -33.8801,23.435 -35.1582,24.6797 -0.2573,0.2506 2.2741,3.3865 5.625,6.9688 6.042,6.4597 6.1455,6.5047 12.457,5.6074 8.5067,-1.2096 12.4516,-2.9486 18.2715,-8.0586 9.9556,-8.7411 11.2368,-16.4444 4.0234,-24.2031 -2.5543,-2.7474 -4.9029,-4.9942 -5.2187,-4.9942 z"
         sodipodi:nodetypes="cccccccccccsccssccccscccccccccccccccccccsssccssccccccssccscsccssscsssscscscccccccccscccscssccccsscsssscsscssss" />
      <path
         id="path17986"
         style="display:inline;fill:#f8b940;fill-opacity:1;stroke-width:1.33333"
         inkscape:label="기타디테일"
         d="m 2520.3125,1738.8555 c -0.9664,0.045 -1.9307,0.5648 -3.4922,1.5879 -4.5045,2.9514 -4.7712,9.1695 -0.5234,12.1464 3.7226,2.608 5.028,2.6026 8.8144,-0.051 4.2425,-2.9715 3.5412,-9.719 -1.291,-12.418 -1.5731,-0.8787 -2.5414,-1.3101 -3.5078,-1.2656 z m 37.1934,11.8105 c -6.9426,0 -10.478,7.2437 -5.9668,12.2285 2.5059,2.7689 8.4704,3.2308 10.8613,0.8399 0.88,-0.88 1.5996,-3.461 1.5996,-5.7344 0,-4.9889 -2.0754,-7.334 -6.4941,-7.334 z m -27.9903,14.959 c -1.6815,-0.01 -3.1069,0.7376 -4.9218,2.4434 -3.9561,3.7166 -4.1435,7.046 -0.5938,10.5957 1.4667,1.4667 3.8674,2.6679 5.334,2.6679 2.7274,0 8,-4.3368 8,-6.58 0,-3.7481 -2.9612,-8.1094 -6.0274,-8.879 -0.6412,-0.1609 -1.2305,-0.246 -1.791,-0.248 z" />
      <path
         id="path17990"
         style="display:inline;fill:#222b40;fill-opacity:1;stroke-width:1.33207"
         inkscape:label="신발"
         d="m 2419.7402,2008.3145 c -2.6436,-0.3168 -3.891,0.2312 -5.5273,1.4277 -3.358,2.4555 -34.5787,125.5809 -32.7227,129.0488 1.7833,3.3322 9.216,3.233 13.5567,-0.1816 4.49,-3.5319 51.6093,-67.2655 51.6093,-69.8067 0,-1.0953 -1.1786,-2.8152 -2.6191,-3.8242 -9.5777,-6.7087 -8.5689,-25.6774 1.9922,-37.4277 2.542,-2.8283 4.623,-5.633 4.623,-6.2324 0,-2.7471 -5.1278,-5.5364 -17.0019,-9.2481 -7.2261,-2.2588 -11.2666,-3.4391 -13.9102,-3.7558 z m 721.3594,148.1464 c -3.3764,-0.368 -18.5975,2.7277 -45.0605,9.1621 l -39.9629,9.7168 -0.1914,5.6192 c -0.2788,8.1342 -1.3776,11.5357 -5.1914,16.0683 -4.885,5.8053 -12.1597,9.8952 -20.5743,11.5684 -6.0399,1.2009 -7.4222,1.9903 -7.7812,4.4414 -0.4394,3.0006 8.1199,18.5174 14.1992,25.7422 1.8772,2.231 4.4482,3.7148 6.4375,3.7148 2.208,0 19.1565,-11.3976 50.834,-34.1875 57.4728,-41.3483 57.5117,-41.3789 57.5117,-44.3105 0,-3.5696 -4.5404,-6.9162 -10.2207,-7.5352 z" />
      <path
         id="path23497"
         style="display:inline;fill:#f8b940;fill-opacity:1;stroke-width:1.33207"
         inkscape:label="셔츠"
         d="m 2672.4414,1543.8398 c -29.4011,0 -39.7258,2.027 -85.0332,16.7012 -33.771,10.9376 -66.8125,27.6773 -92.9492,47.0879 -15.9545,11.8485 -20.5166,16.7678 -22.5508,24.3223 -3.7602,13.9648 1.8867,22.9005 23.3457,36.9453 48.4271,31.6958 107.457,69.4101 108.6406,69.4101 0.7488,0 1.7071,-0.899 2.1289,-1.998 0.3147,-0.8199 0.9697,-1.3785 1.6289,-1.668 l -0.043,-0.057 c 13.1036,-14.7416 19.1094,-25.6602 19.1094,-25.6602 l 0.3671,-0.1601 c 0.061,-0.597 0.29,-1.229 0.8301,-2.0938 0.9878,-1.5818 1.5204,-3.0972 1.1817,-3.3672 -0.3384,-0.2701 -13.5042,-10.2994 -29.2559,-22.2871 -37.1901,-28.3025 -50.6172,-38.9376 -50.6172,-40.0879 0,-1.4611 33.8392,-17.6601 48.6192,-23.2734 7.3255,-2.7823 13.9196,-5.7947 14.6523,-6.6953 2.6581,-3.2681 35.4522,-11.4813 37.5332,-9.4004 1.5715,1.5716 -0.5792,2.4568 -10.4746,4.3144 -5.3573,1.0057 -13.7099,3.0911 -18.5606,4.6348 l -8.8183,2.8067 -3.9043,15.1386 -3.9043,15.1367 6.7285,1.5196 c 3.7013,0.8355 12.2379,4.2029 18.9707,7.4824 9.8741,4.8098 13.9177,7.7398 20.9102,15.1523 6.4995,6.8899 8.8768,10.4508 9.498,14.2325 2.6568,16.1705 3.7034,19.2925 8.7051,25.9492 5.3648,7.1398 14.0042,13.8656 19.6211,15.2754 1.7975,0.4511 9.3778,-0.8727 17.3906,-3.0371 17.6997,-4.7809 32.5931,-4.9995 44.8398,-0.6582 4.3958,1.5581 8.499,2.9777 9.1172,3.1562 0.618,0.1786 4.4532,-7.2985 8.5235,-16.6152 4.0704,-9.3167 7.8458,-16.6634 8.3886,-16.3281 0.9215,0.5687 18.4777,27.1497 67.4532,102.121 11.12,17.0225 19.9272,31.4227 19.5703,32 -0.3569,0.5777 0.1495,1.0508 1.125,1.0508 1.7691,0 54.3063,18.2647 63.0722,21.9278 l 4.6211,1.9316 -3.2031,-5.6035 c -1.7613,-3.0813 -30.0416,-56.255 -62.8437,-118.1621 -32.8032,-61.9077 -62.0296,-116.0998 -64.9473,-120.4278 -2.9176,-4.3281 -9.2785,-12.0382 -14.1367,-17.1328 l -8.6192,-9.0371 c -0.035,0.019 -0.069,0.028 -0.1035,0.047 -54.1275,28.9395 -52.4946,-27.0324 -52.416,-29.1172 l -4.7109,-0.7578 c -23.6447,-3.8099 -33.1733,-4.7188 -49.4805,-4.7188 z"
         sodipodi:nodetypes="cccccssccccsccscccsccccccscsssccscscsccsccccccccc" />
      <path
         id="path23583"
         style="display:inline;fill:#222b40;fill-opacity:1;stroke-width:1.33207"
         inkscape:label="수염"
         d="m 2752.2383,1492.4941 c -2.6141,0.3937 -7.7543,5.651 -10.002,10.5997 -3.6619,8.0622 -3.2108,15.4724 1.5098,24.8242 7.061,13.9876 18.4683,24.3063 32.3125,29.2285 3.888,1.3823 10.8085,2.5122 15.7226,2.5664 7.2523,0.08 10.2018,-0.6118 16.959,-3.9883 11.4905,-5.7419 21.0611,-17.9825 24.9278,-31.8789 0.7297,-2.6223 0.094,-2.1975 -2.9942,1.9981 -4.3268,5.878 -13.0696,13.9863 -15.082,13.9863 -0.7073,0 -1.7113,0.1489 -2.2305,0.332 -0.5194,0.1832 -1.0214,-1.9099 -1.1172,-4.6523 -0.2353,-6.7778 -3.4837,-9.8818 -13.6171,-13.0118 -10.8914,-3.3633 -13.7478,-3.3347 -23.9102,0.2344 -6.5975,2.3171 -8.9361,2.6125 -11.4844,1.4512 -5.0778,-2.3135 -8.8691,-11.7164 -8.8691,-21.9941 0,-4.854 -0.5291,-9.1511 -1.1758,-9.5508 -0.2546,-0.1574 -0.5758,-0.2008 -0.9492,-0.1446 z" />
      <path
         id="path23589"
         style="display:inline;fill:#3e4b99;fill-opacity:1;stroke-width:1.33207"
         inkscape:label="바지"
         d="m 2734.2656,1815.291 -5.164,3.418 c -2.8402,1.8797 -5.5661,4.6824 -6.0567,6.2285 -0.4907,1.5459 0.1305,6.9794 1.3789,12.0762 3.2153,13.1199 2.301,25.9318 -2.1054,29.5039 -2.7042,2.1922 -4.5844,2.5192 -11.1036,1.9297 -12.2008,-1.1037 -25.3932,-8.3356 -39.375,-21.586 -12.4937,-11.8411 -17.7326,-15.1208 -29.7363,-18.6093 -6.6706,-1.9393 -8.8877,-2.0017 -17.9414,-0.5059 -14.674,2.4243 -49.2008,2.0444 -61.3711,-0.6758 -5.3594,-1.1977 -10.0915,-2.1777 -10.5156,-2.1777 -1.6936,0 0.8826,19.7718 3.4746,26.6699 3.0432,8.0994 5.9567,12.9418 22.9785,38.1738 6.3366,9.3933 17.001,26.6685 23.6973,38.3907 13.4579,23.5577 52.9419,101.4389 51.9375,102.4433 -0.3494,0.3495 -38.6849,-1.7373 -85.1895,-4.6367 -46.5041,-2.8998 -87.2275,-5.1116 -90.4941,-4.916 l -5.9375,0.3554 -5.5254,27.6622 c -5.4906,27.4944 -5.5065,27.6684 -2.7188,28.3203 75.7108,17.7047 161.3623,27.0424 216.0997,23.5605 26.6498,-1.6952 35.4652,-3.5388 49.3691,-10.3262 14.952,-7.2982 24.3965,-20.2517 24.3965,-33.457 0,-5.1615 -5.7913,-24.1201 -30.1836,-98.8164 -9.8899,-30.2856 -17.7706,-55.2765 -17.5137,-55.5332 0.2567,-0.2567 26.5298,22.7715 58.3828,51.1719 l 57.916,51.6367 88.3926,98.1367 c 48.6157,53.9761 88.9279,98.1387 89.5821,98.1387 0.6542,0 12.8028,-8.2633 26.998,-18.3633 l 25.8105,-18.3633 -82.1777,-106.1406 -82.1758,-106.1406 -65.4707,-64.7285 -65.4707,-64.7286 -12.0937,-4.0546 z" />
      <path
         id="path23801"
         style="display:none;fill:#222b40;fill-opacity:1;stroke-width:1.33333"
         inkscape:label="셔츠선"
         d="m 2648.7852,1601.7188 c -2.1091,-0.042 -5.7681,0.438 -10.8848,1.4433 -13.9535,2.7416 -24.8631,6.3922 -25.5859,8.5606 -0.7051,2.1153 1.0169,2.0331 6.6445,-0.3184 2.5396,-1.061 10.4773,-3.1263 17.6406,-4.5898 7.1634,-1.4633 13.3588,-2.9953 13.7676,-3.4043 1.0852,-1.0852 0.527,-1.6501 -1.582,-1.6914 z" />
    </g>
    <g
       id="g17387"
       inkscape:label="네번째 트럼펫"
       style="display:inline"
       transform="matrix(0.17019436,0,0,0.17019436,-353.84754,-48.868856)">
      <path
         id="path17372"
         style="display:inline;fill:#fcdfd8;fill-opacity:1;stroke-width:1.33207"
         inkscape:label="피부"
         d="m 3400.5898,216.0293 c -0.4619,0.21504 -4.869,2.36225 -9.7949,4.77148 -4.9258,2.40924 -13.1258,5.43858 -18.2207,6.73242 l -9.2637,2.35352 3.2969,9.78906 c 1.8134,5.38482 3.9038,10.92448 4.6446,12.3086 0.9553,1.7847 0.7041,5.40854 -0.8653,12.46289 -2.8789,12.93989 -2.2812,14.4684 5.2188,13.34375 5.4899,-0.82328 5.8788,-0.66431 7.4121,3.0371 0.5202,1.25618 0.8516,2.83303 1.0449,4.35547 1.6964,2.40332 5.0137,6.83632 9.5566,12.10743 1.7413,0.35173 5.1374,1.54574 8.7364,3.19336 6.5063,2.97865 8.8582,3.37886 16.4785,2.80468 4.8889,-0.36839 10.1061,-1.06808 11.5918,-1.55468 2.2002,-0.72069 3.0021,-0.0496 4.3281,3.61718 0.8954,2.47598 1.6289,8.00077 1.6289,12.27539 0,6.11218 -0.6723,8.65098 -3.1426,11.89258 -1.7277,2.26706 -4.6808,7.16341 -6.5625,10.87891 -6.256,12.35356 -7.9266,21.92219 -8.8574,50.71484 l -0.8672,26.83399 -4.7734,5.80078 c -2.6257,3.19112 -7.0959,8.35357 -9.9336,11.4707 l -5.1602,5.66797 -27.2343,-9.06055 c -26.6393,-8.86131 -27.2768,-9.15808 -29.086,-13.59179 -1.0173,-2.49309 -3.0121,-6.01137 -4.4336,-7.81836 l -2.584,-3.28516 0.1524,-0.1543 -6.5098,-5.77148 -6.7734,-2.25 c -9.3045,-3.09048 -19.4507,-2.12587 -27.5508,2.62109 -6.5804,3.85635 -13.2328,12.05446 -14.5137,17.88672 -0.546,2.48511 -7.6865,10.52046 -21.2422,23.90039 -9.8714,9.74357 -17.5358,16.84963 -19.9296,18.65039 l -0.3067,0.42578 c 0,0 6.8305,9.59094 8.5449,16.34766 0.4297,0.71779 0.7731,1.51744 1.1309,2.55078 4.3653,12.60882 16.2775,20.94807 30.1484,21.10547 8.7016,0.0988 16.8196,-2.49022 21.5957,-6.88672 2.6195,-2.41122 3.6819,-2.3014 45.3086,4.70313 23.4444,3.94488 45.2131,7.18281 48.375,7.19531 6.873,0.0267 9.9024,-1.38764 16.7012,-7.79492 l 5.1348,-4.83789 -0.9532,28.97265 c -0.5237,15.93482 -0.7275,28.97266 -0.4531,28.97266 6.8866,0 130.9858,-8.19476 131.4727,-8.68164 0.3855,-0.38555 -1.1903,-44.6712 -3.502,-98.41211 -3.8279,-88.97861 -4.4463,-98.36011 -6.9219,-104.97656 -3.064,-8.19053 -9.9172,-16.83865 -17.9374,-22.63868 -2.9737,-2.15042 -10.1321,-8.21626 -15.9043,-13.47851 -5.7728,-5.26231 -11.1902,-9.97561 -12.0391,-10.47461 -0.8488,-0.49898 -4.2081,-7.55237 -7.4668,-15.67383 -4.6092,-11.48711 -6.3745,-14.57351 -7.9434,-13.89844 -15.4226,6.63654 -24.1242,5.68395 -30.5507,-3.34179 -3.6077,-5.06648 -3.4913,-6.53533 0.6621,-8.42774 9.4996,-4.32794 9.4552,-21.75628 -0.062,-26.09375 -5.4192,-2.46915 -13.2038,-1.95455 -17.1289,1.13281 -3.5977,2.83005 -6.599,10.72364 -5.3321,14.02539 1.2634,3.29222 -3.2149,2.11397 -8.0293,-2.11328 -4.7429,-4.16419 -7.9676,-10.61104 -9.5644,-19.12304 -0.5112,-2.72442 -1.3077,-4.77754 -1.7696,-4.5625 z m 91.6153,119.64062 c 11.1281,0.0371 17.8746,3.02124 24.9179,11.02344 8.112,9.21572 10.5719,20.81324 6.7071,31.61914 -0.9263,2.58966 -11.4675,19.37474 -23.4239,37.29883 -11.9558,17.92411 -22.4313,33.33655 -23.2773,34.25 -1.1968,1.29212 -6.1702,-3.73627 -22.4062,-22.64649 -11.4781,-13.36819 -23.6406,-27.4405 -27.0274,-31.27148 -3.3868,-3.83099 -5.7876,-7.56498 -5.334,-8.29883 0.4536,-0.73385 8.7392,-8.37335 18.4121,-16.97656 9.673,-8.60321 20.7507,-18.65538 24.6172,-22.33789 10.431,-9.93465 16.2789,-12.69526 26.8145,-12.66016 z M 3420.3965,1097.25 v 9.666 c 0,11.8982 2.8526,17.3604 10.709,20.5039 6.6972,2.6796 17.229,2.7404 23.4648,0.1348 2.6302,-1.0989 4.9321,-1.9981 5.1152,-1.9981 0.1833,0 0.6964,2.2723 1.1407,5.0508 0.9135,5.7131 6.3392,11.7123 12.3261,13.627 6.0507,1.935 18.3664,0.5624 25.0899,-2.7949 l 6.0762,-3.0352 v -10.9609 -10.961 l -6.3282,-0.7539 c -3.48,-0.4139 -14.7195,-1.0969 -24.9765,-1.5176 -10.2569,-0.4207 -20.8471,-1.0815 -23.5332,-1.4687 -4.7097,-0.6788 -4.9149,-0.9376 -5.7852,-7.2656 l -0.9023,-6.5625 h -7.0352 c -3.8694,0 -8.9078,-0.3742 -11.1973,-0.8321 z" />
      <path
         id="path17376"
         style="display:inline;fill:#7a98f0;fill-opacity:1;stroke-width:1.33333"
         inkscape:label="셔츠"
         d="m 3487.7422,292.94727 c -0.8536,-0.10413 -1.5868,0.0866 -2.3223,0.49414 -2.4065,1.33349 -43.7529,13.3412 -46.7539,13.57812 -1.5966,0.12611 -1.9104,1.82089 -1.5586,8.41797 0.4089,7.66918 0.1143,8.68558 -4.1211,14.23438 -5.896,7.72418 -10.9663,20.57085 -12.7578,32.32812 -0.7823,5.13331 -1.773,19.83272 -2.2012,32.66602 L 3417.25,418 l 4.375,-5.32031 c 2.4063,-2.92647 5.8836,-7.02388 7.7266,-9.10352 l 3.3496,-3.77929 15.9824,18.77929 c 8.7904,10.32869 15.9824,19.27751 15.9824,19.88672 0,0.60923 -11.0993,13.24598 -24.666,28.08203 l -24.666,26.97461 -0.8594,11.57422 c -0.4724,6.36536 -0.923,19.52359 -1,29.24023 -0.078,9.71664 0.064,17.66602 0.3164,17.66602 3.4388,0 132.0905,-8.11871 132.2793,-8.34766 0.2139,-0.25947 -2.1495,-56.65029 -7.7539,-184.98632 -0.8174,-18.7174 -7.2038,-31.66125 -20.1914,-40.92188 -3.7351,-2.6633 -10.9917,-8.87065 -16.125,-13.79492 -8.0518,-7.72385 -11.6971,-10.68958 -14.2578,-11.00195 z"
         sodipodi:nodetypes="ssssssccsscssscscssssss" />
      <path
         id="path17380"
         style="display:inline;fill:#222b40;fill-opacity:1;stroke-width:1.33207"
         inkscape:label="바지"
         d="m 3537.6523,546.51758 c -10.4324,0.27295 -33.5842,1.38831 -59.7695,2.91992 -70.2875,4.1112 -66.8125,3.42215 -66.8125,13.24219 0,2.97362 -6.5949,64.74789 -14.6523,137.27539 -8.0572,72.5275 -14.6504,134.92097 -14.6504,138.65039 0,7.46366 23.5426,256.32173 24.3222,257.10153 0.2667,0.2667 8.8329,0.9482 19.0372,1.5137 l 18.5546,1.0293 0.92,6.457 c 0.5064,3.5517 1.112,6.6265 1.3457,6.8321 0.2335,0.2056 16.01,1.2577 35.0586,2.3398 19.048,1.0821 35.7762,2.0543 37.1718,2.1602 2.4144,0.1832 2.4982,-0.6648 1.7383,-17.4571 -0.4391,-9.7074 -2.7049,-71.5984 -5.0351,-137.53512 l -4.2364,-119.88672 20.836,-90.37696 c 24.5724,-106.58601 25.3567,-110.66621 24.33,-126.80664 -0.7257,-11.4078 -6.2074,-40.90661 -8.9355,-48.08203 -0.6943,-1.82617 -1.2637,-8.99435 -1.2637,-15.92969 0,-10.31337 -0.3874,-12.75705 -2.125,-13.42382 -0.2921,-0.1121 -2.3565,-0.11443 -5.834,-0.0234 z" />
      <path
         id="path22022"
         style="display:inline;fill:#f8b940;fill-opacity:1;stroke-width:1.33207"
         inkscape:label="트럼펫"
         d="m 3384.0625,285.18359 c 0.1374,1.0819 0.2381,2.16979 0.1387,2.94532 -0.3114,2.428 -24.7456,27.96837 -85.834,89.72461 l -85.3965,86.33203 -33.8223,10.4707 c -18.602,5.7587 -34.6755,11.27711 -35.7168,12.26367 -2.8017,2.65473 -0.021,10.59183 7.0411,20.09961 16.2428,21.86694 50.5234,43.83308 59.2597,37.97266 1.2656,-0.84896 2.9369,-11.98943 5.6211,-37.49024 2.1004,-19.95547 4.4516,-37.04509 5.2246,-37.97656 1.1152,-1.34367 3.7914,-0.79539 12.9551,2.65234 8.1772,3.07668 10.6681,4.24091 12.0859,6.60938 -1.7144,-6.75672 -8.5449,-16.34766 -8.5449,-16.34766 l 0.3067,-0.42578 c -0.3298,0.24809 -1.5733,1.42555 -1.6504,1.41992 -0.6367,-0.0464 -2.6266,-0.67107 -4.4239,-1.38867 -3.1082,-1.24114 -0.3495,-4.22225 56.6075,-61.18945 32.9306,-32.93714 60.2636,-59.88672 60.7382,-59.88672 1.4636,0 7.8074,17.12721 7.7774,20.99414 -0.052,6.50939 -4.7907,14.05836 -16.8438,26.83594 l -11.8203,12.53125 -0.375,-0.125 6.5098,5.77148 12.5019,-12.72461 c 14.5008,-14.75944 17.9766,-21.01653 18.0196,-32.43554 0.023,-6.01899 -1.038,-10.25355 -4.6582,-18.60743 l -4.6856,-10.81445 17.6543,-17.69141 c 9.7107,-9.73064 18.6419,-17.69335 19.8457,-17.69335 0.1659,0 0.7626,0.225 1.041,0.28125 -4.5429,-5.27111 -7.8602,-9.70411 -9.5566,-12.10743 z" />
      <path
         id="path22241"
         style="display:inline;fill:#ff4a60;fill-opacity:1;stroke-width:1.33207"
         inkscape:label="머리"
         d="m 3403.7461,164.46875 -11.4961,5.80078 -11.498,5.80078 -14.0723,-0.95898 c -12.9112,-0.88006 -14.574,-0.71693 -20.1582,1.98633 -12.7298,6.16232 -16.694,22.72018 -8.9805,37.50586 5.0457,9.67192 11.354,13.18577 23.791,13.2539 9.9551,0.0545 18.5082,-2.41373 32.0586,-9.2539 4.5547,-2.29926 8.5207,-4.18165 8.8125,-4.18164 0.2921,0 0.8369,2.71596 1.211,6.03515 0.9135,8.10286 6.0237,17.50041 11.3222,20.82031 l 4.3282,2.71094 v -4.1914 c 0,-9.27173 7.0132,-16.05079 16.6054,-16.05079 3.5489,0 6.0036,1.15229 9.7227,4.56055 4.4777,4.10345 4.9765,5.22732 4.9765,11.23438 0,5.57012 -0.6474,7.3521 -3.9121,10.75976 -2.1518,2.24599 -4.7145,4.08399 -5.6953,4.08399 -2.6291,0 1.2431,6.98034 5.918,10.66796 3.0965,2.44271 4.9955,2.82654 11.8164,2.39649 4.6108,-0.29068 9.6271,-1.49323 11.5898,-2.7793 l 3.459,-2.26758 -2.5234,-7.33398 c -2.5228,-7.33248 -2.5222,-7.33939 0.4004,-13.66797 2.474,-5.3571 2.9238,-8.68874 2.9238,-21.65039 0,-14.46399 -0.2378,-15.81877 -4.2539,-24.29688 -5.5052,-11.62143 -15.107,-21.22533 -26.7285,-26.73046 -8.4782,-4.01613 -9.8353,-4.25391 -24.2988,-4.25391 z" />
      <path
         id="path24109"
         style="display:inline;fill:#3e4b99;fill-opacity:1;stroke-width:1.33207"
         inkscape:label="신발"
         d="m 3417.3984,1116.2363 c -3.1842,0 -77.3558,30.8911 -80.5488,33.541 -1.0341,0.8583 -2.7785,3.298 -3.8769,5.4219 -1.7887,3.4576 -1.7752,4.201 0.1191,7.0918 2.0894,3.189 2.371,3.2285 22.9375,3.2285 19.7058,0 20.715,0.1241 18.8203,2.3301 -3.06,3.563 -3.8711,6.9217 -2.3555,9.7539 1.326,2.4775 3.4859,2.5678 61.6036,2.5567 33.1254,-0.01 63.4198,-0.3949 67.3203,-0.8633 10.1388,-1.2176 10.8384,-2.8052 9.5195,-21.6094 -1.367,-19.4904 -2.3399,-20.7377 -12.2559,-15.7207 -8.279,4.1888 -22.428,4.9708 -28.9472,1.5996 -5.5267,-2.8579 -9.377,-8.3783 -9.377,-13.4473 0,-4.3661 -0.03,-4.3876 -3.6269,-2.5214 -10.2895,5.3382 -25.6885,3.3313 -32.3106,-4.211 -2.2129,-2.5202 -4.0234,-5.162 -4.0234,-5.8691 0,-0.7068 -1.3488,-1.2834 -2.9961,-1.2813 z" />
    </g>
    <g
       id="g17961"
       inkscape:label="마이크"
       style="display:inline"
       transform="matrix(-0.17337355,0,0,0.17337355,875.34115,-229.5757)">
      <path
         id="path17879"
         style="display:inline;fill:#3e4b99;fill-opacity:1;stroke-width:1.33333"
         inkscape:label="파랑"
         d="m 1988.0161,1424.8012 c -2.0479,0.074 -6.0375,1.5648 -8.8652,3.3125 -2.3583,0.7388 -6.7763,2.7489 -7.5059,2.7773 -6.4531,-0.2385 -23.8001,3.7867 -32.9768,10.1504 -5.2905,4.1141 -18.2058,18.5759 -14.1813,40.6621 0.4606,10.649 4.8768,16.7312 9.0586,24.127 2.3862,3.078 3.0938,6.0385 6.9816,6.34 29.1109,-6.8927 30.0605,-12.1221 43.6747,-6.6935 3.8584,2.7475 4.2136,2.7855 5.4336,0.6054 1.8368,-3.282 9.4964,-6.189 13.9492,-5.2949 10.2391,2.0559 15.7003,13.8552 10.1445,21.916 -3.0126,4.3709 -5.8815,6.5359 -8.7285,6.5879 -1.2834,0.023 -2.332,0.6206 -2.332,1.3281 8.7312,12.52 22.9846,30.5295 23.9004,43.4825 0.091,3.7806 0.4122,4.0567 4.0859,3.5175 7.5885,-2.2696 11.8939,-6.7063 15.3945,-12.0293 2.8118,-3.2458 7.0317,-9.4596 11.1793,-16.0707 1.7201,-4.5762 1.7125,-6.0487 -0.9078,-16.3003 -2.2137,-12.3024 -1.863,-26.3453 0.9552,-37.8846 1.3623,-10.7232 1.4865,-22.965 -0.3633,-32.918 -1.0466,-17.112 -18.3595,-32.9837 -32.8789,-34.9453 -16.7743,-4.0743 -22.9188,-4.6071 -36.0178,-2.6701 z m -79.4417,140.5018 c -4.9461,4.132 -9.8611,11.1571 -14.6797,15.1133 -1.4161,14.0088 3.1308,29.8925 17.8434,20.2892 5.4995,-6.3792 12.5275,-11.5971 16.0195,-13.9395 0.18,-0.082 0.7399,-0.152 0.8145,-0.2265 -6.172,-8.2063 -12.16,-13.4414 -19.9977,-21.2365 z m 182.5352,9.5879 -5.1114,8.8828 c -9.8231,23.5787 -57.2531,105.7614 -31.6466,127.2305 15.0393,16.5616 34.8128,22.3914 52.5209,16.0957 14.9785,-6.2344 35.304,-24.4644 41.9004,-50.5625 1.287,-7.3252 4.0555,-21.8626 -6.2363,-44.5332 -18.2582,-32.3772 -30.7394,-42.6095 -51.427,-57.1133 z m -163.1094,11.0356 c 0,0.01 -0.1729,0.01 -0.1855,0.014 -3.2294,-3.1461 -2.5348,-2.8633 0.1855,-0.014 z m -73.8535,32.3304 c -5.6061,6.052 -12.1037,11.4119 -16.1973,18.2675 -0.1561,1.423 0.079,2.2054 0.4473,2.4844 2.6773,4.3973 4.7278,7.6365 8.6035,7.6602 2.3908,0.437 6.2901,-0.148 7.666,-2.6641 5.3356,-4.5253 8.6039,-7.0016 12.2816,-10.4141 16.7423,-14.9615 -0.7672,-26.6858 -12.8011,-15.3339 z"
         sodipodi:nodetypes="ccccccccssssccccccccccccccccccccccccccccccccc" />
      <path
         id="path17859"
         style="display:inline;fill:#fcdfd8;fill-opacity:1;stroke-width:1.33207"
         inkscape:label="피부"
         d="m 2228.5195,1325.5234 c -18.5525,-0.079 -20.2566,1.3288 -25.1328,6.711 -5.7231,6.3169 -166.9686,249.0952 -170.8105,257.1797 -9.8695,20.768 -10.8484,40.7863 -2.7637,56.5156 4.9224,9.5765 11.175,15.547 19.3906,18.5156 10.1754,3.6766 9.5041,4.8005 19.1153,-32.0371 8.8363,-33.868 10.5287,-38.1032 23.9375,-59.9434 1.3494,-2.1979 28.0486,-48.9532 59.33,-103.9003 31.2823,-54.9478 59.0574,-103.676 61.7227,-108.2833 2.9098,-5.0295 5.9198,-8.5916 7.5352,-8.914 1.4789,-0.2955 13.1807,-2.3741 26.0019,-4.6192 12.8212,-2.2452 29.456,-5.354 36.9648,-6.9101 13.44,-2.785 13.6543,-2.8889 13.6543,-6.6055 0,-2.2363 -0.9514,-4.2811 -2.332,-5.0136 -1.2821,-0.6809 -20.0489,-1.6769 -41.7031,-2.2129 -10.6698,-0.2641 -18.726,-0.4562 -24.9102,-0.4825 z m -267.3281,128.1719 c -0.5168,0.1601 -1.7203,1.2962 -4.0586,3.5469 -2.6642,2.5642 -6.7082,8.5581 -8.9863,13.3203 -3.6177,7.562 -4.2157,10.4291 -4.7285,22.6445 -0.4364,10.3946 -1.1535,14.6726 -2.791,16.6524 -5.295,6.402 -8.2903,11.6097 -7.8868,13.7148 0.2392,1.2481 2.4739,2.9302 4.9649,3.7383 4.0166,1.3029 4.7372,2.2825 6.3613,8.6582 2.0971,8.2319 6.8685,14.7841 14.9043,20.4688 4.6089,3.2598 7.2192,4.0489 14.8574,4.4804 l 9.2676,0.5235 v 12.2382 c 0,8.0077 -0.5746,12.8187 -1.6641,13.9161 -1.3357,1.3457 -1.1623,1.4841 0.8829,0.705 1.449,-0.552 2.254,-0.4426 1.8632,0.2539 -12.9051,23.0037 -16.158,29.302 -18.8789,36.5489 -5.072,13.5089 -5.6492,19.9127 -2.1914,24.3086 2.177,2.7674 4.0207,3.6425 7.6758,3.6425 14.9314,0 32.424,-18.878 49.0762,-52.9609 l 7.3261,-14.9941 -1.25,-11.3868 c -1.5597,-14.1929 -6.4655,-24.7076 -16.914,-36.2539 -6.3959,-7.0675 -7.0756,-8.2871 -4.6211,-8.2871 1.5831,0 4.63,-1.7529 6.7715,-3.8945 3.1881,-3.188 3.8926,-5.0161 3.8926,-10.0918 0,-12.5537 -12.9953,-18.5725 -22.6192,-10.4746 -3.8347,3.2268 -4.4596,3.3637 -7.6523,1.666 -4.6194,-2.4562 -13.3432,-13.5543 -17.1602,-21.8301 -4.0436,-8.7669 -7.5697,-24.2393 -6.5039,-28.5449 0.4092,-1.6531 0.5808,-2.4686 0.062,-2.3086 z m -76.9277,125.0313 c -10.915,-0.9112 -22.2921,4.3748 -27.8516,16.3828 -6.3943,13.811 -0.5204,28.7303 15.125,38.4199 3.1934,1.9777 3.6641,3.1104 3.6641,8.8301 0,8.6168 3.362,34.5579 6.6738,51.4863 7.9281,40.5263 19.9965,64.8984 36.1094,72.9277 3.8643,1.9258 8.5672,3.502 10.4511,3.502 5.6967,0 12.5259,-5.7779 17.2032,-14.5527 2.3855,-4.4757 4.9201,-7.7792 5.6308,-7.3399 0.7107,0.4392 -4.679,-6.5938 -11.9765,-15.6289 -11.8537,-14.6764 -13.4846,-17.3504 -15.2989,-25.0859 -1.117,-4.7621 -6.5584,-23.9171 -12.0918,-42.5664 -5.5336,-18.6498 -10.0605,-34.7255 -10.0605,-35.7227 0,-0.9971 1.4542,-3.7206 3.2305,-6.0527 5.2353,-6.8729 6.7476,-15.2953 4.2754,-23.7989 -3.7158,-12.7817 -14.1689,-19.8895 -25.084,-20.8007 z m 91.1855,15.6484 c -1.2877,0.7144 -6.1146,2.761 -10.7265,4.5488 -10.366,4.0181 -16.6649,8.2443 -19.5411,13.1133 -1.9094,3.2324 -14.092,53.2311 -14,57.4551 0.019,0.8495 3.7794,-5.6478 8.3575,-14.4395 10.0929,-19.3814 24.0713,-42.7165 32.2285,-53.7968 3.3127,-4.4997 4.9694,-7.5954 3.6816,-6.8809 z m 84.3164,389.0234 c -0.2127,0 -26.8172,3.5964 -59.1211,7.9922 -32.3033,4.3959 -60.4039,8.0625 -62.4453,8.1485 -2.2524,0.094 -2.7956,0.394 -1.3808,0.7636 1.2821,0.3352 2.3357,1.6135 2.3496,2.8418 0.01,1.2284 0.3927,11.968 0.8515,23.8653 0.7424,19.2511 0.5606,22.3288 -1.664,27.9726 -3.2466,8.2358 -3.2244,22.953 0.047,30.3203 2.1494,4.841 2.5393,15.3767 4.2696,115.2227 1.0477,60.4419 1.7319,112.9497 1.5215,116.6816 -0.3227,5.7255 0.1392,7.3249 2.9492,10.2364 1.8316,1.8977 5.4279,4.0351 7.9922,4.75 6.5845,1.8356 16.274,1.7483 18.7324,-0.168 2.8681,-2.2361 14.6679,-81.093 19.8769,-132.832 1.7732,-17.6125 2.8746,-27.2432 3.1465,-27.5332 0.1166,-0.1242 20.8617,29.1782 46.0996,65.1132 25.2384,35.9355 46.7087,66.1577 47.711,67.1602 1.0026,1.0024 3.358,2.2067 5.2343,2.6777 4.1249,1.0352 16.106,-2.5339 20.7383,-6.1777 l 3.334,-2.6231 -8.3223,-22.3339 c -28.7003,-77.0205 -57.3014,-136.6852 -80.4394,-167.8106 -8.213,-11.0487 -22.331,-24.9333 -26.793,-26.3496 -1.4829,-0.4707 -2.6972,-1.3617 -2.6972,-1.9805 0,-0.6189 4.6923,-7.6799 10.4257,-15.6894 5.7334,-8.0094 15.5617,-23.1979 21.8418,-33.752 11.1313,-18.7078 26.5162,-46.4961 25.7422,-46.4961 z"
         sodipodi:nodetypes="ssssssssssssscsscssssssscscssscssssccssssssssccssssssssssssssssssssssssscscsssssssssssssscssssssss" />
      <path
         id="path17863"
         style="display:inline;fill:#f8b940;fill-opacity:1;stroke-width:1.33207"
         inkscape:label="노랑"
         d="m 1929.4141,1545.1641 c -10.4407,-0.01 -18.0708,5.7714 -20.3203,15.3945 -0.1569,0.6705 -1.1408,2.0892 -1.8965,3.3066 l 1.5097,1.7813 0.5254,-0.502 10.5918,10.6543 c 5.8256,5.86 11.505,10.6449 12.6211,10.6309 4.0161,-0.043 12.4587,-6.0653 14.8789,-10.6133 7.5753,-14.2364 -2.0098,-30.6383 -17.9101,-30.6523 z" />
      <path
         id="path17867"
         style="display:inline;fill:#7a98f0;fill-opacity:1;stroke-width:1.33333"
         inkscape:label="연파랑"
         d="m 2043.334,1739.334 -36,7.0449 c -19.8,3.8749 -39.1139,7.6609 -42.9199,8.4121 l -6.92,1.3652 -13.1464,26.2559 c -33.8972,67.7064 -51.3051,132.9864 -54.5313,204.4785 l -0.9062,20.0821 5.2109,-0.8633 c 2.8665,-0.4751 18.4115,-2.5597 34.5449,-4.6309 16.1333,-2.0712 66.3344,-8.771 111.5567,-14.8906 l 82.2226,-11.127 0.9043,-6.0273 c 1.73,-11.5364 0.9482,-52.4058 -1.3398,-70.0996 -7.4679,-57.7504 -31.8212,-110.5387 -69.2032,-150 z"
         sodipodi:nodetypes="cscccscssscsssc" />
      <path
         id="path17871"
         style="display:inline;fill:#ff4a60;fill-opacity:1;stroke-width:1.33333"
         inkscape:label="빨강"
         d="m 2038.1641,1576.3867 c -0.2353,-0.2353 -2.7562,0.055 -5.6016,0.6465 -4.8126,0.9998 -5.242,1.4736 -6.1504,6.7949 -1.1826,6.9283 -16.5216,36.7445 -24.0078,46.668 -11.6303,15.4164 -21.9267,22.8379 -31.6855,22.8379 -13.9884,0 -14.1338,-13.2916 -0.4434,-40.5508 3.2917,-6.5541 7.4629,-14.2562 9.2676,-17.1152 5.8027,-9.192 2.5542,-8.3591 -4.4414,1.1386 -21.201,28.7841 -48.4636,79.4312 -50.8887,94.5391 -2.7283,16.9956 -0.6942,22.1773 17.7832,45.2891 14.263,17.8396 15.9101,19.4548 19.1387,18.7851 1.943,-0.4031 20.9326,-4.0805 42.1992,-8.1719 21.2667,-4.0914 39.0539,-7.8462 39.5273,-8.3437 0.4736,-0.4973 2.3872,-7.805 4.2539,-16.2383 1.8668,-8.4333 5.4192,-24.332 7.8926,-35.332 l 4.4961,-20 -4.7519,-0.8906 c -15.7415,-2.9449 -26.2314,-14.2456 -30.0176,-32.3418 -3.1291,-14.9556 -0.3664,-30.0299 8.6777,-47.3614 2.8491,-5.4596 4.9874,-10.1182 4.752,-10.3535 z m 84.6484,719.3672 c -1.545,-0.042 -2.787,1.1278 -3.8457,3.4512 -2.6338,5.7808 -22.5992,11.2954 -26.5586,7.3359 -0.8022,-0.8021 -2.4299,-1.2521 -3.6172,-1 -1.1874,0.2522 -12.6507,13.3433 -25.4746,29.0918 -20.5112,25.189 -23.3164,29.2074 -23.3164,33.4004 0,2.6215 0.7493,5.5235 1.666,6.4492 0.9166,0.9258 2.9437,1.4439 4.5039,1.1504 5.0189,-0.9443 93.8443,-49.168 95.1875,-51.6777 1.6673,-3.1155 0.7929,-5.1115 -7.7304,-17.6211 -4.8202,-7.0745 -8.2395,-10.5105 -10.8145,-10.5801 z m -181.0332,28.2109 -34.5566,14.0137 c -20.5828,8.3461 -35.4988,15.1507 -36.8887,16.8301 -2.7678,3.3445 -3.0392,8.2799 -0.5664,10.332 1.1185,0.9283 11.532,1.6132 28.334,1.8614 77.5969,1.1454 80.2644,1.1085 82.4707,-1.0977 2.3425,-2.3425 2.4956,-6.0885 0.8398,-20.3848 -0.663,-5.7262 -1.9925,-10.6722 -3.1933,-11.873 -1.8553,-1.8554 -2.4049,-1.8305 -5.5801,0.25 -3.1398,2.0572 -4.5596,2.1332 -13.0606,0.6992 -8.1036,-1.3668 -10.157,-2.286 -13.6679,-6.1191 z" />
    </g>
    <g
       id="g17309"
       inkscape:label="세번째 드럼"
       style="display:inline"
       transform="matrix(0.18034319,0,0,0.18034319,-55.83102,28.867161)">
      <path
         id="path17291"
         style="display:inline;fill:#f2efeb;fill-opacity:1;stroke-width:1.33333"
         inkscape:label="드럼베이스"
         d="m 2364.3066,817.15039 c -10.7248,0.3762 -21.425,1.53624 -29.6406,3.39453 -65.1821,14.7435 -113.655,63.94237 -127.5488,129.45508 -3.0046,14.16717 -3.3496,49.41773 -0.6192,63.334 6.6838,34.0683 21.5689,62.0272 46.168,86.7148 24.9268,25.0167 54.2466,40.5055 88,46.4883 14.5416,2.5774 43.8469,2.615 58.3711,0.074 32.0078,-5.5989 61.8488,-20.6937 85.418,-43.209 23.8291,-22.7635 39.0078,-48.8991 47.2773,-81.4023 3.2255,-12.6775 3.5684,-16.3295 3.5684,-38.66602 0,-15.89488 -0.6331,-27.51287 -1.793,-32.66796 -15.9385,-70.83404 -69.2865,-121.42475 -139.4101,-132.20508 -8.3159,-1.27842 -19.0661,-1.68675 -29.7911,-1.31055 z"
         sodipodi:nodetypes="sssssscssscsss" />
      <path
         id="path17295"
         style="display:inline;fill:#fcdfd8;fill-opacity:1;stroke-width:1.33333"
         inkscape:label="피부"
         d="m 2601.7793,333.52734 c -8.4944,-0.007 -17.0915,3.31679 -23.5938,10.54883 -12.0829,13.43944 -11.6022,31.6302 1.1758,44.40821 l 5.7578,5.75781 -13.0859,52.29492 c -7.1977,28.76221 -13.3005,52.4792 -13.5605,52.70508 -0.26,0.22587 -13.0727,2.23802 -28.4727,4.4707 -24.3324,3.52768 -29.6585,3.90965 -40.666,2.91602 -14.7665,-1.33293 -33.9233,0.26344 -44.2402,3.68554 l -7.0938,2.35157 0.209,11.8125 c 0.3903,21.98397 8.979,57.64462 19.2676,80.00586 2.1814,4.7413 2.0079,5.425 4.5175,-17.79102 1.1477,-10.61874 2.5189,-19.68225 3.0469,-20.14063 0.5278,-0.45837 26.7597,-6.05404 58.293,-12.43554 31.5334,-6.38155 59.4334,-12.24373 62,-13.02539 5.813,-1.77024 10.5048,-5.87802 12.6699,-11.0918 0.9136,-2.2 4.8687,-33.19895 8.7891,-68.88672 l 7.1289,-64.88672 5.9941,-4.44726 c 11.3408,-8.41388 16.0619,-20.20475 13.2813,-33.16992 -3.3912,-15.81242 -17.2608,-25.07093 -31.418,-25.08204 z m -220.4961,52.19727 c -1.7453,-0.46421 -3.8448,-0.45939 -6.3008,0.0117 -2.0073,0.38507 -9.6491,2.82034 -16.9824,5.41211 -14.5715,5.14986 -22.3576,5.97537 -40.3223,4.27929 -13.1192,-1.23857 -13.6085,-0.72285 -11.1679,11.74805 1.3376,6.83553 1.2622,9.23847 -0.461,14.82422 -1.1312,3.66666 -3.2408,8.16666 -4.6894,10 l -2.6348,3.33398 -0.027,-7.70898 c -0.034,-8.83135 -1.9542,-10.62679 -7.4864,-7.00195 -10.7413,7.03796 -7.5152,25.78212 4.8633,28.25781 2.2851,0.45703 4.3837,1.49619 4.6621,2.30859 5.8441,17.0514 12.7254,26.92025 22.4082,32.13477 5.2093,2.80543 5.6469,4.52524 6.5352,25.66211 l 0.4062,9.65234 -7.3769,2.44922 c -6.5986,2.19195 -7.4189,2.87801 -7.7813,6.50977 -0.5364,5.37663 4.2723,19.48707 9.3633,27.47656 4.9918,7.83409 11.0736,12.62574 20.1524,15.87695 5.3775,1.92571 9.596,2.35382 19.2168,1.94531 10.5401,-0.44755 13.5753,-1.13833 20.9433,-4.76562 16.4964,-8.12112 26.1081,-24.4833 29.2227,-49.74414 0.7693,-6.24029 0.7465,-6.28264 -3.5274,-7 -2.3652,-0.397 -7.5995,-0.87186 -11.6328,-1.05469 L 2391.332,510 l -0.6972,-16.66602 -0.6973,-16.66796 4.3535,-5.22657 c 4.6279,-5.55633 9.709,-17.44241 9.709,-22.71289 0,-5.85942 1.3495,-7.39258 6.5117,-7.39258 6.1324,0 10.5507,-3.02693 13.0098,-8.9121 4.7838,-11.44945 -4.8599,-24.05111 -16.2227,-21.19922 -4.6092,1.15683 -8.5565,5.39227 -9.5215,10.21679 l -0.8027,4.02149 -3.3262,-3.06446 c -5.3771,-4.95365 -7.2163,-10.82669 -6.2011,-19.80078 1.1166,-9.86922 -0.9281,-15.47846 -6.1641,-16.87109 z m -316.6484,61.86133 c -4.8659,0.14447 -9.9073,1.37634 -14.6153,3.67968 -23.8537,11.67061 -23.5316,45.23937 0.5508,57.40626 2.514,1.27008 8.5791,2.68872 13.4766,3.15234 l 8.9043,0.8418 41.7187,45.00586 c 33.6864,36.33832 42.6462,45.27775 46.5254,46.42187 3.9702,1.17096 14.5055,0.009 60.6758,-6.68945 30.7293,-4.45839 56.0854,-7.89316 56.3457,-7.63282 0.2604,0.26032 1.7716,6.95562 3.3594,14.87891 3.2895,16.41543 3.5347,16.24996 7.6797,-5.22851 3.9044,-20.2324 6.7441,-44.8965 6.7441,-58.56641 v -11.89063 l -8.3926,0.85938 c -10.9018,1.11692 -25.5997,5.20846 -38.9414,10.83789 -8.9056,3.75768 -67.4062,18.00391 -73.9297,18.00391 -2.0001,0 -80.0703,-63.72096 -80.0703,-65.35352 0,-0.64959 0.6471,-4.19736 1.4375,-7.88281 2.8204,-13.15117 -4.9855,-28.41126 -17.9043,-35.00196 -4.0077,-2.04456 -8.6986,-2.98626 -13.5644,-2.84179 z"
         sodipodi:nodetypes="ccsccssscccssssssccsscsssscscccsscscccscssssscccccsscsccccsscscccscssssccssssss" />
      <path
         id="path17301"
         style="display:inline;fill:#222b40;fill-opacity:1;stroke-width:1.33207"
         inkscape:label="드럼세트"
         d="m 1908.8535,526.3457 c -0.7844,-0.0937 -1.5707,-0.0366 -2.1699,0.19336 -1.9085,0.73237 -2.1797,3.88805 -2.1797,25.41016 0,18.41276 0.4167,24.74266 1.6641,25.24609 6.985,2.81847 7.77,0.0693 7.3593,-25.79101 -0.3089,-19.44929 -0.6969,-23.20176 -2.5156,-24.34766 -0.5912,-0.37251 -1.3738,-0.61718 -2.1582,-0.71094 z m 919.4395,0.44727 -0.3653,23.80273 c -0.2513,16.4266 0.1082,24.3732 1.1621,25.64258 0.8396,1.01167 2.2798,1.83789 3.1993,1.83789 4.1408,0 4.7255,-3.68112 4.3613,-27.48047 l -0.3652,-23.80273 h -3.9961 z m -921.6817,97.09765 c -1.9161,-0.73526 -2.1074,19.46741 -2.1074,223.04297 v 223.85351 l -23.3828,28.7891 c -24.3432,29.9707 -49.8575,62.2444 -54.9277,69.4785 -2.9088,4.1499 -3.7854,8.5016 -2.0586,10.2285 2.4958,2.4958 6.9548,0.5812 10.2539,-4.4043 5.9336,-8.9662 67.5467,-85.2871 68.8515,-85.2871 0.7182,0 1.3732,18.6654 1.5782,44.957 l 0.3515,44.9571 h 3.9961 3.9961 l 0.666,-45.2735 0.666,-45.2734 35.2989,45.6582 c 31.1824,40.3315 35.689,45.6105 38.6308,45.2715 8.0712,-0.9303 5.7352,-4.744 -35.3164,-57.6621 l -39.2676,-50.6192 V 848.1543 c 0,-219.38708 -0.051,-223.45508 -2.5605,-223.45508 -1.4053,0 -3.5032,-0.36388 -4.6621,-0.8086 z m 928.2344,0 c -1.1589,0.44472 -3.2588,0.8086 -4.6641,0.8086 -2.5093,0 -2.5535,4.07976 -2.5937,223.45508 l -0.041,223.4531 -36.7285,47.2891 c -44.4554,57.2362 -44.0076,56.5993 -41.7364,59.3359 4.1108,4.9535 7.1041,1.9537 37.961,-38.0234 16.6819,-21.6128 32.4871,-41.9776 35.123,-45.2559 l 4.7949,-5.9609 0.6661,45.2558 0.666,45.2579 h 3.9961 3.9961 l 0.666,-45.9141 0.666,-45.9121 32.0137,39.918 c 17.607,21.9547 34.0645,42.7947 36.5703,46.3085 3.6721,5.1499 5.213,6.3129 7.9472,5.9942 2.4026,-0.28 3.5233,-1.3113 3.8379,-3.5332 0.5307,-3.751 -7.0491,-13.8862 -50.6308,-67.7188 l -30.4043,-37.5566 V 847.08789 c 0,-203.71512 -0.1894,-223.93253 -2.1055,-223.19727 z m -768.5156,46.88672 c -2.9014,-0.19925 -4.4311,0.20101 -6.5117,1.07032 -2.5211,1.0534 -5.4916,3.31386 -6.5996,5.02343 -1.7198,2.65189 -39.4864,87.03052 -39.4864,88.22071 0,0.23153 4.0469,0.77625 8.9922,1.21093 20.0433,1.76174 61.7368,17.63354 111.2481,42.35157 33.338,16.64389 70.1076,37.75183 68.5234,39.33593 -0.9883,0.98831 -40.7617,11.15235 -43.6406,11.15235 -1.4446,0 -9.2119,-2.94805 -17.2598,-6.55078 l -14.6328,-6.54883 0.8848,3.52344 0.8847,3.52539 -4.5488,-3.79297 c -2.5025,-2.0854 -8.7465,-7.51483 -13.875,-12.06641 -23.938,-21.24525 -73.586,-64.31683 -76.3477,-66.23437 -4.3139,-2.99543 -8.2382,-1.68528 -8.2382,2.75 0,2.92293 3.7703,6.79896 21.5566,22.15625 28.3639,24.49035 76.372,66.36433 82.6777,72.11328 l 4.9942,4.55273 v 116.82617 116.82622 l -34.1133,34.1328 c -28.8372,28.8527 -33.9753,34.5725 -33.2129,36.9746 0.6008,1.8932 2.0047,2.8418 4.2031,2.8418 2.5473,0 10.4667,-7.2981 34.7461,-32.0137 17.2962,-17.607 32.0196,-31.8209 32.7188,-31.5879 0.6992,0.2331 11.2604,14.4889 23.4687,31.6797 20.4715,28.8264 22.5057,31.2559 26.166,31.2559 7.5438,0 5.1211,-4.8729 -19.7461,-39.7227 l -23.5918,-33.0625 0.3418,-96.0996 0.3418,-96.10157 28.7715,101.18947 28.7696,101.1894 12.9687,-0.4863 12.9707,-0.4844 4.5488,4.4102 c 2.5025,2.4254 4.5508,4.8533 4.5508,5.3965 0,0.5432 -6.8949,8.9595 -15.3203,18.7011 -14.2031,16.4232 -15.3184,18.1137 -15.3184,23.2129 0,9.3667 8.8568,15.1744 17.8672,11.7168 1.4938,-0.5732 30.6144,-33.2273 33.4629,-37.5234 0.1332,-0.201 4.3743,2.1502 9.4239,5.2246 20.1046,12.2409 45.4967,21.7101 69.123,25.7774 15.9688,2.7483 47.6915,2.7227 64.377,-0.057 21.9599,-3.6564 51.0961,-14.4764 68.4003,-25.4004 2.7719,-1.7499 5.6089,-3.1816 6.3047,-3.1816 0.6956,0 6.7815,6.4445 13.5254,14.3203 17.3178,20.2245 18.9634,21.6465 25.0508,21.6465 7.5251,0 12.1621,-4.7262 12.1621,-12.3946 0,-5.5453 -0.7901,-6.7726 -14.666,-22.8007 l -14.6641,-16.9395 12.8535,-13.6875 12.8536,-13.6855 11.9257,5.2617 c 6.5799,2.9037 12.4276,4.7509 13.045,4.1211 0.6158,-0.6278 12.265,-24.2055 25.8867,-52.3946 13.6218,-28.1887 25.3511,-51.8354 26.0644,-52.5488 0.8414,-0.8412 1.2969,16.5724 1.2969,49.5625 v 50.8613 l -23.2969,32.7207 c -27.2135,38.2229 -26.7289,37.43 -24.5312,40.0782 4.0655,4.8986 7.1591,1.7755 29.8574,-30.125 12.2503,-17.217 22.5262,-31.5752 22.8359,-31.9082 0.3096,-0.333 15.1355,13.957 32.9454,31.7558 26.7594,26.7431 32.9369,32.282 35.582,31.9082 2.0844,-0.2946 3.3438,-1.4577 3.6113,-3.3359 0.3169,-2.2254 -7.3651,-10.7808 -33.6347,-37.459 l -34.045,-34.5742 v -61.4219 -61.42381 l 26,-53.86328 c 17.5044,-36.26304 26.4496,-56.29262 27.375,-61.29883 1.6984,-9.18701 -0.075,-20.08447 -4.582,-28.14844 l -3.1816,-5.69141 12.1621,-10.42773 c 33.6801,-28.88132 52.789,-46.17838 52.789,-47.7832 0,-2.03888 -3.5765,-5.9668 -5.4316,-5.9668 -1.3051,0 -3.6047,1.95284 -51.9981,44.16797 l -30.121,26.27734 -19.8321,9.1211 c -10.9072,5.01742 -21.2627,9.72951 -23.0137,10.4707 -2.5027,1.05946 -7.909,0.10526 -25.2792,-4.46289 -12.1521,-3.19576 -22.281,-5.99776 -22.5098,-6.22656 -0.2288,-0.2288 3.9528,-3.12269 9.293,-6.43164 57.0457,-35.34862 142.7469,-73.04078 170.998,-75.20704 l 9.4336,-0.7246 -19.4238,-43.86524 c -10.6829,-24.12592 -20.7663,-45.25555 -22.4082,-46.95508 -4.3377,-4.48982 -8.799,-4.88248 -23.0352,-2.02539 -48.0084,9.63499 -103.6063,33.73166 -164.6797,71.37305 l -20.1933,12.44726 -16.0293,-6.63476 c -8.8159,-3.64858 -16.324,-6.63281 -16.6856,-6.63281 -0.3616,0 -0.8467,1.90633 -1.0762,4.23828 -0.368,3.73689 -1.5219,4.84189 -9.7402,9.30469 -11.3655,6.17177 -26.5249,11.3729 -40.3066,13.83007 -22.4946,4.01068 -60.2738,1.42573 -83.5762,-5.71875 -7.7189,-2.36648 -8.5045,-2.3697 -22.9277,-0.0762 l -14.9356,2.375 -17.0332,-11.12695 c -65.4694,-42.76482 -130.7019,-72.62676 -180.8144,-82.77344 -7.5647,-1.53169 -11.837,-2.33004 -14.7383,-2.5293 z m 302.7949,143.58985 c 32.133,-0.20302 64.6863,8.8665 93.4941,28.04492 48.488,32.27959 76.5241,86.91751 74.2051,144.60937 -1.7901,44.52672 -17.4635,80.45372 -48.8515,111.97852 -24.2435,24.3488 -50.4975,38.7297 -83.9434,45.9844 -9.0315,1.959 -46.7342,3.847 -51.9512,2.6015 -1.0989,-0.2623 -6.4935,-1.2044 -11.9883,-2.0937 -32.4245,-5.248 -68.1214,-24.7088 -91.7675,-50.0293 -53.0007,-56.7528 -60.0621,-142.12197 -17.0938,-206.66602 31.951,-47.99387 84.3422,-74.09132 137.8965,-74.42969 z m -160.0684,38.11523 c 1.1521,0 9.8145,5.40427 9.8145,6.12305 0,0.31779 -3.0437,4.76563 -6.7656,9.88281 -3.722,5.11724 -6.8707,9.27226 -6.9942,9.23438 -3.8244,-1.16349 -29.2759,-10.55319 -29.6679,-10.94532 -0.3073,-0.30724 5.8919,-2.2417 13.7754,-4.29882 16.5119,-4.30874 18.996,-5.36065 18.996,-8.04493 0,-1.07319 0.3788,-1.95117 0.8418,-1.95117 z m 328.5977,0 c 0.3321,0 0.9053,1.15725 1.2754,2.57227 0.4443,1.69862 2.6465,3.08567 6.4824,4.08008 27.5493,7.14195 27.0426,6.95458 23.6484,8.70312 -1.7522,0.90274 -7.5306,3.0311 -12.8417,4.72852 -5.3116,1.69736 -9.6583,3.44186 -9.6583,3.87695 0,0.43507 7.4925,3.10431 16.6504,5.93164 9.158,2.82732 16.6524,5.34865 16.6524,5.60352 0,0.25487 -4.2959,10.20629 -9.5449,22.11328 -5.2491,11.90693 -9.9663,22.14222 -10.4844,22.74414 -0.5178,0.6019 -2.8525,-4.8551 -5.1875,-12.12696 -2.3348,-7.27183 -7.4019,-19.45391 -11.2598,-27.07031 l -7.0137,-13.84765 -4.5644,0.61914 c -2.5099,0.34061 -7.8592,0.64034 -11.8887,0.66601 -7.0157,0.0448 -7.3445,-0.10906 -7.748,-3.61719 -0.337,-2.92902 0.9473,-4.99739 6.4062,-10.31445 6.066,-5.90866 17.4549,-14.66211 19.0762,-14.66211 z" />
      <path
         id="path21323"
         style="display:inline;fill:#f8b940;fill-opacity:1;stroke-width:1.33207"
         inkscape:label="드럼뮤트링"
         d="m 2377.4941,815.67969 c -44.3073,-2.01386 -89.7142,13.45035 -124.5214,48.25781 -33.2205,33.22051 -50.1737,76.87761 -48.3145,124.41602 3.0353,77.61018 59.7337,142.51888 136.6602,156.44918 23.0953,4.1823 57.5245,1.8273 79.8574,-5.4629 96.9312,-31.6412 142.8655,-142.15314 96.918,-233.16988 -28.4814,-56.41801 -83.6327,-87.90102 -140.5997,-90.49023 z m -12.5097,27.79687 c 3.8439,-0.13612 7.6843,-0.11219 11.5117,0.0684 51.032,2.40731 99.6651,32.70943 121.0156,84.16602 15.1042,36.40256 13.6877,81.28632 -3.6367,115.25782 -9.7478,19.1147 -23.1392,35.069 -41.0508,48.9082 -17.2082,13.2953 -45.5564,24.6599 -65.8105,26.3808 -4.9275,0.4186 -10.4575,0.9239 -12.2891,1.1231 -1.8315,0.1992 -9.3259,-0.09 -16.6523,-0.6426 -14.5305,-1.096 -31.6433,-5.5461 -45.5196,-11.8379 -27.5211,-12.4789 -54.6047,-39.1331 -66.9882,-65.9297 -28.0501,-60.69534 -10.7663,-130.96892 41.8554,-170.17574 23.6008,-17.5842 50.6568,-26.36549 77.5645,-27.31836 z" />
      <path
         id="path17287"
         style="display:inline;fill:#f8b940;fill-opacity:1;stroke-width:1.33207"
         inkscape:label="심벌"
         d="m 2902.7168,535.9082 c -5.4479,-0.0373 -11.3524,0.11155 -17.3887,0.42969 -12.0724,0.63628 -24.6716,1.9491 -35.1933,3.80078 -6.1519,1.08266 -11.3345,1.96971 -11.5176,1.97071 -0.1832,9.4e-4 -0.334,7.37533 -0.334,16.38671 0,17.20077 -0.7286,19.58008 -5.9941,19.58008 -5.193,0 -5.9942,-2.43835 -5.9942,-18.24805 0,-8.27874 -0.3498,-15.05273 -0.7773,-15.05273 -0.4273,0 -5.673,1.2372 -11.6563,2.75 -53.9385,13.63813 -97.0363,35.86014 -105.3633,54.32617 -5.4885,12.17258 4.0672,21.46834 26.9668,26.23242 14.8575,3.09097 60.1552,1.76065 84.2559,-2.4746 47.1339,-8.28302 86.1971,-21.42395 113.8066,-38.28516 18.0886,-11.04654 25.9747,-20.03123 25.9747,-29.58984 0,-11.37903 -13.7092,-18.25664 -42.1368,-21.13868 -4.209,-0.42672 -9.2005,-0.65019 -14.6484,-0.6875 z m -1053.0117,0.125 c -30.2392,-1.02595 -53.9046,3.22787 -63.5215,12.04102 -4.1189,3.77456 -4.8348,5.26493 -4.7168,9.78516 0.6814,25.98581 75.7959,59.88106 155.3828,70.11718 19.3213,2.48501 55.5102,2.5221 68.4414,0.0703 14.431,-2.7361 24.401,-7.95429 27.5742,-14.4336 2.3566,-4.81168 2.3686,-5.35798 0.2422,-10.92578 -5.7842,-15.14572 -35.3635,-32.96925 -77.9844,-46.99023 -14.1983,-4.67108 -36.6267,-10.92188 -39.1855,-10.92188 -0.4275,0 -0.7773,6.82067 -0.7773,15.15625 0,16.67271 -0.8492,18.67977 -7.5782,17.9082 l -3.7441,-0.42968 -0.3711,-17.55274 -0.3711,-17.55078 -3.625,-0.77344 c -1.9938,-0.42485 -9.9186,-1.63444 -17.6113,-2.6875 -11.2643,-1.54198 -22.0746,-2.47051 -32.1543,-2.8125 z"
         sodipodi:nodetypes="sssssssssssssssssscssssssssccccsss" />
      <path
         id="path21334"
         style="display:inline;fill:#fcdfd8;fill-opacity:1;stroke-width:1.33207"
         inkscape:label="탐탐"
         d="m 2015.3984,766.99023 c -8.9564,1.272 2.9551,14.72219 27.6407,31.21094 8.4253,5.62771 15.8137,10.25205 16.4199,10.27735 0.6062,0.0253 -6.8862,-6.88402 -16.6504,-15.35352 -9.7642,-8.46952 -17.9514,-16.61033 -18.1934,-18.0918 -0.242,-1.48145 0.5402,-3.7775 1.7383,-5.10156 2.0611,-2.2775 1.9066,-2.43268 -2.8887,-2.88672 -2.7879,-0.2641 -6.418,-0.28876 -8.0664,-0.0547 z m 710.5801,0.28125 c -6.2521,0.0307 -7.6832,0.36911 -5.916,1.39844 1.3432,0.78231 2.332,2.93936 2.332,5.0918 0,3.12983 -2.8096,6.17504 -17.3183,18.77734 -9.5243,8.27281 -17.3164,15.3039 -17.3164,15.62305 0,1.42378 18.7881,-10.92772 30.6367,-20.14063 12.2931,-9.55846 18.3896,-16.64635 16.6875,-19.40039 -0.4727,-0.76486 -4.5698,-1.37181 -9.1055,-1.34961 z m -690.4082,2.35743 c -1.2209,-0.13966 -0.9316,0.36085 0.2031,1.42578 1.4314,1.34344 14.5914,12.83855 29.2442,25.54492 14.6527,12.70635 31.2335,27.18083 36.8457,32.16601 5.6122,4.98523 10.8927,9.06446 11.7344,9.06446 0.8444,0 1.2209,0.49884 0.8437,1.10937 -0.3775,0.61053 0.036,1.13507 0.9199,1.16407 0.8836,0.029 10.876,4.30377 22.2051,9.5 13.018,5.97086 21.6238,9.19148 23.3828,8.75 1.5309,-0.38421 11.3965,-2.96211 21.9238,-5.72657 l 19.1407,-5.02539 -14.5489,-8.73047 c -45.5706,-27.34665 -105.7337,-55.45516 -143.0332,-66.82617 -4.9096,-1.49671 -7.6404,-2.27636 -8.8613,-2.41601 z m 675.6406,0.62695 c -2.433,-2.43294 -56.1436,19.00993 -92.5976,36.9668 -27.5316,13.56148 -63.0295,33.18186 -69.4766,38.40234 -2.8695,2.32355 -2.5698,2.45731 17.5664,7.79102 11.2671,2.98438 20.8815,5.49337 21.3653,5.57617 1.1101,0.19002 28.2507,-12.02722 39.748,-17.89258 8.0054,-4.08403 16.4412,-11.1187 75.6875,-63.10547 4.5244,-3.97011 7.993,-7.45235 7.707,-7.73828 z m -175.039,83.87695 c -0.6014,0.0426 -1.3291,0.74312 -2.7285,2.14258 -1.5767,1.57676 -3.2338,2.86719 -3.6817,2.86719 -0.4478,0 -3.7681,2.47302 -7.3789,5.49609 -6.9411,5.81149 -11.1709,12.25217 -9.6562,14.70313 1.8597,3.00914 19.3015,0.18979 39.1093,-6.32032 l 19.2618,-6.33007 -15.5606,-4.10743 c -10.3364,-2.7282 -16.177,-4.95758 -17.3945,-6.64062 -0.8949,-1.2369 -1.3694,-1.85316 -1.9707,-1.81055 z m -325.3028,0.0762 c -0.6697,0.0219 -1.15,0.67048 -2.0566,1.96485 -1.3012,1.85787 -6.2432,3.73541 -16.5996,6.30469 -8.1103,2.01205 -14.492,3.91181 -14.1817,4.22265 0.3108,0.31084 6.18,2.60405 13.043,5.09571 6.863,2.49161 12.8998,4.5591 13.4141,4.5957 1.3197,0.0939 9.5,-12.02483 9.5,-14.07422 0,-0.93193 0.5733,-1.57801 1.2754,-1.43555 2.7672,0.56148 2,-2.5417 -1.2071,-4.88086 -1.6598,-1.21062 -2.5177,-1.81482 -3.1875,-1.79297 z" />
      <path
         id="path22328"
         style="display:inline;fill:#3e4b99;fill-opacity:1;stroke-width:1.33207"
         inkscape:label="셔츠"
         d="m 2414.6836,512.13867 v 4.78321 c 0,7.21649 -4.8054,24.53735 -8.9043,32.06835 -4.9826,9.15464 -16.0212,18.92091 -25.3984,22.47266 -8.9519,3.39037 -25.7642,4.13656 -34.5743,1.53516 -6.9344,-2.04763 -15.6084,-8.54103 -21.1992,-15.8711 -4.7507,-6.2283 -9.6763,-19.66781 -10.1679,-27.74023 l -0.3243,-5.33594 -7.9922,2.88672 -7.9921,2.88867 -1.5821,20.74024 c -1.6246,21.30053 -5.5347,47.34963 -9.2265,61.47851 -1.1485,4.39582 -2.0957,9.19098 -2.0957,10.65625 -0.01,2.22178 21.2819,124.13002 23.666,135.51563 0.6227,2.97444 1.9325,3.9895 7.1504,5.53906 10.9113,3.24032 28.1637,6.40161 40.6875,7.45508 30.9294,2.60175 61.7466,-3.07051 84.0918,-15.47656 7.2091,-4.00253 8.2563,-5.10441 9.0273,-9.50391 0.4797,-2.737 2.9149,-34.29806 5.4121,-70.13672 4.4582,-63.98019 4.4957,-65.24866 2.0821,-69.98047 -4.3455,-8.51767 -11.71,-31.23736 -15.2715,-47.11719 -3.1553,-14.06801 -6.5004,-42.91002 -5.2305,-45.09375 0.2881,-0.49538 -4.5795,-1.09477 -10.8184,-1.33203 z" />
      <path
         id="path22417"
         style="display:inline;fill:#ff4a60;fill-opacity:1;stroke-width:1.33207"
         inkscape:label="머리"
         d="m 2350.9727,361.48633 c -3.0096,0.0324 -6.1019,0.27363 -9.2657,0.73047 -17.2485,2.49056 -29.8527,11.07027 -37.5937,25.59375 -3.7311,6.99991 -4.5236,10.10748 -5.1934,20.33984 -0.4338,6.64218 -0.606,15.67277 -0.3808,20.06836 l 0.4101,7.99219 2.584,-3.33008 c 1.4215,-1.83136 3.5085,-6.32705 4.6387,-9.99024 1.7215,-5.58044 1.7973,-7.98152 0.4609,-14.81054 -2.4382,-12.45904 -1.9505,-12.97375 11.1563,-11.73633 17.9472,1.69448 25.7255,0.86959 40.2832,-4.27539 7.3264,-2.5893 14.9613,-5.02351 16.9668,-5.4082 9.8147,-1.88279 13.9405,3.69729 12.4531,16.84375 -1.0237,9.04847 0.8247,14.83283 6.375,19.95117 3.2261,2.97502 3.5058,3.02746 3.5058,0.66601 0,-1.40979 1.2712,-4.63695 2.8165,-7.17187 3.6524,-5.99213 2.66,-16.0097 -2.7305,-27.5625 -7.2424,-15.52214 -20.7443,-25.09972 -37.7207,-27.37695 -2.8293,-0.37955 -5.7561,-0.55588 -8.7656,-0.52344 z" />
      <path
         id="path22427"
         style="display:inline;fill:#3e4b99;fill-opacity:1;stroke-width:1.33207"
         inkscape:label="스틱"
         d="m 2518.6094,245.17773 c -1.831,0.31123 -3.6152,1.39364 -4.7637,3.14649 -2.8575,4.3612 -1.3811,8.63238 3.3086,9.57031 2.9757,0.59517 9.5082,8.57453 34.1289,41.6875 l 30.4492,40.95313 3.5957,-2.0625 3.5938,-2.0625 -6.1953,-7.92188 c -3.4072,-4.35719 -17.7318,-22.36345 -31.834,-40.01367 -20.6723,-25.87318 -25.6426,-32.87871 -25.6426,-36.1543 -9e-4,-2.23454 -0.7225,-4.78294 -1.6016,-5.66211 -1.3313,-1.33131 -3.208,-1.79171 -5.039,-1.48047 z m -426.2129,88.41993 c -5.1403,0.24881 -8.3931,6.0332 -5.3125,11.05273 1.0813,1.76213 -1.1392,14.31177 -9.3242,52.69141 -5.9094,27.70799 -10.7442,50.63596 -10.7442,50.95117 0,0.3152 1.7565,0.57226 3.9024,0.57226 4.5936,0 3.2485,5.29224 14.0468,-55.27929 8.8903,-49.86723 8.3123,-47.28907 10.627,-47.28906 4.7876,0 3.9881,-11.17346 -0.8906,-12.44922 -0.7985,-0.2088 -1.5704,-0.28555 -2.3047,-0.25 z" />
    </g>
  </g>
</svg>
