<?xml version="1.0" encoding="UTF-8" standalone="no"?>
<svg
   width="413.19101pt"
   height="282.586pt"
   viewBox="0 0 413.19101 282.586"
   version="1.1"
   id="svg29770"
   sodipodi:docname="img_talk.svg"
   inkscape:version="1.2.1 (9c6d41e410, 2022-07-14)"
   xmlns:inkscape="http://www.inkscape.org/namespaces/inkscape"
   xmlns:sodipodi="http://sodipodi.sourceforge.net/DTD/sodipodi-0.dtd"
   xmlns:xlink="http://www.w3.org/1999/xlink"
   xmlns="http://www.w3.org/2000/svg"
   xmlns:svg="http://www.w3.org/2000/svg">
  <sodipodi:namedview
     id="namedview29772"
     pagecolor="#ffffff"
     bordercolor="#000000"
     borderopacity="0.25"
     inkscape:showpageshadow="2"
     inkscape:pageopacity="0.0"
     inkscape:pagecheckerboard="0"
     inkscape:deskcolor="#d1d1d1"
     inkscape:document-units="pt"
     showgrid="false"
     inkscape:zoom="1.203"
     inkscape:cx="333.33333"
     inkscape:cy="332.91771"
     inkscape:window-width="1920"
     inkscape:window-height="991"
     inkscape:window-x="-9"
     inkscape:window-y="-9"
     inkscape:window-maximized="1"
     inkscape:current-layer="svg29770" />
  <defs
     id="defs29498">
    <filter
       id="filter-remove-color"
       x="0"
       y="0"
       width="1"
       height="1">
      <feColorMatrix
         color-interpolation-filters="sRGB"
         values="0 0 0 0 1 0 0 0 0 1 0 0 0 0 1 0 0 0 1 0"
         id="feColorMatrix29335" />
    </filter>
    <mask
       id="mask-0">
      <g
         filter="url(#filter-remove-color)"
         id="g29340">
        <rect
           x="-50"
           y="-50"
           width="600"
           height="600"
           fill="#000000"
           fill-opacity="0.199997"
           id="rect29338" />
      </g>
    </mask>
    <clipPath
       id="clip-0">
      <path
         clip-rule="nonzero"
         d="m 0.371094,0.84375 h 9.703125 V 16.175781 H 0.371094 Z m 0,0"
         id="path29343" />
    </clipPath>
    <clipPath
       id="clip-1">
      <rect
         x="0"
         y="0"
         width="11"
         height="17"
         id="rect29346" />
    </clipPath>
    <g
       id="source-6032741"
       clip-path="url(#clip-1)">
      <g
         clip-path="url(#clip-0)"
         id="g29351">
        <path
           fill-rule="nonzero"
           fill="#000000"
           fill-opacity="1"
           d="M 2.757813,0.84375 10.074219,2.9375 C 9.070313,7.886719 8.277344,12.25 7.660156,16.171875 2.261719,14.4375 -2.734375,4.832031 2.757813,0.84375"
           id="path29349" />
      </g>
    </g>
    <mask
       id="mask-1">
      <g
         filter="url(#filter-remove-color)"
         id="g29356">
        <rect
           x="-50"
           y="-50"
           width="600"
           height="600"
           fill="#000000"
           fill-opacity="0.199997"
           id="rect29354" />
      </g>
    </mask>
    <clipPath
       id="clip-2">
      <path
         clip-rule="nonzero"
         d="m 0.855469,0.824219 h 9.324219 v 9.03125 H 0.855469 Z m 0,0"
         id="path29359" />
    </clipPath>
    <clipPath
       id="clip-3">
      <rect
         x="0"
         y="0"
         width="11"
         height="10"
         id="rect29362" />
    </clipPath>
    <g
       id="source-6032744"
       clip-path="url(#clip-3)">
      <g
         clip-path="url(#clip-2)"
         id="g29367">
        <path
           fill-rule="nonzero"
           fill="#000000"
           fill-opacity="1"
           d="M 9.726563,0.824219 0.855469,6.363281 c 0.320312,1.160157 0.578125,2.34375 0.6875,3.492188 C 3.601563,9.808594 8.566406,7.710938 9.949219,4.25 10.476563,2.929688 9.972656,1.476563 9.726563,0.824219"
           id="path29365" />
      </g>
    </g>
    <mask
       id="mask-2">
      <g
         filter="url(#filter-remove-color)"
         id="g29372">
        <rect
           x="-50"
           y="-50"
           width="600"
           height="600"
           fill="#000000"
           fill-opacity="0.100006"
           id="rect29370" />
      </g>
    </mask>
    <clipPath
       id="clip-4">
      <path
         clip-rule="nonzero"
         d="M 0.210938,0.589844 H 33.300781 V 15.519531 H 0.210938 Z m 0,0"
         id="path29375" />
    </clipPath>
    <clipPath
       id="clip-5">
      <rect
         x="0"
         y="0"
         width="34"
         height="16"
         id="rect29378" />
    </clipPath>
    <g
       id="source-6032747"
       clip-path="url(#clip-5)">
      <g
         clip-path="url(#clip-4)"
         id="g29383">
        <path
           fill-rule="nonzero"
           fill="#ffffff"
           fill-opacity="1"
           d="m 33.300781,0.589844 c 0,0 -0.101562,0.691406 -0.28125,1.960937 -0.308593,2.277344 -0.890625,6.4375 -1.628906,11.917969 -4.039062,0.691406 -8.191406,1.050781 -12.421875,1.050781 -1.429687,0 -2.847656,-0.03906 -4.257812,-0.128906 -4.992188,-0.28125 -9.839844,-1.0625 -14.5,-2.300781 C 0.671875,8.300781 1.03125,4.628906 1.238281,2.550781 1.371094,1.28125 1.441406,0.589844 1.441406,0.589844 Z m 0,0"
           id="path29381" />
      </g>
    </g>
    <mask
       id="mask-3">
      <g
         filter="url(#filter-remove-color)"
         id="g29388">
        <rect
           x="-50"
           y="-50"
           width="600"
           height="600"
           fill="#000000"
           fill-opacity="0.100006"
           id="rect29386" />
      </g>
    </mask>
    <clipPath
       id="clip-6">
      <path
         clip-rule="nonzero"
         d="M 0.929688,0.589844 H 35.949219 V 15.519531 H 0.929688 Z m 0,0"
         id="path29391" />
    </clipPath>
    <clipPath
       id="clip-7">
      <rect
         x="0"
         y="0"
         width="36"
         height="16"
         id="rect29394" />
    </clipPath>
    <g
       id="source-6032750"
       clip-path="url(#clip-7)">
      <g
         clip-path="url(#clip-6)"
         id="g29399">
        <path
           fill-rule="nonzero"
           fill="#ffffff"
           fill-opacity="1"
           d="m 33.800781,2.550781 c 0.871094,2.140625 1.570313,4.480469 2.148438,7 -5.230469,2.261719 -10.777344,3.929688 -16.558594,4.917969 -4.039062,0.691406 -8.191406,1.050781 -12.421875,1.050781 -1.429687,0 -2.847656,-0.03906 -4.257812,-0.128906 C 1.980469,9.480469 1.441406,4.960938 1.160156,2.550781 1.011719,1.28125 0.929688,0.589844 0.929688,0.589844 H 32.949219 C 33.25,1.21875 33.539063,1.878906 33.800781,2.550781"
           id="path29397" />
      </g>
    </g>
    <mask
       id="mask-4">
      <g
         filter="url(#filter-remove-color)"
         id="g29404">
        <rect
           x="-50"
           y="-50"
           width="600"
           height="600"
           fill="#000000"
           fill-opacity="0.100006"
           id="rect29402" />
      </g>
    </mask>
    <clipPath
       id="clip-8">
      <path
         clip-rule="nonzero"
         d="M 0.671875,0.367188 H 3.261719 V 5.96875 H 0.671875 Z m 0,0"
         id="path29407" />
    </clipPath>
    <clipPath
       id="clip-9">
      <rect
         x="0"
         y="0"
         width="4"
         height="6"
         id="rect29410" />
    </clipPath>
    <g
       id="source-6032753"
       clip-path="url(#clip-9)">
      <g
         clip-path="url(#clip-8)"
         id="g29415">
        <path
           fill-rule="nonzero"
           fill="#ffffff"
           fill-opacity="1"
           d="m 1.683594,5.96875 h 1.179687 c 0.234375,0 0.414063,-0.121094 0.398438,-0.269531 L 2.707031,0.640625 C 2.691406,0.488281 2.484375,0.367188 2.25,0.367188 H 1.070313 c -0.234375,0 -0.414063,0.121093 -0.398438,0.273437 L 1.226563,5.699219 C 1.242188,5.847656 1.449219,5.96875 1.683594,5.96875"
           id="path29413" />
      </g>
    </g>
    <mask
       id="mask-5">
      <g
         filter="url(#filter-remove-color)"
         id="g29420">
        <rect
           x="-50"
           y="-50"
           width="600"
           height="600"
           fill="#000000"
           fill-opacity="0.100006"
           id="rect29418" />
      </g>
    </mask>
    <clipPath
       id="clip-10">
      <path
         clip-rule="nonzero"
         d="M 0.53125,0.367188 H 3.121094 V 5.96875 H 0.53125 Z m 0,0"
         id="path29423" />
    </clipPath>
    <clipPath
       id="clip-11">
      <rect
         x="0"
         y="0"
         width="4"
         height="6"
         id="rect29426" />
    </clipPath>
    <g
       id="source-6032756"
       clip-path="url(#clip-11)">
      <g
         clip-path="url(#clip-10)"
         id="g29431">
        <path
           fill-rule="nonzero"
           fill="#ffffff"
           fill-opacity="1"
           d="m 1.542969,5.96875 h 1.179687 c 0.234375,0 0.414063,-0.121094 0.398438,-0.269531 L 2.566406,0.640625 C 2.550781,0.488281 2.34375,0.367188 2.109375,0.367188 H 0.929688 c -0.234375,0 -0.414063,0.121093 -0.398438,0.273437 L 1.085938,5.699219 C 1.101563,5.847656 1.308594,5.96875 1.542969,5.96875"
           id="path29429" />
      </g>
    </g>
    <mask
       id="mask-6">
      <g
         filter="url(#filter-remove-color)"
         id="g29436">
        <rect
           x="-50"
           y="-50"
           width="600"
           height="600"
           fill="#000000"
           fill-opacity="0.100006"
           id="rect29434" />
      </g>
    </mask>
    <clipPath
       id="clip-12">
      <path
         clip-rule="nonzero"
         d="M 0.101563,0.367188 H 2.691406 V 5.96875 H 0.101563 Z m 0,0"
         id="path29439" />
    </clipPath>
    <clipPath
       id="clip-13">
      <rect
         x="0"
         y="0"
         width="3"
         height="6"
         id="rect29442" />
    </clipPath>
    <g
       id="source-6032759"
       clip-path="url(#clip-13)">
      <g
         clip-path="url(#clip-12)"
         id="g29447">
        <path
           fill-rule="nonzero"
           fill="#ffffff"
           fill-opacity="1"
           d="m 1.113281,5.96875 h 1.179688 c 0.234375,0 0.414062,-0.121094 0.398437,-0.269531 L 2.136719,0.640625 C 2.121094,0.488281 1.914063,0.367188 1.679688,0.367188 H 0.5 c -0.234375,0 -0.4140625,0.121093 -0.398437,0.273437 L 0.65625,5.699219 C 0.671875,5.847656 0.878906,5.96875 1.113281,5.96875"
           id="path29445" />
      </g>
    </g>
    <mask
       id="mask-7">
      <g
         filter="url(#filter-remove-color)"
         id="g29452">
        <rect
           x="-50"
           y="-50"
           width="600"
           height="600"
           fill="#000000"
           fill-opacity="0.199997"
           id="rect29450" />
      </g>
    </mask>
    <clipPath
       id="clip-14">
      <path
         clip-rule="nonzero"
         d="M 0.996094,0.585938 H 10.03125 V 19.140625 H 0.996094 Z m 0,0"
         id="path29455" />
    </clipPath>
    <clipPath
       id="clip-15">
      <rect
         x="0"
         y="0"
         width="11"
         height="20"
         id="rect29458" />
    </clipPath>
    <g
       id="source-6032762"
       clip-path="url(#clip-15)">
      <g
         clip-path="url(#clip-14)"
         id="g29463">
        <path
           fill-rule="nonzero"
           fill="#000000"
           fill-opacity="1"
           d="M 9.914063,0.585938 1.121094,4 C 1.125,4.097656 1.128906,4.179688 1.117188,4.273438 1.226563,9.382813 1.179688,14.367188 0.996094,19.140625 10.164063,15.335938 10.320313,3.925781 9.914063,0.585938"
           id="path29461" />
      </g>
    </g>
    <mask
       id="mask-8">
      <g
         filter="url(#filter-remove-color)"
         id="g29468">
        <rect
           x="-50"
           y="-50"
           width="600"
           height="600"
           fill="#000000"
           fill-opacity="0.199997"
           id="rect29466" />
      </g>
    </mask>
    <clipPath
       id="clip-16">
      <path
         clip-rule="nonzero"
         d="M 0.5625,0.980469 H 8.371094 V 7.78125 H 0.5625 Z m 0,0"
         id="path29471" />
    </clipPath>
    <clipPath
       id="clip-17">
      <rect
         x="0"
         y="0"
         width="9"
         height="8"
         id="rect29474" />
    </clipPath>
    <g
       id="source-6032765"
       clip-path="url(#clip-17)">
      <g
         clip-path="url(#clip-16)"
         id="g29479">
        <path
           fill-rule="nonzero"
           fill="#000000"
           fill-opacity="1"
           d="M 8.371094,1.261719 0.5625,0.980469 C 0.683594,1.34375 0.835938,1.707031 0.988281,2.0625 2.050781,4.621094 5.023438,6.683594 8.207031,7.78125 7.679688,5.847656 8.019531,3.601563 8.371094,1.261719"
           id="path29477" />
      </g>
    </g>
    <mask
       id="mask-9">
      <g
         filter="url(#filter-remove-color)"
         id="g29484">
        <rect
           x="-50"
           y="-50"
           width="600"
           height="600"
           fill="#000000"
           fill-opacity="0.199997"
           id="rect29482" />
      </g>
    </mask>
    <clipPath
       id="clip-18">
      <path
         clip-rule="nonzero"
         d="M 0.910156,0.507813 H 30.070313 V 4.121094 H 0.910156 Z m 0,0"
         id="path29487" />
    </clipPath>
    <clipPath
       id="clip-19">
      <rect
         x="0"
         y="0"
         width="31"
         height="5"
         id="rect29490" />
    </clipPath>
    <g
       id="source-6032768"
       clip-path="url(#clip-19)">
      <g
         clip-path="url(#clip-18)"
         id="g29495">
        <path
           fill-rule="nonzero"
           fill="#ffffff"
           fill-opacity="1"
           d="M 28.261719,4.121094 H 2.714844 c -0.992188,0 -1.804688,-0.8125 -1.804688,-1.808594 0,-0.992187 0.8125,-1.804687 1.804688,-1.804687 h 25.546875 c 0.996094,0 1.808594,0.8125 1.808594,1.804687 0,0.996094 -0.8125,1.808594 -1.808594,1.808594"
           id="path29493" />
      </g>
    </g>
  </defs>
  <rect
     style="display:none;fill:#f8f6f1;fill-opacity:1;fill-rule:evenodd;stroke-width:8.50395;paint-order:stroke fill markers"
     id="rect30183"
     width="542.77106"
     height="444.57831"
     x="-22.891567"
     y="7.8313251"
     inkscape:label="배경색" />
  <g
     id="g30871"
     inkscape:label="배경"
     style="display:none">
    <path
       fill-rule="nonzero"
       fill="#ececec"
       fill-opacity="1"
       d="m 43.914063,55.203125 c -3.007813,0 -5.457032,2.449219 -5.457032,5.457031 V 332.09375 c 0,3.00781 2.449219,5.45703 5.457032,5.45703 H 237.01562 c 3.00782,0 5.45704,-2.44922 5.45704,-5.45703 V 60.660156 c 0,-3.007812 -2.44922,-5.457031 -5.45704,-5.457031 z M 237.01562,337.80078 H 43.914063 c -3.144532,0 -5.707032,-2.5625 -5.707032,-5.70703 V 60.660156 c 0,-3.144531 2.5625,-5.707031 5.707032,-5.707031 H 237.01562 c 3.14454,0 5.70704,2.5625 5.70704,5.707031 V 332.09375 c 0,3.14453 -2.5625,5.70703 -5.70704,5.70703"
       id="path29514" />
    <path
       fill-rule="nonzero"
       fill="#ececec"
       fill-opacity="1"
       d="m 260.21094,55.203125 c -3.00782,0 -5.45703,2.449219 -5.45703,5.457031 V 332.09375 c 0,3.00781 2.44921,5.45703 5.45703,5.45703 H 453.3125 c 3.00781,0 5.45703,-2.44922 5.45703,-5.45703 V 60.660156 c 0,-3.007812 -2.44922,-5.457031 -5.45703,-5.457031 z M 453.3125,337.80078 H 260.21094 c -3.14453,0 -5.70703,-2.5625 -5.70703,-5.70703 V 60.660156 c 0,-3.144531 2.5625,-5.707031 5.70703,-5.707031 H 453.3125 c 3.14453,0 5.70703,2.5625 5.70703,5.707031 V 332.09375 c 0,3.14453 -2.5625,5.70703 -5.70703,5.70703"
       id="path29516" />
    <path
       fill-rule="nonzero"
       fill="#e7e7e7"
       fill-opacity="1"
       d="m 135.30469,108.83594 c 0,19.53515 -15.83594,35.375 -35.375002,35.375 -19.535157,0 -35.375,-15.83985 -35.375,-35.375 0,-19.539065 15.839843,-35.375002 35.375,-35.375002 19.539062,0 35.375002,15.835937 35.375002,35.375002"
       id="path29518" />
    <path
       fill-rule="nonzero"
       fill="#fafafa"
       fill-opacity="1"
       d="m 121.20703,106.44531 h -0.28906 c 1.58203,0 2.91406,-1.17578 3.11719,-2.74218 0.24218,-1.88282 -1.22266,-3.54688 -3.11719,-3.54688 h -1.60156 l -10.59766,-0.980469 c -1.23437,-0.113281 -2.125,-1.230468 -1.96875,-2.460937 0.16797,-1.351563 0.32031,-2.9375 0.36719,-4.449219 0.10937,-3.714844 -2.34375,-8.296875 -5.76563,-6.652344 -1.386716,0.664063 -0.55468,5.273438 -1.22265,7.101563 -0.664066,1.824219 -7.027347,7.207031 -8.81641,11.023436 -1.085937,0.45313 -1.789062,1.51953 -1.789062,2.69531 v 13.73047 c 0,0.77344 0.304687,1.51953 0.855468,2.06641 l 1.480469,1.48047 c 1.019531,1.01953 2.402344,1.59375 3.84375,1.59375 h 21.746095 c 1.58203,0 2.91797,-1.17578 3.11719,-2.7461 0.24218,-1.8789 -1.22266,-3.54296 -3.11719,-3.54296 h 2.32422 c 1.57812,0 2.91406,-1.17188 3.11719,-2.74219 0.23828,-1.87891 -1.22266,-3.54297 -3.11719,-3.54297 h 1.43359 c 1.58203,0 2.91797,-1.17578 3.11719,-2.74219 0.24219,-1.8789 -1.22266,-3.54297 -3.11719,-3.54297"
       id="path29520" />
    <path
       fill-rule="nonzero"
       fill="#f0f0f0"
       fill-opacity="1"
       d="m 85.636719,125.56641 h -8.265625 c -1.027344,0 -1.859375,-0.83203 -1.859375,-1.85938 v -19.82812 c 0,-1.02735 0.832031,-1.85938 1.859375,-1.85938 h 8.265625 c 1.023437,0 1.855469,0.83203 1.855469,1.85938 v 19.82812 c 0,1.02735 -0.832032,1.85938 -1.855469,1.85938"
       id="path29522" />
    <path
       fill-rule="nonzero"
       fill="#f0f0f0"
       fill-opacity="1"
       d="m 347.41797,96.644531 c -0.0703,-7.988281 -6.5625,-14.445312 -14.57031,-14.445312 -1.92969,0 -3.76954,0.378906 -5.45313,1.058594 -2.85937,-5.855469 -8.87109,-9.886719 -15.82422,-9.886719 -8.41015,0 -15.4414,5.898437 -17.1875,13.78125 -7.91015,0.507812 -14.16797,7.082031 -14.16797,15.121096 0,8.36719 6.78516,15.15234 15.15625,15.15234 h 48.21875 c 5.9336,0 10.74219,-4.80859 10.74219,-10.74219 0,-4.58593 -2.87109,-8.49609 -6.91406,-10.039059"
       id="path29524" />
    <path
       fill-rule="nonzero"
       fill="#f5f5f5"
       fill-opacity="1"
       d="m 376.67187,310.94922 c -0.043,-4.88672 -4.01171,-8.83203 -8.90625,-8.83203 -1.17968,0 -2.30468,0.22656 -3.33593,0.64453 -1.7461,-3.57813 -5.42188,-6.04297 -9.67188,-6.04297 -5.14453,0 -9.4414,3.60547 -10.50781,8.42578 -4.83594,0.3125 -8.66016,4.32813 -8.66016,9.24219 0,5.11719 4.14453,9.26562 9.26172,9.26562 h 29.48047 c 3.625,0 6.56641,-2.9414 6.56641,-6.5664 0,-2.80469 -1.75391,-5.19532 -4.22657,-6.13672"
       id="path29526" />
    <path
       fill-rule="nonzero"
       fill="#e7e7e7"
       fill-opacity="1"
       d="m 447.73437,279.96094 c 0,15.10156 -12.24218,27.34375 -27.34375,27.34375 -15.10156,0 -27.34375,-12.24219 -27.34375,-27.34375 0,-15.10547 12.24219,-27.34766 27.34375,-27.34766 15.10157,0 27.34375,12.24219 27.34375,27.34766"
       id="path29528" />
    <path
       fill-rule="nonzero"
       fill="#fafafa"
       fill-opacity="1"
       d="m 433.69531,270.26562 c -3.67578,-3.67187 -9.6289,-3.67187 -13.30469,0 -3.67187,-3.67187 -9.6289,-3.67187 -13.30468,0 -3.67578,3.67579 -3.67578,9.63282 0,13.30469 l 13.30468,13.30469 13.30469,-13.30469 c 3.67188,-3.67187 3.67188,-9.6289 0,-13.30469"
       id="path29530" />
    <path
       fill-rule="nonzero"
       fill="#f5f5f5"
       fill-opacity="1"
       d="m 172.12891,53.265625 c 0.043,-4.898437 4.02343,-8.855469 8.92968,-8.855469 1.1836,0 2.3125,0.234375 3.34375,0.648438 C 186.15625,41.472656 189.83984,39 194.10156,39 c 5.15625,0 9.46485,3.617188 10.53516,8.449219 4.84765,0.308594 8.68359,4.339844 8.68359,9.265625 0,5.128906 -4.15625,9.289062 -9.28906,9.289062 h -29.55469 c -3.63672,0 -6.58594,-2.949218 -6.58594,-6.585937 0,-2.808594 1.76172,-5.207031 4.23829,-6.152344"
       id="path29532" />
    <path
       fill-rule="nonzero"
       fill="#f5f5f5"
       fill-opacity="1"
       d="m 443.89062,416.23828 c 0,6.25391 -86.80859,11.32422 -193.89062,11.32422 -107.08203,0 -193.890625,-5.07031 -193.890625,-11.32422 0,-6.25391 86.808595,-11.32422 193.890625,-11.32422 107.08203,0 193.89062,5.07031 193.89062,11.32422"
       id="path29552" />
  </g>
  <g
     id="g36293"
     transform="translate(-33.417969,-73.371094)">
    <path
       fill-rule="nonzero"
       fill="rgb(96.078491%, 96.078491%, 96.078491%)"
       fill-opacity="1"
       d="m 46.347656,350.91406 v -21.64062 c 0,-2.77344 2.269532,-5.04297 5.042969,-5.04297 H 96.71875 c 2.773438,0 5.04297,2.26953 5.04297,5.04297 v 21.64062 c 0,2.77344 -2.269532,5.04297 -5.04297,5.04297 H 51.390625 c -2.773437,0 -5.042969,-2.26953 -5.042969,-5.04297"
       id="path29534"
       inkscape:label="편지봉투"
       style="fill:#7a98f0;fill-opacity:1" />
    <path
       fill-rule="nonzero"
       fill="#ffffff"
       fill-opacity="1"
       d="m 74.054688,344.86719 c -0.1875,0 -0.371094,-0.0508 -0.535157,-0.15625 l -23.28125,-14.73828 c -0.472656,-0.29688 -0.609375,-0.91797 -0.3125,-1.38672 0.296875,-0.47266 0.917969,-0.60938 1.386719,-0.3125 l 22.742188,14.39843 22.742187,-14.39843 c 0.472656,-0.29688 1.09375,-0.16016 1.390625,0.3125 0.296875,0.46875 0.15625,1.08984 -0.3125,1.38672 l -23.28125,14.73828 c -0.164062,0.10547 -0.351562,0.15625 -0.539062,0.15625"
       id="path29536"
       inkscape:label="편지봉투선" />
    <path
       fill-rule="nonzero"
       fill="rgb(94.117737%, 94.117737%, 94.117737%)"
       fill-opacity="1"
       d="m 40.84375,156.28516 h 35.570313 c 4.082031,0 7.421875,3.33984 7.421875,7.42187 v 28.21094 l -6.90625,-6.90625 H 40.84375 c -4.085937,0 -7.425781,-3.34375 -7.425781,-7.42578 v -13.87891 c 0,-4.08203 3.339844,-7.42187 7.425781,-7.42187"
       id="path29538"
       inkscape:label="왼말풍선"
       style="fill:#3e4b99;fill-opacity:1" />
    <g
       id="g31112"
       inkscape:label="왼말">
      <path
         fill-rule="nonzero"
         fill="#ffffff"
         fill-opacity="1"
         d="m 42.078125,166.45703 h 33.613281 c 0.679688,0 1.238282,-0.55859 1.238282,-1.23828 0,-0.67969 -0.558594,-1.23828 -1.238282,-1.23828 H 42.078125 c -0.679687,0 -1.234375,0.55859 -1.234375,1.23828 0,0.67969 0.554688,1.23828 1.234375,1.23828"
         id="path29540" />
      <path
         fill-rule="nonzero"
         fill="#ffffff"
         fill-opacity="1"
         d="m 42.078125,172.15625 h 33.613281 c 0.679688,0 1.238282,-0.55859 1.238282,-1.23828 0,-0.67969 -0.558594,-1.23828 -1.238282,-1.23828 H 42.078125 c -0.679687,0 -1.234375,0.55859 -1.234375,1.23828 0,0.67969 0.554688,1.23828 1.234375,1.23828"
         id="path29542" />
      <path
         fill-rule="nonzero"
         fill="#ffffff"
         fill-opacity="1"
         d="m 53.523438,177.85547 h 22.167968 c 0.679688,0 1.238282,-0.5586 1.238282,-1.23828 0,-0.67969 -0.558594,-1.23828 -1.238282,-1.23828 H 53.523438 c -0.679688,0 -1.238282,0.55859 -1.238282,1.23828 0,0.67968 0.558594,1.23828 1.238282,1.23828"
         id="path29544" />
    </g>
    <path
       fill-rule="nonzero"
       fill="rgb(96.078491%, 96.078491%, 96.078491%)"
       fill-opacity="1"
       d="m 434.68359,73.371094 h -40.63672 c -4.66406,0 -8.48046,3.816406 -8.48046,8.480469 v 25.730467 l 7.89062,-7.89453 h 41.22656 c 4.66407,0 8.48047,-3.8125 8.48047,-8.480469 v -9.355468 c 0,-4.664063 -3.8164,-8.480469 -8.48047,-8.480469"
       id="path29546"
       inkscape:label="오른말풍선"
       style="fill:#fcdfd8;fill-opacity:1" />
    <g
       id="g31116"
       inkscape:label="오른말">
      <path
         fill-rule="nonzero"
         fill="rgb(90.588379%, 90.588379%, 90.588379%)"
         fill-opacity="1"
         d="m 433.26953,84.992188 h -38.39844 c -0.77734,0 -1.41406,-0.636719 -1.41406,-1.414063 0,-0.777344 0.63672,-1.414062 1.41406,-1.414062 h 38.39844 c 0.77734,0 1.41406,0.636718 1.41406,1.414062 0,0.777344 -0.63672,1.414063 -1.41406,1.414063"
         id="path29548"
         style="fill:#ffffff;fill-opacity:1" />
      <path
         fill-rule="nonzero"
         fill="rgb(90.588379%, 90.588379%, 90.588379%)"
         fill-opacity="1"
         d="m 420.19531,91.515625 h -25.32422 c -0.77734,0 -1.41406,-0.636719 -1.41406,-1.414062 0,-0.777344 0.63672,-1.414063 1.41406,-1.414063 h 25.32422 c 0.77735,0 1.41406,0.636719 1.41406,1.414063 0,0.777343 -0.63671,1.414062 -1.41406,1.414062"
         id="path29550"
         style="fill:#ffffff;fill-opacity:1" />
    </g>
    <g
       id="g32081"
       inkscape:label="왼사람">
      <path
         fill-rule="nonzero"
         fill="#ffffff"
         fill-opacity="1"
         d="m 200.05078,267.44141 c 0,30.05859 -18.15234,55.89062 -44.10156,67.10937 -5.23047,2.25781 -10.77735,3.92969 -16.5586,4.91797 -4.03906,0.69141 -8.1914,1.05078 -12.42187,1.05078 -1.42969,0 -2.84766,-0.0391 -4.25781,-0.12891 -4.99219,-0.28125 -9.83985,-1.05859 -14.5,-2.30078 -31.269534,-8.28125 -54.320315,-36.78125 -54.320315,-70.64843 0,-40.35938 32.71875,-73.08204 73.078125,-73.08204 40.35937,0 73.08203,32.72266 73.08203,73.08204"
         id="path29554"
         style="display:inline;fill:#f8b940;fill-opacity:1"
         inkscape:label="왼배경" />
      <path
         fill-rule="nonzero"
         fill="#1a2e35"
         fill-opacity="1"
         d="m 148.12891,229.83203 h 0.0312 c -8.30079,-2.99219 1.87109,-17.84375 -13.07032,-24.62109 -15.28906,-6.94922 -30.76171,2.3789 -27.85937,10.22656 -5.03125,1.43359 -6.35156,13.57422 -0.21875,19.24219 -1.97266,2.55078 -3.15234,5.73047 -3.15234,9.1914 0,7.71875 5.80859,14.06641 13.28125,14.92969 h 0.0195 c 0.0508,0.0195 0.10156,0.0195 0.14062,0.0195 h 0.008 c 0.51954,0.0586 1.04297,0.0899 1.58204,0.0899 0.85937,0 1.69921,-0.0703 2.51953,-0.22266 h 0.008 c 0.80078,-0.12891 1.59375,-0.32813 2.34375,-0.59766 h 0.008 c 2.83203,-0.96875 5.26953,-2.76953 7.05078,-5.08984 1.73047,2.25 4.08985,4 6.8086,4.98828 L 137.6411,258 c 0.1875,0.0586 0.3711,0.12891 0.57032,0.17969 0.66015,0.21875 1.34765,0.39062 2.05078,0.5 0.80859,0.14062 1.6289,0.21093 2.47656,0.21093 1.20313,0 2.37109,-0.14062 3.49219,-0.41015 6.62109,-1.57031 11.55078,-7.51953 11.55078,-14.62891 0,-6.40234 -4.01172,-11.85156 -9.65234,-14.01953"
         id="path29556"
         style="display:inline;fill:#222b40;fill-opacity:1"
         inkscape:label="머리" />
      <path
         fill-rule="nonzero"
         fill="#ff8c7b"
         fill-opacity="1"
         d="m 114.07031,272.58984 c -0.0312,-0.67187 -0.0586,-1.23047 -0.1289,-2.05859 -0.26172,-2.91016 -2.78125,-5.13281 -5.72266,-4.98047 -2.73047,0.14063 -4.88672,2.25 -5.16797,4.86719 -0.0117,0.0117 -0.0117,0.0234 0,0.0312 -0.0391,0.28125 -0.0391,0.5625 -0.0312,0.83984 l 0.0117,0.23047 c 0.0195,0.32031 0.0391,0.91016 0.0391,1.39063 l 0.0117,1.55859 c 0,1.04297 -0.043,2.10937 -0.10156,3.17187 -0.0898,1.67969 -0.23047,3.37891 -0.42969,5.0586 -0.0508,0.4414 -0.10156,0.89062 -0.16015,1.33203 -0.5586,4.25781 -1.42188,8.48047 -2.64063,12.59766 -0.289062,1.03125 -0.660156,2.03906 -0.96875,3.07031 -0.332031,1.01953 -0.742187,2.01172 -1.109375,3.01953 L 97.25,303.87109 c -0.101562,0.25 -0.199219,0.42969 -0.199219,0.48828 -0.160156,-0.0391 -0.339843,-0.10937 -0.53125,-0.21093 -0.699218,-0.3086 -1.5,-0.82813 -2.289062,-1.41797 -1.582031,-1.16797 -3.242188,-2.71094 -4.710938,-4.16797 l -0.128906,-0.12109 c -0.05859,-0.0508 -0.101562,-0.0899 -0.160156,-0.15235 h -0.01172 c -0.777344,-0.64062 -1.867187,-0.83984 -2.859375,-0.41015 -1.378906,0.60937 -2.019531,2.23046 -1.410156,3.62109 0.472656,1.0625 0.960937,1.98047 1.511719,2.92969 0.07813,0.14843 0.167968,0.30078 0.257812,0.44922 0.632813,1.08984 1.371094,2.14062 2.191406,3.18359 0.839844,1.02734 1.78125,2.04687 3,3.01562 1.21875,0.92188 2.730469,1.9336 5.089844,2.29297 1.179688,0.14844 2.570313,0.0391 3.832031,-0.4414 1.25781,-0.46094 2.29688,-1.21094 3.08985,-1.96875 0.79687,-0.76172 1.35937,-1.54297 1.82812,-2.29297 0.23047,-0.36719 0.44141,-0.73828 0.62109,-1.09766 0.0977,-0.1914 0.16797,-0.35156 0.23047,-0.49219 0.008,-0.008 0,-0.008 0,-0.008 0.0586,-0.1289 0.11719,-0.24219 0.17969,-0.3789 1.05859,-2.23047 2.01953,-4.5 2.83984,-6.82032 0.17969,-0.5 0.34766,-1 0.51954,-1.51172 0.0898,-0.25781 0.17968,-0.53125 0.25781,-0.79687 1.23047,-3.77344 2.15234,-7.63281 2.77344,-11.54297 0.0195,-0.14844 0.0469,-0.28906 0.0664,-0.44141 0.0508,-0.33984 0.10156,-0.67968 0.15235,-1.01562 v -0.0742 c 0.0312,-0.16016 0.0586,-0.33984 0.0781,-0.50781 v -0.0312 c 0.26172,-1.89844 0.44141,-3.8086 0.53125,-5.73047 0.0195,-0.34766 0.0391,-0.70703 0.0508,-1.05859 0.0391,-0.89063 0.0586,-1.78125 0.0586,-2.67188 0.0117,-0.62891 -0.008,-1.25781 -0.0391,-1.89844"
         id="path29558"
         style="display:inline;fill:#fcdfd8;fill-opacity:1"
         inkscape:label="피부" />
      <path
         fill-rule="nonzero"
         fill="#007cff"
         fill-opacity="1"
         d="m 108.16797,260.58984 c 8.05078,-3.72265 13.35547,12.28907 11.90234,25.41016 -11.43359,1.60937 -20.992185,-5.33203 -20.992185,-5.33203 0,0 -0.316406,-15.72656 9.089845,-20.07813"
         id="path29560"
         style="display:inline;fill:#7a98f0;fill-opacity:1"
         inkscape:label="티셔츠" />
      <path
         fill-rule="nonzero"
         fill="#007cff"
         fill-opacity="1"
         d="m 103.05469,268.64453 c -0.10938,7.96484 1.05078,24.13672 6.38672,56.94922 h 43.50781 c -0.66406,-16.07422 -0.74219,-26.55469 5.58203,-55.54297 1.14844,-5.27344 -2.46484,-10.39062 -7.81641,-11.07812 -2.63281,-0.33985 -5.5664,-0.63672 -8.53125,-0.77735 -7.32031,-0.35156 -13.3164,-0.58594 -19.7539,0 -4.03125,0.3711 -8.32422,1.00781 -11.71485,1.57422 -4.35937,0.73047 -7.59765,4.45703 -7.66015,8.875"
         id="path29562"
         style="display:inline;fill:#7a98f0;fill-opacity:1"
         inkscape:label="티셔츠" />
      <g
         mask="url(#mask-0)"
         id="g29566"
         style="display:inline"
         inkscape:label="티셔츠명암">
        <use
           xlink:href="#source-6032741"
           transform="translate(147,274)"
           id="use29564" />
      </g>
      <path
         fill-rule="nonzero"
         fill="rgb(100%, 54.902649%, 48.234558%)"
         fill-opacity="1"
         d="m 86.152344,291.53906 -3.890625,-4.47265 c -1.042969,-1.19922 -2.984375,-0.86329 -3.5625,0.61718 l -2.257813,5.76172 c -0.273437,0.69922 -0.15625,1.49219 0.304688,2.07813 l 3.921875,4.99609 c 0,0 3.199219,3.94922 7.640625,4.26172 l 1.710937,-4.73828 z m 0,0"
         id="path29568"
         inkscape:label="피부"
         style="fill:#fcdfd8;fill-opacity:1" />
      <path
         fill-rule="nonzero"
         fill="#ffffff"
         fill-opacity="1"
         d="m 118.6875,275.14062 1.03516,1.59766 1.64453,-0.95703 c 8.73047,-5.05859 14.69531,-10.62109 17.47265,-13.48828 1.10547,-1.14063 1.57422,-2.69922 1.375,-4.1875 -6.44531,-0.29688 -11.9375,-0.44141 -17.78515,0.0898 -1.67578,0.15235 -3.39453,0.35547 -5.07813,0.57813 -0.10156,0.12109 -0.21093,0.23437 -0.29687,0.36328 -1.35547,1.96875 -3.90625,7.46875 1.63281,16.0039"
         id="path29570"
         style="display:inline"
         inkscape:label="티셔츠깃" />
      <path
         fill-rule="nonzero"
         fill="#ff8c7b"
         fill-opacity="1"
         d="m 136.74219,236.74609 c -0.98047,5.66797 -1.86719,15.51172 1.1289,20.54297 0.69141,1.16016 0.47266,2.64453 -0.46875,3.61328 -2.73047,2.81641 -8.53125,8.21875 -17.03906,13.14844 -4.8125,-7.41406 -2.90234,-11.97656 -1.66406,-13.78125 0.35547,-0.51562 0.875,-0.90625 1.47266,-1.09766 6.30078,-2.01562 5.97265,-7.07031 4.67578,-11.80468 z m 0,0"
         id="path29572"
         style="display:inline;fill:#fcdfd8;fill-opacity:1"
         inkscape:label="피부" />
      <g
         mask="url(#mask-1)"
         id="g29576"
         style="display:inline"
         inkscape:label="피부명암">
        <use
           xlink:href="#source-6032744"
           transform="translate(124,241)"
           id="use29574" />
      </g>
      <path
         fill-rule="nonzero"
         fill="#ff8c7b"
         fill-opacity="1"
         d="m 137.67187,219.36719 c 2.64844,10.30078 3.98829,14.60156 0.5625,21.43359 -5.14843,10.27344 -18.37109,11.27344 -24.04296,1.97656 -5.10157,-8.37109 -8.57422,-23.80468 0.008,-31.01953 8.45703,-7.10937 20.82422,-2.6875 23.47265,7.60938"
         id="path29578"
         style="display:inline;fill:#fcdfd8;fill-opacity:1"
         inkscape:label="피부" />
      <path
         fill-rule="nonzero"
         fill="#1a2e35"
         fill-opacity="1"
         d="m 130.25,215.32422 c 1.75,7.25 9.20312,11.21484 9.20312,11.21484 0,0 3.22657,-5.63281 1.01172,-11.21484 -2.21484,-5.58594 -10.21484,0 -10.21484,0"
         id="path29580"
         style="display:inline;fill:#222b40;fill-opacity:1"
         inkscape:label="머리" />
      <path
         fill-rule="nonzero"
         fill="#1a2e35"
         fill-opacity="1"
         d="m 135.50391,220.28516 c -2.32813,2.4375 -2.01563,6.24218 -2.01563,6.24218 0,0 2.92969,-0.14843 4.51172,-2.35547 1.58203,-2.20312 -2.49609,-3.88671 -2.49609,-3.88671"
         id="path29582"
         style="display:inline;fill:#222b40;fill-opacity:1"
         inkscape:label="머리" />
      <path
         fill-rule="nonzero"
         fill="#1a2e35"
         fill-opacity="1"
         d="m 109.69531,215.48828 c -2.09765,6.75 31.60547,4.5 28.58203,-1 -3.02734,-5.5 -10.85937,-8.33203 -15.90234,-7.83203 -5.04297,0.5 -11.0625,4.08203 -12.67969,8.83203"
         id="path29586"
         style="display:inline;fill:#222b40;fill-opacity:1"
         inkscape:label="머리" />
      <path
         fill-rule="nonzero"
         fill="#1a2e35"
         fill-opacity="1"
         d="m 110.94922,213.71484 c -2.60938,0.55078 -4.24609,10.5 -2.5625,10 1.68359,-0.49609 11.62109,-11.90625 2.5625,-10"
         id="path29588"
         style="display:inline;fill:#222b40;fill-opacity:1"
         inkscape:label="머리" />
      <path
         fill-rule="nonzero"
         fill="#1a2e35"
         fill-opacity="1"
         d="m 141.30078,325.58984 c 0,0 -0.10156,0.69141 -0.28125,1.96094 -0.30859,2.27734 -0.89062,6.4375 -1.62891,11.91797 -4.03906,0.69141 -8.1914,1.05078 -12.42187,1.05078 -1.42969,0 -2.84766,-0.0391 -4.25781,-0.12891 -4.99219,-0.28125 -9.83985,-1.0625 -14.5,-2.30078 0.46094,-4.78906 0.82031,-8.46093 1.02734,-10.53906 0.13281,-1.26953 0.20313,-1.96094 0.20313,-1.96094 z m 0,0"
         id="path29590"
         style="display:inline;fill:#ff4a60;fill-opacity:1"
         inkscape:label="바지" />
      <path
         fill-rule="nonzero"
         fill="#1a2e35"
         fill-opacity="1"
         d="m 153.80078,327.55078 c 0.87109,2.14063 1.57031,4.48047 2.14844,7 -5.23047,2.26172 -10.77735,3.92969 -16.5586,4.91797 -4.03906,0.69141 -8.1914,1.05078 -12.42187,1.05078 -1.42969,0 -2.84766,-0.0391 -4.25781,-0.12891 -0.73047,-5.91015 -1.26953,-10.42968 -1.55078,-12.83984 -0.14844,-1.26953 -0.23047,-1.96094 -0.23047,-1.96094 h 32.01953 c 0.30078,0.62891 0.58984,1.28907 0.85156,1.96094"
         id="path29596"
         style="display:inline;fill:#ff4a60;fill-opacity:1"
         inkscape:label="바지" />
      <path
         fill-rule="nonzero"
         fill="#ff8c7b"
         fill-opacity="1"
         d="m 141.71484,226.04297 c 0.22266,2.1914 -0.58593,4.28515 -1.7539,5.67187 -1.75391,2.08203 -4.16016,0.88282 -4.95313,-1.57422 -0.71094,-2.21093 -0.66015,-5.96093 1.71875,-7.15234 2.34375,-1.16797 4.73438,0.54688 4.98828,3.05469"
         id="path29612"
         style="display:inline;fill:#fcdfd8;fill-opacity:1"
         inkscape:label="피부" />
      <path
         fill-rule="nonzero"
         fill="#ff8c7b"
         fill-opacity="1"
         d="m 162.53125,284.14062 c -0.44141,-2.38281 -0.94141,-4.75 -1.49219,-7.08984 -0.1875,-0.82031 -0.39062,-1.63281 -0.58984,-2.44141 -0.55078,-2.1289 -1.08985,-4.21093 -1.71094,-6.32031 v -0.008 c -0.29687,-1.02344 -0.61719,-2.03906 -0.96875,-3.08984 -0.91016,-2.77344 -3.87109,-4.36329 -6.69922,-3.55079 -2.91015,0.82813 -4.60156,3.85938 -3.76172,6.76954 l 0.0195,0.082 c 0.6211,2.19922 1.28125,4.48828 1.89063,6.78906 0.17969,0.67969 0.35937,1.36719 0.53125,2.04687 0.46094,1.80079 0.89844,3.61329 1.32812,5.41407 0.28125,1.17578 0.55079,2.35937 0.8125,3.53906 0.19922,0.91797 0.39063,1.82812 0.57032,2.75 0.41797,2.07031 0.80078,4.12891 1.1289,6.1875 0.0586,0.42187 0.1211,0.85156 0.17969,1.27344 0.21094,1.54687 0.40234,3.08593 0.53906,4.60937 -0.33984,-0.0391 -0.6875,-0.10156 -1.03906,-0.17187 -0.14844,-0.0312 -0.30078,-0.0586 -0.44922,-0.0899 -2.46875,-0.55859 -5.14844,-1.4414 -7.78125,-2.42968 -2.64062,-0.98047 -5.30078,-2.08204 -7.94922,-3.21094 -2.53906,-1.0586 -5.07812,-2.21875 -7.57031,-3.33985 -0.12109,-0.0469 -0.23828,-0.10937 -0.35937,-0.16015 l -0.0508,-0.0195 c -1.14062,-0.51172 -2.51953,-0.1875 -3.30078,0.85937 -0.89843,1.20313 -0.64843,2.91016 0.5625,3.8125 0.32032,0.23828 0.64063,0.47656 0.96875,0.69922 h 0.0117 c 2.11719,1.55078 4.27735,2.95703 6.46875,4.36719 2.55078,1.58984 5.14844,3.10156 7.8711,4.52344 2.73046,1.3789 5.50781,2.71875 8.69921,3.73828 0.75,0.23047 1.5,0.44922 2.3086,0.63281 0.94922,0.21875 1.99219,0.38672 3.1914,0.44531 1.12891,0.0234 2.4375,0.0312 4.19922,-0.70703 0.85938,-0.38281 1.83203,-0.98047 2.60938,-1.90234 0.78125,-0.89063 1.28125,-1.95703 1.55078,-2.91797 0.0781,-0.33203 0.14062,-0.69141 0.14844,-1.03906 V 304 c 0.15234,-6.89844 -0.69922,-13.4375 -1.86719,-19.85938"
         id="path29618"
         style="display:inline;fill:#fcdfd8;fill-opacity:1"
         inkscape:label="피부" />
      <path
         fill-rule="nonzero"
         fill="rgb(0%, 48.626709%, 100%)"
         fill-opacity="1"
         d="m 148.66406,258.72656 c 8.81641,0.98047 11.23047,3.6875 15.75391,16.09375 -9.53125,6.51563 -18.77344,10.55078 -18.77344,10.55078 0,0 -7.28125,-27.79297 3.01953,-26.64453"
         id="path29620"
         inkscape:label="티셔츠"
         style="fill:#7a98f0;fill-opacity:1" />
      <path
         fill-rule="nonzero"
         fill="rgb(10.195923%, 18.03894%, 20.783997%)"
         fill-opacity="1"
         d="m 153.59766,323.03906 1.11328,3.89844 c 0.15234,0.30078 -0.20313,0.60937 -0.70703,0.60937 h -44.77735 c -0.39453,0 -0.71875,-0.19531 -0.74218,-0.4414 l -0.39454,-3.89063 c -0.0273,-0.27343 0.31641,-0.5 0.74219,-0.5 h 44.05859 c 0.32422,0 0.60938,0.13282 0.70704,0.32422"
         id="path29622"
         inkscape:label="벨트"
         style="fill:#222b40;fill-opacity:1" />
      <g
         id="g31826"
         inkscape:label="벨트고정">
        <path
           fill-rule="nonzero"
           fill="#1a2e35"
           fill-opacity="1"
           d="m 147.68359,327.96875 h 1.17969 c 0.23438,0 0.41406,-0.12109 0.39844,-0.26953 l -0.55469,-5.0586 c -0.0156,-0.15234 -0.22266,-0.27343 -0.45703,-0.27343 h -1.17969 c -0.23437,0 -0.41406,0.12109 -0.39844,0.27343 l 0.55469,5.0586 c 0.0156,0.14844 0.22266,0.26953 0.45703,0.26953"
           id="path29624"
           style="display:inline;fill:#ff4a60;fill-opacity:1" />
        <path
           fill-rule="nonzero"
           fill="rgb(10.195923%, 18.03894%, 20.783997%)"
           fill-opacity="1"
           d="m 112.54297,327.96875 h 1.17969 c 0.23437,0 0.41406,-0.12109 0.39843,-0.26953 l -0.55468,-5.0586 c -0.0156,-0.15234 -0.22266,-0.27343 -0.45703,-0.27343 h -1.17969 c -0.23438,0 -0.41406,0.12109 -0.39844,0.27343 l 0.55469,5.0586 c 0.0156,0.14844 0.22265,0.26953 0.45703,0.26953"
           id="path29630"
           style="fill:#ff4a60;fill-opacity:1" />
        <path
           fill-rule="nonzero"
           fill="rgb(10.195923%, 18.03894%, 20.783997%)"
           fill-opacity="1"
           d="m 130.11328,327.96875 h 1.17969 c 0.23437,0 0.41406,-0.12109 0.39844,-0.26953 l -0.55469,-5.0586 c -0.0156,-0.15234 -0.22266,-0.27343 -0.45703,-0.27343 H 129.5 c -0.23438,0 -0.41406,0.12109 -0.39844,0.27343 l 0.55469,5.0586 c 0.0156,0.14844 0.22266,0.26953 0.45703,0.26953"
           id="path29636"
           style="fill:#ff4a60;fill-opacity:1" />
      </g>
      <path
         fill-rule="nonzero"
         fill="#000000"
         fill-opacity="1"
         d="m 120.75781,298.59375 h -8.70312 c -0.85156,0 -1.59766,-0.58594 -1.79297,-1.41406 l -4.37109,-18.2461 c -0.22266,-0.92578 0.4375,-1.77734 1.3789,-1.77734 h 8.6875 c 0.86328,0 1.61328,0.59375 1.8125,1.43359 l 4.36719,18.22657 c 0.22266,0.92578 -0.4375,1.77734 -1.37891,1.77734"
         id="path29642"
         style="display:inline;fill:#3e4b99;fill-opacity:1"
         inkscape:label="폰" />
      <path
         fill-rule="nonzero"
         fill="rgb(10.195923%, 18.03894%, 20.783997%)"
         fill-opacity="1"
         d="m 119.72656,298.59375 h -8.68359 c -0.86719,0 -1.61719,-0.59375 -1.81641,-1.43359 l -4.36718,-18.22657 c -0.22266,-0.92578 0.4375,-1.77734 1.3789,-1.77734 h 8.6875 c 0.86328,0 1.61328,0.59375 1.81641,1.43359 l 4.36719,18.22657 c 0.22265,0.92578 -0.4375,1.77734 -1.38282,1.77734"
         id="path29644"
         inkscape:label="폰"
         style="fill:#3e4b99;fill-opacity:1" />
      <path
         fill-rule="nonzero"
         fill="rgb(100%, 54.902649%, 48.234558%)"
         fill-opacity="1"
         d="m 130.0625,296.58984 -0.25781,-4.41406 -6.23438,-7.08984 c -0.91406,-1.03907 -2.14843,-1.74219 -3.50781,-1.9961 l -4.00391,-0.7539 c -1.41406,-0.26563 -2.70703,0.84375 -2.66406,2.27734 l 0.17188,5.67188 c 0.0273,0.88671 0.57031,1.67187 1.39062,2.01171 l 7.04688,2.91407 v -0.004 c 1.90234,1.10938 5.30468,2.63281 8.05859,1.38281"
         id="path29646"
         inkscape:label="피부"
         style="fill:#fcdfd8;fill-opacity:1" />
      <path
         fill-rule="nonzero"
         fill="#007cff"
         fill-opacity="1"
         d="m 126.96875,194.85937 c -40.019531,0 -72.578125,32.5586 -72.578125,72.57813 0,40.01953 32.558594,72.57812 72.578125,72.57812 40.01953,0 72.57812,-32.55859 72.57812,-72.57812 0,-40.01953 -32.55859,-72.57813 -72.57812,-72.57813 m 0,146.15625 c -40.574219,0 -73.578125,-33.00781 -73.578125,-73.57812 0,-40.57031 33.003906,-73.57813 73.578125,-73.57813 40.57031,0 73.57812,33.00782 73.57812,73.57813 0,40.57031 -33.00781,73.57812 -73.57812,73.57812"
         id="path29650"
         style="display:inline;fill:#f8b940;fill-opacity:1"
         inkscape:label="배경틀" />
    </g>
    <g
       id="g33203"
       inkscape:label="오른사람">
      <path
         fill-rule="nonzero"
         fill="#ffffff"
         fill-opacity="1"
         d="m 446.10937,196.33984 c 0,34.57032 -24.00781,63.53907 -56.26953,71.12891 -5.39062,1.28125 -11.01953,1.94922 -16.80859,1.94922 -12.28125,0 -23.85156,-3.02735 -34.01172,-8.37891 -23.23047,-12.23828 -39.07031,-36.62109 -39.07031,-64.69922 0,-40.35937 32.71875,-73.07812 73.08203,-73.07812 40.35937,0 73.07812,32.71875 73.07812,73.07812"
         id="path29652"
         style="display:inline;fill:#ff4a60;fill-opacity:1"
         inkscape:label="배경" />
      <path
         fill-rule="nonzero"
         fill="#1a2e35"
         fill-opacity="1"
         d="m 370.41406,143.91797 c -8.96875,-4.69141 -14.25,6.97265 -12.08203,15.14062 2.16797,8.16797 7.83203,13.35938 7.83203,13.35938 0,0 8.5625,-12.35156 8.59375,-18.14844 0.043,-7.18359 -0.99609,-8.60156 -4.34375,-10.35156"
         id="path29654"
         style="display:inline;fill:#3e4b99;fill-opacity:1"
         inkscape:label="머리" />
      <path
         fill-rule="nonzero"
         fill="#1a2e35"
         fill-opacity="1"
         d="m 365.23047,169.11328 c -0.28125,-1.77734 -5.5,-0.64062 -4.21485,1.28516 1.28125,1.92578 4.34766,-0.44922 4.21485,-1.28516"
         id="path29656"
         style="display:inline;fill:#3e4b99;fill-opacity:1"
         inkscape:label="머리" />
      <path
         fill-rule="nonzero"
         fill="#1a2e35"
         fill-opacity="1"
         d="m 364.79687,169.37109 c -1.65625,-0.71875 -3.49218,4.30078 -1.17968,4.2461 2.3164,-0.0508 1.95312,-3.91016 1.17968,-4.2461"
         id="path29658"
         style="display:inline;fill:#3e4b99;fill-opacity:1"
         inkscape:label="머리" />
      <path
         fill-rule="nonzero"
         fill="rgb(10.195923%, 18.03894%, 20.783997%)"
         fill-opacity="1"
         d="m 367.92969,145.94531 c -4.17578,-4.13672 5.54687,-7.6914 15.01562,-6.02734 9.47266,1.66797 12.54297,9.97265 9.20703,14.04297 -2.65625,3.23828 -19.08593,-2.92969 -24.22265,-8.01563"
         id="path29660"
         inkscape:label="머리"
         style="fill:#3e4b99;fill-opacity:1" />
      <path
         fill-rule="nonzero"
         fill="rgb(10.195923%, 18.03894%, 20.783997%)"
         fill-opacity="1"
         d="m 367.54297,143.46094 c 1.49219,-1.01172 -1.75391,-5.25391 -2.95313,-3.26953 -1.19922,1.97656 2.25391,3.74218 2.95313,3.26953"
         id="path29662"
         inkscape:label="머리"
         style="fill:#3e4b99;fill-opacity:1" />
      <path
         fill-rule="nonzero"
         fill="#1a2e35"
         fill-opacity="1"
         d="m 395.39844,223.14062 c -0.0274,0.92969 -0.0586,1.89063 -0.0977,2.86719 -0.0312,0.53125 -0.0508,1.08203 -0.082,1.63281 -0.0781,1.42969 -0.16797,2.89844 -0.27734,4.41016 -0.043,0.64063 -0.0899,1.27734 -0.15235,1.92969 0,0.0898 -0.008,0.17969 -0.0195,0.26953 -0.0508,0.66016 -0.10156,1.32812 -0.16797,2.00781 -0.22265,2.45313 -0.49219,5 -0.8125,7.64063 -0.87109,7.16406 -2.14844,15.01953 -3.94922,23.57031 -5.39062,1.28125 -11.01953,1.94922 -16.80859,1.94922 -12.28125,0 -23.85156,-3.02735 -34.01172,-8.37891 0.57031,-4.76953 1.32031,-10.97656 1.94141,-18.16015 0.33984,-3.89844 0.64843,-8.09766 0.86718,-12.5 0.0117,-0.32813 0.0312,-0.66797 0.043,-1 0.0469,-1.06641 0.0977,-2.14844 0.14063,-3.23829 0.0195,-0.67187 0.0391,-1.33984 0.0586,-2.01953 0.0312,-0.91015 0.0508,-1.83203 0.0703,-2.76172 l 0.0274,-2.28125 v -0.95703 c 0.0117,-0.51172 0.0117,-1.03125 0.0117,-1.55078 0,-1.75 -0.0195,-3.50781 -0.0586,-5.28906 v -0.0898 c -0.10156,-4.60157 -0.33984,-9.29297 -0.76172,-14.02344 -0.0195,-0.27735 -0.0391,-0.56641 -0.0703,-0.84766 -0.21875,-2.3789 0.55078,-4.6289 1.96094,-6.33984 1.48047,-1.8125 3.69141,-3.01953 6.21094,-3.17969 0.0508,0 0.10937,0 0.16015,-0.0117 1.14844,-0.0703 2.37891,-0.12109 3.61719,-0.16015 1.13281,-0.0273 2.28125,-0.0508 3.42969,-0.0391 h 0.65234 c 0.60938,0.0117 1.25781,0.0195 1.91797,0.0391 0.70313,0.0195 1.42969,0.0391 2.17188,0.0625 0.62109,0.008 1.23828,0.0273 1.87109,0.0508 3.55859,0.1289 7.34766,0.32812 10.67969,0.6289 0.21875,0.0195 0.4375,0.0391 0.64843,0.0586 1.28125,0.12109 2.46875,0.26172 3.55079,0.41015 0.21093,0.0312 0.41796,0.0586 0.62109,0.0898 0.86719,0.13281 1.73047,0.28125 2.57031,0.44922 0.13672,0.0195 0.27735,0.0508 0.41016,0.082 1.3789,0.26953 2.69922,0.57031 3.92969,0.85937 4.30859,1.05078 7.4375,2.1211 7.4375,2.1211 0,0 0.0117,0.0195 0.0195,0.0586 0.11328,0.46094 0.86328,3.53125 1.48047,9.10156 0.42187,3.8086 0.78906,8.79688 0.85156,14.90625 v 0.0117 c 0.0312,2.37109 0.008,4.91016 -0.082,7.62109"
         id="path29664"
         style="display:inline;fill:#222b40;fill-opacity:1"
         inkscape:label="티셔츠" />
      <path
         fill-rule="nonzero"
         fill="#ffc4be"
         fill-opacity="1"
         d="m 411.19141,243.28516 c -0.0899,-1.32813 -0.26954,-2.20313 -0.46875,-3.05079 -0.41797,-1.75781 -0.77735,-2.73046 -1.15235,-4.0039 l -2.21484,-7.33594 -4.42969,-14.73047 c -1.48047,-4.91015 -3.01172,-9.83203 -4.58984,-14.6875 l -13.71485,4.16016 c 1.42969,5.01562 2.97657,9.94922 4.6211,14.875 1.63281,4.92578 3.33984,9.82812 5.14453,14.71484 0.10156,0.28125 0.20703,0.5586 0.30859,0.83594 l -4.63672,4.13281 c 1.36328,2.4375 2.86328,4.63281 4.60547,6.84375 0.89453,1.08203 1.79688,2.1875 2.95313,3.26953 0.58203,0.55078 1.20703,1.10938 2.0664,1.71094 0.44922,0.30078 0.94141,0.625 1.70703,0.95313 0.19141,0.082 0.38672,0.16406 0.65235,0.24609 l 0.375,0.11719 0.47656,0.10937 c 0.61719,0.125 1.5625,0.25391 2.83203,0 0.33985,-0.0703 0.67578,-0.16797 1.00391,-0.28906 0.36719,-0.14063 0.73047,-0.32031 1.07422,-0.52344 0.66015,-0.39062 1.35937,-1.01562 1.76562,-1.53906 0.95703,-1.22656 1.19141,-2.12109 1.41016,-2.92188 0.3125,-1.46484 0.23047,-2.17968 0.21094,-2.88671"
         id="path29666"
         style="display:inline;fill:#fcdfd8;fill-opacity:1"
         inkscape:label="피부" />
      <path
         fill-rule="nonzero"
         fill="#1a2e35"
         fill-opacity="1"
         d="m 383.48437,196.78906 c -3.70312,8.2461 7.99219,31.87891 7.99219,31.87891 l 15.88281,-4.375 c 0,0 0.58594,-14.07031 -5.32031,-24.16406 -6.05859,-10.36719 -14.48828,-12.38672 -18.55469,-3.33985"
         id="path29668"
         style="display:inline;fill:#222b40;fill-opacity:1"
         inkscape:label="티셔츠" />
      <path
         fill-rule="nonzero"
         fill="#007cff"
         fill-opacity="1"
         d="m 384.27734,190.53906 c -0.41406,-1.08203 -1.3789,-1.85547 -2.51562,-2.08203 -0.13281,-0.0273 -0.26953,-0.0547 -0.41016,-0.0781 -0.84375,-0.16797 -1.70312,-0.31641 -2.57422,-0.45313 -5.82812,-0.89844 -15.6289,-1.26172 -22.10547,-1.33984 0,0.004 0,0.004 0,0.008 l 2.04297,2.44922 c 2.73828,3.25781 7.83203,9.32422 17.35157,10.51953 0.71875,0.0898 1.40234,0.13672 2.03515,0.13672 3.70313,0 5.3711,-1.57422 6.1211,-2.89453 1.08203,-1.91016 0.82421,-4.25391 0.0547,-6.26563"
         id="path29670"
         style="display:inline;fill:#7a98f0;fill-opacity:1"
         inkscape:label="티셔츠깃" />
      <g
         mask="url(#mask-7)"
         id="g29674"
         style="display:inline"
         inkscape:label="티셔츠명암">
        <use
           xlink:href="#source-6032762"
           transform="translate(341,207)"
           id="use29672" />
      </g>
      <path
         fill-rule="nonzero"
         fill="#ffc4be"
         fill-opacity="1"
         d="m 365.12891,173.59375 c 0.34375,4.96094 -0.53516,10.23828 -4.28907,13.65234 -0.3164,0.29297 -0.37109,0.77344 -0.0898,1.10157 3.35156,3.91796 7.80469,8.25781 15.56641,9.23046 7.9414,0.9961 7.27343,-4.4375 5.48046,-7.64453 -0.0898,-0.16406 -0.24609,-0.28515 -0.42578,-0.34765 -6.43359,-2.29297 -5.71093,-6.73047 -4.95703,-11.60938 0.16016,-1.03125 -0.35937,-2.04687 -1.28906,-2.52344 l -7.19531,-3.69921 c -1.33203,-0.6836 -2.90625,0.34375 -2.80078,1.83984"
         id="path29676"
         style="display:inline;fill:#fcdfd8;fill-opacity:1"
         inkscape:label="피부" />
      <g
         mask="url(#mask-8)"
         id="g29680"
         inkscape:label="피부명암">
        <use
           xlink:href="#source-6032765"
           transform="translate(368,177)"
           id="use29678" />
      </g>
      <path
         fill-rule="nonzero"
         fill="#ffc4be"
         fill-opacity="1"
         d="m 367.00781,154.74609 c -2.66015,8.9961 -4.67969,14.125 -1.8789,20.26172 4.21484,9.22656 16.54296,9.15235 21.83984,1.13281 4.76953,-7.21875 8.32422,-20.71875 0.98437,-27.35937 -7.23046,-6.53906 -18.28125,-3.03125 -20.94531,5.96484"
         id="path29682"
         style="display:inline;fill:#fcdfd8;fill-opacity:1"
         inkscape:label="피부" />
      <path
         fill-rule="nonzero"
         fill="#1a2e35"
         fill-opacity="1"
         d="m 364.85156,163.39453 c 6.36719,3.39063 14.97656,-18.99219 5.78516,-18.99219 -9.1875,0 -8.76563,17.40235 -5.78516,18.99219"
         id="path29684"
         style="display:inline;fill:#3e4b99;fill-opacity:1"
         inkscape:label="머리" />
      <path
         fill-rule="nonzero"
         fill="#ffc4be"
         fill-opacity="1"
         d="m 360.25,159.52344 c -0.0859,2.52734 1.00391,4.85937 2.44922,6.35547 2.17187,2.25 4.03125,0.55468 4.74609,-2.32032 0.64453,-2.58984 1.09766,-6.74218 -1.71875,-7.91797 -2.76953,-1.16015 -5.3789,0.98829 -5.47656,3.88282"
         id="path29686"
         style="display:inline;fill:#fcdfd8;fill-opacity:1"
         inkscape:label="피부" />
      <path
         fill-rule="nonzero"
         fill="#ffc4be"
         fill-opacity="1"
         d="m 372.59766,218.88281 c -3.19922,1.375 -6.44532,2.84375 -9.69532,4.15235 -3.23828,1.35937 -6.48437,2.66406 -9.71093,3.86718 -3.22657,1.17969 -6.45704,2.31641 -9.54688,3.0625 -0.6875,0.17188 -1.375,0.32422 -2.03516,0.44922 0.27344,-1.04297 0.57422,-2.08984 0.91407,-3.14453 0.96875,-3.01953 2.25781,-6.02734 3.64843,-9.01562 1.42969,-2.97657 2.99219,-5.9375 4.67579,-8.83985 0.82812,-1.46094 1.6914,-2.90625 2.58203,-4.32422 l 1.35156,-2.10937 c 0.42969,-0.67578 0.92969,-1.4375 1.30078,-1.98047 l -11.59766,-8.41797 c -0.66796,0.90625 -1.17187,1.625 -1.72656,2.43359 -0.53125,0.79297 -1.04297,1.58985 -1.54687,2.39063 -1.01172,1.60156 -1.98047,3.21875 -2.91797,4.85937 -1.84375,3.30079 -3.53906,6.70313 -5.02735,10.23829 -1.5,3.53125 -2.76953,7.20703 -3.75781,11.05468 -0.5039,1.91407 -0.88281,3.89453 -1.17187,5.91797 -0.0742,0.50391 -0.14453,1.00781 -0.19141,1.52735 l -0.082,0.76953 -0.0391,0.38281 -0.0469,0.67969 c -0.0586,0.88281 -0.004,2.02734 0.29297,3.26172 0.31641,1.27734 1.01563,2.75 2.08984,3.92187 1.08204,1.20313 2.35157,1.91406 3.45704,2.35156 1.13671,0.44922 2.04296,0.57813 2.91796,0.6875 1.67579,0.14844 2.96875,0.008 4.16797,-0.16797 2.3711,-0.375 4.3125,-0.99218 6.20703,-1.64453 3.73047,-1.375 7.11719,-2.95312 10.40625,-4.67968 6.57422,-3.42969 12.67969,-7.28907 18.66016,-11.55469 z m 0,0"
         id="path29700"
         style="display:inline;fill:#fcdfd8;fill-opacity:1"
         inkscape:label="피부" />
      <path
         fill-rule="nonzero"
         fill="rgb(10.195923%, 18.03894%, 20.783997%)"
         fill-opacity="1"
         d="m 347.87109,187.21875 c -8.96093,1.18359 -16.20312,27.47266 -16.20312,27.47266 l 18.08203,5.89453 c 0,0 2.73047,-5.61328 8.28906,-15.88672 6.05469,-11.19141 0.6875,-18.91016 -10.16797,-17.48047"
         id="path29702"
         inkscape:label="티셔츠"
         style="fill:#222b40;fill-opacity:1" />
      <path
         fill-rule="nonzero"
         fill="rgb(100%, 76.863098%, 74.510193%)"
         fill-opacity="1"
         d="m 383.26172,214.06641 -4.53906,-0.27344 c -0.80469,-0.0469 -1.59766,0.21875 -2.20704,0.74609 l -6.54687,5.64844 2.57031,5.12891 c 3.83203,2.69921 10.20703,-3.35938 10.20703,-3.35938 l 2.33203,-0.55469 c 1.83204,-0.43359 2.66407,-2.5625 1.61719,-4.125 l -1.35937,-2.02343 c -0.46875,-0.69922 -1.23438,-1.13672 -2.07422,-1.1875"
         id="path29704"
         inkscape:label="피부"
         style="fill:#fcdfd8;fill-opacity:1" />
      <path
         fill-rule="nonzero"
         fill="#ffffff"
         fill-opacity="1"
         d="m 388.91016,236.20312 -7.67579,-1.17187 c -0.79296,-0.12109 -1.26171,-0.95703 -0.94921,-1.69531 l 7.5664,-18.03125 c 0.21875,-0.52344 0.76563,-0.82813 1.32422,-0.74219 l 7.67578,1.17187 c 0.79297,0.1211 1.26172,0.95704 0.94922,1.69922 l -7.56641,18.02735 c -0.21875,0.52343 -0.76562,0.82812 -1.32421,0.74218"
         id="path29706"
         style="display:inline;fill:#f8b940;fill-opacity:1"
         inkscape:label="폰" />
      <path
         fill-rule="nonzero"
         fill="rgb(0%, 48.626709%, 100%)"
         fill-opacity="1"
         d="m 389.94531,236.34375 -7.67578,-1.17188 c -0.79297,-0.12109 -1.26172,-0.95703 -0.94922,-1.69531 l 7.56641,-18.03125 c 0.21875,-0.52344 0.76562,-0.82812 1.32422,-0.74219 l 7.67578,1.17188 c 0.79297,0.12109 1.26172,0.95703 0.94922,1.69922 l -7.56641,18.03125 c -0.21875,0.51953 -0.76562,0.82812 -1.32422,0.73828"
         id="path29708"
         inkscape:label="폰"
         style="fill:#f8b940;fill-opacity:1" />
      <path
         fill-rule="nonzero"
         fill="#ffc4be"
         fill-opacity="1"
         d="m 396.87109,234.375 -7.92578,-9.60156 -4.41406,9.8164 c 0,0 2.61719,3.67969 6.94531,4.2461 z m 0,0"
         id="path29710"
         inkscape:label="피부"
         style="display:inline;fill:#fcdfd8;fill-opacity:1" />
      <path
         fill-rule="nonzero"
         fill="rgb(100%, 76.863098%, 74.510193%)"
         fill-opacity="1"
         d="m 379.92187,226.125 0.46875,3.24219 c 0.14454,1.01172 0.62891,1.9375 1.375,2.63672 l 2.76563,2.58593 4.41406,-9.8164 -6.14062,-1.33594 c -1.63672,-0.35156 -3.1211,1.03125 -2.88282,2.6875"
         id="path29712"
         inkscape:label="피부"
         style="fill:#fcdfd8;fill-opacity:1" />
      <path
         fill-rule="nonzero"
         fill="#1a2e35"
         fill-opacity="1"
         d="m 381.16406,150.03906 c -2.625,5.74219 14.82031,12.52344 14.80078,4.41406 -0.0195,-8.10937 -13.57031,-7.10156 -14.80078,-4.41406"
         id="path29714"
         style="display:inline;fill:#3e4b99;fill-opacity:1"
         inkscape:label="머리" />
      <path
         fill-rule="nonzero"
         fill="#1a2e35"
         fill-opacity="1"
         d="m 370.35937,146.6875 c -2.26562,6.84766 29.42188,10.53516 27.86719,1.48047 -1.55859,-9.05469 -26.80859,-4.6875 -27.86719,-1.48047"
         id="path29716"
         style="display:inline;fill:#3e4b99;fill-opacity:1"
         inkscape:label="머리" />
      <path
         fill-rule="nonzero"
         fill="rgb(10.195923%, 18.03894%, 20.783997%)"
         fill-opacity="1"
         d="m 379.80078,148.64844 c 2.62891,5.74218 19.16406,-3.02735 13.01172,-8.31641 -6.14844,-5.28516 -14.24219,5.62891 -13.01172,8.31641"
         id="path29718"
         inkscape:label="머리"
         style="fill:#3e4b99;fill-opacity:1" />
      <path
         fill-rule="nonzero"
         fill="rgb(0%, 48.626709%, 100%)"
         fill-opacity="1"
         d="m 373.03125,123.75781 c -40.01953,0 -72.57813,32.5586 -72.57813,72.57813 0,40.01953 32.5586,72.57812 72.57813,72.57812 40.01953,0 72.57812,-32.55859 72.57812,-72.57812 0,-40.01953 -32.55859,-72.57813 -72.57812,-72.57813 m 0,146.15625 c -40.57031,0 -73.57813,-33.00781 -73.57813,-73.57812 0,-40.57032 33.00782,-73.57813 73.57813,-73.57813 40.57422,0 73.57812,33.00781 73.57812,73.57813 0,40.57031 -33.0039,73.57812 -73.57812,73.57812"
         id="path29720"
         inkscape:label="배경틀"
         style="fill:#ff4a60;fill-opacity:1" />
    </g>
    <path
       fill-rule="nonzero"
       fill="#007cff"
       fill-opacity="1"
       d="m 180.25391,133.47266 h -1.05469 V 120.625 c 0,-8.90234 7.24219,-16.14844 16.14844,-16.14844 v 1.05469 c -8.32422,0 -15.09375,6.76953 -15.09375,15.09375 z m 0,0"
       id="path29722"
       style="display:inline;fill:#3e4b99;fill-opacity:1"
       inkscape:label="떨림선" />
    <path
       fill-rule="nonzero"
       fill="rgb(0%, 48.626709%, 100%)"
       fill-opacity="1"
       d="m 180.25391,149.73828 h -1.05469 v -8.33203 h 1.05469 z m 0,0"
       id="path29724"
       inkscape:label="떨림선"
       style="fill:#3e4b99;fill-opacity:1" />
    <path
       fill-rule="nonzero"
       fill="#ffffff"
       fill-opacity="1"
       d="M 304.65234,352.14453 H 195.34766 c -6.94141,0 -12.6211,-5.67969 -12.6211,-12.62109 V 120.625 c 0,-6.94141 5.67969,-12.62109 12.6211,-12.62109 h 109.30468 c 6.94141,0 12.6211,5.67968 12.6211,12.62109 v 218.89844 c 0,6.9414 -5.67969,12.62109 -12.6211,12.62109"
       id="path29726"
       style="display:inline;fill:#fcfbf8;fill-opacity:1"
       inkscape:label="폰배경" />
    <path
       fill-rule="nonzero"
       fill="#007cff"
       fill-opacity="1"
       d="m 195.34766,108.53125 c -6.66797,0 -12.09766,5.42578 -12.09766,12.09375 v 218.89453 c 0,6.67188 5.42969,12.09766 12.09766,12.09766 h 109.30468 c 6.66797,0 12.09375,-5.42578 12.09375,-12.09766 V 120.625 c 0,-6.66797 -5.42578,-12.09375 -12.09375,-12.09375 z M 304.65234,352.67187 H 195.34766 c -7.25,0 -13.14844,-5.90234 -13.14844,-13.15234 V 120.625 c 0,-7.25 5.89844,-13.14844 13.14844,-13.14844 h 109.30468 c 7.25,0 13.14844,5.89844 13.14844,13.14844 v 218.89453 c 0,7.25 -5.89844,13.15234 -13.14844,13.15234"
       id="path29728"
       style="display:inline;fill:#3e4b99;fill-opacity:1"
       inkscape:label="폰틀" />
    <path
       fill-rule="nonzero"
       fill="#007cff"
       fill-opacity="1"
       d="M 304.65234,108.00391 H 195.34766 c -6.94141,0 -12.6211,5.67968 -12.6211,12.62109 h 134.54688 c 0,-6.94141 -5.67969,-12.62109 -12.6211,-12.62109"
       id="path29730"
       style="display:inline;fill:#3e4b99;fill-opacity:1"
       inkscape:label="폰상단바" />
    <path
       fill-rule="nonzero"
       fill="#ffffff"
       fill-opacity="1"
       d="m 203.35937,114.31641 c 0,2.11328 -1.71484,3.82812 -3.83203,3.82812 -2.11328,0 -3.82812,-1.71484 -3.82812,-3.82812 0,-2.11719 1.71484,-3.83203 3.82812,-3.83203 2.11719,0 3.83203,1.71484 3.83203,3.83203"
       id="path29732"
       style="display:inline"
       inkscape:label="카메라" />
    <g
       id="g33424"
       inkscape:label="메뉴점">
      <path
         fill-rule="nonzero"
         fill="#ffffff"
         fill-opacity="1"
         d="m 302.32422,114.31641 c 0,0.47656 -0.38672,0.86328 -0.86328,0.86328 -0.48047,0 -0.86719,-0.38672 -0.86719,-0.86328 0,-0.48047 0.38672,-0.86719 0.86719,-0.86719 0.47656,0 0.86328,0.38672 0.86328,0.86719"
         id="path29734" />
      <path
         fill-rule="nonzero"
         fill="#ffffff"
         fill-opacity="1"
         d="m 302.32422,117.42578 c 0,0.47656 -0.38672,0.86328 -0.86328,0.86328 -0.48047,0 -0.86719,-0.38672 -0.86719,-0.86328 0,-0.47656 0.38672,-0.86328 0.86719,-0.86328 0.47656,0 0.86328,0.38672 0.86328,0.86328"
         id="path29736" />
      <path
         fill-rule="nonzero"
         fill="#ffffff"
         fill-opacity="1"
         d="m 302.32422,111.20313 c 0,0.48046 -0.38672,0.86718 -0.86328,0.86718 -0.48047,0 -0.86719,-0.38672 -0.86719,-0.86718 0,-0.47657 0.38672,-0.86329 0.86719,-0.86329 0.47656,0 0.86328,0.38672 0.86328,0.86329"
         id="path29738" />
    </g>
    <g
       mask="url(#mask-9)"
       id="g29742"
       inkscape:label="제목">
      <use
         xlink:href="#source-6032768"
         transform="translate(206,112)"
         id="use29740" />
    </g>
    <path
       fill-rule="nonzero"
       fill="rgb(0%, 48.626709%, 100%)"
       fill-opacity="1"
       d="m 304.83984,167.70703 h -68.63281 c -2.51562,0 -4.55469,-2.03906 -4.55469,-4.55469 v -25.1289 c 0,-2.51172 2.03907,-4.55078 4.55469,-4.55078 h 68.63281 c 2.51563,0 4.55469,2.03906 4.55469,4.55078 v 25.1289 c 0,2.51563 -2.03906,4.55469 -4.55469,4.55469"
       id="path29744"
       inkscape:label="오른메세지"
       style="fill:#ff4a60;fill-opacity:1" />
    <path
       fill-rule="nonzero"
       fill="rgb(88.235474%, 88.235474%, 88.235474%)"
       fill-opacity="1"
       d="m 263.79297,193.17578 h -68.63281 c -2.51563,0 -4.55469,-2.03906 -4.55469,-4.55469 v -8.83203 c 0,-2.51562 2.03906,-4.55469 4.55469,-4.55469 h 68.63281 c 2.51562,0 4.55469,2.03907 4.55469,4.55469 v 8.83203 c 0,2.51563 -2.03907,4.55469 -4.55469,4.55469"
       id="path29746"
       inkscape:label="왼메세지"
       style="fill:#f8b940;fill-opacity:1" />
    <path
       fill-rule="nonzero"
       fill="rgb(88.235474%, 88.235474%, 88.235474%)"
       fill-opacity="1"
       d="m 263.79297,285.47266 h -68.63281 c -2.51563,0 -4.55469,-2.03907 -4.55469,-4.55469 v -50.1875 c 0,-2.51563 2.03906,-4.55469 4.55469,-4.55469 h 68.63281 c 2.51562,0 4.55469,2.03906 4.55469,4.55469 v 50.1875 c 0,2.51562 -2.03907,4.55469 -4.55469,4.55469"
       id="path29748"
       inkscape:label="왼메세지"
       style="fill:#f8b940;fill-opacity:1" />
    <path
       fill-rule="nonzero"
       fill="rgb(0%, 48.626709%, 100%)"
       fill-opacity="1"
       d="m 304.83984,310.18359 h -27.45312 c -2.51563,0 -4.55469,-2.03515 -4.55469,-4.55468 v -8.83204 c 0,-2.51562 2.03906,-4.55468 4.55469,-4.55468 h 27.45312 c 2.51563,0 4.55469,2.03906 4.55469,4.55468 v 8.83204 c 0,2.51953 -2.03906,4.55468 -4.55469,4.55468"
       id="path29750"
       inkscape:label="오른쓰는중"
       style="fill:#ff4a60;fill-opacity:1" />
    <g
       id="g33429"
       inkscape:label="쓰는중점">
      <path
         fill-rule="nonzero"
         fill="#ffffff"
         fill-opacity="1"
         d="m 293.42187,300.04687 c 0,1.27344 -1.03515,2.3086 -2.30859,2.3086 -1.27344,0 -2.30859,-1.03516 -2.30859,-2.3086 0,-1.27343 1.03515,-2.30859 2.30859,-2.30859 1.27344,0 2.30859,1.03516 2.30859,2.30859"
         id="path29752" />
      <path
         fill-rule="nonzero"
         fill="#ffffff"
         fill-opacity="1"
         d="m 285.76562,301.21484 c 0,1.27344 -1.03125,2.30469 -2.30859,2.30469 -1.27344,0 -2.30469,-1.03125 -2.30469,-2.30469 0,-1.27343 1.03125,-2.30859 2.30469,-2.30859 1.27734,0 2.30859,1.03516 2.30859,2.30859"
         id="path29754" />
      <path
         fill-rule="nonzero"
         fill="#ffffff"
         fill-opacity="1"
         d="m 301.07422,302.37891 c 0,1.27343 -1.03125,2.30859 -2.30469,2.30859 -1.27344,0 -2.30859,-1.03516 -2.30859,-2.30859 0,-1.27344 1.03515,-2.30469 2.30859,-2.30469 1.27344,0 2.30469,1.03125 2.30469,2.30469"
         id="path29756" />
    </g>
    <path
       fill-rule="nonzero"
       fill="rgb(0%, 48.626709%, 100%)"
       fill-opacity="1"
       d="m 304.83984,218.64844 h -68.63281 c -2.51562,0 -4.55469,-2.03907 -4.55469,-4.55469 v -8.83594 c 0,-2.51562 2.03907,-4.55469 4.55469,-4.55469 h 68.63281 c 2.51563,0 4.55469,2.03907 4.55469,4.55469 v 8.83594 c 0,2.51562 -2.03906,4.55469 -4.55469,4.55469"
       id="path29758"
       inkscape:label="오른메세지"
       style="fill:#ff4a60;fill-opacity:1" />
    <path
       fill-rule="nonzero"
       fill="rgb(0%, 48.626709%, 100%)"
       fill-opacity="1"
       d="m 198.94531,340.09375 c 0,-2.30469 -1.86719,-4.17188 -4.17187,-4.17188 -2.30078,0 -4.16797,1.86719 -4.16797,4.17188 0,2.30469 1.86719,4.17187 4.16797,4.17187 2.30468,0 4.17187,-1.86718 4.17187,-4.17187"
       id="path29760"
       inkscape:label="아래점"
       style="fill:#3e4b99;fill-opacity:1" />
    <path
       fill-rule="nonzero"
       fill="rgb(88.235474%, 88.235474%, 88.235474%)"
       fill-opacity="1"
       d="m 211.55469,340.09375 c 0,-2.30469 -1.86719,-4.17188 -4.17188,-4.17188 -2.30078,0 -4.16797,1.86719 -4.16797,4.17188 0,2.30469 1.86719,4.17187 4.16797,4.17187 2.30469,0 4.17188,-1.86718 4.17188,-4.17187"
       id="path29762"
       inkscape:label="아래점"
       style="fill:#7a98f0;fill-opacity:1" />
    <path
       fill-rule="nonzero"
       fill="rgb(92.549133%, 92.549133%, 92.549133%)"
       fill-opacity="1"
       d="m 224.16016,340.09375 c 0,-2.30469 -1.86719,-4.17188 -4.16797,-4.17188 -2.30469,0 -4.17188,1.86719 -4.17188,4.17188 0,2.30469 1.86719,4.17187 4.17188,4.17187 2.30078,0 4.16797,-1.86718 4.16797,-4.17187"
       id="path29764"
       inkscape:label="아래점"
       style="fill:#f2efeb;fill-opacity:1" />
    <path
       fill-rule="nonzero"
       fill="rgb(92.549133%, 92.549133%, 92.549133%)"
       fill-opacity="1"
       d="M 305.22266,344.26562 H 271.125 c -2.29297,0 -4.17188,-1.8789 -4.17188,-4.17187 0,-2.29297 1.87891,-4.17188 4.17188,-4.17188 h 34.09766 c 2.29296,0 4.17187,1.87891 4.17187,4.17188 0,2.29297 -1.87891,4.17187 -4.17187,4.17187"
       id="path29766"
       inkscape:label="아래바"
       style="fill:#f2efeb;fill-opacity:1" />
    <path
       fill-rule="nonzero"
       fill="#007cff"
       fill-opacity="1"
       d="M 317.27344,323.55859 H 182.72656 v -1.05468 h 134.54688 z m 0,0"
       id="path29768"
       inkscape:label="구분선" />
  </g>
  <g
     id="g12634"
     transform="matrix(2.2247593,0,0,2.0398515,31.763498,476.52675)"
     style="display:inline"
     inkscape:label="컬러파레트">
    <rect
       style="fill:#222b40;fill-opacity:1;fill-rule:evenodd;stroke-width:3;paint-order:stroke fill markers"
       id="rect354"
       width="19.680723"
       height="31.489157"
       x="5.3674703"
       y="7.1566262" />
    <rect
       style="fill:#583bac;fill-opacity:1;fill-rule:evenodd;stroke-width:3;paint-order:stroke fill markers"
       id="rect1238"
       width="22.185541"
       height="30.057831"
       x="28.984335"
       y="7.1566267" />
    <rect
       style="fill:#3e4b99;fill-opacity:1;fill-rule:evenodd;stroke-width:3;paint-order:stroke fill markers"
       id="rect1499"
       width="18.607229"
       height="36.140961"
       x="57.610844"
       y="7.5144577" />
    <rect
       style="fill:#f8b940;fill-opacity:1;fill-rule:evenodd;stroke-width:3;paint-order:stroke fill markers"
       id="rect1691"
       width="17.533735"
       height="36.856625"
       x="83.732529"
       y="6.4409637" />
    <rect
       style="fill:#fcdfd8;fill-opacity:1;fill-rule:evenodd;stroke-width:3;paint-order:stroke fill markers"
       id="rect1745"
       width="17.891565"
       height="34.709637"
       x="106.99156"
       y="7.1566267" />
    <rect
       style="fill:#f8f6f1;fill-opacity:1;fill-rule:evenodd;stroke-width:3;paint-order:stroke fill markers"
       id="rect1868"
       width="21.469879"
       height="36.856625"
       x="130.96626"
       y="7.5144577" />
    <rect
       style="fill:#f2efeb;fill-opacity:1;fill-rule:evenodd;stroke-width:3;paint-order:stroke fill markers"
       id="rect2060"
       width="15.744578"
       height="39.719276"
       x="157.80362"
       y="6.0831323" />
    <rect
       style="fill:#ff4a60;fill-opacity:1;fill-rule:evenodd;stroke-width:3;paint-order:stroke fill markers"
       id="rect3128"
       width="21.827711"
       height="32.204819"
       x="178.2"
       y="7.8722858" />
    <rect
       style="display:inline;fill:#7a98f0;fill-opacity:1;fill-rule:evenodd;stroke-width:0.479843;paint-order:stroke fill markers"
       id="rect7956"
       width="25.353401"
       height="25.942003"
       x="27.866465"
       y="2.9939137"
       transform="matrix(0.99997395,-0.00721779,0.00287625,0.99999586,0,0)" />
  </g>
</svg>
